<svg width="65" height="51" viewBox="0 0 65 51" fill="none" xmlns="http://www.w3.org/2000/svg">
<g clip-path="url(#clip0_806_768)">
<path fill-rule="evenodd" clip-rule="evenodd" d="M0 0H65V51H0V0Z" fill="#00247D"/>
<path d="M49.8088 11.3887V13.0004L52.8901 11.3887H49.8088Z" fill="white"/>
<path d="M50.4651 13.1799L49.5596 11.876L52.9579 11.2852L50.4651 13.1799Z" fill="white"/>
<path d="M49.8088 11.3887V13.0004L46.7276 11.3887H49.8088Z" fill="white"/>
<path d="M49.1523 13.1799L50.0579 11.876L46.6595 11.2852L49.1523 13.1799Z" fill="white"/>
<path d="M50.709 12.0571L49.2228 12.571L51.6402 15.107L50.709 12.0571Z" fill="white"/>
<path d="M49.2623 13.2812L50.1826 11.9595L51.7403 15.1581L49.2623 13.2812Z" fill="white"/>
<path d="M48.9294 12.041L50.4156 12.5549L49.8606 8.99116L48.9294 12.041Z" fill="white"/>
<path d="M50.7609 11.9729L49.3162 12.4551L49.7882 8.89132L50.7609 11.9729Z" fill="white"/>
<path d="M48.9084 12.0571L50.3947 12.571L47.9773 15.107L48.9084 12.0571Z" fill="white"/>
<path d="M50.3552 13.2812L49.4348 11.9595L47.8772 15.1581L50.3552 13.2812Z" fill="white"/>
<path d="M49.8088 11.7173V12.7823L51.8449 11.7173H49.8088Z" fill="#CC142B"/>
<path d="M50.2424 12.9007L49.644 12.0391L51.8896 11.6487L50.2424 12.9007Z" fill="#CC142B"/>
<path d="M49.8088 11.7173V12.7823L47.7728 11.7173H49.8088Z" fill="#CC142B"/>
<path d="M49.375 12.9007L49.9734 12.0391L47.7278 11.6487L49.375 12.9007Z" fill="#CC142B"/>
<path d="M50.4036 12.1582L49.4215 12.4978L51.0189 14.1735L50.4036 12.1582Z" fill="#CC142B"/>
<path d="M49.4477 12.9676L50.0559 12.0942L51.0852 14.2079L49.4477 12.9676Z" fill="#CC142B"/>
<path d="M49.228 12.1484L50.2101 12.488L49.8433 10.1331L49.228 12.1484Z" fill="#CC142B"/>
<path d="M50.438 12.1038L49.4834 12.4224L49.7953 10.0675L50.438 12.1038Z" fill="#CC142B"/>
<path d="M49.2139 12.1582L50.1959 12.4978L48.5985 14.1735L49.2139 12.1582Z" fill="#CC142B"/>
<path d="M50.1697 12.9676L49.5615 12.0942L48.5322 14.2079L50.1697 12.9676Z" fill="#CC142B"/>
<path d="M57.8896 18.8462L57.8823 20.2617L60.6242 18.8274L57.8896 18.8462Z" fill="white"/>
<path d="M58.4598 20.4213L57.6606 19.2705L60.6847 18.7257L58.4598 20.4213Z" fill="white"/>
<path d="M57.8823 18.8271L57.875 20.2426L55.1478 18.8459L57.8823 18.8271Z" fill="white"/>
<path d="M57.2915 20.4214L58.104 19.2515L55.0799 18.745L57.2915 20.4214Z" fill="white"/>
<path d="M58.6892 19.4219L57.3608 19.8846L59.512 22.1304L58.6892 19.4219Z" fill="white"/>
<path d="M57.3962 20.5177L58.2192 19.3354L59.5972 22.1818L57.3962 20.5177Z" fill="white"/>
<path d="M57.0999 19.4155L58.4138 19.8652L57.937 16.6939L57.0999 19.4155Z" fill="white"/>
<path d="M58.7297 19.3401L57.4358 19.7769L57.8724 16.6056L58.7297 19.3401Z" fill="white"/>
<path d="M57.0898 19.4219L58.4038 19.8715L56.2527 22.1435L57.0898 19.4219Z" fill="white"/>
<path d="M58.3686 20.503L57.5557 19.3354L56.1575 22.1818L58.3686 20.503Z" fill="white"/>
<path d="M57.8872 19.167L57.8826 20.0429L59.5794 19.1554L57.8872 19.167Z" fill="#CC142B"/>
<path d="M58.2401 20.1413L57.7456 19.4292L59.6169 19.0921L58.2401 20.1413Z" fill="#CC142B"/>
<path d="M57.8826 19.1553L57.878 20.0312L56.1904 19.1669L57.8826 19.1553Z" fill="#CC142B"/>
<path d="M57.517 20.1419L58.0198 19.418L56.1484 19.1045L57.517 20.1419Z" fill="#CC142B"/>
<path d="M58.3816 19.5229L57.5596 19.8093L58.8907 21.199L58.3816 19.5229Z" fill="#CC142B"/>
<path d="M57.5815 20.2013L58.0908 19.4697L58.9435 21.2311L57.5815 20.2013Z" fill="#CC142B"/>
<path d="M57.3984 19.519L58.2115 19.7973L57.9165 17.8349L57.3984 19.519Z" fill="#CC142B"/>
<path d="M58.4066 19.4724L57.606 19.7427L57.8761 17.7803L58.4066 19.4724Z" fill="#CC142B"/>
<path d="M57.3923 19.5234L58.2054 19.8017L56.8743 21.2076L57.3923 19.5234Z" fill="#CC142B"/>
<path d="M58.1835 20.1922L57.6804 19.4697L56.8152 21.2311L58.1835 20.1922Z" fill="#CC142B"/>
<path d="M40.4133 21.3145L40.405 22.9051L43.4863 21.2934L40.4133 21.3145Z" fill="white"/>
<path d="M41.054 23.0847L40.156 21.7915L43.5544 21.1793L41.054 23.0847Z" fill="white"/>
<path d="M40.405 21.2935L40.3967 22.8841L37.3321 21.3145L40.405 21.2935Z" fill="white"/>
<path d="M39.741 23.0847L40.6541 21.77L37.2557 21.2008L39.741 23.0847Z" fill="white"/>
<path d="M41.3118 21.9614L39.819 22.4814L42.2364 25.0052L41.3118 21.9614Z" fill="white"/>
<path d="M39.8585 23.1929L40.7834 21.8643L42.3319 25.0629L39.8585 23.1929Z" fill="white"/>
<path d="M39.5259 21.9546L41.0025 22.4599L40.4667 18.8961L39.5259 21.9546Z" fill="white"/>
<path d="M41.3573 21.8696L39.9033 22.3604L40.3939 18.7966L41.3573 21.8696Z" fill="white"/>
<path d="M39.5146 21.9614L40.9912 22.4667L38.5738 25.0199L39.5146 21.9614Z" fill="white"/>
<path d="M40.9514 23.1763L40.0378 21.8643L38.4667 25.0629L40.9514 23.1763Z" fill="white"/>
<path d="M40.4109 21.6353L40.4054 22.6863L42.4415 21.6213L40.4109 21.6353Z" fill="#CC142B"/>
<path d="M40.8341 22.8047L40.2407 21.9502L42.4863 21.5456L40.8341 22.8047Z" fill="#CC142B"/>
<path d="M40.4053 21.6211L40.3998 22.6722L38.3747 21.635L40.4053 21.6211Z" fill="#CC142B"/>
<path d="M39.9665 22.8048L40.5698 21.936L38.3242 21.5599L39.9665 22.8048Z" fill="#CC142B"/>
<path d="M41.0044 22.063L40.018 22.4066L41.6154 24.0743L41.0044 22.063Z" fill="#CC142B"/>
<path d="M40.0441 22.8765L40.6553 21.9985L41.6785 24.1122L40.0441 22.8765Z" fill="#CC142B"/>
<path d="M39.8245 22.0586L40.8002 22.3925L40.4461 20.0376L39.8245 22.0586Z" fill="#CC142B"/>
<path d="M41.0348 22.0019L40.074 22.3262L40.3982 19.9713L41.0348 22.0019Z" fill="#CC142B"/>
<path d="M39.8169 22.063L40.7926 22.3969L39.1952 24.084L39.8169 22.063Z" fill="#CC142B"/>
<path d="M40.7665 22.8655L40.1628 21.9985L39.1246 24.1122L40.7665 22.8655Z" fill="#CC142B"/>
<path d="M49.8088 36.8428V38.632L53.2294 36.8428H49.8088Z" fill="white"/>
<path d="M50.5375 38.8313L49.5322 37.3838L53.3048 36.7279L50.5375 38.8313Z" fill="white"/>
<path d="M49.8088 36.8428V38.632L46.3882 36.8428H49.8088Z" fill="white"/>
<path d="M49.0799 38.8313L50.0852 37.3838L46.3126 36.7279L49.0799 38.8313Z" fill="white"/>
<path d="M50.8076 37.5845L49.1577 38.155L51.8414 40.9702L50.8076 37.5845Z" fill="white"/>
<path d="M49.2019 38.9438L50.2236 37.4766L51.9528 41.0275L49.2019 38.9438Z" fill="white"/>
<path d="M48.8328 37.5669L50.4826 38.1374L49.8665 34.1811L48.8328 37.5669Z" fill="white"/>
<path d="M50.8658 37.4916L49.262 38.0269L49.7859 34.0706L50.8658 37.4916Z" fill="white"/>
<path d="M48.8093 37.5845L50.4592 38.155L47.7756 40.9702L48.8093 37.5845Z" fill="white"/>
<path d="M50.4153 38.9438L49.3936 37.4766L47.6644 41.0275L50.4153 38.9438Z" fill="white"/>
<path d="M49.8088 37.1709V38.4134L52.1843 37.1709H49.8088Z" fill="#CC142B"/>
<path d="M50.3148 38.5516L49.6167 37.5464L52.2366 37.0909L50.3148 38.5516Z" fill="#CC142B"/>
<path d="M49.8086 37.1709V38.4134L47.4332 37.1709H49.8086Z" fill="#CC142B"/>
<path d="M49.3026 38.5516L50.0007 37.5464L47.3809 37.0909L49.3026 38.5516Z" fill="#CC142B"/>
<path d="M50.5024 37.6865L49.3567 38.0827L51.2203 40.0377L50.5024 37.6865Z" fill="#CC142B"/>
<path d="M49.3874 38.6307L50.0969 37.6118L51.2978 40.0777L49.3874 38.6307Z" fill="#CC142B"/>
<path d="M49.1309 37.6738L50.2766 38.07L49.8487 35.3226L49.1309 37.6738Z" fill="#CC142B"/>
<path d="M50.5427 37.6215L49.429 37.9932L49.7928 35.2458L50.5427 37.6215Z" fill="#CC142B"/>
<path d="M49.115 37.6865L50.2607 38.0827L48.3971 40.0377L49.115 37.6865Z" fill="#CC142B"/>
<path d="M50.23 38.6307L49.5205 37.6118L48.3197 40.0777L50.23 38.6307Z" fill="#CC142B"/>
<path d="M0 0H32.5V25.5H0V0Z" fill="#012169"/>
<path d="M3.80859 0L16.1992 9.61563L28.5391 0H32.5V3.29375L20.3125 12.8031L32.5 22.2594V25.5H28.4375L16.25 15.9906L4.11328 25.5H0V22.3125L12.1367 12.8563L0 3.4V0H3.80859Z" fill="white"/>
<path d="M21.5312 14.9281L32.5 23.375V25.5L18.7383 14.9281H21.5312ZM12.1875 15.9906L12.4922 17.85L2.74219 25.5H0L12.1875 15.9906ZM32.5 0V0.159375L19.8555 10.1469L19.957 7.80938L29.9609 0H32.5ZM0 0L12.1367 9.35H9.08984L0 2.23125V0Z" fill="#C8102E"/>
<path d="M12.2383 0V25.5H20.3633V0H12.2383ZM0 8.5V17H32.5V8.5H0Z" fill="white"/>
<path d="M0 10.2531V15.3531H32.5V10.2531H0ZM13.8633 0V25.5H18.7383V0H13.8633Z" fill="#C8102E"/>
</g>
<defs>
<clipPath id="clip0_806_768">
<rect width="65" height="51" fill="white"/>
</clipPath>
</defs>
</svg>
