<svg width="65" height="51" viewBox="0 0 65 51" fill="none" xmlns="http://www.w3.org/2000/svg">
<g clip-path="url(#clip0_806_531)">
<path fill-rule="evenodd" clip-rule="evenodd" d="M-4.0625 0H69.0625V51H-4.0625V0Z" fill="#E70013"/>
<path fill-rule="evenodd" clip-rule="evenodd" d="M44.8589 25.4802C44.8589 28.8907 43.5638 32.1616 41.2586 34.5733C38.9533 36.9849 35.8268 38.3397 32.5667 38.3397C29.3065 38.3397 26.18 36.9849 23.8747 34.5733C21.5695 32.1616 20.2744 28.8907 20.2744 25.4802C20.2744 22.0696 21.5695 18.7987 23.8747 16.3871C26.18 13.9754 29.3065 12.6206 32.5667 12.6206C35.8268 12.6206 38.9533 13.9754 41.2586 16.3871C43.5638 18.7987 44.8589 22.0696 44.8589 25.4802V25.4802Z" fill="white"/>
<path fill-rule="evenodd" clip-rule="evenodd" d="M32.5665 34.0064C30.4519 33.9308 28.448 32.9989 26.9776 31.4072C25.5072 29.8154 24.6853 27.6884 24.6853 25.4749C24.6853 23.2614 25.5072 21.1344 26.9776 19.5426C28.448 17.9509 30.4519 17.019 32.5665 16.9434C33.6901 16.9434 34.9755 17.2223 35.8419 17.8896C29.8815 18.1188 28.3675 23.418 28.3675 25.5496C28.3675 27.6813 29.3292 32.4326 35.8419 33.1398C35.0992 33.6379 33.6901 34.0064 32.5665 34.0064Z" fill="#E70013"/>
<path fill-rule="evenodd" clip-rule="evenodd" d="M39.7459 29.066L36.042 27.6516L33.595 30.8789L33.7378 26.765L30.0435 25.3207L33.833 24.1852L33.9949 20.0713L36.2039 23.4879L39.9934 22.3922L37.5654 25.6295L39.7459 29.066Z" fill="#E70013"/>
</g>
<defs>
<clipPath id="clip0_806_531">
<rect width="65" height="51" fill="white"/>
</clipPath>
</defs>
</svg>
