<svg width="65" height="51" viewBox="0 0 65 51" fill="none" xmlns="http://www.w3.org/2000/svg">
<g clip-path="url(#clip0_802_45)">
<path d="M0 0H65V51H0V0Z" fill="#74ACDF"/>
<path d="M0 17H65V34H0V17Z" fill="white"/>
<path d="M32.188 25.6323L34.9667 31.9563C34.9667 31.9563 35.0155 32.0787 35.0935 32.0481C35.1715 32.0073 35.1227 31.8849 35.1227 31.8849L32.812 25.3569M32.7437 27.8253C32.7047 28.7841 33.2702 29.3145 33.202 30.1713C33.124 31.0383 33.5725 31.5177 33.6895 31.8543C33.787 32.1909 33.5725 32.3847 33.6602 32.4357C33.7577 32.4867 33.9527 32.2215 33.8942 31.7421C33.826 31.2729 33.4847 31.1301 33.5627 30.0795C33.6407 29.0289 33.1532 28.7841 33.2702 27.8355" fill="#F6B40E"/>
<path d="M32.188 25.6323L34.9667 31.9563C34.9667 31.9563 35.0155 32.0787 35.0935 32.0481C35.1715 32.0073 35.1227 31.8849 35.1227 31.8849L32.812 25.3569M32.7437 27.8253C32.7047 28.7841 33.2702 29.3145 33.202 30.1713C33.124 31.0383 33.5725 31.5177 33.6895 31.8543C33.787 32.1909 33.5725 32.3847 33.6602 32.4357C33.7577 32.4867 33.9527 32.2215 33.8942 31.7421C33.826 31.2729 33.4847 31.1301 33.5627 30.0795C33.6407 29.0289 33.1532 28.7841 33.2702 27.8355" stroke="#85340A" stroke-width="0.0869"/>
<path d="M32.1632 25.4971L32.4171 32.4522C32.4171 32.4522 32.4174 32.5848 32.5006 32.5877C32.5876 32.5813 32.5873 32.4487 32.5873 32.4487L32.8404 25.4925M31.8744 27.7457C31.4877 28.6159 31.8161 29.3323 31.4396 30.0966C31.0504 30.8663 31.2894 31.4888 31.2744 31.8466C31.2413 32.1966 30.9723 32.2898 31.0347 32.372C31.1061 32.4582 31.3833 32.2912 31.5046 31.8249C31.6132 31.3641 31.3501 31.0956 31.8065 30.1562C32.2629 29.2168 31.902 28.7954 32.3571 27.9659" fill="#F6B40E"/>
<path d="M32.1632 25.4971L32.4171 32.4522C32.4171 32.4522 32.4174 32.5848 32.5006 32.5877C32.5876 32.5813 32.5873 32.4487 32.5873 32.4487L32.8404 25.4925M31.8744 27.7457C31.4877 28.6159 31.8161 29.3323 31.4396 30.0966C31.0504 30.8663 31.2894 31.4888 31.2744 31.8466C31.2413 32.1966 30.9723 32.2898 31.0347 32.372C31.1061 32.4582 31.3833 32.2912 31.5046 31.8249C31.6132 31.3641 31.3501 31.0956 31.8065 30.1562C32.2629 29.2168 31.902 28.7954 32.3571 27.9659" stroke="#85340A" stroke-width="0.0869"/>
<path d="M32.1898 25.3627L29.8802 31.89C29.8802 31.89 29.832 32.0126 29.9078 32.0487C29.9906 32.0775 30.0388 31.9549 30.0388 31.9549L32.8172 25.6296M31.1005 27.3245C30.4249 27.9736 30.4663 28.767 29.8389 29.3224C29.1977 29.8777 29.1908 30.5485 29.046 30.873C28.8875 31.1832 28.6048 31.1615 28.6324 31.2625C28.6668 31.3707 28.984 31.3274 29.2667 30.9452C29.5355 30.5629 29.3908 30.2095 30.156 29.5243C30.9213 28.8391 30.742 28.3054 31.4659 27.7212" fill="#F6B40E"/>
<path d="M32.1898 25.3627L29.8802 31.89C29.8802 31.89 29.832 32.0126 29.9078 32.0487C29.9906 32.0775 30.0388 31.9549 30.0388 31.9549L32.8172 25.6296M31.1005 27.3245C30.4249 27.9736 30.4663 28.767 29.8389 29.3224C29.1977 29.8777 29.1908 30.5485 29.046 30.873C28.8875 31.1832 28.6048 31.1615 28.6324 31.2625C28.6668 31.3707 28.984 31.3274 29.2667 30.9452C29.5355 30.5629 29.3908 30.2095 30.156 29.5243C30.9213 28.8391 30.742 28.3054 31.4659 27.7212" stroke="#85340A" stroke-width="0.0869"/>
<path d="M32.2634 25.2489L27.7419 30.3548C27.7419 30.3548 27.6525 30.4487 27.7093 30.5124C27.7752 30.5722 27.8647 30.4782 27.8647 30.4782L32.7454 25.7467M30.5394 26.6253C29.6777 26.9545 29.4257 27.7041 28.6429 27.966C27.8474 28.2224 27.5957 28.8393 27.3432 29.0812C27.0833 29.3043 26.83 29.1711 26.8186 29.2755C26.8108 29.3892 27.1197 29.4762 27.5206 29.2362C27.9089 28.9907 27.9044 28.6062 28.8621 28.2795C29.8197 27.9529 29.8493 27.388 30.7319 27.1381" fill="#F6B40E"/>
<path d="M32.2634 25.2489L27.7419 30.3548C27.7419 30.3548 27.6525 30.4487 27.7093 30.5124C27.7752 30.5722 27.8647 30.4782 27.8647 30.4782L32.7454 25.7467M30.5394 26.6253C29.6777 26.9545 29.4257 27.7041 28.6429 27.966C27.8474 28.2224 27.5957 28.8393 27.3432 29.0812C27.0833 29.3043 26.83 29.1711 26.8186 29.2755C26.8108 29.3892 27.1197 29.4762 27.5206 29.2362C27.9089 28.9907 27.9044 28.6062 28.8621 28.2795C29.8197 27.9529 29.8493 27.388 30.7319 27.1381" stroke="#85340A" stroke-width="0.0869"/>
<path d="M32.9192 27.9885C32.968 28.9065 33.4652 29.3145 33.3677 30.1611C33.5822 29.4981 33.0655 28.9779 33.0947 27.9987M32.344 25.5711L34.2452 29.9163L32.656 25.4385" fill="#85340A"/>
<path d="M31.9768 27.9671C31.6861 28.8347 31.9962 29.4107 31.5965 30.1538C32.0372 29.6272 31.75 28.9397 32.1353 28.0467M32.3297 25.5034L32.4967 30.279L32.6664 25.5058" fill="#85340A"/>
<path d="M31.1141 27.57C30.5281 28.2552 30.6039 28.9115 29.9628 29.438C30.5626 29.1279 30.5488 28.3778 31.2313 27.707M32.3413 25.4351L30.7487 29.914L32.6515 25.5721" fill="#85340A"/>
<path d="M30.4626 26.8575C29.6705 27.2559 29.5005 27.8927 28.7155 28.1224C29.3831 28.076 29.6448 27.3775 30.5207 27.031M32.3773 25.3764L29.2675 28.8769L32.6138 25.6272" fill="#85340A"/>
<path d="M32.3735 25.1738L26.3285 28.0808C26.3285 28.0808 26.2115 28.1318 26.2407 28.2134C26.2797 28.295 26.3967 28.244 26.3967 28.244L32.6367 25.8266M30.2772 25.7552C29.3607 25.7144 28.8537 26.306 28.0347 26.2346C27.206 26.153 26.7477 26.6222 26.426 26.7446C26.1042 26.8466 25.919 26.6222 25.8702 26.714C25.8215 26.816 26.075 27.02 26.5332 26.9588C26.9817 26.8874 27.1182 26.5304 28.1225 26.612C29.1267 26.6936 29.3607 26.1836 30.2675 26.306" fill="#F6B40E"/>
<path d="M32.3735 25.1738L26.3285 28.0808C26.3285 28.0808 26.2115 28.1318 26.2407 28.2134C26.2797 28.295 26.3967 28.244 26.3967 28.244L32.6367 25.8266M30.2772 25.7552C29.3607 25.7144 28.8537 26.306 28.0347 26.2346C27.206 26.153 26.7477 26.6222 26.426 26.7446C26.1042 26.8466 25.919 26.6222 25.8702 26.714C25.8215 26.816 26.075 27.02 26.5332 26.9588C26.9817 26.8874 27.1182 26.5304 28.1225 26.612C29.1267 26.6936 29.3607 26.1836 30.2675 26.306" stroke="#85340A" stroke-width="0.0869"/>
<path d="M32.5024 25.148L25.8542 25.4137C25.8542 25.4137 25.7274 25.4139 25.7246 25.501C25.7308 25.592 25.8575 25.5918 25.8575 25.5918L32.5068 25.8565M30.353 24.8459C29.5212 24.4413 28.8364 24.7849 28.1059 24.3911C27.3701 23.9839 26.7751 24.2339 26.433 24.2182C26.0985 24.1836 26.0094 23.9021 25.9308 23.9674C25.8484 24.0422 26.008 24.3321 26.4538 24.459C26.8942 24.5726 27.1509 24.2974 28.0489 24.7749C28.9468 25.2523 29.3496 24.8748 30.1425 25.3509" fill="#F6B40E"/>
<path d="M32.5024 25.148L25.8542 25.4137C25.8542 25.4137 25.7274 25.4139 25.7246 25.501C25.7308 25.592 25.8575 25.5918 25.8575 25.5918L32.5068 25.8565M30.353 24.8459C29.5212 24.4413 28.8364 24.7849 28.1059 24.3911C27.3701 23.9839 26.7751 24.2339 26.433 24.2182C26.0985 24.1836 26.0094 23.9021 25.9308 23.9674C25.8484 24.0422 26.008 24.3321 26.4538 24.459C26.8942 24.5726 27.1509 24.2974 28.0489 24.7749C28.9468 25.2523 29.3496 24.8748 30.1425 25.3509" stroke="#85340A" stroke-width="0.0869"/>
<path d="M32.631 25.1754L26.3917 22.7592C26.3917 22.7592 26.2745 22.7087 26.24 22.788C26.2124 22.8746 26.3296 22.9251 26.3296 22.9251L32.3759 25.8317M30.7557 24.0358C30.1353 23.329 29.3769 23.3723 28.846 22.7159C28.3152 22.0452 27.674 22.038 27.3638 21.8865C27.0673 21.7206 27.088 21.4249 26.9915 21.4537C26.888 21.4898 26.9294 21.8216 27.2948 22.1173C27.6602 22.3986 27.998 22.2471 28.653 23.0477C29.3079 23.8483 29.8181 23.6608 30.3766 24.4181" fill="#F6B40E"/>
<path d="M32.631 25.1754L26.3917 22.7592C26.3917 22.7592 26.2745 22.7087 26.24 22.788C26.2124 22.8746 26.3296 22.9251 26.3296 22.9251L32.3759 25.8317M30.7557 24.0358C30.1353 23.329 29.3769 23.3723 28.846 22.7159C28.3152 22.0452 27.674 22.038 27.3638 21.8865C27.0673 21.7206 27.088 21.4249 26.9915 21.4537C26.888 21.4898 26.9294 21.8216 27.2948 22.1173C27.6602 22.3986 27.998 22.2471 28.653 23.0477C29.3079 23.8483 29.8181 23.6608 30.3766 24.4181" stroke="#85340A" stroke-width="0.0869"/>
<path d="M32.7398 25.2529L27.8593 20.5227C27.8593 20.5227 27.7695 20.4292 27.7086 20.4887C27.6515 20.5576 27.7413 20.6512 27.7413 20.6512L32.2641 25.7571M31.4242 23.4493C31.1095 22.5479 30.393 22.2843 30.1427 21.4654C29.8976 20.6331 29.3078 20.3698 29.0766 20.1056C28.8634 19.8337 28.9907 19.5688 28.891 19.5568C28.7822 19.5487 28.6991 19.8718 28.9285 20.2913C29.1632 20.6974 29.5307 20.6927 29.8429 21.6946C30.1552 22.6964 30.6951 22.7274 30.934 23.6507" fill="#F6B40E"/>
<path d="M32.7398 25.2529L27.8593 20.5227C27.8593 20.5227 27.7695 20.4292 27.7086 20.4887C27.6515 20.5576 27.7413 20.6512 27.7413 20.6512L32.2641 25.7571M31.4242 23.4493C31.1095 22.5479 30.393 22.2843 30.1427 21.4654C29.8976 20.6331 29.3078 20.3698 29.0766 20.1056C28.8634 19.8337 28.9907 19.5688 28.891 19.5568C28.7822 19.5487 28.6991 19.8718 28.9285 20.2913C29.1632 20.6974 29.5307 20.6927 29.8429 21.6946C30.1552 22.6964 30.6951 22.7274 30.934 23.6507" stroke="#85340A" stroke-width="0.0869"/>
<path d="M30.1211 25.9387C29.2436 25.9897 28.8536 26.5099 28.0443 26.4079C28.6781 26.6323 29.1753 26.0917 30.1113 26.1223M32.4318 25.3369L28.2783 27.3259L32.5586 25.6633" fill="#85340A"/>
<path d="M30.1417 24.9527C29.3123 24.6485 28.7617 24.973 28.0514 24.5548C28.5548 25.0158 29.2119 24.7154 30.0655 25.1184M32.4967 25.3218L27.9318 25.4966L32.4944 25.6741" fill="#85340A"/>
<path d="M30.5215 24.0506C29.8666 23.4376 29.2392 23.5169 28.7359 22.8462C29.0324 23.4736 29.7494 23.4592 30.3905 24.1732M32.5622 25.3345L28.2809 23.6684L32.4312 25.659" fill="#85340A"/>
<path d="M31.2025 23.3685C30.8217 22.5399 30.213 22.3621 29.9934 21.5409C30.0378 22.2393 30.7055 22.513 31.0366 23.4294M32.6182 25.3716L29.2722 22.1184L32.3785 25.619" fill="#85340A"/>
<path d="M32.812 25.3677L30.0333 19.0437C30.0333 19.0437 29.9845 18.9213 29.9065 18.9519C29.8285 18.9927 29.8773 19.1151 29.8773 19.1151L32.188 25.6431M32.2563 23.1747C32.2953 22.2159 31.7298 21.6855 31.798 20.8287C31.876 19.9617 31.4275 19.4823 31.3105 19.1457C31.213 18.8091 31.4275 18.6153 31.3398 18.5643C31.2423 18.5133 31.0473 18.7785 31.1058 19.2579C31.174 19.7271 31.5153 19.8699 31.4373 20.9205C31.3593 21.9711 31.8468 22.2159 31.7298 23.1645" fill="#F6B40E"/>
<path d="M32.812 25.3677L30.0333 19.0437C30.0333 19.0437 29.9845 18.9213 29.9065 18.9519C29.8285 18.9927 29.8773 19.1151 29.8773 19.1151L32.188 25.6431M32.2563 23.1747C32.2953 22.2159 31.7298 21.6855 31.798 20.8287C31.876 19.9617 31.4275 19.4823 31.3105 19.1457C31.213 18.8091 31.4275 18.6153 31.3398 18.5643C31.2423 18.5133 31.0473 18.7785 31.1058 19.2579C31.174 19.7271 31.5153 19.8699 31.4373 20.9205C31.3593 21.9711 31.8468 22.2159 31.7298 23.1645" stroke="#85340A" stroke-width="0.0869"/>
<path d="M32.8368 25.5029L32.5829 18.5478C32.5829 18.5478 32.5826 18.4152 32.4994 18.4123C32.4124 18.4187 32.4127 18.5513 32.4127 18.5513L32.1596 25.5075M33.1256 23.2543C33.5123 22.3841 33.1839 21.6677 33.5604 20.9034C33.9496 20.1337 33.7106 19.5112 33.7256 19.1534C33.7587 18.8034 34.0277 18.7102 33.9653 18.628C33.8939 18.5418 33.6167 18.7088 33.4954 19.1751C33.3868 19.6359 33.6499 19.9044 33.1935 20.8438C32.7371 21.7832 33.098 22.2046 32.6429 23.0341" fill="#F6B40E"/>
<path d="M32.8368 25.5029L32.5829 18.5478C32.5829 18.5478 32.5826 18.4152 32.4994 18.4123C32.4124 18.4187 32.4127 18.5513 32.4127 18.5513L32.1596 25.5075M33.1256 23.2543C33.5123 22.3841 33.1839 21.6677 33.5604 20.9034C33.9496 20.1337 33.7106 19.5112 33.7256 19.1534C33.7587 18.8034 34.0277 18.7102 33.9653 18.628C33.8939 18.5418 33.6167 18.7088 33.4954 19.1751C33.3868 19.6359 33.6499 19.9044 33.1935 20.8438C32.7371 21.7832 33.098 22.2046 32.6429 23.0341" stroke="#85340A" stroke-width="0.0869"/>
<path d="M32.8102 25.6373L35.1198 19.11C35.1198 19.11 35.168 18.9874 35.0922 18.9513C35.0094 18.9225 34.9612 19.0451 34.9612 19.0451L32.1828 25.3704M33.8995 23.6755C34.5751 23.0264 34.5337 22.233 35.1611 21.6776C35.8023 21.1223 35.8092 20.4515 35.954 20.127C36.1125 19.8168 36.3952 19.8385 36.3676 19.7375C36.3332 19.6293 36.016 19.6726 35.7333 20.0548C35.4645 20.4371 35.6092 20.7905 34.844 21.4757C34.0787 22.1609 34.258 22.6946 33.5341 23.2788" fill="#F6B40E"/>
<path d="M32.8102 25.6373L35.1198 19.11C35.1198 19.11 35.168 18.9874 35.0922 18.9513C35.0094 18.9225 34.9612 19.0451 34.9612 19.0451L32.1828 25.3704M33.8995 23.6755C34.5751 23.0264 34.5337 22.233 35.1611 21.6776C35.8023 21.1223 35.8092 20.4515 35.954 20.127C36.1125 19.8168 36.3952 19.8385 36.3676 19.7375C36.3332 19.6293 36.016 19.6726 35.7333 20.0548C35.4645 20.4371 35.6092 20.7905 34.844 21.4757C34.0787 22.1609 34.258 22.6946 33.5341 23.2788" stroke="#85340A" stroke-width="0.0869"/>
<path d="M32.7366 25.7511L37.2581 20.6452C37.2581 20.6452 37.3475 20.5513 37.2907 20.4876C37.2248 20.4278 37.1353 20.5218 37.1353 20.5218L32.2546 25.2533M34.4606 24.3747C35.3223 24.0455 35.5743 23.2959 36.3571 23.034C37.1526 22.7776 37.4043 22.1607 37.6568 21.9188C37.9167 21.6957 38.17 21.8289 38.1814 21.7245C38.1892 21.6108 37.8803 21.5238 37.4794 21.7638C37.0911 22.0093 37.0956 22.3938 36.1379 22.7205C35.1803 23.0471 35.1507 23.612 34.2681 23.8619" fill="#F6B40E"/>
<path d="M32.7366 25.7511L37.2581 20.6452C37.2581 20.6452 37.3475 20.5513 37.2907 20.4876C37.2248 20.4278 37.1353 20.5218 37.1353 20.5218L32.2546 25.2533M34.4606 24.3747C35.3223 24.0455 35.5743 23.2959 36.3571 23.034C37.1526 22.7776 37.4043 22.1607 37.6568 21.9188C37.9167 21.6957 38.17 21.8289 38.1814 21.7245C38.1892 21.6108 37.8803 21.5238 37.4794 21.7638C37.0911 22.0093 37.0956 22.3938 36.1379 22.7205C35.1803 23.0471 35.1507 23.612 34.2681 23.8619" stroke="#85340A" stroke-width="0.0869"/>
<path d="M32.0808 23.0115C32.032 22.0935 31.5348 21.6855 31.6323 20.8389C31.4178 21.5019 31.9345 22.0221 31.9053 23.0013M32.656 25.4289L30.7548 21.0837L32.344 25.5615" fill="#85340A"/>
<path d="M33.0232 23.0329C33.3139 22.1653 33.0038 21.5893 33.4035 20.8462C32.9628 21.3728 33.25 22.0603 32.8647 22.9533M32.6703 25.4966L32.5033 20.721L32.3336 25.4942" fill="#85340A"/>
<path d="M33.8859 23.43C34.4719 22.7448 34.3961 22.0885 35.0372 21.562C34.4374 21.8721 34.4512 22.6222 33.7687 23.293M32.6587 25.5649L34.2513 21.086L32.3485 25.4279" fill="#85340A"/>
<path d="M34.5374 24.1425C35.3295 23.7441 35.4995 23.1073 36.2845 22.8776C35.6169 22.924 35.3552 23.6225 34.4793 23.969M32.6227 25.6236L35.7325 22.1231L32.3862 25.3728" fill="#85340A"/>
<path d="M32.6265 25.8262L38.6715 22.9192C38.6715 22.9192 38.7885 22.8682 38.7593 22.7866C38.7203 22.705 38.6033 22.756 38.6033 22.756L32.3633 25.1734M34.7228 25.2448C35.6393 25.2856 36.1463 24.694 36.9653 24.7654C37.794 24.847 38.2523 24.3778 38.574 24.2554C38.8958 24.1534 39.081 24.3778 39.1298 24.286C39.1785 24.184 38.925 23.98 38.4668 24.0412C38.0183 24.1126 37.8818 24.4696 36.8775 24.388C35.8733 24.3064 35.6393 24.8164 34.7325 24.694" fill="#F6B40E"/>
<path d="M32.6265 25.8262L38.6715 22.9192C38.6715 22.9192 38.7885 22.8682 38.7593 22.7866C38.7203 22.705 38.6033 22.756 38.6033 22.756L32.3633 25.1734M34.7228 25.2448C35.6393 25.2856 36.1463 24.694 36.9653 24.7654C37.794 24.847 38.2523 24.3778 38.574 24.2554C38.8958 24.1534 39.081 24.3778 39.1298 24.286C39.1785 24.184 38.925 23.98 38.4668 24.0412C38.0183 24.1126 37.8818 24.4696 36.8775 24.388C35.8733 24.3064 35.6393 24.8164 34.7325 24.694" stroke="#85340A" stroke-width="0.0869"/>
<path d="M32.4976 25.852L39.1458 25.5863C39.1458 25.5863 39.2726 25.5861 39.2754 25.499C39.2692 25.408 39.1425 25.4082 39.1425 25.4082L32.4932 25.1435M34.647 26.1541C35.4788 26.5587 36.1636 26.2151 36.8941 26.6089C37.6299 27.0161 38.2249 26.7661 38.567 26.7818C38.9015 26.8164 38.9906 27.0979 39.0692 27.0326C39.1516 26.9578 38.992 26.6679 38.5462 26.541C38.1058 26.4274 37.8491 26.7026 36.9511 26.2251C36.0532 25.7477 35.6504 26.1252 34.8575 25.6491" fill="#F6B40E"/>
<path d="M32.4976 25.852L39.1458 25.5863C39.1458 25.5863 39.2726 25.5861 39.2754 25.499C39.2692 25.408 39.1425 25.4082 39.1425 25.4082L32.4932 25.1435M34.647 26.1541C35.4788 26.5587 36.1636 26.2151 36.8941 26.6089C37.6299 27.0161 38.2249 26.7661 38.567 26.7818C38.9015 26.8164 38.9906 27.0979 39.0692 27.0326C39.1516 26.9578 38.992 26.6679 38.5462 26.541C38.1058 26.4274 37.8491 26.7026 36.9511 26.2251C36.0532 25.7477 35.6504 26.1252 34.8575 25.6491" stroke="#85340A" stroke-width="0.0869"/>
<path d="M32.369 25.8246L38.6083 28.2408C38.6083 28.2408 38.7255 28.2913 38.76 28.212C38.7876 28.1254 38.6704 28.0749 38.6704 28.0749L32.6241 25.1683M34.2443 26.9642C34.8647 27.671 35.6231 27.6277 36.154 28.2841C36.6848 28.9548 37.326 28.962 37.6362 29.1135C37.9327 29.2794 37.912 29.5751 38.0085 29.5463C38.112 29.5102 38.0706 29.1784 37.7052 28.8827C37.3398 28.6014 37.002 28.7529 36.347 27.9523C35.6921 27.1517 35.1819 27.3392 34.6234 26.5819" fill="#F6B40E"/>
<path d="M32.369 25.8246L38.6083 28.2408C38.6083 28.2408 38.7255 28.2913 38.76 28.212C38.7876 28.1254 38.6704 28.0749 38.6704 28.0749L32.6241 25.1683M34.2443 26.9642C34.8647 27.671 35.6231 27.6277 36.154 28.2841C36.6848 28.9548 37.326 28.962 37.6362 29.1135C37.9327 29.2794 37.912 29.5751 38.0085 29.5463C38.112 29.5102 38.0706 29.1784 37.7052 28.8827C37.3398 28.6014 37.002 28.7529 36.347 27.9523C35.6921 27.1517 35.1819 27.3392 34.6234 26.5819" stroke="#85340A" stroke-width="0.0869"/>
<path d="M32.2602 25.7471L37.1407 30.4773C37.1407 30.4773 37.2305 30.5708 37.2914 30.5113C37.3485 30.4424 37.2587 30.3488 37.2587 30.3488L32.7359 25.2429M33.5758 27.5507C33.8905 28.4521 34.607 28.7157 34.8573 29.5346C35.1024 30.3669 35.6922 30.6302 35.9234 30.8944C36.1366 31.1663 36.0093 31.4312 36.109 31.4432C36.2178 31.4513 36.3009 31.1282 36.0715 30.7087C35.8368 30.3026 35.4693 30.3073 35.1571 29.3054C34.8448 28.3036 34.3049 28.2726 34.066 27.3493" fill="#F6B40E"/>
<path d="M32.2602 25.7471L37.1407 30.4773C37.1407 30.4773 37.2305 30.5708 37.2914 30.5113C37.3485 30.4424 37.2587 30.3488 37.2587 30.3488L32.7359 25.2429M33.5758 27.5507C33.8905 28.4521 34.607 28.7157 34.8573 29.5346C35.1024 30.3669 35.6922 30.6302 35.9234 30.8944C36.1366 31.1663 36.0093 31.4312 36.109 31.4432C36.2178 31.4513 36.3009 31.1282 36.0715 30.7087C35.8368 30.3026 35.4693 30.3073 35.1571 29.3054C34.8448 28.3036 34.3049 28.2726 34.066 27.3493" stroke="#85340A" stroke-width="0.0869"/>
<path d="M34.8789 25.0613C35.7564 25.0103 36.1464 24.4901 36.9557 24.5921C36.3219 24.3677 35.8247 24.9083 34.8887 24.8777M32.5682 25.6631L36.7217 23.6741L32.4414 25.3367" fill="#85340A"/>
<path d="M34.8583 26.0473C35.6877 26.3515 36.2383 26.027 36.9486 26.4452C36.4452 25.9842 35.7881 26.2846 34.9345 25.8816M32.5033 25.6782L37.0682 25.5034L32.5056 25.3259" fill="#85340A"/>
<path d="M34.4785 26.9499C35.1334 27.5629 35.7608 27.4836 36.2641 28.1543C35.9676 27.5269 35.2506 27.5413 34.6095 26.8272M32.4378 25.666L36.7191 27.3321L32.5688 25.3415" fill="#85340A"/>
<path d="M33.7977 27.6315C34.1786 28.4601 34.7872 28.6379 35.0068 29.4591C34.9625 28.7607 34.2948 28.487 33.9636 27.5706M32.382 25.6284L35.728 28.8816L32.6217 25.381" fill="#85340A"/>
<path d="M32.5001 28.3368C33.9977 28.3368 35.2118 27.0667 35.2118 25.5C35.2118 23.9332 33.9977 22.6631 32.5001 22.6631C31.0024 22.6631 29.7883 23.9332 29.7883 25.5C29.7883 27.0667 31.0024 28.3368 32.5001 28.3368Z" fill="#F6B40E" stroke="#85340A" stroke-width="0.115208"/>
<path d="M33.4141 24.8945C33.2414 24.8945 33.0586 24.9795 32.957 25.1495C33.1602 25.3514 33.6273 25.362 33.9422 25.1283C33.8757 25.0544 33.7954 24.9956 33.7063 24.9554C33.6172 24.9152 33.5212 24.8945 33.4242 24.8945H33.4141ZM33.4141 24.937C33.5969 24.937 33.7695 25.022 33.7898 25.107C33.5867 25.3514 33.2516 25.3195 33.0383 25.1495C33.1398 25.0008 33.282 24.937 33.4242 24.937H33.4141Z" fill="#843511"/>
<path d="M33.4546 24.7563C33.1804 24.7563 33.1194 24.8201 32.9976 24.937C32.8757 25.0432 32.8046 25.022 32.7944 25.0432C32.764 25.0645 32.7944 25.1282 32.8249 25.107C32.8757 25.0857 32.9569 25.0432 33.0788 24.937C33.2007 24.8307 33.3327 24.8307 33.4546 24.8307C33.8304 24.8307 34.0335 25.1495 34.0741 25.1282C34.1249 25.107 33.871 24.7563 33.4546 24.7563Z" fill="#85340A"/>
<path d="M34.2063 24.8945C33.729 24.4589 33.1196 24.3845 32.7844 24.7139C32.7072 24.8202 32.6551 24.9439 32.6321 25.0752C32.5915 25.3302 32.6625 25.5958 32.8454 25.872L32.7641 25.9145C32.6016 25.5852 32.5407 25.2452 32.6016 24.9158L32.6625 24.6714C33.1196 24.2783 33.7493 24.2464 34.2063 24.8839V24.8945Z" fill="#85340A"/>
<path d="M33.414 25.298C33.515 25.298 33.5968 25.2124 33.5968 25.1068C33.5968 25.0012 33.515 24.9155 33.414 24.9155C33.313 24.9155 33.2312 25.0012 33.2312 25.1068C33.2312 25.2124 33.313 25.298 33.414 25.298Z" fill="#85340A"/>
<path d="M33.9524 25.2344C33.5969 25.5213 33.2415 25.5 33.0383 25.3725C32.8352 25.2344 32.8352 25.1919 32.8758 25.1919C32.9165 25.1919 32.9571 25.2344 33.1196 25.33C33.2922 25.415 33.536 25.415 33.9524 25.2344V25.2344Z" fill="#85340A"/>
<path d="M32.0937 25.8931C32.0655 25.9 32.0393 25.9139 32.0172 25.9336C31.9951 25.9533 31.9778 25.9782 31.9668 26.0062C31.9557 26.0342 31.9512 26.0646 31.9535 26.0948C31.9559 26.1251 31.9651 26.1543 31.9804 26.1801C31.9957 26.2058 32.0166 26.2274 32.0415 26.2431C32.0663 26.2587 32.0944 26.2679 32.1233 26.27C32.1522 26.2721 32.1812 26.2669 32.2078 26.2549C32.2345 26.243 32.258 26.2246 32.2765 26.2012C32.3435 26.2447 32.4211 26.2668 32.4999 26.2649H32.5203C32.5812 26.2649 32.6828 26.2543 32.7539 26.2012C32.7843 26.2543 32.8453 26.2756 32.9062 26.2756C32.9547 26.2798 33.0028 26.2637 33.0399 26.2308C33.0771 26.1979 33.1002 26.151 33.1042 26.1003C33.1083 26.0495 33.0929 25.9992 33.0615 25.9604C33.03 25.9215 32.9852 25.8973 32.9367 25.8931C32.9874 25.9143 33.0179 25.9568 33.0179 26.0206C33.0179 26.0544 33.0051 26.0868 32.9822 26.1107C32.9594 26.1346 32.9284 26.1481 32.896 26.1481C32.8637 26.1481 32.8327 26.1346 32.8099 26.1107C32.787 26.0868 32.7742 26.0544 32.7742 26.0206C32.7501 26.073 32.7128 26.1176 32.6662 26.1494C32.6197 26.1813 32.5657 26.1992 32.5101 26.2012C32.4563 26.1973 32.4044 26.1785 32.3598 26.1468C32.3152 26.1151 32.2794 26.0715 32.2562 26.0206C32.2562 26.0949 32.1953 26.1481 32.1242 26.1481C32.0632 26.1481 32.0023 26.0843 32.0023 26.0206C32.0023 25.9568 32.0328 25.9143 32.0835 25.8931H32.0937ZM32.2968 26.4668C32.0835 26.4668 31.9921 26.6793 31.8093 26.7962C31.9109 26.7537 31.9921 26.6687 32.1445 26.5837C32.2867 26.4987 32.4085 26.6049 32.4999 26.6049C32.5812 26.6049 32.7031 26.4987 32.8554 26.5837C32.9976 26.6687 33.089 26.7537 33.1906 26.7962C32.9976 26.6687 32.9164 26.4774 32.7031 26.4774C32.6624 26.4774 32.5812 26.4987 32.4999 26.5412L32.2968 26.4668Z" fill="#85340A"/>
<path d="M32.2157 26.7326C32.1344 26.7326 32.0329 26.7538 31.8704 26.7963C32.2461 26.7113 32.3274 26.8495 32.5001 26.8495C32.6626 26.8495 32.754 26.7113 33.1196 26.7963C32.7133 26.6688 32.6219 26.7538 32.5001 26.7538C32.4188 26.7538 32.3579 26.722 32.2157 26.7326Z" fill="#85340A"/>
<path d="M31.8906 26.7963H31.8093C32.246 26.8494 32.0429 27.115 32.4999 27.115C32.957 27.115 32.7539 26.8494 33.1906 26.7963C32.7335 26.7538 32.8757 27.0407 32.4999 27.0407C32.1445 27.0407 32.2562 26.7963 31.8906 26.7963Z" fill="#85340A"/>
<path d="M32.8758 27.5084C32.8758 27.4041 32.8362 27.3041 32.7658 27.2304C32.6953 27.1567 32.5997 27.1152 32.5001 27.1152C32.4004 27.1152 32.3048 27.1567 32.2343 27.2304C32.1639 27.3041 32.1243 27.4041 32.1243 27.5084C32.1441 27.4197 32.192 27.3406 32.2603 27.284C32.3285 27.2274 32.413 27.1966 32.5001 27.1966C32.5871 27.1966 32.6716 27.2274 32.7398 27.284C32.8081 27.3406 32.856 27.4197 32.8758 27.5084Z" fill="#85340A"/>
<path d="M30.814 24.8945C31.2913 24.4589 31.9007 24.3845 32.2358 24.7139C32.313 24.8202 32.3652 24.9439 32.3882 25.0752C32.4288 25.3302 32.3577 25.5958 32.1749 25.872L32.2562 25.9145C32.4187 25.5852 32.4796 25.2452 32.4187 24.9158L32.3577 24.6714C31.9007 24.2783 31.271 24.2464 30.814 24.8839V24.8945Z" fill="#85340A"/>
<path d="M31.5657 24.7563C31.8399 24.7563 31.9008 24.8201 32.0227 24.937C32.1446 25.0432 32.2157 25.022 32.2258 25.0432C32.2563 25.0645 32.2258 25.1282 32.1953 25.107C32.1446 25.0857 32.0633 25.0432 31.9414 24.937C31.8196 24.8307 31.6875 24.8307 31.5657 24.8307C31.1899 24.8307 30.9868 25.1495 30.9461 25.1282C30.8953 25.107 31.1493 24.7563 31.5657 24.7563Z" fill="#85340A"/>
<path d="M31.5454 24.8945C31.3728 24.8945 31.1899 24.9795 31.0884 25.1495C31.2915 25.3514 31.7587 25.362 32.0735 25.1283C32.007 25.0544 31.9267 24.9956 31.8377 24.9554C31.7486 24.9152 31.6526 24.8945 31.5556 24.8945H31.5454ZM31.5454 24.937C31.7282 24.937 31.9009 25.022 31.9212 25.107C31.7181 25.3514 31.3829 25.3195 31.1696 25.1495C31.2712 25.0008 31.4134 24.937 31.5556 24.937H31.5454Z" fill="#843511"/>
<path d="M31.5759 25.298C31.6768 25.298 31.7587 25.2124 31.7587 25.1068C31.7587 25.0012 31.6768 24.9155 31.5759 24.9155C31.4749 24.9155 31.3931 25.0012 31.3931 25.1068C31.3931 25.2124 31.4749 25.298 31.5759 25.298Z" fill="#85340A"/>
<path d="M31.0679 25.2344C31.4233 25.5213 31.7788 25.5 31.9819 25.3725C32.1851 25.2344 32.1851 25.1919 32.1444 25.1919C32.1038 25.1919 32.0632 25.2344 31.9007 25.33C31.728 25.415 31.4843 25.415 31.0679 25.2344V25.2344Z" fill="#85340A"/>
</g>
<defs>
<clipPath id="clip0_802_45">
<rect width="65" height="51" fill="white"/>
</clipPath>
</defs>
</svg>
