<svg width="65" height="51" viewBox="0 0 65 51" fill="none" xmlns="http://www.w3.org/2000/svg">
<g clip-path="url(#clip0_803_27)">
<path fill-rule="evenodd" clip-rule="evenodd" d="M0.00317383 0H64.9968V51H0.00317383V0Z" fill="#000099"/>
<path fill-rule="evenodd" clip-rule="evenodd" d="M13.5046 0L62.1594 51.0299V0.0298828L13.5046 0Z" fill="#FFCC00"/>
<path fill-rule="evenodd" clip-rule="evenodd" d="M50.01 47.9616L47.3535 45.9395L44.6304 47.9517L45.6587 44.6446L42.9736 42.6026H46.3062L47.3345 39.2956L48.3533 42.6126H51.6858L49.0198 44.6745L50.01 47.9616ZM57.751 48.9976L54.4185 48.9876L53.3997 45.6706L52.3713 48.9776H49.0388L51.7239 51.0196L50.6956 54.3267L53.4187 52.3145L56.0847 54.3366L55.085 51.0495L57.751 48.9976V48.9976ZM42.9355 38.3194L45.6016 36.2575L42.269 36.2476L41.2502 32.9405L40.2219 36.2476L36.8894 36.2376L39.5745 38.2796L38.5461 41.5966L41.2693 39.5745L43.9353 41.6065L42.9355 38.3194V38.3194ZM36.8132 31.8946L39.4792 29.8427L36.1467 29.8327L35.1279 26.5157L34.0901 29.8228H30.7671L33.4521 31.8647L32.4238 35.1718L35.147 33.1597L37.8035 35.1817L36.8132 31.8946V31.8946ZM30.748 25.5595L33.4141 23.4976H30.0815L29.0723 20.1706L28.0439 23.4776H24.7114L27.3965 25.5097L26.3682 28.8267L29.0913 26.8046L31.7573 28.8366L30.7576 25.5495L30.748 25.5595ZM24.6162 19.1546L27.2822 17.1026L23.9497 17.0927L22.9309 13.7757L21.8931 17.0827H18.5701L21.2646 19.1247L20.2363 22.4317L22.9595 20.4196L25.616 22.4417L24.6257 19.1546H24.6162ZM18.5605 12.7896L21.217 10.7276H17.8845L16.8752 7.40068L15.8374 10.7177H12.5049L15.209 12.7497L14.1711 16.0567L16.8943 14.0446L19.5413 16.0767L18.5605 12.7896V12.7896ZM12.4668 6.41455L15.1233 4.35264H11.7908L10.7815 1.02568L9.74365 4.34268H6.41113L9.11523 6.37471L8.06787 9.6917L10.8005 7.66963L13.4475 9.70166L12.4668 6.41455V6.41455ZM6.37305 0.0395508L9.02002 -2.02236H5.6875L4.6687 -5.33936L3.6499 -2.03232H0.317383L3.01196 -0.000293121L1.98364 3.30674L4.70679 1.29463L7.35376 3.32666L6.37305 0.0395508V0.0395508Z" fill="white"/>
</g>
<defs>
<clipPath id="clip0_803_27">
<rect width="65" height="51" fill="white"/>
</clipPath>
</defs>
</svg>
