<svg width="65" height="51" viewBox="0 0 65 51" fill="none" xmlns="http://www.w3.org/2000/svg">
<g clip-path="url(#clip0_802_41)">
<path d="M32.5 0H65V51H32.5V0Z" fill="white"/>
<path d="M0 0H32.5V51H0V0Z" fill="#006233"/>
<path d="M43.0625 19.125C41.7211 16.6943 39.6504 14.7946 37.1718 13.7205C34.6931 12.6465 31.9449 12.458 29.3535 13.1844C26.762 13.9109 24.4721 15.5116 22.8388 17.7383C21.2056 19.965 20.3203 22.6933 20.3203 25.5C20.3203 28.3067 21.2056 31.035 22.8388 33.2617C24.4721 35.4884 26.762 37.0891 29.3535 37.8156C31.9449 38.542 34.6931 38.3535 37.1718 37.2795C39.6504 36.2054 41.7211 34.3057 43.0625 31.875C41.8 33.5247 40.0789 34.7234 38.137 35.3054C36.1951 35.8875 34.1283 35.8242 32.2223 35.1244C30.3163 34.4245 28.6651 33.1225 27.497 31.3984C26.3288 29.6743 25.7014 27.6133 25.7014 25.5C25.7014 23.3867 26.3288 21.3257 27.497 19.6016C28.6651 17.8775 30.3163 16.5755 32.2223 15.8757C34.1283 15.1758 36.1951 15.1125 38.137 15.6946C40.0789 16.2766 41.8 17.4753 43.0625 19.125M43.4687 25.5L32.5 21.76L39.325 31.535V19.465L32.5 29.24L43.4687 25.5Z" fill="#D21034"/>
</g>
<defs>
<clipPath id="clip0_802_41">
<rect width="65" height="51" fill="white"/>
</clipPath>
</defs>
</svg>
