<svg width="65" height="51" viewBox="0 0 65 51" fill="none" xmlns="http://www.w3.org/2000/svg">
<g clip-path="url(#clip0_803_4)">
<path fill-rule="evenodd" clip-rule="evenodd" d="M-0.0012207 0.00292969H65.0115V51.0029H-0.0012207V0.00292969Z" fill="white"/>
<path fill-rule="evenodd" clip-rule="evenodd" d="M7.12158 15.4336L13.8224 4.88563L15.5276 6.07954L8.82683 16.6275L7.12158 15.4336ZM9.67945 17.2245L16.3803 6.6765L18.0855 7.8704L11.3847 18.4184L9.67945 17.2245ZM12.2373 19.0153L18.9381 8.46736L20.6434 9.66127L13.9426 20.2092L12.2373 19.0153Z" fill="black"/>
<path fill-rule="evenodd" clip-rule="evenodd" d="M44.2996 41.3726L51.0004 30.8246L52.7056 32.0185L46.0048 42.5665L44.2996 41.3726ZM46.8574 43.1634L53.5582 32.6155L55.2635 33.8094L48.5627 44.3573L46.8574 43.1634ZM49.4153 44.9543L56.1161 34.4063L57.8214 35.6002L51.1205 46.1482L49.4153 44.9543Z" fill="black"/>
<path fill-rule="evenodd" clip-rule="evenodd" d="M46.8354 35.5386L55.285 41.4338Z" fill="black"/>
<path d="M46.8354 35.5386L55.285 41.4338" stroke="white" stroke-width="0.836045"/>
<path fill-rule="evenodd" clip-rule="evenodd" d="M22.3318 18.3379C24.102 15.5525 26.8726 13.632 30.0341 12.9989C33.1955 12.3658 36.4889 13.072 39.1897 14.9621C41.8904 16.8523 43.7773 19.7715 44.4353 23.0776C45.0933 26.3837 44.4684 29.8059 42.6982 32.5914L22.3318 18.3379Z" fill="#CD2E3A"/>
<path fill-rule="evenodd" clip-rule="evenodd" d="M22.2541 18.3996C20.4813 21.1899 19.8556 24.618 20.5145 27.9299C21.1734 31.2418 23.063 34.1662 25.7677 36.0596C28.4723 37.953 31.7704 38.6605 34.9364 38.0263C38.1025 37.3921 40.877 35.4682 42.6498 32.6779C43.5362 31.2828 43.8491 29.5687 43.5196 27.9127C43.1902 26.2568 42.2454 24.7946 40.893 23.8479C39.5407 22.9012 37.8917 22.5475 36.3087 22.8646C34.7256 23.1817 33.3384 24.1436 32.452 25.5387L22.2541 18.3996Z" fill="#0047A0"/>
<path d="M32.5063 25.5534C34.3542 22.6446 33.5668 18.6864 30.7475 16.7126C27.9282 14.7387 24.1446 15.4967 22.2967 18.4055C20.4487 21.3143 21.2362 25.2725 24.0555 27.2463C26.8748 29.2202 30.6584 28.4622 32.5063 25.5534Z" fill="#CD2E3A"/>
<path fill-rule="evenodd" clip-rule="evenodd" d="M13.8503 46.1519L7.14952 35.6039L8.85477 34.41L15.5556 44.9579L13.8503 46.1519ZM16.4082 44.361L9.70739 33.813L11.4126 32.6191L18.1135 43.1671L16.4082 44.361ZM18.9661 42.5701L12.2653 32.0222L13.9705 30.8283L20.6713 41.3762L18.9661 42.5701Z" fill="black"/>
<path fill-rule="evenodd" clip-rule="evenodd" d="M51.0283 20.2134L44.3275 9.66542L46.0327 8.47151L52.7336 19.0195L51.0283 20.2134ZM53.5862 18.4225L46.8854 7.87455L48.5906 6.68065L55.2914 17.2286L53.5862 18.4225ZM56.1441 16.6317L49.4432 6.08369L51.1485 4.88978L57.8493 15.4377L56.1441 16.6317Z" fill="black"/>
<path fill-rule="evenodd" clip-rule="evenodd" d="M12.6428 39.3745L15.1777 37.6059ZM46.8634 15.4989L49.8208 13.4355ZM52.3556 11.667L54.8905 9.89839Z" fill="black"/>
<path d="M12.6428 39.3745L15.1777 37.6059M46.8634 15.4989L49.8208 13.4355M52.3556 11.667L54.8905 9.89839" stroke="white" stroke-width="0.836045"/>
</g>
<defs>
<clipPath id="clip0_803_4">
<rect width="65" height="51" fill="white"/>
</clipPath>
</defs>
</svg>
