<svg width="65" height="51" viewBox="0 0 65 51" fill="none" xmlns="http://www.w3.org/2000/svg">
<g clip-path="url(#clip0_806_1475)">
<path d="M0 0H65V51H0V0Z" fill="white"/>
<path d="M27.0154 5.66309H64.9998V11.3368H27.0154V5.66309ZM27.0154 17H64.9998V22.6631H27.0154V17ZM-0.000244141 28.3368H64.9998V34H-0.000244141V28.3368ZM-0.000244141 39.6631H64.9998V45.3368H-0.000244141V39.6631Z" fill="#0038A8"/>
<path d="M12.9244 16.9332L13.8209 18.3337C10.1369 21.1228 12.386 22.7721 9.77532 23.6649C11.3991 22.0071 9.51965 21.8674 10.8877 18.4121" fill="#FCD116"/>
<path d="M12.9244 16.9332L13.8209 18.3337C10.1369 21.1228 12.386 22.7721 9.77532 23.6649C11.3991 22.0071 9.51965 21.8674 10.8877 18.4121" stroke="black" stroke-width="0.146667" stroke-miterlimit="20" stroke-linecap="square"/>
<path d="M12.2837 17.3306C10.2511 20.8354 11.5841 22.7624 9.77549 23.6654" stroke="black" stroke-width="0.146667" stroke-miterlimit="20"/>
<path d="M13.5377 14.1631H15.3252L13.5377 24.4481L11.7502 14.1631H13.5377V24.4481Z" fill="#FCD116"/>
<path d="M13.5377 14.1631H15.3252L13.5377 24.4481L11.7502 14.1631H13.5377ZM13.5377 14.1631V24.4481" stroke="black" stroke-width="0.146667" stroke-miterlimit="20"/>
<path d="M11.232 15.6683L10.9193 17.3218C6.42918 16.5688 6.90477 19.3988 4.45529 18.0989C6.72398 18.1278 5.48946 16.6387 8.79232 15.2074" fill="#FCD116"/>
<path d="M11.232 15.6683L10.9193 17.3218C6.42918 16.5688 6.90477 19.3988 4.45529 18.0989C6.72398 18.1278 5.48946 16.6387 8.79232 15.2074" stroke="black" stroke-width="0.146667" stroke-miterlimit="20" stroke-linecap="square"/>
<path d="M10.5102 15.4747C6.7041 16.4493 6.34419 18.798 4.45496 18.0986" stroke="black" stroke-width="0.146667" stroke-miterlimit="20"/>
<path d="M13.5376 14.1626L14.8016 15.4849L6.5859 21.4352L12.2737 12.8403L13.5376 14.1626L6.5859 21.4352Z" fill="#FCD116"/>
<path d="M13.5376 14.1626L14.8016 15.4849L6.5859 21.4352L12.2737 12.8403L13.5376 14.1626ZM13.5376 14.1626L6.5859 21.4352" stroke="black" stroke-width="0.146667" stroke-miterlimit="20"/>
<path d="M10.8891 13.5213L9.55031 14.4593C6.88427 10.6052 5.30773 12.9582 4.45435 10.2269C6.039 11.9257 6.17256 9.95946 9.47543 11.3907" fill="#FCD116"/>
<path d="M10.8891 13.5213L9.55031 14.4593C6.88427 10.6052 5.30773 12.9582 4.45435 10.2269C6.039 11.9257 6.17256 9.95946 9.47543 11.3907" stroke="black" stroke-width="0.146667" stroke-miterlimit="20" stroke-linecap="square"/>
<path d="M10.5103 12.8512C7.1602 10.7248 5.3182 12.1193 4.45504 10.2272" stroke="black" stroke-width="0.146667" stroke-miterlimit="20"/>
<path d="M13.5376 14.163V16.033L3.70636 14.163L13.5376 12.293V14.163H3.70636Z" fill="#FCD116"/>
<path d="M13.5376 14.163V16.033L3.70636 14.163L13.5376 12.293V14.163ZM13.5376 14.163H3.70636" stroke="black" stroke-width="0.146667" stroke-miterlimit="20"/>
<path d="M12.0983 11.752L10.5177 11.4249C11.2376 6.72753 8.53239 7.22507 9.77502 4.66253C9.74735 7.03593 11.1708 5.74443 12.5389 9.19974" fill="#FCD116"/>
<path d="M12.0983 11.752L10.5177 11.4249C11.2376 6.72753 8.53239 7.22507 9.77502 4.66253C9.74735 7.03593 11.1708 5.74443 12.5389 9.19974" stroke="black" stroke-width="0.146667" stroke-miterlimit="20" stroke-linecap="square"/>
<path d="M12.2827 10.9972C11.3511 7.01537 9.10605 6.63885 9.77458 4.66243" stroke="black" stroke-width="0.146667" stroke-miterlimit="20"/>
<path d="M13.5378 14.1646L12.2739 15.4869L6.58607 6.89199L14.8018 12.8423L13.5378 14.1646L6.58607 6.89199Z" fill="#FCD116"/>
<path d="M13.5378 14.1646L12.2739 15.4869L6.58607 6.89199L14.8018 12.8423L13.5378 14.1646ZM13.5378 14.1646L6.58607 6.89199" stroke="black" stroke-width="0.146667" stroke-miterlimit="20"/>
<path d="M14.1506 11.3925L13.254 9.99195C16.938 7.20286 14.6889 5.55355 17.2996 4.66078C15.6759 6.31857 17.5553 6.4583 16.1872 9.9136" fill="#FCD116"/>
<path d="M14.1506 11.3925L13.254 9.99195C16.938 7.20286 14.6889 5.55355 17.2996 4.66078C15.6759 6.31857 17.5553 6.4583 16.1872 9.9136" stroke="black" stroke-width="0.146667" stroke-miterlimit="20" stroke-linecap="square"/>
<path d="M14.7913 10.9955C16.8239 7.49081 15.4908 5.56379 17.2995 4.6608" stroke="black" stroke-width="0.146667" stroke-miterlimit="20"/>
<path d="M13.5377 14.1631H11.7502L13.5377 3.8781L15.3252 14.1631H13.5377V3.8781Z" fill="#FCD116"/>
<path d="M13.5377 14.1631H11.7502L13.5377 3.8781L15.3252 14.1631H13.5377ZM13.5377 14.1631V3.8781" stroke="black" stroke-width="0.146667" stroke-miterlimit="20"/>
<path d="M15.8429 12.6579L16.1556 11.0043C20.6458 11.7574 20.1702 8.92734 22.6197 10.2273C20.351 10.1984 21.5855 11.6875 18.2826 13.1187" fill="#FCD116"/>
<path d="M15.8429 12.6579L16.1556 11.0043C20.6458 11.7574 20.1702 8.92734 22.6197 10.2273C20.351 10.1984 21.5855 11.6875 18.2826 13.1187" stroke="black" stroke-width="0.146667" stroke-miterlimit="20" stroke-linecap="square"/>
<path d="M16.5647 12.851C20.3709 11.8764 20.7308 9.52767 22.62 10.2271" stroke="black" stroke-width="0.146667" stroke-miterlimit="20"/>
<path d="M13.5373 14.1631L12.2734 12.8408L20.4891 6.89048L14.8013 15.4854L13.5373 14.1631L20.4891 6.89048Z" fill="#FCD116"/>
<path d="M13.5373 14.1631L12.2734 12.8408L20.4891 6.89048L14.8013 15.4854L13.5373 14.1631ZM13.5373 14.1631L20.4891 6.89048" stroke="black" stroke-width="0.146667" stroke-miterlimit="20"/>
<path d="M16.1856 14.8048L17.5244 13.8669C20.1904 17.721 21.767 15.368 22.6204 18.0992C21.0357 16.4005 20.9021 18.3667 17.5993 16.9355" fill="#FCD116"/>
<path d="M16.1856 14.8048L17.5244 13.8669C20.1904 17.721 21.767 15.368 22.6204 18.0992C21.0357 16.4005 20.9021 18.3667 17.5993 16.9355" stroke="black" stroke-width="0.146667" stroke-miterlimit="20" stroke-linecap="square"/>
<path d="M16.5651 15.475C19.9152 17.6014 21.7572 16.2069 22.6204 18.0989" stroke="black" stroke-width="0.146667" stroke-miterlimit="20"/>
<path d="M13.5374 14.1632V12.2932L23.3686 14.1632L13.5374 16.0332V14.1632H23.3686Z" fill="#FCD116"/>
<path d="M13.5374 14.1632V12.2932L23.3686 14.1632L13.5374 16.0332V14.1632ZM13.5374 14.1632H23.3686" stroke="black" stroke-width="0.146667" stroke-miterlimit="20"/>
<path d="M14.9769 16.5751L16.5575 16.9022C15.8376 21.5996 18.5428 21.1021 17.3002 23.6646C17.3278 21.2912 15.9044 22.5827 14.5363 19.1274" fill="#FCD116"/>
<path d="M14.9769 16.5751L16.5575 16.9022C15.8376 21.5996 18.5428 21.1021 17.3002 23.6646C17.3278 21.2912 15.9044 22.5827 14.5363 19.1274" stroke="black" stroke-width="0.146667" stroke-miterlimit="20" stroke-linecap="square"/>
<path d="M14.792 17.33C15.7236 21.3118 17.9687 21.6883 17.3001 23.6647" stroke="black" stroke-width="0.146667" stroke-miterlimit="20"/>
<path d="M13.5381 14.1626L14.8021 12.8403L20.4899 21.4352L12.2742 15.4849L13.5381 14.1626L20.4899 21.4352Z" fill="#FCD116"/>
<path d="M13.5381 14.1626L14.8021 12.8403L20.4899 21.4352L12.2742 15.4849L13.5381 14.1626ZM13.5381 14.1626L20.4899 21.4352" stroke="black" stroke-width="0.146667" stroke-miterlimit="20"/>
<path d="M13.5376 17.5915C15.3475 17.5915 16.8147 16.0566 16.8147 14.1632C16.8147 12.2698 15.3475 10.7349 13.5376 10.7349C11.7277 10.7349 10.2605 12.2698 10.2605 14.1632C10.2605 16.0566 11.7277 17.5915 13.5376 17.5915Z" fill="#FCD116" stroke="black" stroke-width="0.146667" stroke-miterlimit="20"/>
<path d="M15.9512 12.7918C15.7427 13.0412 15.6235 12.6048 14.8787 12.6048C14.134 12.6048 14.0148 13.0723 13.8956 12.9788C13.7765 12.8853 14.5212 12.3243 14.7596 12.2932C14.9979 12.262 15.6831 12.5113 15.9512 12.7918ZM15.0873 13.0723C15.2958 13.2593 15.1171 13.6645 14.9085 13.6645C14.7 13.6645 14.3127 13.2905 14.4915 13.0412" fill="black"/>
<path d="M14.104 13.3528C14.1338 12.9788 14.4317 12.9165 14.9084 12.9165C15.385 12.9165 15.5936 13.2905 15.7723 13.384C15.5638 13.384 15.385 13.0723 14.9084 13.0723C14.4317 13.0723 14.4317 13.0723 14.104 13.384M14.1934 13.4463C14.3125 13.2593 14.4615 13.6333 14.7892 13.6333C15.1169 13.6333 15.2957 13.5398 15.5042 13.384C15.7127 13.2282 15.2063 13.758 14.8786 13.758C14.5509 13.758 14.104 13.571 14.1934 13.4463Z" fill="black"/>
<path d="M15.2059 13.6332C15.5932 13.415 15.3549 13.1033 15.2059 13.041C15.2655 13.1033 15.5039 13.415 15.2059 13.6332ZM13.5376 15.5032C13.7164 15.5032 13.776 15.4408 14.0143 15.4408C14.2526 15.4408 14.8187 15.7837 15.1464 15.659C14.4612 15.9395 14.7293 15.7525 13.5376 15.7525H13.3887M15.2655 15.9395C15.1464 15.7213 15.1762 15.7837 14.9378 15.4408C15.1762 15.6278 15.2357 15.7213 15.2655 15.9395ZM13.5376 16.2511C14.2824 16.2511 14.1632 16.0953 15.1464 15.659C14.4314 15.7525 14.2824 16.0018 13.5376 16.0018H13.3887M13.5376 15.098C13.7462 15.098 13.8058 14.9422 14.0441 14.9422C14.2824 14.9422 14.6101 15.0357 14.7591 15.1603C14.7889 15.1915 14.6697 14.911 14.4314 14.8798C14.193 14.8487 14.2824 14.4435 14.0143 14.3812C14.0143 14.5058 14.1037 14.4747 14.1335 14.6617C14.1335 14.8175 13.8653 14.8175 13.8058 14.6617C13.8653 14.911 13.6866 14.911 13.5376 14.911" fill="black"/>
<path d="M11.1249 12.7918C11.3335 13.0412 11.4526 12.6048 12.1974 12.6048C12.9422 12.6048 13.0614 13.0723 13.1805 12.9788C13.2997 12.8853 12.5549 12.3243 12.3166 12.2932C12.0783 12.262 11.3931 12.5113 11.1249 12.7918ZM11.9889 13.0723C11.7803 13.2593 11.9591 13.6645 12.1676 13.6645C12.3762 13.6645 12.7635 13.2905 12.5847 13.0412" fill="black"/>
<path d="M12.9714 13.3528C12.9416 12.9788 12.6437 12.9165 12.1671 12.9165C11.6904 12.9165 11.4819 13.2905 11.3031 13.384C11.5117 13.384 11.6904 13.0723 12.1671 13.0723C12.6437 13.0723 12.6437 13.0723 12.9714 13.384M12.8821 13.4463C12.7629 13.2593 12.6139 13.6333 12.2862 13.6333C11.9585 13.6333 11.7798 13.5398 11.5712 13.384C11.3627 13.2282 11.8692 13.758 12.1969 13.758C12.5246 13.758 12.9714 13.571 12.8821 13.4463Z" fill="black"/>
<path d="M11.8695 13.6332C11.4822 13.415 11.7205 13.1033 11.8695 13.041C11.8099 13.1033 11.5716 13.415 11.8695 13.6332ZM13.5378 15.5032C13.3591 15.5032 13.2995 15.4408 13.0611 15.4408C12.8228 15.4408 12.2568 15.7837 11.9291 15.659C12.6143 15.9395 12.3462 15.7525 13.5378 15.7525H13.6868M11.8099 15.9395C11.9291 15.7213 11.8993 15.7837 12.1376 15.4408C11.8993 15.6278 11.8397 15.7213 11.8099 15.9395ZM13.5378 16.2511C12.793 16.2511 12.9122 16.0953 11.9291 15.659C12.6441 15.7525 12.793 16.0018 13.5378 16.0018H13.6868M13.5378 15.098C13.3293 15.098 13.2697 14.9422 13.0314 14.9422C12.793 14.9422 12.4653 15.0357 12.3164 15.1603C12.2866 15.1915 12.4057 14.911 12.6441 14.8798C12.8824 14.8487 12.793 14.4435 13.0611 14.3812C13.0611 14.5058 12.9718 14.4747 12.942 14.6617C12.942 14.8175 13.2101 14.8175 13.2697 14.6617C13.2101 14.911 13.3889 14.911 13.5378 14.911" fill="black"/>
<path d="M13.5377 16.5317C13.3887 16.5317 13.0015 16.6252 13.5377 16.6252C14.0739 16.6252 13.6867 16.5317 13.5377 16.5317Z" fill="black"/>
</g>
<defs>
<clipPath id="clip0_806_1475">
<rect width="65" height="51" fill="white"/>
</clipPath>
</defs>
</svg>
