<svg width="65" height="51" viewBox="0 0 65 51" fill="none" xmlns="http://www.w3.org/2000/svg">
<g clip-path="url(#clip0_806_2012)">
<path fill-rule="evenodd" clip-rule="evenodd" d="M-0.00048863 40.6193V10.3984L21.5081 25.5089L-0.0100098 40.6193H-0.00048863Z" fill="black"/>
<path fill-rule="evenodd" clip-rule="evenodd" d="M14.6716 51.0086L38.8176 34.0156H73.1133V50.9987H14.6716V51.0086Z" fill="#000C8A"/>
<path fill-rule="evenodd" clip-rule="evenodd" d="M13.1292 -0.00022143H73.1132V17.0127H38.8081C38.8081 17.0127 13.4434 -0.169554 13.1292 -0.00022143Z" fill="#E1392D"/>
<path fill-rule="evenodd" clip-rule="evenodd" d="M-0.000488629 6.37451V10.3986L21.5081 25.4991L-0.0100098 40.6195V44.6337L27.078 25.5091L-0.0100098 6.37451H-0.000488629Z" fill="#FFB915"/>
<path fill-rule="evenodd" clip-rule="evenodd" d="M-0.000488281 6.37486V0H9.04473L37.7228 20.3199H73.1229V30.699H37.7228L9.03521 50.9989H-0.000488281V44.634L27.078 25.5094L0.00903285 6.37486H-0.000488281Z" fill="#007847"/>
<path fill-rule="evenodd" clip-rule="evenodd" d="M9.03516 -0.000488281H14.6718L38.8177 17.0025H73.1134V20.3194H37.7228L9.03516 0.00947244V-0.000488281ZM9.03516 51.0084H14.6718L38.8177 34.0154H73.1134V30.7084H37.7228L9.03516 50.9984V51.0084Z" fill="white"/>
</g>
<defs>
<clipPath id="clip0_806_2012">
<rect width="65" height="51" fill="white"/>
</clipPath>
</defs>
</svg>
