<svg width="65" height="51" viewBox="0 0 65 51" fill="none" xmlns="http://www.w3.org/2000/svg">
<g clip-path="url(#clip0_802_99)">
<path d="M0 0H65V51H0V0Z" fill="#00008B"/>
<path d="M3.80859 0L16.1992 9.61563L28.5391 0H32.5V3.29375L20.3125 12.8031L32.5 22.2594V25.5H28.4375L16.25 15.9906L4.11328 25.5H0V22.3125L12.1367 12.8563L0 3.4V0H3.80859Z" fill="white"/>
<path d="M21.5312 14.9281L32.5 23.375V25.5L18.7383 14.9281H21.5312ZM12.1875 15.9906L12.4922 17.85L2.74219 25.5H0L12.1875 15.9906ZM32.5 0V0.159375L19.8555 10.1469L19.957 7.80938L29.9609 0H32.5ZM0 0L12.1367 9.35H9.08984L0 2.23125V0Z" fill="#FF0000"/>
<path d="M12.2383 0V25.5H20.3633V0H12.2383ZM0 8.5V17H32.5V8.5H0Z" fill="white"/>
<path d="M0 10.2531V15.3531H32.5V10.2531H0ZM13.8633 0V25.5H18.7383V0H13.8633Z" fill="#FF0000"/>
<path d="M53.5235 42.1495L51.4415 42.4257L51.6649 44.6038L50.1618 43.0738L48.6688 44.6145L48.872 42.4363L46.7899 42.1813L48.547 40.9913L47.4399 39.132L49.4306 39.8226L50.1313 37.7507L50.8524 39.812L52.8329 39.1001L51.7462 40.9701L53.5134 42.1495H53.5235ZM53.1478 29.697L53.422 28.3157L52.4267 27.3595L53.7673 27.2001L54.3259 25.9145L54.8845 27.2001L56.2251 27.3595L55.2298 28.3157L55.504 29.697L54.3259 28.9957L53.1478 29.697V29.697ZM42.5751 23.322L40.5134 23.5557L40.6962 25.7126L39.2337 24.172L37.7306 25.6701L37.9743 23.5132L35.9228 23.2263L37.6798 22.0788L36.6134 20.2195L38.5735 20.942L39.3048 18.9126L39.9853 20.9632L41.9556 20.2938L40.8485 22.132L42.5853 23.322H42.5751ZM63.2735 19.837L61.1509 20.1238L61.3845 22.3445L59.8509 20.7826L58.3274 22.3551L58.5407 20.1238L56.4181 19.8688L58.2157 18.647L57.0884 16.7451L59.1196 17.457L59.8306 15.3532L60.5618 17.457L62.5829 16.7238L61.4657 18.6363L63.2735 19.837ZM53.5134 10.9651L51.411 11.2095L51.604 13.4195L50.111 11.847L48.5774 13.377L48.8212 11.1776L46.7188 10.8801L48.5165 9.71133L47.4298 7.80945L49.4306 8.54258L50.172 6.4707L50.8626 8.56383L52.8735 7.8732L51.7462 9.7432L53.5134 10.9651V10.9651ZM23.7657 40.9807L19.1142 41.5545L19.5813 46.4313L16.2501 42.9888L12.8985 46.4101L13.3962 41.5332L8.74463 40.917L12.6954 38.282L10.2579 34.0957L14.686 35.6895L16.2907 31.0782L17.8649 35.7001L22.3032 34.1382L19.8353 38.3032L23.7759 40.9701L23.7657 40.9807Z" fill="white"/>
</g>
<defs>
<clipPath id="clip0_802_99">
<rect width="65" height="51" fill="white"/>
</clipPath>
</defs>
</svg>
