<svg width="65" height="51" viewBox="0 0 65 51" fill="none" xmlns="http://www.w3.org/2000/svg">
<g clip-path="url(#clip0_804_186)">
<path fill-rule="evenodd" clip-rule="evenodd" d="M0 0H92.625V3.93125H0V0ZM0 7.85188H92.625V11.7831H0V7.85188ZM0 15.6931H92.625V19.6244H0V15.6931ZM0 23.5344H92.625V27.4656H0V23.5344ZM0 31.3969H92.625V35.3069H0V31.3969ZM0 39.2275H92.625V43.1588H0V39.2275ZM0 47.0688H92.625V51H0V47.0688Z" fill="#BD3D44"/>
<path fill-rule="evenodd" clip-rule="evenodd" d="M-0.000244141 3.93115H92.6247V7.85178H-0.000244141V3.93115ZM-0.000244141 11.7724H92.6247V15.693H-0.000244141V11.7724ZM-0.000244141 19.6137H92.6247V23.5449H-0.000244141V19.6137ZM-0.000244141 27.4655H92.6247V31.3968H-0.000244141V27.4655ZM-0.000244141 35.3068H92.6247V39.238H-0.000244141V35.3068ZM-0.000244141 43.148H92.6247V47.0793H-0.000244141V43.148Z" fill="white"/>
<path fill-rule="evenodd" clip-rule="evenodd" d="M0 0H37.05V27.4656H0V0Z" fill="#192F5D"/>
<path fill-rule="evenodd" clip-rule="evenodd" d="M3.08706 1.16895L3.43237 2.26332H4.50894L3.6355 2.9327L3.97065 4.02707L3.08706 3.34707L2.21362 4.01645L2.53862 2.9327L1.65503 2.26332H2.76206L3.08706 1.16895ZM9.26206 1.16895L9.59722 2.26332H10.6941L9.8105 2.9327L10.1355 4.02707L9.26206 3.34707L8.37847 4.01645L8.71362 2.9327L7.84019 2.26332H8.91675L9.26206 1.16895ZM15.4371 1.16895L15.7722 2.26332H16.8589L15.9855 2.9327L16.3207 4.02707L15.4371 3.34707L14.5535 4.01645L14.8886 2.9327L14.005 2.26332H15.1019L15.4371 1.16895ZM21.6121 1.16895L21.9472 2.26332H23.0441L22.1605 2.9327L22.4957 4.02707L21.6121 3.34707L20.7285 4.01645L21.0738 2.9327L20.18 2.26332H21.2667L21.6121 1.16895ZM27.7871 1.16895L28.1222 2.26332H29.2089L28.3355 2.9327L28.6707 4.02707L27.7871 3.34707L26.9035 4.01645L27.2386 2.9327L26.3652 2.26332H27.4519L27.7871 1.16895ZM33.9621 1.16895L34.2972 2.26332H35.3941L34.5003 2.9327L34.8457 4.02707L33.9621 3.34707L33.0785 4.01645L33.4238 2.9327L32.53 2.26332H33.6269L33.9621 1.16895ZM6.17456 3.93145L6.50972 5.0152H7.61675L6.73315 5.67395L7.05815 6.76832L6.19487 6.09895L5.31128 6.76832L5.62612 5.67395L4.773 5.0152H5.85972L6.17456 3.93145ZM12.3496 3.93145L12.6949 5.0152H13.7816L12.8878 5.67395L13.2332 6.76832L12.3496 6.09895L11.466 6.76832L11.8011 5.67395L10.9175 5.0152H12.0144L12.3496 3.93145ZM18.5246 3.93145L18.8597 5.0152H19.9566L19.073 5.67395L19.4082 6.76832L18.5246 6.09895L17.641 6.76832L17.9761 5.67395L17.1027 5.0152H18.1792L18.5246 3.93145ZM24.6996 3.93145L25.0449 5.0152H26.1316L25.2378 5.67395L25.5832 6.76832L24.6996 6.09895L23.8261 6.76832L24.1511 5.67395L23.2675 5.0152H24.3746L24.6996 3.93145ZM30.8746 3.93145L31.2097 5.0152H32.3066L31.423 5.67395L31.7582 6.76832L30.8746 6.09895L29.991 6.76832L30.3261 5.67395L29.4527 5.0152H30.5394L30.8746 3.93145ZM3.08706 6.65144L3.43237 7.75645H4.50894L3.6355 8.42582L3.97065 9.50957L3.08706 8.84019L2.21362 9.50957L2.53862 8.42582L1.65503 7.75645H2.76206L3.08706 6.65144ZM9.26206 6.65144L9.59722 7.75645H10.6941L9.8105 8.42582L10.1355 9.50957L9.26206 8.84019L8.37847 9.50957L8.71362 8.41519L7.84019 7.74582H8.91675L9.26206 6.65144ZM15.4371 6.65144L15.7722 7.74582H16.8589L15.9855 8.41519L16.3207 9.49895L15.4371 8.82957L14.5535 9.49895L14.8886 8.40457L14.005 7.7352H15.1019L15.4371 6.65144ZM21.6121 6.65144L21.9472 7.74582H23.0441L22.1605 8.41519L22.4957 9.49895L21.6121 8.82957L20.7285 9.49895L21.0738 8.40457L20.18 7.7352H21.2667L21.6121 6.65144ZM27.7871 6.65144L28.1222 7.74582H29.2089L28.3355 8.41519L28.6707 9.49895L27.7871 8.82957L26.9035 9.49895L27.2386 8.40457L26.3652 7.7352H27.4519L27.7871 6.65144ZM33.9621 6.65144L34.2972 7.74582H35.3941L34.5003 8.41519L34.8457 9.49895L33.9621 8.82957L33.0785 9.49895L33.4238 8.40457L32.53 7.7352H33.6269L33.9621 6.65144ZM6.17456 9.41394L6.50972 10.4977H7.61675L6.73315 11.1671L7.06831 12.2614L6.18472 11.5814L5.30112 12.2508L5.63628 11.1671L4.76284 10.4977H5.84956L6.17456 9.41394ZM12.3496 9.41394L12.6949 10.4977H13.7816L12.8878 11.1671L13.2332 12.2614L12.3496 11.5814L11.466 12.2508L11.8011 11.1671L10.9175 10.4977H12.0144L12.3496 9.41394ZM18.5246 9.41394L18.8597 10.4977H19.9566L19.073 11.1671L19.4082 12.2614L18.5246 11.5814L17.641 12.2508L17.9761 11.1671L17.1027 10.4977H18.1792L18.5246 9.41394ZM24.6996 9.41394L25.0449 10.4977H26.1316L25.248 11.1671L25.5832 12.2614L24.6996 11.5814L23.8261 12.2508L24.1511 11.1671L23.2675 10.4977H24.3746L24.6996 9.41394ZM30.8746 9.41394L31.2097 10.4977H32.3066L31.423 11.1671L31.7582 12.2614L30.8746 11.5814L29.991 12.2508L30.3261 11.1671L29.4527 10.4977H30.5394L30.8746 9.41394ZM3.08706 12.1658L3.43237 13.2496H4.50894L3.6355 13.9189L3.97065 15.0133L3.08706 14.3333L2.21362 15.0027L2.53862 13.9189L1.65503 13.2496H2.76206L3.08706 12.1658ZM9.26206 12.1658L9.59722 13.2496H10.6941L9.8105 13.9189L10.1355 15.0027L9.26206 14.3333L8.37847 15.0027L8.71362 13.9189L7.84019 13.2496H8.91675L9.26206 12.1658ZM15.4371 12.1658L15.7722 13.2496H16.8589L15.9855 13.9189L16.3207 15.0133L15.4371 14.3333L14.5535 15.0027L14.8886 13.9189L14.005 13.2496H15.1019L15.4371 12.1658ZM21.6121 12.1658L21.9472 13.2496H23.0441L22.1605 13.9189L22.4957 15.0133L21.6121 14.3333L20.7285 15.0027L21.0738 13.9189L20.18 13.2496H21.2667L21.6121 12.1658ZM27.7871 12.1658L28.1222 13.2496H29.2089L28.3355 13.9189L28.6707 15.0133L27.7871 14.3333L26.9035 15.0027L27.2386 13.9189L26.3652 13.2496H27.4519L27.7871 12.1658ZM33.9621 12.1658L34.2972 13.2496H35.3941L34.5003 13.9189L34.8457 15.0133L33.9621 14.3333L33.0785 15.0027L33.4136 13.9189L32.5199 13.2496H33.6167L33.9621 12.1658ZM6.17456 14.9071L6.50972 16.0014H7.61675L6.73315 16.6602L7.06831 17.7546L6.18472 17.0746L5.30112 17.7546L5.63628 16.6602L4.76284 15.9908H5.84956L6.17456 14.9071ZM12.3496 14.9071L12.6949 16.0014H13.7816L12.8878 16.6602L13.2332 17.7546L12.3496 17.0746L11.466 17.7546L11.8011 16.6602L10.9175 15.9908H12.0144L12.3496 14.9071ZM18.5246 14.9071L18.8597 16.0014H19.9566L19.073 16.6602L19.4082 17.7546L18.5246 17.0746L17.641 17.7546L17.9761 16.6602L17.1027 15.9908H18.1792L18.5246 14.9071ZM24.6996 14.9071L25.0449 16.0014H26.1316L25.248 16.6602L25.5832 17.7546L24.6996 17.0746L23.8261 17.7546L24.1511 16.6602L23.2675 15.9908H24.3746L24.6996 14.9071ZM30.8746 14.9071L31.2097 16.0014H32.3066L31.423 16.6602L31.7582 17.7546L30.8746 17.0746L29.991 17.7546L30.3261 16.6602L29.4527 15.9908H30.5394L30.8746 14.9071ZM3.08706 17.6483L3.43237 18.7427H4.50894L3.6355 19.4121L3.97065 20.4852L3.08706 19.8264L2.21362 20.4852L2.53862 19.4014L1.65503 18.7321H2.76206L3.08706 17.6483ZM9.26206 17.6483L9.59722 18.7427H10.6941L9.8105 19.4121L10.1457 20.4852L9.26206 19.8264L8.37847 20.4852L8.72378 19.4014L7.84019 18.7321H8.91675L9.26206 17.6483ZM15.4371 17.6483L15.7722 18.7427H16.8589L15.9855 19.4121L16.3207 20.4852L15.4371 19.8264L14.5535 20.4852L14.8886 19.4014L14.005 18.7321H15.1019L15.4371 17.6483ZM21.6121 17.6483L21.9472 18.7427H23.0441L22.1605 19.4121L22.4957 20.4852L21.6121 19.8264L20.7285 20.4852L21.0738 19.4014L20.18 18.7321H21.2667L21.6121 17.6483ZM27.7871 17.6483L28.1222 18.7427H29.2089L28.3355 19.4121L28.6707 20.4852L27.7871 19.8264L26.9035 20.4852L27.2386 19.4014L26.3652 18.7321H27.4519L27.7871 17.6483ZM33.9621 17.6483L34.2972 18.7427H35.3941L34.5003 19.4121L34.8457 20.4852L33.9621 19.8264L33.0785 20.4852L33.4238 19.4014L32.53 18.7321H33.6269L33.9621 17.6483ZM6.17456 20.4002L6.50972 21.4839H7.61675L6.73315 22.1533L7.06831 23.2477L6.18472 22.5677L5.30112 23.2371L5.63628 22.1533L4.76284 21.4839H5.84956L6.17456 20.4002ZM12.3496 20.4002L12.6949 21.4839H13.7816L12.8878 22.1533L13.2332 23.2477L12.3496 22.5677L11.466 23.2371L11.8011 22.1533L10.9175 21.4839H12.0144L12.3496 20.4002ZM18.5246 20.4002L18.8597 21.4839H19.9566L19.073 22.1533L19.4082 23.2477L18.5246 22.5677L17.641 23.2371L17.9761 22.1533L17.1027 21.4839H18.1792L18.5246 20.4002ZM24.6996 20.4002L25.0449 21.4839H26.1316L25.248 22.1533L25.5832 23.2477L24.6996 22.5677L23.8261 23.2371L24.1511 22.1533L23.2675 21.4839H24.3746L24.6996 20.4002ZM30.8746 20.4002L31.2097 21.4839H32.3066L31.423 22.1533L31.7582 23.2477L30.8746 22.5677L29.991 23.2371L30.3261 22.1533L29.4527 21.4839H30.5394L30.8746 20.4002ZM3.08706 23.1521L3.43237 24.2358H4.50894L3.6355 24.9052L3.97065 25.9889L3.08706 25.3196L2.21362 25.9889L2.53862 24.8946L1.65503 24.2252H2.76206L3.08706 23.1521ZM9.26206 23.1521L9.59722 24.2358H10.6941L9.8105 24.9052L10.1457 25.9889L9.26206 25.3196L8.37847 25.9889L8.72378 24.8946L7.84019 24.2252H8.91675L9.26206 23.1521ZM15.4371 23.1521L15.7722 24.2358H16.8589L16.0058 24.9052L16.341 25.9889L15.4574 25.3196L14.5738 25.9889L14.9089 24.8946L14.0253 24.2252H15.1222L15.4371 23.1521ZM21.6121 23.1521L21.9472 24.2358H23.0441L22.1605 24.9052L22.4957 25.9889L21.6121 25.3196L20.7285 25.9889L21.0738 24.8946L20.18 24.2252H21.2667L21.6121 23.1521ZM27.7871 23.1521L28.1222 24.2358H29.2089L28.3355 24.9052L28.6707 25.9889L27.7871 25.3196L26.9035 25.9889L27.2386 24.8946L26.3652 24.2252H27.4519L27.7871 23.1521ZM33.9621 23.1521L34.2972 24.2358H35.3941L34.5003 24.9052L34.8457 25.9889L33.9621 25.3196L33.0785 25.9889L33.4238 24.8946L32.53 24.2252H33.6269L33.9621 23.1521Z" fill="white"/>
</g>
<defs>
<clipPath id="clip0_804_186">
<rect width="65" height="51" fill="white"/>
</clipPath>
</defs>
</svg>
