<svg width="65" height="51" viewBox="0 0 65 51" fill="none" xmlns="http://www.w3.org/2000/svg">
<g clip-path="url(#clip0_802_2)">
<path fill-rule="evenodd" clip-rule="evenodd" d="M0 0H65V51H0V0Z" fill="#229E45"/>
<path fill-rule="evenodd" clip-rule="evenodd" d="M32.6423 46.3248L63.2634 25.5317L32.4595 4.6748L1.73682 25.5742L32.6423 46.3248Z" fill="#F8E509"/>
<path fill-rule="evenodd" clip-rule="evenodd" d="M45.9875 25.5C45.9875 32.9694 40.1883 39.0256 33.0281 39.0256C30.4695 39.0214 27.9694 38.2237 25.8441 36.7333C23.7187 35.2429 22.0634 33.1267 21.0875 30.6523C20.1116 28.1779 19.8589 25.4563 20.3612 22.8317C20.8636 20.207 22.0985 17.7971 23.9099 15.9065C25.7213 14.016 28.0278 12.7298 30.5378 12.2104C33.0479 11.691 35.6488 11.9618 38.0117 12.9886C40.3747 14.0154 42.3936 15.752 43.8132 17.979C45.2329 20.2059 45.9895 22.8232 45.9875 25.5V25.5Z" fill="#2B49A3"/>
<path fill-rule="evenodd" clip-rule="evenodd" d="M28.7726 33.6068L28.3663 33.3624L27.9601 33.5749L28.0515 33.0968L27.7265 32.7355L28.1835 32.6824L28.4069 32.2574L28.5999 32.7036L29.0468 32.7886L28.7116 33.1074M37.446 35.9018L37.0499 35.6574L36.6437 35.8699L36.7249 35.3918L36.4101 35.0411L36.8671 34.988L37.0804 34.5524L37.2835 34.9986L37.7304 35.0836L37.3851 35.413M33.7085 32.2255L33.3632 32.013L33.0077 32.2043L33.089 31.7899L32.8046 31.4818L33.2108 31.4393L33.3937 31.0568L33.5562 31.4499L33.9522 31.5243L33.6476 31.8111M42.4835 30.908L42.1382 30.6955L41.7827 30.8868L41.864 30.4724L41.5897 30.1749L41.9858 30.1324L42.1687 29.7605L42.3312 30.143L42.7171 30.2174L42.4226 30.4936M33.5562 28.1561L33.1499 27.9224L32.7437 28.1349L32.8249 27.6461L32.5101 27.2955L32.9671 27.2424L33.1804 26.8068L33.3835 27.253L33.8304 27.338L33.4851 27.678M22.8616 23.9593L22.4554 23.7255L22.0491 23.938L22.1507 23.4493L21.8155 23.0986L22.2827 23.0455L22.4858 22.6099L22.689 23.0561L23.1358 23.1411L22.8007 23.4705M24.1515 29.548L23.7452 29.3036L23.339 29.5161L23.4304 29.038L23.1054 28.6874L23.5624 28.6236L23.7757 28.1986L23.9788 28.6449L24.4257 28.7299L24.0905 29.0593M37.4968 21.9086L37.1312 21.6961L36.7655 21.8874L36.8468 21.4624L36.5624 21.1436L36.9687 21.0905L37.1616 20.708L37.3343 21.1118L37.7405 21.1861L37.4358 21.473M36.7554 25.5424L36.4812 25.3724L36.1866 25.5211L36.2476 25.1811L36.0241 24.9368L36.3491 24.8943L36.5015 24.5968L36.6335 24.9155L36.9382 24.9686L36.7147 25.2024M22.2726 30.5574L21.9983 30.398L21.7241 30.5361L21.7851 30.2174L21.5718 29.9836L21.8765 29.9411L22.0187 29.6543L22.1507 29.9518L22.4554 30.0155L22.2218 30.228M42.5546 31.8536L42.3312 31.7368L42.1077 31.843L42.1585 31.5986L41.9858 31.4286L42.2296 31.3968L42.3515 31.1843L42.453 31.3968L42.7069 31.4499L42.514 31.6093" fill="#FFFFEF"/>
<path fill-rule="evenodd" clip-rule="evenodd" d="M22.2726 30.5574L21.9983 30.398L21.7241 30.5362L21.7851 30.2174L21.5718 29.9837L21.8765 29.9412L22.0187 29.6543L22.1507 29.9518L22.4554 30.0155L22.2218 30.228" fill="#FFFFEF"/>
<path fill-rule="evenodd" clip-rule="evenodd" d="M22.2726 30.5574L21.9983 30.398L21.7241 30.5361L21.7851 30.2174L21.5718 29.9836L21.8765 29.9411L22.0187 29.6543L22.1507 29.9518L22.4554 30.0155L22.2218 30.228M26.5179 30.5468L26.2538 30.398L25.9796 30.5361L26.0405 30.2174L25.8272 29.9836L26.1319 29.9411L26.2741 29.6543L26.4062 29.9518L26.7108 30.0049L26.4772 30.228M25.9897 32.0343L25.7257 31.8749L25.4515 32.0236L25.5124 31.7049L25.2991 31.4605L25.6038 31.418L25.746 31.1311L25.878 31.4286L26.1827 31.4924L25.9491 31.7049M34.8257 29.3461L34.5616 29.1761L34.2772 29.3249L34.3382 29.0061L34.1351 28.7618L34.4397 28.7299L34.5819 28.443L34.7038 28.7405L35.0085 28.7936L34.7851 29.0168M32.2358 29.3355L31.9616 29.1761L31.6874 29.3249L31.7483 29.0061L31.5452 28.7618L31.8499 28.7299L31.9921 28.4324L32.114 28.7405L32.4187 28.7936L32.1952 29.0168M25.2077 28.4005L25.0351 28.2943L24.8624 28.3793L24.903 28.1774L24.771 28.0286L24.964 28.0074L25.0452 27.8268L25.1265 28.018L25.3194 28.0499L25.1772 28.188M42.2194 33.0118L41.9554 32.8524L41.6812 33.0011L41.7421 32.6824L41.5288 32.438L41.8335 32.3955L41.9757 32.1086L42.1077 32.4061L42.4124 32.4699L42.1788 32.6824M40.0663 33.3199L39.8429 33.1711L39.6093 33.2986L39.6601 33.0224L39.4874 32.8311L39.7413 32.7993L39.8632 32.5549L39.9647 32.8099L40.2187 32.8524L40.0257 33.0436M41.0819 33.288L40.8788 33.1605L40.6655 33.2668L40.7062 33.0224L40.5437 32.8418L40.7772 32.8099L40.889 32.5974L40.9905 32.8099L41.2241 32.863L41.0515 33.033M44.0069 30.6105L43.8038 30.5043L43.6007 30.6105L43.6515 30.3661L43.489 30.1855L43.7226 30.1536L43.8241 29.9411L43.9257 30.1643L44.139 30.2068L43.9765 30.3768M40.0358 34.818L39.7819 34.6693L39.5077 34.7968L39.5687 34.4993L39.3655 34.2868L39.6702 34.2549L39.8022 33.9893L39.9241 34.2655L40.2288 34.3186L39.9952 34.5205M40.0562 36.0293L39.8124 35.8805L39.5687 36.0186L39.6296 35.7211L39.4366 35.5086L39.7108 35.4661L39.8327 35.2005L39.9444 35.4768L40.2187 35.5299L40.0155 35.7424M38.0858 33.288L37.8929 33.1605L37.6897 33.2668L37.7304 33.033L37.578 32.8524L37.8015 32.8311L37.903 32.6186L38.0046 32.8311L38.228 32.8736L38.0655 33.0436M36.2577 33.288L36.0546 33.1605L35.8515 33.2668L35.9022 33.033L35.7397 32.8524L35.9733 32.8311L36.0749 32.6186L36.1765 32.8311L36.3897 32.8736L36.2272 33.0436M33.1397 30.4299L32.9366 30.313L32.7335 30.4193L32.7843 30.1749L32.6218 30.0049L32.8452 29.973L32.9468 29.7605L33.0483 29.973L33.2718 30.0261L33.1093 30.1855M33.4851 36.2418L33.3226 36.1461L33.1397 36.2418L33.1804 36.0293L33.0483 35.8805L33.2413 35.8593L33.3327 35.6786L33.414 35.8699L33.6069 35.9018L33.4647 36.0399M28.7726 26.8386L28.3663 26.5943L27.9601 26.8068L28.0515 26.3286L27.7265 25.978L28.1835 25.9143L28.4069 25.4893L28.5999 25.9355L29.0468 26.0205L28.7116 26.3499" fill="#FFFFEF"/>
<path fill-rule="evenodd" clip-rule="evenodd" d="M45.1344 30.3661C45.386 29.6831 45.583 28.9794 45.7234 28.2623C38.8375 21.9404 31.1695 18.6998 21.4805 19.3692C21.1291 20.0805 20.8401 20.8238 20.6172 21.5898C32.0938 20.4423 40.5234 25.7548 45.1344 30.3661Z" fill="white"/>
<path d="M42.0468 26.8177L42.2804 26.9558C42.2455 27.028 42.2348 27.1103 42.2499 27.1896C42.2737 27.2665 42.3246 27.331 42.3921 27.3702C42.4632 27.4233 42.5343 27.4552 42.5953 27.4446C42.6562 27.4446 42.6968 27.4127 42.7273 27.3702C42.745 27.342 42.7522 27.308 42.7476 27.2746C42.7393 27.2353 42.7218 27.1988 42.6968 27.1683C42.6765 27.1364 42.6257 27.0621 42.5445 26.9771C42.461 26.8869 42.3984 26.7778 42.3617 26.6583C42.3363 26.5679 42.3429 26.4709 42.3802 26.3851C42.4175 26.2993 42.483 26.2303 42.5648 26.1908C42.6387 26.1586 42.7203 26.1511 42.7984 26.1696C42.8939 26.1926 42.9838 26.236 43.0624 26.2971C43.2046 26.4033 43.296 26.5096 43.3265 26.6371C43.3406 26.6967 43.3424 26.7588 43.3319 26.8192C43.3214 26.8796 43.2988 26.937 43.2656 26.9877L43.0218 26.8283C43.0523 26.7646 43.0624 26.7008 43.0421 26.6477C43.032 26.5946 42.9914 26.5414 42.9203 26.4989C42.8681 26.455 42.8043 26.4291 42.7374 26.4246C42.719 26.4239 42.7008 26.4285 42.6847 26.4379C42.6686 26.4472 42.6552 26.461 42.646 26.4777C42.6257 26.5096 42.6257 26.5414 42.6359 26.5839C42.646 26.6264 42.6968 26.7114 42.7984 26.8177C42.8999 26.9239 42.9609 27.0196 43.0015 27.0833C43.0378 27.153 43.0542 27.232 43.0488 27.3111C43.0434 27.3902 43.0164 27.466 42.971 27.5296C42.9235 27.6018 42.8563 27.6573 42.7781 27.6889C42.7019 27.7256 42.6168 27.7368 42.5343 27.7208C42.4429 27.6996 42.3515 27.6571 42.2499 27.5827C42.0976 27.4764 42.0062 27.3596 41.9757 27.2321C41.9426 27.0875 41.9645 26.9351 42.0367 26.8071L42.0468 26.8177ZM40.8687 26.0102L41.1226 26.1483C41.0912 26.2217 41.084 26.304 41.1023 26.3821C41.1283 26.455 41.1788 26.5155 41.2445 26.5521C41.3257 26.6052 41.3867 26.6264 41.4476 26.6158C41.5085 26.6158 41.5492 26.5839 41.5796 26.5308C41.595 26.5055 41.6022 26.4757 41.5999 26.4458C41.5999 26.4139 41.5796 26.3714 41.5492 26.3396C41.4971 26.2739 41.4429 26.2101 41.3867 26.1483C41.2749 26.0314 41.2039 25.9358 41.1835 25.8508C41.1669 25.7961 41.162 25.7383 41.169 25.6814C41.176 25.6245 41.1948 25.5699 41.2242 25.5214C41.2628 25.4559 41.3194 25.404 41.3867 25.3727C41.4565 25.339 41.5343 25.3279 41.6101 25.3408C41.704 25.3574 41.7938 25.3935 41.8742 25.4471C42.0265 25.5533 42.1179 25.6596 42.1484 25.7764C42.1669 25.8362 42.1729 25.8994 42.1658 25.9617C42.1588 26.0241 42.139 26.0841 42.1078 26.1377L41.8539 25.9889C41.8843 25.9146 41.8945 25.8614 41.8742 25.8083C41.8539 25.7552 41.8132 25.7021 41.7421 25.6596C41.6859 25.6174 41.6183 25.595 41.5492 25.5958C41.5325 25.597 41.5164 25.6025 41.5022 25.6117C41.488 25.621 41.4762 25.6338 41.4679 25.6489C41.4476 25.6808 41.4476 25.7127 41.4578 25.7552C41.4679 25.7977 41.5289 25.8827 41.6304 25.9889C41.732 26.0952 41.8031 26.1802 41.8335 26.2439C41.8742 26.3106 41.8959 26.388 41.8959 26.4671C41.8959 26.5461 41.8742 26.6236 41.8335 26.6902C41.7898 26.7643 41.7262 26.8234 41.6507 26.8602C41.5746 26.8969 41.4894 26.908 41.407 26.8921C41.3025 26.8736 41.2024 26.8339 41.1124 26.7752C40.9812 26.702 40.88 26.581 40.8281 26.4352C40.7888 26.2933 40.8034 26.1411 40.8687 26.0102V26.0102ZM39.4265 25.6064L40.1679 24.3314L41.0617 24.9158L40.9398 25.1283L40.2898 24.7033L40.1273 24.9902L40.7367 25.3833L40.6046 25.5958L39.9953 25.2027L39.7921 25.5533L40.4726 25.9783L40.3507 26.1908L39.4367 25.6064H39.4265ZM37.3242 23.8002L37.4359 23.5877L37.9843 23.8746L37.7304 24.4058C37.6492 24.4271 37.5476 24.4377 37.4257 24.4271C37.3087 24.4136 37.1951 24.3776 37.0906 24.3208C36.9677 24.2582 36.8626 24.1629 36.7859 24.0446C36.716 23.9346 36.6806 23.8047 36.6843 23.6727C36.6895 23.5353 36.7242 23.401 36.7859 23.2796C36.8469 23.1518 36.9377 23.0422 37.0499 22.9608C37.1573 22.8832 37.2851 22.8423 37.4156 22.8439C37.5171 22.8439 37.6187 22.8758 37.7406 22.9502C37.9031 23.0246 38.0046 23.1308 38.0554 23.2477C38.1082 23.3637 38.1191 23.4958 38.0859 23.6196L37.8117 23.5346C37.8285 23.4634 37.8213 23.3884 37.7914 23.3221C37.7609 23.2583 37.7101 23.2158 37.6289 23.1733C37.5815 23.145 37.529 23.1276 37.4747 23.1221C37.4204 23.1166 37.3657 23.1232 37.314 23.1414C37.2124 23.1733 37.121 23.2689 37.0499 23.4177C36.9789 23.5664 36.9484 23.7046 36.9789 23.8214C36.9929 23.8769 37.0183 23.9284 37.0534 23.9725C37.0885 24.0165 37.1324 24.052 37.182 24.0764C37.2328 24.1083 37.2937 24.1296 37.3546 24.1296C37.4152 24.1392 37.4769 24.1392 37.5374 24.1296L37.6187 23.9596L37.3242 23.8002V23.8002ZM28.1632 21.4308L28.3664 19.9433L28.7929 20.0177L28.9046 21.0589L29.3007 20.1027L29.7273 20.1664L29.5242 21.6327L29.2499 21.5902L29.4226 20.4321L28.9757 21.5477L28.7015 21.5052L28.5898 20.3046L28.4273 21.4733L28.1632 21.4308V21.4308ZM26.7312 21.2502L26.8632 19.7627L27.9093 19.8689L27.889 20.1239L27.1273 20.0496L27.0968 20.3683L27.8078 20.4427L27.7773 20.6977L27.0664 20.6233L27.0359 21.0271L27.8281 21.1014L27.8078 21.3564L26.7312 21.2502V21.2502Z" fill="#309E3A"/>
<path d="M21.9883 20.3255C21.9883 20.1662 22.0187 20.0493 22.0594 19.943C22.095 19.8675 22.1431 19.7991 22.2015 19.7412C22.2536 19.6862 22.3158 19.6428 22.3844 19.6137C22.4859 19.5818 22.5875 19.5605 22.689 19.5605C22.9023 19.5605 23.0648 19.6455 23.1968 19.773C23.2597 19.8543 23.3064 19.9478 23.3343 20.0481C23.3622 20.1485 23.3707 20.2536 23.3594 20.3574C23.3594 20.5912 23.2883 20.7824 23.1562 20.9205C23.0884 20.9862 23.0081 21.0361 22.9206 21.0672C22.8332 21.0984 22.7404 21.1099 22.6484 21.1012C22.5576 21.1021 22.4676 21.0838 22.3838 21.0473C22.3 21.0107 22.2242 20.9568 22.1609 20.8887C22.0345 20.7322 21.9725 20.5297 21.9883 20.3255V20.3255Z" fill="#309E3A"/>
<path d="M22.2827 20.3256C22.2827 20.485 22.3132 20.6125 22.3843 20.7081C22.4554 20.7931 22.5468 20.8462 22.6687 20.8462C22.7214 20.8501 22.7743 20.8416 22.8235 20.8214C22.8726 20.8012 22.9169 20.7697 22.953 20.7294C23.0241 20.6444 23.0546 20.5169 23.0647 20.3362C23.0647 20.1662 23.0444 20.0388 22.9632 19.9538C22.9301 19.9109 22.8883 19.8763 22.8409 19.8524C22.7935 19.8285 22.7416 19.816 22.689 19.8156C22.6355 19.8138 22.5824 19.8243 22.5333 19.8464C22.4841 19.8684 22.4402 19.9014 22.4046 19.9431C22.3233 20.0281 22.2929 20.1556 22.2827 20.3256V20.3256Z" fill="#F7FFFF"/>
<path d="M23.6641 21.0905L23.6844 19.603H24.2937C24.4461 19.603 24.5477 19.6243 24.6187 19.6562C24.6898 19.6774 24.7406 19.7305 24.7812 19.7943C24.8219 19.858 24.8422 19.943 24.8422 20.0387C24.843 20.1409 24.8067 20.2396 24.7406 20.3149C24.6655 20.3885 24.5689 20.4334 24.4664 20.4424L24.6187 20.5699C24.6594 20.6124 24.7102 20.6974 24.7711 20.8143L24.9438 21.1118H24.5984L24.3953 20.7718L24.2531 20.5593C24.2285 20.53 24.197 20.5081 24.1617 20.4955C24.1155 20.4814 24.0677 20.4743 24.0195 20.4743H23.9586V21.0905H23.6641V21.0905Z" fill="#309E3A"/>
<path d="M23.9688 20.2404H24.1719C24.3141 20.2404 24.4055 20.2404 24.4359 20.2192C24.4664 20.2192 24.4969 20.1873 24.5172 20.166C24.5375 20.1448 24.5477 20.0917 24.5477 20.0598C24.5477 19.996 24.5375 19.9535 24.507 19.9323C24.4867 19.9004 24.4461 19.8792 24.4055 19.8685H24.2023L23.9688 19.8579V20.2298V20.2404Z" fill="white"/>
<path d="M25.2891 19.6777L25.8172 19.7096C25.929 19.7096 26.0204 19.7202 26.0813 19.7415C26.1603 19.7715 26.2304 19.8228 26.2844 19.8902C26.3429 19.9645 26.3846 20.0517 26.4063 20.1452C26.4368 20.2409 26.4469 20.3577 26.4368 20.4959C26.4367 20.6043 26.4195 20.712 26.386 20.8146C26.3454 20.9209 26.2844 21.0059 26.2133 21.0696C26.1542 21.1206 26.0847 21.1569 26.0102 21.1759C25.9493 21.1971 25.8579 21.1971 25.7563 21.1971L25.218 21.1652L25.2891 19.6777V19.6777Z" fill="#309E3A"/>
<path d="M25.5632 19.9434L25.5125 20.9315H25.8984C25.9492 20.9315 25.9898 20.9102 26.0203 20.8784C26.0507 20.8465 26.0812 20.804 26.1015 20.7402C26.1218 20.6765 26.1421 20.5809 26.1421 20.464L26.132 20.1984C26.1175 20.1423 26.0895 20.0911 26.0507 20.0496C26.017 20.0141 25.975 19.9885 25.9289 19.9752C25.8521 19.9573 25.7739 19.9467 25.6953 19.9434H25.5632V19.9434Z" fill="white"/>
<path d="M32.2563 22.3337L32.5915 20.8887L33.0384 20.9949L33.3634 21.1012C33.4345 21.1437 33.4954 21.2074 33.5259 21.303C33.5665 21.388 33.5665 21.4837 33.5462 21.6005C33.5259 21.6855 33.4954 21.7599 33.4446 21.813C33.4074 21.8597 33.3608 21.8972 33.3081 21.9229C33.2555 21.9486 33.198 21.9619 33.1399 21.9618C33.0688 21.9618 32.9673 21.9405 32.8353 21.9087L32.6626 21.8555L32.5407 22.408L32.2563 22.3337V22.3337Z" fill="#309E3A"/>
<path d="M32.8049 21.2075L32.7236 21.6113L32.876 21.6538C32.9775 21.675 33.0588 21.6963 33.0994 21.6856C33.1389 21.6799 33.1758 21.6615 33.2049 21.633C33.234 21.6044 33.2539 21.5671 33.2619 21.5263C33.2619 21.4731 33.2619 21.4306 33.2416 21.3881C33.2193 21.345 33.1834 21.3112 33.14 21.2925L32.9471 21.2394L32.815 21.2075H32.8049Z" fill="white"/>
<path d="M33.5767 22.7482L34.054 21.3457L34.6126 21.5582C34.7649 21.6113 34.8563 21.6645 34.9173 21.707C34.9681 21.7601 35.0087 21.8132 35.0188 21.8982C35.029 21.9832 35.0392 22.0576 35.0188 22.1426C34.9782 22.2488 34.9173 22.3232 34.836 22.3763C34.7548 22.4188 34.6532 22.4295 34.5313 22.4082C34.572 22.4613 34.6126 22.5145 34.6329 22.5782L34.7142 22.8651L34.7751 23.1945L34.4603 23.0776L34.3587 22.6951C34.3402 22.6086 34.3165 22.5234 34.2876 22.4401C34.2741 22.407 34.2532 22.3779 34.2267 22.3551C34.2063 22.3232 34.1657 22.302 34.0946 22.2807L34.0438 22.2595L33.8407 22.8545L33.5767 22.7482V22.7482Z" fill="#309E3A"/>
<path d="M34.1251 22.0362L34.3181 22.1105C34.4501 22.1637 34.5314 22.1849 34.572 22.1849C34.6025 22.1849 34.633 22.1849 34.6634 22.153C34.6939 22.1318 34.7142 22.0999 34.7244 22.0574C34.7447 22.0149 34.7447 21.9724 34.7244 21.9299C34.7093 21.8887 34.6804 21.8547 34.6431 21.8343L34.44 21.7599L34.2369 21.6855L34.115 22.0362H34.1251Z" fill="white"/>
<path d="M35.2421 22.6948C35.2771 22.5704 35.3358 22.4548 35.4148 22.3548C35.4661 22.2907 35.5281 22.2368 35.5976 22.1955C35.6606 22.1583 35.7293 22.1331 35.8007 22.1211C35.9023 22.1211 36.0038 22.1211 36.1156 22.1636C36.2064 22.1871 36.2913 22.2305 36.3649 22.291C36.4384 22.3514 36.4988 22.4275 36.5421 22.5142C36.6234 22.6842 36.6234 22.8861 36.5624 23.1198C36.5122 23.3207 36.3881 23.4925 36.2171 23.598C36.0648 23.6936 35.882 23.7042 35.689 23.6405C35.5985 23.6163 35.5138 23.5727 35.4403 23.5123C35.3668 23.4519 35.3063 23.3762 35.2624 23.2898C35.2218 23.197 35.199 23.0966 35.1955 22.9945C35.1921 22.8924 35.2079 22.7905 35.2421 22.6948V22.6948Z" fill="#309E3A"/>
<path d="M35.5266 22.78C35.4859 22.9394 35.4758 23.0775 35.5266 23.1838C35.5774 23.29 35.6484 23.3538 35.7602 23.3963C35.8617 23.4281 35.9633 23.4175 36.0649 23.3538C36.1664 23.3006 36.2274 23.1838 36.2781 23.0138C36.3289 22.8544 36.3289 22.7269 36.2781 22.6206C36.2581 22.5702 36.2277 22.5251 36.1891 22.4883C36.1504 22.4516 36.1046 22.4242 36.0547 22.4081C36.0047 22.3901 35.9516 22.3836 35.899 22.3891C35.8464 22.3946 35.7956 22.412 35.75 22.44C35.6484 22.5038 35.5774 22.61 35.5266 22.78V22.78Z" fill="white"/>
<path d="M38.0149 24.7667L38.6649 23.4492L39.2032 23.7361C39.3046 23.787 39.3973 23.8552 39.4774 23.938C39.5282 23.9911 39.5586 24.0548 39.5586 24.1398C39.5586 24.2248 39.5586 24.2992 39.518 24.3736C39.479 24.4691 39.4062 24.5452 39.3149 24.5861C39.2133 24.6073 39.1118 24.6073 39 24.5648C39.0407 24.6286 39.061 24.6923 39.0813 24.7455C39.1016 24.8092 39.1118 24.9048 39.1219 25.043L39.1422 25.383L38.8375 25.2236L38.7969 24.8305C38.7921 24.7413 38.7819 24.6526 38.7665 24.5648C38.7595 24.5251 38.7419 24.4882 38.7157 24.4586L38.5938 24.3842L38.543 24.3523L38.2688 24.9048L38.0149 24.7667V24.7667Z" fill="#309E3A"/>
<path d="M38.6445 24.1398L38.8375 24.2461C38.9594 24.3098 39.0406 24.3523 39.0711 24.3523C39.1016 24.3523 39.1422 24.3523 39.1727 24.3311C39.2031 24.3204 39.2234 24.2886 39.2437 24.2461C39.2641 24.2036 39.2742 24.1611 39.2641 24.1186C39.2515 24.0763 39.2267 24.0391 39.193 24.0123C39.1335 23.9741 39.0725 23.9387 39.0102 23.9061L38.807 23.7998L38.6445 24.1398V24.1398Z" fill="white"/>
<path d="M43.2758 27.4867C43.3415 27.3775 43.428 27.2834 43.5297 27.2105C43.5981 27.1647 43.6738 27.1323 43.7532 27.1148C43.8269 27.0991 43.9029 27.0991 43.9766 27.1148C44.0782 27.1361 44.1696 27.1786 44.261 27.2423C44.34 27.2938 44.4079 27.362 44.4604 27.4425C44.5129 27.523 44.5487 27.614 44.5657 27.7098C44.5961 27.8905 44.5454 28.0923 44.4235 28.2942C44.3215 28.4698 44.1572 28.5959 43.9664 28.6448C43.8755 28.6654 43.7815 28.6656 43.6904 28.6455C43.5994 28.6253 43.5135 28.5853 43.4383 28.528C43.3593 28.4765 43.2914 28.4083 43.2389 28.3278C43.1864 28.2473 43.1506 28.1563 43.1336 28.0605C43.1032 27.8692 43.1539 27.678 43.2758 27.4867Z" fill="#309E3A"/>
<path d="M43.5298 27.6567C43.4282 27.7948 43.3977 27.9223 43.418 28.0392C43.4255 28.093 43.4439 28.1446 43.4719 28.1904C43.4999 28.2362 43.537 28.2752 43.5806 28.3048C43.6821 28.3792 43.7837 28.4005 43.8852 28.3686C43.9868 28.3367 44.0884 28.2623 44.1798 28.1136C44.2712 27.9648 44.3118 27.8373 44.2915 27.7311C44.2813 27.6248 44.2204 27.5292 44.129 27.4548C44.0376 27.3805 43.9259 27.3698 43.8243 27.4017C43.7227 27.423 43.6212 27.508 43.5196 27.6567H43.5298Z" fill="white"/>
<path d="M30.6516 21.7283L30.8852 20.687L31.6165 20.8676L31.586 21.0376L31.0477 20.9101L30.9969 21.1439L31.4946 21.2608L31.454 21.4414L30.9563 21.3139L30.8954 21.6008L31.454 21.7389L31.4133 21.9089L30.6516 21.7283V21.7283Z" fill="#309E3A"/>
</g>
<defs>
<clipPath id="clip0_802_2">
<rect width="65" height="51" fill="white"/>
</clipPath>
</defs>
</svg>
