<svg width="65" height="51" viewBox="0 0 65 51" fill="none" xmlns="http://www.w3.org/2000/svg">
<g clip-path="url(#clip0_806_1456)">
<path fill-rule="evenodd" clip-rule="evenodd" d="M-4.0625 0H69.0625V51H-4.0625V0Z" fill="#199D00"/>
<path fill-rule="evenodd" clip-rule="evenodd" d="M14.3617 14.4535C14.2856 15.6488 14.1713 17.7406 15.152 17.9598C16.3232 18.0793 15.6757 15.8879 16.1042 15.4895C16.1803 15.2902 16.3232 15.2902 16.3327 15.5393V17.402C16.3327 17.9996 16.7136 18.1789 16.9992 18.2984C17.3039 18.2785 17.5134 18.2984 17.6276 18.5973L17.78 21.8146C17.78 21.8146 18.4845 22.0338 18.5226 20.0117C18.5512 18.8164 18.2941 17.8303 18.4465 17.6012C18.4465 17.3721 18.7321 17.3621 18.9225 17.4717C19.2272 17.6908 19.3605 17.9697 19.8366 17.8701C20.5602 17.651 20.9982 17.2824 21.0077 16.7047C20.9934 16.1369 20.8805 15.5766 20.6745 15.0512C20.7126 14.9516 20.5412 14.6826 20.5793 14.583C20.7031 14.8021 20.903 14.7822 20.9411 14.583C20.8173 14.1646 20.6269 13.7562 20.3222 13.5869C20.0651 13.3479 19.6843 13.3877 19.5605 13.8857C19.4843 14.4535 19.7509 15.1209 20.1413 15.6787C20.227 15.8879 20.3412 16.2465 20.2936 16.5652C20.0842 16.6947 19.8747 16.635 19.6938 16.4457C19.6938 16.4457 19.1225 15.9975 19.1225 15.8879C19.2748 14.8719 19.1511 14.7523 19.0654 14.4635C19.0082 14.075 18.8273 13.9455 18.6845 13.6865C18.5417 13.5271 18.3512 13.5271 18.256 13.6865C17.999 14.1447 18.1227 15.1309 18.3036 15.5791C18.4369 15.9875 18.6369 16.2465 18.5417 16.2465C18.4655 16.4756 18.3036 16.4158 18.1799 16.1469C18.0405 15.5809 17.9733 14.9981 17.9799 14.4137C17.9323 13.9555 17.8752 12.9793 17.58 12.7203C17.4086 12.4812 17.1515 12.6008 17.0563 12.8199C17.0312 13.2649 17.0407 13.7113 17.0849 14.1547C17.2753 14.8918 17.342 15.5492 17.4372 16.2963C17.4657 17.3023 16.8849 16.7346 16.9135 16.2266C17.0384 15.5879 17.0287 14.9284 16.8849 14.2941C16.7897 14.0352 16.685 13.9754 16.4469 14.0152C16.266 14.0152 15.7995 14.5432 15.6662 15.4396C15.6662 15.4396 15.5519 15.8979 15.5043 16.3062C15.4377 16.7645 15.152 17.1031 14.9426 16.2465C14.7712 15.6189 14.6569 14.0949 14.3713 14.4535H14.3617Z" fill="white"/>
<path fill-rule="evenodd" clip-rule="evenodd" d="M17.5513 19.3444L14.5044 20.8784C14.533 20.1513 15.9421 18.8464 16.9133 18.8364C17.5322 18.8464 17.3799 19.0854 17.5417 19.3444H17.5513Z" fill="white"/>
<path fill-rule="evenodd" clip-rule="evenodd" d="M17.0086 20.3404C15.409 24.6734 20.7696 25.281 21.3695 20.5197C21.4266 20.3204 21.6551 20.1312 21.6932 20.4499C21.5694 24.763 17.5418 25.0519 16.8563 23.6972C16.695 23.2311 16.6144 22.7386 16.6182 22.2429C16.523 21.3962 16.0946 21.7249 16.0279 22.5617C15.9613 23.0298 15.9803 23.1593 15.9803 23.6076C16.1898 27.0142 21.379 25.5499 22.2264 22.741C22.6739 21.187 22.1502 20.0415 22.3883 20.0415C22.9024 20.6193 23.6261 20.1212 23.7879 19.922C23.8546 19.8224 24.026 19.7527 24.1402 19.8822C24.5401 20.181 25.2447 20.0415 25.397 19.5136C25.4827 18.9857 25.5494 18.4478 25.5684 17.8999C25.2352 17.9995 24.9971 18.0693 24.9686 18.2187L24.9019 18.6769C24.8734 18.8263 24.5972 18.8263 24.5782 18.637C24.4544 18.0394 23.9403 17.9697 23.6261 18.8861C23.4261 19.0654 23.0452 19.1052 23.0072 18.8363C23.0548 18.2187 22.8167 18.139 22.3407 18.4279L21.8836 14.822C22.0741 14.822 22.2645 14.9714 22.4454 14.7324C22.255 14.0849 21.8265 12.7701 21.5885 12.6704C21.4837 12.531 21.3885 12.6206 21.2362 12.6605C20.9886 12.7402 20.7601 12.9593 20.8363 13.3976C21.1219 15.2702 21.3123 16.6947 21.6075 18.5773C21.6551 18.7865 21.4837 19.0753 21.2552 19.0454C20.8743 18.7765 20.7791 18.2286 20.1126 18.2486C19.6366 18.2486 19.1033 18.7964 19.0367 19.3144C18.951 19.7327 18.9224 20.181 19.0367 20.5396C19.3699 20.9579 19.7699 20.9181 20.1221 20.8285C20.4078 20.699 20.6458 20.4001 20.7506 20.4699C20.8172 20.5595 20.7601 21.5556 19.389 22.3126C18.5606 22.7111 17.8941 22.7908 17.5418 22.0835C17.3228 21.6353 17.5609 19.9519 17.0086 20.3404V20.3404Z" fill="white"/>
<path fill-rule="evenodd" clip-rule="evenodd" d="M23.8356 15.9374C24.1498 15.8179 25.6732 13.9851 25.6732 13.9851L25.4447 13.7858C25.359 13.7161 25.3686 13.6364 25.4447 13.5667C25.8256 13.3276 25.7018 12.8296 25.5114 12.5905C25.3821 12.5246 25.2399 12.4912 25.0961 12.4929C24.9523 12.4946 24.8108 12.5315 24.683 12.6005C24.4164 12.8694 24.3593 13.2978 24.5688 13.5567C24.7687 13.6564 24.9687 13.8755 24.8354 13.995C24.2069 14.6923 22.5026 15.8976 22.7025 15.9374C22.7406 15.9972 23.7975 15.9972 23.8261 15.9374H23.8356ZM14.5998 22.412C14.0285 23.3683 13.9809 24.7927 14.2951 25.221C14.4665 25.4202 14.7426 25.5099 14.9425 25.4401C15.3043 25.2808 15.4662 24.5138 15.3805 24.2448C15.2567 24.0456 15.1615 24.0157 15.0377 24.1751C14.7902 24.713 14.6855 24.3444 14.6569 24.0456C14.6296 23.5395 14.6551 23.0318 14.7331 22.5316C14.7997 22.1132 14.7331 22.2327 14.5998 22.412V22.412ZM39.0795 20.888C38.5272 19.6329 37.756 18.3978 37.518 17.9296C36.776 16.7025 35.9883 15.5062 35.1566 14.3437C34.5663 13.6066 36.1278 14.6525 34.9662 13.1782L34.1188 12.4312C33.9284 12.2917 33.4713 12.0327 33.3952 12.4511C33.3571 12.8296 33.3761 13.0288 33.4333 13.3376C33.4809 13.5368 33.7665 13.8855 33.9093 14.0847C35.8614 16.7895 37.5758 19.6733 39.0319 22.7009C39.2794 22.5714 39.2223 21.0972 39.0795 20.888V20.888Z" fill="white"/>
<path fill-rule="evenodd" clip-rule="evenodd" d="M36.6515 25.0519C36.5372 25.1814 36.9181 25.7292 37.4132 25.7292C38.2321 25.6296 38.9557 25.1515 39.6222 23.8765C39.893 23.4524 40.0658 22.9681 40.1268 22.4621C40.2075 20.0439 40.0222 17.6242 39.5746 15.2503C39.546 15.0511 39.5746 14.8121 39.5936 14.7523C39.6508 14.6826 39.8317 14.7523 39.9269 14.583C40.0697 14.4335 39.546 13.1884 39.2604 12.7203C39.1652 12.5011 39.1176 12.3617 38.9462 12.7402C38.7394 13.1578 38.6409 13.6249 38.6605 14.0949C39.0509 16.9337 39.1747 19.414 39.4223 22.2529C39.4508 22.5318 39.4127 22.9302 39.2318 23.0896C38.5134 23.9264 37.6341 24.5951 36.6515 25.0519V25.0519ZM47.744 25.0419C47.1537 25.4005 47.1537 25.8089 47.6298 25.8189C48.4486 25.7193 49.4198 25.6495 50.0863 24.5937C50.3217 24.0964 50.4578 23.5541 50.4862 22.9999C50.6061 20.6191 50.4559 18.2317 50.0387 15.8878C50.0197 15.6886 49.934 15.2205 49.9625 15.1607C50.0197 15.0212 50.2863 15.1706 50.3815 15.0113C50.5148 14.8619 49.6864 13.7462 49.3913 13.2681C49.296 13.049 49.258 12.9095 49.077 13.288C48.8853 13.7095 48.8253 14.1835 48.9057 14.6427C49.3436 17.7306 49.6674 20.0415 49.734 22.7708C49.6959 23.0298 49.6864 23.1693 49.5722 23.498C49.3151 23.8367 49.0294 24.2749 48.7628 24.4841C48.4962 24.6833 47.9249 24.8826 47.744 25.0419V25.0419Z" fill="white"/>
<path fill-rule="evenodd" clip-rule="evenodd" d="M48.182 22.2829C48.182 21.5557 48.1916 20.9381 48.1725 20.3903C48.1664 19.9263 48.0691 19.4686 47.8869 19.0455C47.7155 18.6371 47.8202 18.3084 47.7345 17.8702C47.6584 17.4319 47.6774 16.7745 47.5631 16.2664C47.5251 16.0672 47.4298 15.4198 47.4584 15.35C47.506 15.2106 47.6869 15.35 47.7821 15.1907C47.9154 15.0413 47.3061 13.3977 47.0014 12.9295C46.8966 12.7204 46.6872 12.7901 46.4491 13.1288C46.2111 13.3579 46.2968 13.8659 46.392 14.3539C46.9728 17.5713 47.4203 20.4899 47.3251 23.5479C47.287 23.8069 48.182 22.7709 48.182 22.2829V22.2829ZM43.8307 18.2985C43.4594 18.2786 42.6881 17.5315 42.4596 17.1032C42.4222 16.9985 42.4063 16.8867 42.4128 16.7752C42.4194 16.6637 42.4483 16.5548 42.4977 16.4557C42.6405 16.3561 42.85 16.2565 43.0119 16.3561C43.0119 16.3561 43.1737 16.5952 43.1452 16.625C43.3356 16.7246 43.4308 16.6748 43.4499 16.5852C43.4594 16.4358 43.3927 16.3461 43.3927 16.1868C43.4784 15.7286 43.964 15.6588 44.1545 15.9477C44.2878 16.127 44.3449 16.4955 44.3544 16.7446C44.3544 16.8741 44.164 16.7246 44.0402 16.7446C43.9355 16.7844 43.9069 16.9239 43.8974 17.0434C43.8783 17.3721 43.8402 17.9 43.8307 18.2885V18.2985ZM36.9943 23.0797C37.0895 22.1036 36.9562 20.3604 36.9467 19.7827C36.8958 18.2968 36.7782 16.8144 36.5944 15.3401C36.4801 14.5034 36.9181 15.4297 36.861 14.9416C36.7182 14.1149 36.2802 13.5471 35.7565 12.8C35.5946 12.551 35.5946 12.5012 35.3376 12.8598C35.0519 13.5272 35.2995 13.9954 35.3756 14.5233C35.747 16.2366 35.966 17.8104 36.0707 19.3743C36.1803 20.9988 36.1931 22.6289 36.1088 24.2551C36.3944 24.2651 36.8324 23.787 36.9943 23.0797Z" fill="white"/>
<path fill-rule="evenodd" clip-rule="evenodd" d="M49.4482 21.5155C48.7912 20.36 47.8105 19.1248 47.5439 18.6567C46.661 17.3668 45.7337 16.1109 44.7637 14.8914C43.9543 13.995 45.1445 14.742 44.6113 14.0448C44.1638 13.5368 44.04 13.3674 43.6496 13.0586C43.4592 12.9291 43.345 12.6801 43.2688 13.1084C43.2384 13.4794 43.2321 13.8522 43.2497 14.2241C43.2497 14.3934 43.4211 14.7221 43.5735 14.9213C45.5444 17.4614 47.7058 20.0512 49.4387 23.3084C49.6863 23.1789 49.6006 21.7147 49.4387 21.5155H49.4482Z" fill="white"/>
<path fill-rule="evenodd" clip-rule="evenodd" d="M19.7985 19.3941C19.7508 19.4838 19.6461 19.5933 19.6842 19.7029C19.7508 19.8025 19.8175 19.8324 19.9318 19.8324C20.0365 19.8324 20.1888 19.8623 20.2174 19.8025C20.2745 19.7328 20.3126 19.6033 20.2745 19.4738C20.1603 19.175 19.8556 19.2945 19.7985 19.3941V19.3941Z" fill="#1BA400"/>
<path fill-rule="evenodd" clip-rule="evenodd" d="M41.8501 36.1087C42.7261 36.1485 43.2974 36.1585 44.0686 36.2481L44.9827 36.1485C45.9919 36.0489 46.03 37.6526 46.03 37.6526C46.03 38.5989 45.6777 38.6487 45.2302 38.7483C44.9731 38.7882 44.8494 38.589 44.7065 38.3897C44.4912 38.462 44.2618 38.4757 44.04 38.4296C43.6687 38.4097 43.3069 38.4097 42.9451 38.3798C42.5642 38.3499 42.3547 38.4296 41.9644 38.3897C41.8882 38.5192 41.7739 38.6985 41.5454 38.6487C41.355 38.6188 41.1169 38.0511 41.1836 37.6028C41.3264 37.2841 41.2788 37.3936 41.2788 37.2542C37.6987 37.1546 34.0901 36.9852 30.5862 37.0351C27.844 37.045 25.1399 37.1645 22.4263 37.2841C20.979 37.2642 19.8745 37.0251 19.1128 35.8597C19.189 35.8597 22.8071 36.0688 23.864 35.9991C25.8159 35.9792 27.606 35.8099 29.5959 35.7501C33.5188 35.8198 37.4131 35.8198 41.3359 36.1087C40.9551 35.8397 40.9551 35.2122 41.5264 35.0528C41.574 35.013 41.6025 35.3616 41.6882 35.3517C42.1548 35.3218 41.9453 35.9792 41.8501 36.1087V36.1087ZM26.0825 13.4774C25.4922 15.2505 26.4253 17.2028 27.0728 17.0136C27.5488 17.2128 27.8345 16.2765 28.0249 15.2604C28.1677 14.9716 28.2629 14.9417 28.3296 15.0911C28.3105 16.4458 28.4248 16.7546 28.7581 17.163C29.5007 17.7606 30.1196 17.2427 30.1672 17.1929L30.7385 16.5853C30.8718 16.4358 31.0432 16.4358 31.2241 16.5554C31.405 16.7247 31.3765 17.0136 31.7573 17.2128C32.0811 17.3522 32.7571 17.2526 32.9189 16.9638C33.1284 16.5753 33.1855 16.4458 33.2808 16.3063C33.4331 16.0972 33.6902 16.1868 33.6902 16.2565C33.6616 16.3761 33.5093 16.4856 33.614 16.7048C33.8044 16.8442 33.8425 16.7546 33.9473 16.7247C34.3281 16.5255 34.6138 15.6688 34.6138 15.6688C34.6233 15.3501 34.4519 15.37 34.3376 15.4497L34.0425 15.6589C33.8521 15.6888 33.4998 15.8183 33.3188 15.5294C33.1379 15.1907 33.1379 14.7026 33.0046 14.354C33.0046 14.3341 32.7571 13.8062 32.9856 13.7763C33.0999 13.7962 33.3379 13.8659 33.376 13.6567C33.4902 13.4476 33.1284 12.8599 32.8713 12.561C32.6523 12.312 32.3477 12.2821 32.0525 12.5411C31.843 12.7403 31.8716 12.9595 31.8335 13.1687C31.7974 13.3186 31.7958 13.4753 31.8289 13.626C31.862 13.7766 31.9289 13.9169 32.0239 14.0353C32.2334 14.4536 32.6047 15.0015 32.481 15.7784C32.481 15.7784 32.262 16.137 31.8811 16.0872C31.7192 16.0573 31.4622 15.9876 31.3289 14.9118C31.2241 14.1149 31.3479 12.9794 31.0242 12.4515C30.9004 12.1228 30.8147 11.814 30.5291 12.3618C30.4529 12.581 30.1196 12.9097 30.3577 13.577C30.5829 14.1785 30.6487 14.8323 30.5481 15.4696C30.4053 15.6888 30.3767 15.7585 30.1958 15.9677C29.9482 16.2665 29.6721 16.1868 29.4626 16.0772C29.2722 15.9478 29.1199 15.878 29.0247 15.4298C29.0437 14.7325 29.0818 13.587 28.958 13.3479C28.7771 12.9694 28.4819 13.1089 28.3582 13.2284C27.7918 13.8867 27.4125 14.6975 27.2632 15.5692C27.0918 16.147 26.9109 15.9776 26.7871 15.7485C26.4824 15.4497 26.4539 13.089 26.0825 13.4774V13.4774Z" fill="white"/>
<path fill-rule="evenodd" clip-rule="evenodd" d="M27.8725 17.342C28.1487 17.1427 28.0249 17.0033 28.4248 17.4216C28.941 18.3771 29.2407 19.4437 29.3008 20.5394C29.2817 20.7984 29.4531 20.9578 29.5388 20.898C29.5769 20.3004 30.9766 19.4636 32.262 19.3441C32.4524 19.2943 32.3572 18.9058 32.3857 18.7066C32.3096 17.9595 32.7856 17.2822 33.4521 17.2324C34.3662 17.3718 34.6709 17.8798 34.6899 18.6468C34.5852 20.141 33.0998 20.39 32.2715 20.5095C32.1477 20.5593 32.0906 20.6191 32.2715 20.6888L35.7563 20.7088L35.9372 20.8084C35.9563 20.908 35.8801 20.8283 35.7468 21.0674C35.5551 21.4197 35.4352 21.8097 35.3945 22.2129C34.3567 22.5715 33.2807 22.7109 32.1953 22.8603C31.8144 23.0595 31.624 23.3285 31.7002 23.6273C31.8335 23.956 32.6714 24.2947 32.6714 24.3047C32.8332 24.4043 33.0141 24.6533 32.6238 25.1613C30.9289 25.0816 29.6055 24.3246 29.1484 23.2588C29.0151 23.1492 28.8628 23.2588 28.7676 23.3982C28.1011 24.2947 27.4536 25.0916 26.3205 25.5298C25.654 25.7091 24.959 25.4203 24.6352 24.9621C24.4162 24.6931 24.4258 24.4043 24.3496 24.3445C23.9783 24.5138 20.8362 25.9084 21.2361 25.2509C21.9978 24.4043 23.3308 23.7668 24.4924 22.93C24.5781 22.6412 24.7305 21.6849 25.1875 21.3761C25.2161 21.3761 25.1208 21.934 25.1304 22.173C25.1304 22.3722 25.1113 22.442 25.1494 22.3922C25.2351 22.3424 26.6443 21.1769 26.7681 20.8183C26.9014 20.6191 26.7966 20.1011 26.7966 20.0812C26.53 19.364 26.1587 19.3043 26.0254 18.9457C25.9016 18.4775 25.9587 17.9396 26.2158 17.7802C26.4443 17.5711 26.7109 17.591 26.968 17.83C27.2536 18.099 27.5012 18.6269 27.5774 19.0154C27.5298 19.1648 27.1965 18.9158 27.1013 18.9855C27.2846 19.2058 27.4064 19.4746 27.4536 19.7625C27.644 20.5793 27.5869 20.898 27.3965 21.4259C26.7681 22.8105 25.9683 23.2189 25.2637 23.7369C25.2446 23.7369 25.2351 24.0855 25.4922 24.2748C25.5874 24.3744 25.9587 24.4242 26.3872 24.2748C27.3026 23.743 28.0428 22.9339 28.5105 21.9539C28.5914 21.2082 28.5133 20.4529 28.282 19.7425C28.0058 19.0752 27.6821 18.1289 27.6821 18.109C27.6726 17.6906 27.7012 17.5511 27.8725 17.342V17.342ZM18.751 13.497C19.1509 13.6963 19.9126 13.6066 19.8745 12.9293L19.8555 12.6205C19.7793 12.4213 19.5508 12.4711 19.5032 12.6703C19.4841 12.74 19.5317 12.8496 19.4746 12.8795C19.4365 12.9193 19.3127 12.8994 19.3127 12.7101C19.3127 12.6504 19.2746 12.5906 19.2461 12.5507C19.227 12.5308 19.208 12.5308 19.1604 12.5308C19.1033 12.5308 19.1033 12.5408 19.0747 12.5906C19.0652 12.6404 19.0461 12.6902 19.0461 12.75C19.0461 12.8197 19.008 12.8396 18.97 12.8496C18.9128 12.8496 18.9224 12.8496 18.8747 12.8297C18.8557 12.7998 18.8271 12.7898 18.8271 12.73L18.7986 12.5707C18.7795 12.5408 18.7414 12.5209 18.7034 12.5109C18.4844 12.5109 18.4653 12.7799 18.4844 12.8795C18.4653 12.8994 18.4558 13.3675 18.751 13.497V13.497Z" fill="white"/>
<path fill-rule="evenodd" clip-rule="evenodd" d="M30.5102 18.6966C30.9101 18.8958 31.8717 18.7862 31.6337 18.1388L31.6146 17.82C31.5289 17.6208 31.31 17.6706 31.2623 17.8798C31.2433 17.9396 31.2909 18.0491 31.2243 18.079C31.1957 18.1189 31.0624 18.0989 31.0719 17.9196C31.0719 17.8599 31.0338 17.7901 31.0053 17.7503C30.9767 17.7403 30.9672 17.7304 30.9101 17.7304C30.8624 17.7304 30.8624 17.7503 30.8339 17.8001C30.8148 17.8499 30.8053 17.8997 30.8053 17.9595C30.7958 18.0193 30.7672 18.0392 30.7196 18.0591C30.672 18.0591 30.6815 18.0591 30.6435 18.0292C30.6149 17.9993 30.5863 17.9894 30.5863 17.9396L30.5578 17.7802C30.5387 17.7503 30.5006 17.7304 30.4625 17.7204C30.2436 17.7204 30.2245 17.9794 30.234 18.079C30.2245 18.0989 30.215 18.5771 30.5197 18.6966H30.5102ZM37.3656 16.545C37.7655 16.7443 38.5177 16.6546 38.4892 15.9872L38.4701 15.6685C38.3844 15.4693 38.1654 15.5191 38.1178 15.7183C38.0988 15.788 38.1464 15.8976 38.0797 15.9374C38.0512 15.9673 37.9179 15.9474 37.9274 15.7581C37.9274 15.6984 37.8893 15.6386 37.8607 15.5987C37.8322 15.5788 37.8227 15.5788 37.7655 15.5788C37.7179 15.5788 37.7179 15.5987 37.6894 15.6485L37.6608 15.798C37.6513 15.8677 37.6227 15.8976 37.5751 15.8976C37.5275 15.8976 37.537 15.8976 37.4989 15.8776C37.4704 15.8478 37.4418 15.8378 37.4418 15.788C37.4418 15.7382 37.4323 15.6585 37.4132 15.6187C37.3942 15.5888 37.3561 15.5788 37.318 15.5689C37.099 15.5689 37.08 15.8278 37.0895 15.9275C37.08 15.9474 37.0705 16.4155 37.3751 16.545H37.3656ZM40.9171 21.9538C40.2221 22.7806 40.5268 24.1452 40.6886 24.4441C40.9171 24.9222 41.098 25.231 41.5456 25.47C41.955 25.7788 42.2787 25.5896 42.4501 25.3704C42.8595 24.9222 42.869 23.7767 43.0595 23.5575C43.1928 23.1392 43.5355 23.2089 43.6974 23.3982C43.8489 23.623 44.0518 23.8046 44.2877 23.9261C44.6686 24.2747 45.1256 24.3444 45.5827 24.0257C45.8873 23.8364 46.0873 23.6073 46.2682 23.1392C46.4586 22.5814 46.3634 19.9915 46.3158 18.4575L45.9159 16.3159C45.9159 16.296 45.8683 15.2999 45.8207 15.0708C45.8207 14.9712 45.7921 14.9413 45.8874 14.9513C45.9921 15.0509 46.0016 15.0509 46.0778 15.0808C46.173 15.1007 46.2682 14.9114 46.2016 14.7521L45.2494 12.8993C45.1732 12.8196 45.0685 12.74 44.9447 12.9193C44.8717 12.9884 44.8136 13.073 44.7742 13.1675C44.7348 13.2619 44.715 13.3641 44.7162 13.4671C44.7448 13.9054 44.8114 14.3536 44.84 14.7919L45.2208 17.0431C45.3446 18.6368 45.3732 19.9517 45.497 21.5554C45.4779 22.2327 45.278 22.8204 45.0875 22.9101C45.0875 22.9101 44.8019 23.0794 44.6115 22.8901C44.4687 22.8304 43.9069 21.904 43.9069 21.904C43.6212 21.6351 43.4308 21.7048 43.2309 21.904C42.6596 22.4817 42.412 23.5376 42.0216 24.2747C41.9264 24.4441 41.6408 24.5735 41.3361 24.2648C40.5553 23.1392 41.0123 21.5454 40.9171 21.9538V21.9538ZM37.5465 12.6204C37.9083 12.7698 38.1559 13.5368 38.0797 13.9153C38.0036 14.3636 37.8131 14.8616 37.6798 14.8019C37.5275 14.7421 37.775 14.3437 37.6322 13.9253C37.556 13.6464 37.0609 13.1484 37.1181 13.0089C37.0228 12.7001 37.3275 12.5607 37.5465 12.6105V12.6204Z" fill="white"/>
<path fill-rule="evenodd" clip-rule="evenodd" d="M42.0788 22.412C42.1454 21.4956 42.0216 20.9378 42.0026 20.3999C41.9836 19.862 41.4218 15.7581 41.3075 15.3597C41.1647 14.5827 41.8503 15.2601 41.7741 14.8019C41.536 14.2441 40.9552 13.4173 40.7743 12.9292C40.6601 12.73 40.7077 12.5308 40.4601 12.8794C40.2469 13.4907 40.172 14.1453 40.2411 14.7919C40.8315 18.0093 41.4313 20.6788 41.3361 23.7368C41.6217 23.7368 41.9359 23.0695 42.0788 22.412V22.412ZM48.2106 13.9154C48.5439 14.0847 48.7343 15.0409 48.6962 15.3099C48.6295 15.8079 48.4582 16.3458 48.3344 16.2761C48.1916 16.2163 48.3629 15.539 48.2963 15.3298C48.2201 15.031 47.7726 14.4931 47.8202 14.3337C47.725 13.9951 48.0107 13.8556 48.2106 13.9154V13.9154ZM23.8642 20.6788C24.1784 20.8083 24.3688 21.5056 24.3402 21.7048C24.2641 22.0734 24.1022 22.4718 23.9784 22.412C23.8546 22.3722 24.007 21.8742 23.9499 21.7148C23.9213 21.3462 23.4833 21.147 23.4928 20.9876C23.4167 20.6888 23.6833 20.639 23.8737 20.6788H23.8642Z" fill="white"/>
<path fill-rule="evenodd" clip-rule="evenodd" d="M31.4433 21.735C31.8432 21.7549 32.0431 22.0936 31.6718 22.233C31.2909 22.3625 30.9386 22.4721 30.9291 23.0299C31.0719 23.8268 30.7387 23.5479 30.5482 23.4482C30.3197 23.2689 29.6723 22.8506 29.5771 21.9541C29.5675 21.7449 29.7294 21.5557 29.9865 21.5557C30.3673 21.6652 30.9386 21.6752 31.4433 21.735V21.735Z" fill="#1B9D00"/>
<path fill-rule="evenodd" clip-rule="evenodd" d="M15.4946 12.3916C15.9516 12.531 15.9802 13.2482 15.9516 13.4574C15.885 13.8359 15.7231 14.2443 15.6089 14.1945C15.4756 14.1447 15.6089 13.6267 15.5422 13.4674C15.4756 13.2482 15.0852 12.8299 15.1233 12.7103C15.0376 12.4613 15.3137 12.3418 15.4946 12.3916V12.3916ZM24.6257 15.7385C24.2639 15.9377 24.1306 16.5353 24.3496 16.8939C24.559 17.1927 24.8828 17.0832 24.9209 17.0832C25.2732 17.123 25.4826 16.3959 25.4826 16.3959C25.4826 16.3959 25.4922 16.1967 25.0827 16.5851C24.9018 16.615 24.8923 16.5453 24.8447 16.4457C24.8011 16.256 24.8178 16.0567 24.8923 15.8779C24.959 15.6986 24.8257 15.6189 24.6257 15.7385ZM27.2917 12.1127C27.1013 12.2422 26.749 12.6306 26.7395 13.0689C26.7299 13.3179 26.6823 13.3179 26.8347 13.4674C26.9585 13.6467 27.0632 13.6367 27.2917 13.5072C27.3487 13.4697 27.3975 13.4202 27.4352 13.3619C27.4729 13.3036 27.4986 13.2378 27.5107 13.1685C27.5678 12.8896 27.2251 13.308 27.187 12.9892C27.1108 12.6904 27.3298 12.5709 27.5393 12.292C27.5393 12.0927 27.5393 11.9633 27.2822 12.1127H27.2917ZM29.4245 12.5111C29.3406 12.8738 29.2896 13.244 29.2722 13.6168C29.2151 13.8957 29.5578 14.0152 29.7007 13.6566C29.9292 13.0092 29.9292 12.7302 29.9482 12.4613C29.8816 12.033 29.6054 12.0429 29.4245 12.5111ZM42.945 19.7129C42.9831 19.6631 44.8493 18.2785 44.8493 18.2785C45.0398 18.2088 44.9922 18.9957 44.9065 18.9857C44.3277 19.5692 43.662 20.0503 42.9355 20.4101C42.8403 20.4799 42.7546 19.8822 42.9355 19.7129H42.945ZM44.6303 19.6929C44.9636 19.8623 45.0969 20.8683 45.0588 21.1373C45.0588 21.6752 44.7446 22.0935 44.6113 22.0338C44.478 21.964 44.6303 21.3664 44.5637 21.1572C44.4875 20.8584 44.2114 20.3105 44.259 20.1511C44.1638 19.8125 44.4304 19.6332 44.6399 19.6929H44.6303ZM33.5854 24.016C33.7399 23.8274 33.9194 23.663 34.1186 23.5279C34.3091 23.4283 34.4804 23.6076 34.4709 23.5976C34.4995 23.7968 34.3567 23.9662 34.4043 24.2252C34.4424 24.3248 34.4709 24.4443 34.6518 24.4045C34.947 24.1554 35.2231 24.1355 35.5088 24.1256C35.7468 24.1355 35.7563 24.5439 35.604 24.5439C35.0612 24.6634 34.8232 24.8228 34.4328 24.9722C34.2424 25.0918 34.0901 24.9424 34.0901 24.9324C34.0901 24.9224 33.9853 24.8228 34.052 24.5638C34.071 24.3646 33.9948 24.2451 33.8235 24.265C33.7092 24.3447 33.5949 24.3845 33.5378 24.2351C33.5092 24.1355 33.4997 24.0758 33.5854 24.016V24.016ZM46.5918 24.5539C46.6679 24.6535 46.7251 24.7531 46.5822 24.9324L46.2299 25.2511C46.1728 25.3508 46.1347 25.5301 46.3252 25.5799C46.6679 25.6795 47.4677 25.1316 47.4677 25.1217C47.601 25.022 47.563 24.8228 47.5439 24.8228C47.4677 24.7332 47.2964 24.7929 47.1821 24.773C47.125 24.773 46.9441 24.7531 47.0298 24.5738C47.0937 24.4858 47.145 24.3885 47.1821 24.2849C47.2297 24.1654 47.1821 24.0857 46.9917 24.016C46.7917 23.9761 46.706 23.9961 46.487 24.016C46.3728 24.0359 46.3347 24.0957 46.3061 24.2451C46.3156 24.4742 46.4489 24.4642 46.5918 24.5439V24.5539Z" fill="white"/>
<path fill-rule="evenodd" clip-rule="evenodd" d="M33.6521 18.896C33.6045 18.9956 33.4331 18.9956 33.2713 18.896C33.1094 18.7964 33.0142 18.637 33.0713 18.5473C33.1284 18.4577 33.2903 18.4577 33.4522 18.5473C33.614 18.637 33.6997 18.8063 33.6521 18.896ZM25.178 13.5569C25.0828 13.5868 24.9495 13.4971 24.8923 13.3577C24.8352 13.2182 24.8638 13.0987 24.959 13.0688C25.0542 13.0389 25.178 13.1385 25.2446 13.268C25.3113 13.3975 25.2732 13.537 25.1685 13.5669L25.178 13.5569Z" fill="#259F00"/>
<path fill-rule="evenodd" clip-rule="evenodd" d="M41.9454 37.3535C42.8404 37.3934 43.6783 37.3535 44.5638 37.4033C44.7257 37.5527 44.6114 37.9014 44.5067 37.8814L43.764 37.8516C43.7545 37.5527 43.0308 37.6025 43.0499 37.8615C42.6595 37.9113 42.3072 37.8516 41.9073 37.8316C41.793 37.6822 41.8121 37.4133 41.9454 37.3535V37.3535Z" fill="#209000"/>
</g>
<defs>
<clipPath id="clip0_806_1456">
<rect width="65" height="51" fill="white"/>
</clipPath>
</defs>
</svg>
