<svg width="65" height="51" viewBox="0 0 65 51" fill="none" xmlns="http://www.w3.org/2000/svg">
<g clip-path="url(#clip0_804_202)">
<path d="M0 0H65V51H0V0Z" fill="#D21034"/>
<path d="M0 0H65V25.5H0V0Z" fill="#00209F"/>
<path d="M24.812 19.0933H40.1886V31.8964H24.812V19.0933Z" fill="white"/>
<path d="M35.5976 28.3477L32.4492 28.4539L29.3312 28.4858C29.3312 28.4858 27.7265 29.102 27.0664 29.2402C26.4164 29.3783 26.4976 29.6014 26 29.7289C25.5937 29.8245 25.5429 29.8458 25.3093 29.867C25.157 29.867 24.9843 29.9945 24.8015 30.122V31.8964H40.1882V30.207C40.0257 30.1114 39.8632 30.0477 39.7007 29.9945C39.4773 29.9095 39.325 29.8245 38.9187 29.7289C38.4109 29.612 38.4921 29.3783 37.8421 29.2402C37.182 29.102 35.5976 28.3477 35.5976 28.3477V28.3477Z" fill="#016A16" stroke="#016A16" stroke-width="0.0253125"/>
<path d="M31.6062 24.395H31.8337L32.2562 26.214L32.1587 26.792L31.6062 24.412V24.395Z" fill="#F1B517" stroke="black" stroke-width="0.027"/>
<path d="M31.3625 23.1709L31.525 24.5819H31.6875L31.3625 23.1879V23.1709Z" fill="white" stroke="black" stroke-width="0.027"/>
<path d="M31.8013 26.2821L31.1025 24.3271L31.3625 24.3101L32.175 26.6901L31.8013 26.2821V26.2821Z" fill="#F1B517" stroke="black" stroke-width="0.027"/>
<path d="M30.7776 23.2051L31.0701 24.5651H31.2976L30.7776 23.2051V23.2051Z" fill="white" stroke="black" stroke-width="0.027"/>
<path d="M31.1838 25.6018L30.7776 24.6668L30.9401 24.6328L31.7038 26.1628L31.1838 25.6018Z" fill="#F1B517" stroke="black" stroke-width="0.027"/>
<path d="M30.2251 23.5962L30.6963 24.8882H30.9238L30.2413 23.5962H30.2251Z" fill="white" stroke="black" stroke-width="0.027"/>
<path d="M31.2488 25.7378L29.3801 23.6128C28.7951 24.0888 28.9088 24.9728 28.9088 24.9728L31.0213 26.7068L31.2326 25.7378H31.2488Z" fill="#0A328C" stroke="black" stroke-width="0.027"/>
<path d="M32.3212 26.8941L30.94 25.4321C30.355 25.4661 30.81 26.3671 30.8425 26.4861L32.305 27.7951V26.8941H32.3212Z" fill="#D20014" stroke="black" stroke-width="0.027"/>
<path d="M32.1914 26.656L29.3477 23.46L29.2339 23.545L32.2564 27.047L32.1914 26.656V26.656ZM29.1852 23.256L29.1202 23.171V23.018L28.5352 22.627L28.7952 23.256L29.0064 23.29L29.0552 23.358L29.1852 23.256V23.256Z" fill="#F1B517" stroke="black" stroke-width="0.027"/>
<path d="M28.8762 23.477C28.9959 23.3217 29.1454 23.1943 29.315 23.103L29.4775 23.358L29.12 23.664L28.8762 23.494V23.477Z" fill="#F1B517" stroke="black" stroke-width="0.027"/>
<path d="M28.5676 24.0211L28.6651 24.1911C28.7301 24.1741 29.3151 23.5961 29.3151 23.5961H29.7539L29.8676 23.4431C29.5426 23.1031 29.2664 23.4941 29.2664 23.4941L28.5676 24.0041V24.0211Z" fill="#0A328C" stroke="#0A328C" stroke-width="0.027"/>
<path d="M28.925 24.3099C28.925 24.1399 29.2175 23.7659 29.25 23.7489C29.4613 23.8169 29.6563 23.9529 29.8838 23.4429C29.6888 23.6809 29.315 23.4429 29.315 23.4429L29.1525 23.5789V23.6469L28.665 24.1229L28.9088 24.3099H28.925Z" fill="#D20014" stroke="#D20014" stroke-width="0.027"/>
<path d="M30.4363 26.2988L28.0963 24.3608C27.6901 24.7858 28.0313 26.0948 28.0313 26.0948L30.3063 27.3868L30.4201 26.2988H30.4363Z" fill="#0A328C" stroke="black" stroke-width="0.027"/>
<path d="M32.3699 27.88L30.4362 26.248C29.7862 26.35 30.3062 27.353 30.3387 27.472L32.3699 28.628V27.863V27.88Z" fill="#D20014" stroke="black" stroke-width="0.027"/>
<path d="M32.2888 27.5398L28.1288 24.2758L28.0475 24.3778L32.4025 27.9478L32.2888 27.5398V27.5398ZM27.9338 24.1058L27.8688 24.0378L27.8363 23.9018L27.1863 23.6128L27.56 24.1738H27.7713L27.8363 24.2418L27.9338 24.1058V24.1058Z" fill="#F1B517" stroke="black" stroke-width="0.027"/>
<path d="M27.6738 24.378C27.7668 24.2045 27.8943 24.0538 28.0476 23.936L28.2426 24.157L27.9501 24.514L27.6738 24.378Z" fill="#F1B517" stroke="black" stroke-width="0.027"/>
<path d="M27.4625 24.9217V25.1087C27.5275 25.0747 28.0638 24.4797 28.0638 24.4797L28.47 24.3947L28.5675 24.2587C28.275 23.9017 27.9663 24.3777 27.9663 24.3777L27.4463 24.9217H27.4625Z" fill="#0A328C" stroke="#0A328C" stroke-width="0.027"/>
<path d="M27.7875 25.2451C27.755 25.0751 27.9825 24.5991 28.015 24.5651C28.275 24.6501 28.5025 24.7691 28.5838 24.2251C28.4213 24.4971 28.015 24.2931 28.015 24.2931L27.885 24.4631V24.5481L27.4788 25.1091L27.7875 25.2451V25.2451Z" fill="#D20014" stroke="#D20014" stroke-width="0.027"/>
<path d="M30.2575 27.4891C29.2533 26.8981 28.2512 26.3031 27.2513 25.7041C27.04 26.0951 27.235 26.6391 27.3325 26.7241C27.3325 26.9791 27.235 27.1151 27.4463 27.6591C27.5113 27.9991 27.6575 28.3221 27.885 28.5091C28.145 29.5971 29.2175 29.6821 29.6238 28.7811L30.2738 27.4891H30.2575Z" fill="#0A328C" stroke="black" stroke-width="0.027"/>
<path d="M32.2239 28.6448L30.1926 27.4038C29.5426 27.4888 30.1926 28.7638 30.2414 28.8828L32.2239 29.6138V28.6448Z" fill="#D20014" stroke="black" stroke-width="0.027"/>
<path d="M31.8825 28.1861L27.2838 25.6361L27.2025 25.7381L32.0775 28.5771L31.8825 28.1861V28.1861ZM27.0563 25.5001L26.975 25.4491L26.9263 25.3131L26.26 25.1431L26.6988 25.6361L26.8938 25.6021L26.9913 25.6531L27.0563 25.5001V25.5001Z" fill="#F1B517" stroke="black" stroke-width="0.027"/>
<path d="M26.845 25.8059C26.91 25.6359 26.975 25.4829 27.1375 25.2959L27.365 25.4829L27.1375 25.8909L26.845 25.8059Z" fill="#F1B517" stroke="black" stroke-width="0.027"/>
<path d="M26.6663 26.384L26.7638 26.588L27.2513 25.806L27.6575 25.653L27.7388 25.483C27.4138 25.177 27.17 25.721 27.17 25.721L26.6663 26.384Z" fill="#0A328C" stroke="#0A328C" stroke-width="0.027"/>
<path d="M27.105 26.6559C27.0725 26.4859 27.1863 25.9419 27.2188 25.9249C27.4625 26.0099 27.6738 26.0269 27.7388 25.4829C27.5763 25.7379 27.2025 25.6529 27.2025 25.6529L27.0888 25.8229L27.105 25.8909L26.78 26.5709L27.105 26.6559V26.6559Z" fill="#D20014" stroke="#D20014" stroke-width="0.027"/>
<path d="M33.3777 24.395H33.1502L32.7277 26.214L32.8252 26.792L33.3777 24.412V24.395Z" fill="#F1B517" stroke="black" stroke-width="0.027"/>
<path d="M33.6213 23.1709L33.4588 24.5819H33.2963L33.6213 23.1879V23.1709Z" fill="white" stroke="black" stroke-width="0.027"/>
<path d="M33.1826 26.2821L33.8813 24.3271L33.6213 24.3101L32.8088 26.6901L33.1826 26.2821V26.2821Z" fill="#F1B517" stroke="black" stroke-width="0.027"/>
<path d="M34.2063 23.2051L33.9138 24.5651H33.6863L34.2063 23.2051V23.2051Z" fill="white" stroke="black" stroke-width="0.027"/>
<path d="M33.8 25.6018L34.2063 24.6668L34.0438 24.6328L33.28 26.1628L33.8 25.6018Z" fill="#F1B517" stroke="black" stroke-width="0.027"/>
<path d="M34.7588 23.5962L34.2875 24.8882H34.06L34.7425 23.5962H34.7588Z" fill="white" stroke="black" stroke-width="0.027"/>
<path d="M33.7351 25.7378L35.6038 23.6128C36.1888 24.0888 36.0751 24.9728 36.0751 24.9728L33.9626 26.7068L33.7513 25.7378H33.7351Z" fill="#0A328C" stroke="black" stroke-width="0.027"/>
<path d="M32.6627 26.8941L34.0439 25.4321C34.6289 25.4661 34.1739 26.3671 34.1414 26.4861L32.6789 27.7951V26.8941H32.6627Z" fill="#D20014" stroke="black" stroke-width="0.027"/>
<path d="M32.7927 26.656L35.6365 23.46L35.7502 23.545L32.7277 27.047L32.7927 26.656V26.656ZM35.799 23.256L35.864 23.171V23.018L36.449 22.627L36.189 23.256L35.9777 23.29L35.929 23.358L35.799 23.256V23.256Z" fill="#F1B517" stroke="black" stroke-width="0.027"/>
<path d="M36.1077 23.477C35.988 23.3217 35.8385 23.1943 35.6689 23.103L35.5064 23.358L35.8639 23.664L36.1077 23.494V23.477Z" fill="#F1B517" stroke="black" stroke-width="0.027"/>
<path d="M36.4165 24.0211L36.319 24.1911C36.254 24.1741 35.669 23.5961 35.669 23.5961H35.2303L35.1165 23.4431C35.4415 23.1031 35.7178 23.4941 35.7178 23.4941L36.4165 24.0041V24.0211Z" fill="#0A328C" stroke="#0A328C" stroke-width="0.027"/>
<path d="M36.0588 24.3099C36.0588 24.1399 35.7663 23.7659 35.7338 23.7489C35.5226 23.8169 35.3276 23.9529 35.1001 23.4429C35.2951 23.6809 35.6688 23.4429 35.6688 23.4429L35.8313 23.5789V23.6469L36.3188 24.1229L36.0751 24.3099H36.0588Z" fill="#D20014" stroke="#D20014" stroke-width="0.027"/>
<path d="M34.5476 26.2988L36.8876 24.3608C37.2938 24.7858 36.9526 26.0948 36.9526 26.0948L34.6776 27.3868L34.5638 26.2988H34.5476Z" fill="#0A328C" stroke="black" stroke-width="0.027"/>
<path d="M32.6139 27.88L34.5477 26.248C35.1977 26.35 34.6777 27.353 34.6452 27.472L32.6139 28.628V27.863V27.88Z" fill="#D20014" stroke="black" stroke-width="0.027"/>
<path d="M32.6951 27.5398L36.8551 24.2758L36.9364 24.3778L32.5814 27.9478L32.6951 27.5398V27.5398ZM37.0501 24.1058L37.1151 24.0378L37.1476 23.9018L37.7976 23.6128L37.4239 24.1738H37.2126L37.1476 24.2418L37.0501 24.1058V24.1058Z" fill="#F1B517" stroke="black" stroke-width="0.027"/>
<path d="M37.3101 24.378C37.2171 24.2045 37.0896 24.0538 36.9363 23.936L36.7413 24.157L37.0338 24.514L37.3101 24.378Z" fill="#F1B517" stroke="black" stroke-width="0.027"/>
<path d="M37.5213 24.9222V25.1092C37.4563 25.0752 36.9201 24.4802 36.9201 24.4802L36.5138 24.3952L36.4163 24.2592C36.7088 23.9022 37.0176 24.3782 37.0176 24.3782L37.5376 24.9222H37.5213Z" fill="#0A328C" stroke="#0A328C" stroke-width="0.027"/>
<path d="M37.1964 25.2451C37.2289 25.0751 37.0014 24.5991 36.9689 24.5651C36.7089 24.6501 36.4814 24.7691 36.4001 24.2251C36.5626 24.4971 36.9689 24.2931 36.9689 24.2931L37.0989 24.4631V24.5481L37.5051 25.1091L37.1964 25.2451V25.2451Z" fill="#D20014" stroke="#D20014" stroke-width="0.027"/>
<path d="M34.7264 27.4891C35.7306 26.8981 36.7327 26.3031 37.7326 25.7041C37.9439 26.0951 37.7489 26.6391 37.6514 26.7241C37.6514 26.9791 37.7489 27.1151 37.5376 27.6591C37.4726 27.9991 37.3264 28.3221 37.0989 28.5091C36.8389 29.5971 35.7664 29.6821 35.3601 28.7811L34.7101 27.4891H34.7264Z" fill="#0A328C" stroke="black" stroke-width="0.027"/>
<path d="M32.7602 28.6448L34.7915 27.4038C35.4415 27.4888 34.7915 28.7638 34.7427 28.8828L32.7602 29.6138V28.6448Z" fill="#D20014" stroke="black" stroke-width="0.027"/>
<path d="M33.1014 28.1861L37.7001 25.6361L37.7814 25.7381L32.9064 28.5771L33.1014 28.1861V28.1861ZM37.9276 25.5001L38.0089 25.4491L38.0576 25.3131L38.7239 25.1431L38.2851 25.6361L38.0901 25.6021L37.9926 25.6531L37.9276 25.5001V25.5001Z" fill="#F1B517" stroke="black" stroke-width="0.027"/>
<path d="M38.1389 25.8059C38.0739 25.6359 38.0089 25.4829 37.8464 25.2959L37.6189 25.4829L37.8464 25.8909L38.1389 25.8059Z" fill="#F1B517" stroke="black" stroke-width="0.027"/>
<path d="M38.3176 26.384L38.2201 26.588L37.7326 25.806L37.3264 25.653L37.2451 25.483C37.5701 25.177 37.8139 25.721 37.8139 25.721L38.3176 26.384Z" fill="#0A328C" stroke="#0A328C" stroke-width="0.027"/>
<path d="M37.8789 26.6559C37.9114 26.4859 37.7976 25.9419 37.7651 25.9249C37.5214 26.0099 37.3101 26.0269 37.2451 25.4829C37.4076 25.7379 37.7814 25.6529 37.7814 25.6529L37.8951 25.8229L37.8789 25.8909L38.2039 26.5709L37.8789 26.6559V26.6559Z" fill="#D20014" stroke="#D20014" stroke-width="0.027"/>
<path d="M32.3051 21.352L32.2238 22.882H32.6951L32.6301 21.352L33.1176 21.301L33.0688 20.689L31.8501 20.74V21.284L32.3051 21.352V21.352Z" fill="#016A16" stroke="#016A16" stroke-width="0.027"/>
<path d="M32.4675 20.723C31.2 19.397 30.2087 20.043 29.9812 20.23C30.1437 20.264 30.2737 20.162 30.355 20.145L30.1925 20.349C30.1925 20.349 30.5987 20.179 30.6475 20.179C30.5825 20.23 30.5175 20.349 30.5175 20.349C30.55 20.349 30.7775 20.162 30.81 20.162C30.745 20.23 30.7287 20.417 30.7287 20.417L30.9237 20.332C30.9725 20.366 30.9075 20.434 30.94 20.434C31.265 20.4 31.7037 20.723 31.7525 20.825" fill="#016A16"/>
<path d="M32.4675 20.723C31.2 19.397 30.2087 20.043 29.9812 20.23C30.1437 20.264 30.2737 20.162 30.355 20.145L30.1925 20.349C30.1925 20.349 30.5987 20.179 30.6475 20.179C30.5825 20.23 30.5175 20.349 30.5175 20.349C30.55 20.349 30.7775 20.162 30.81 20.162C30.745 20.23 30.7287 20.417 30.7287 20.417L30.9237 20.332C30.9725 20.366 30.9075 20.434 30.94 20.434C31.265 20.4 31.7037 20.723 31.7525 20.825" stroke="black" stroke-width="0.027"/>
<path d="M32.1587 20.9611C32.0287 20.6551 29.6237 20.1111 29.1362 21.0121C29.3312 21.0631 29.51 20.8421 29.51 20.8421V21.0461L29.8187 20.7741L29.705 21.0461L29.9487 20.8251V21.0461L30.2737 20.7061L30.225 20.8931L30.5012 20.7741L30.4687 20.9441" fill="#016A16"/>
<path d="M32.1587 20.9611C32.0287 20.6551 29.6237 20.1111 29.1362 21.0121C29.3312 21.0631 29.51 20.8421 29.51 20.8421V21.0461L29.8187 20.7741L29.705 21.0461L29.9487 20.8251V21.0461L30.2737 20.7061L30.225 20.8931L30.5012 20.7741L30.4687 20.9441" stroke="black" stroke-width="0.027"/>
<path d="M32.045 21.0122C31.4275 20.5872 30.485 20.8762 30.485 20.8762C29.8675 21.2162 29.5425 21.1652 29.4775 21.8282C29.5263 21.8112 29.6888 21.5902 29.6888 21.5902L29.8188 21.8452L29.8513 21.4882L29.9488 21.7772L30.1113 21.3012L30.1438 21.6242L30.3713 21.3012L30.4688 21.4032L30.5663 21.1482L30.6638 21.3182C30.6638 21.3182 30.8263 21.2162 30.9075 21.2672L31.07 21.0632L31.1188 21.2162L31.2813 21.0462L31.33 21.1652L31.4763 21.0292V21.1312H31.9638" fill="#016A16"/>
<path d="M32.045 21.0122C31.4275 20.5872 30.485 20.8762 30.485 20.8762C29.8675 21.2162 29.5425 21.1652 29.4775 21.8282C29.5263 21.8112 29.6888 21.5902 29.6888 21.5902L29.8188 21.8452L29.8513 21.4882L29.9488 21.7772L30.1113 21.3012L30.1438 21.6242L30.3713 21.3012L30.4688 21.4032L30.5663 21.1482L30.6638 21.3182C30.6638 21.3182 30.8263 21.2162 30.9075 21.2672L31.07 21.0632L31.1188 21.2162L31.2813 21.0462L31.33 21.1652L31.4763 21.0292V21.1312H31.9638" stroke="black" stroke-width="0.027"/>
<path d="M31.9149 21.0801C31.4761 21.0801 30.2411 21.5731 29.9324 22.0661C30.001 22.0281 30.0715 21.9941 30.1436 21.9641L30.1924 22.1681L30.2736 21.9641L30.2899 22.1341C30.3386 21.9981 30.3874 21.9981 30.4849 22.1171L30.5174 21.9301L30.5661 22.1001L30.6474 21.9131C30.6474 21.9131 30.6961 22.1171 30.7286 22.1171C30.7286 22.1171 30.8586 21.7431 30.9236 21.7261L30.9399 21.9641L31.0211 21.7261L31.1024 21.8961V21.6581L31.1999 21.8281C31.1999 21.8281 31.2324 21.6581 31.2974 21.6241L31.4274 21.7431L31.9799 21.3181" fill="#016A16"/>
<path d="M31.9149 21.0801C31.4761 21.0801 30.2411 21.5731 29.9324 22.0661C30.001 22.0281 30.0715 21.9941 30.1436 21.9641L30.1924 22.1681L30.2736 21.9641L30.2899 22.1341C30.3386 21.9981 30.3874 21.9981 30.4849 22.1171L30.5174 21.9301L30.5661 22.1001L30.6474 21.9131C30.6474 21.9131 30.6961 22.1171 30.7286 22.1171C30.7286 22.1171 30.8586 21.7431 30.9236 21.7261L30.9399 21.9641L31.0211 21.7261L31.1024 21.8961V21.6581L31.1999 21.8281C31.1999 21.8281 31.2324 21.6581 31.2974 21.6241L31.4274 21.7431L31.9799 21.3181" stroke="black" stroke-width="0.027"/>
<path d="M31.9963 21.1992C31.4276 21.4202 30.9076 22.2532 30.9563 22.5932C31.2001 22.2532 31.1513 22.3042 31.2651 22.6952C31.2651 22.6952 31.2976 22.3552 31.3463 22.3212L31.4276 22.5592L31.4438 22.2362H31.5251L31.5088 22.0492L31.6226 22.1342C31.5901 22.0152 31.5738 21.9812 31.6876 21.8792C31.6876 21.8792 31.5251 21.8962 31.6551 21.6242L31.7688 21.7262C31.7688 21.7262 31.7363 21.6072 31.7688 21.5562L32.1913 21.4202" fill="#016A16"/>
<path d="M31.9963 21.1992C31.4276 21.4202 30.9076 22.2532 30.9563 22.5932C31.2001 22.2532 31.1513 22.3042 31.2651 22.6952C31.2651 22.6952 31.2976 22.3552 31.3463 22.3212L31.4276 22.5592L31.4438 22.2362H31.5251L31.5088 22.0492L31.6226 22.1342C31.5901 22.0152 31.5738 21.9812 31.6876 21.8792C31.6876 21.8792 31.5251 21.8962 31.6551 21.6242L31.7688 21.7262C31.7688 21.7262 31.7363 21.6072 31.7688 21.5562L32.1913 21.4202" stroke="black" stroke-width="0.027"/>
<path d="M32.045 21.25L31.8338 21.692L31.9475 21.726L31.6875 21.913L31.8988 21.896C31.8988 21.896 31.5738 22.015 31.5413 22.355L31.8663 22.185C31.8663 22.185 31.59 22.491 31.5413 22.678L31.7525 22.508C31.7525 22.508 31.5575 22.712 31.59 23.018L31.7363 22.848C31.7038 23.239 31.7038 23.273 31.8663 23.562C31.8663 23.562 31.8338 23.12 31.8663 23.052L32.24 23.46L32.045 22.899C32.045 22.899 32.2725 23.239 32.4025 23.222L32.11 22.763L32.4025 23.001L32.0775 22.491L32.37 22.593C32.37 22.593 32.1588 22.304 32.175 22.117L32.3863 22.355C32.3863 22.355 32.305 22.1 32.3213 22.015L32.435 22.032L32.2238 21.794L32.37 21.76L32.3538 21.59L32.4513 21.573V21.386M32.2725 21.386C31.915 21.896 32.0938 22.661 31.8825 23.069Z" fill="#016A16"/>
<path d="M32.045 21.25L31.8338 21.692L31.9475 21.726L31.6875 21.913L31.8988 21.896C31.8988 21.896 31.5738 22.015 31.5413 22.355L31.8663 22.185C31.8663 22.185 31.59 22.491 31.5413 22.678L31.7525 22.508C31.7525 22.508 31.5575 22.712 31.59 23.018L31.7363 22.848C31.7038 23.239 31.7038 23.273 31.8663 23.562C31.8663 23.562 31.8338 23.12 31.8663 23.052L32.24 23.46L32.045 22.899C32.045 22.899 32.2725 23.239 32.4025 23.222L32.11 22.763L32.4025 23.001L32.0775 22.491L32.37 22.593C32.37 22.593 32.1588 22.304 32.175 22.117L32.3863 22.355C32.3863 22.355 32.305 22.1 32.3213 22.015L32.435 22.032L32.2238 21.794L32.37 21.76L32.3538 21.59L32.4513 21.573V21.386M32.2725 21.386C31.915 21.896 32.0938 22.661 31.8825 23.069" stroke="black" stroke-width="0.027"/>
<path d="M32.5162 20.723C33.7837 19.397 34.7749 20.043 35.0024 20.23C34.8399 20.264 34.7099 20.162 34.6287 20.145L34.7912 20.349C34.7912 20.349 34.3849 20.179 34.3362 20.179C34.4012 20.23 34.4662 20.349 34.4662 20.349C34.4337 20.349 34.2062 20.162 34.1737 20.162C34.2387 20.23 34.2549 20.417 34.2549 20.417L34.0599 20.332C34.0112 20.366 34.0762 20.434 34.0437 20.434C33.7187 20.4 33.2799 20.723 33.2312 20.825" fill="#016A16"/>
<path d="M32.5162 20.723C33.7837 19.397 34.7749 20.043 35.0024 20.23C34.8399 20.264 34.7099 20.162 34.6287 20.145L34.7912 20.349C34.7912 20.349 34.3849 20.179 34.3362 20.179C34.4012 20.23 34.4662 20.349 34.4662 20.349C34.4337 20.349 34.2062 20.162 34.1737 20.162C34.2387 20.23 34.2549 20.417 34.2549 20.417L34.0599 20.332C34.0112 20.366 34.0762 20.434 34.0437 20.434C33.7187 20.4 33.2799 20.723 33.2312 20.825" stroke="black" stroke-width="0.027"/>
<path d="M32.8249 20.9611C32.9549 20.6551 35.3599 20.1111 35.8474 21.0121C35.6524 21.0631 35.4737 20.8421 35.4737 20.8421V21.0461L35.1649 20.7741L35.2787 21.0461L35.0349 20.8251V21.0461L34.7099 20.7061L34.7587 20.8931L34.4824 20.7741L34.5149 20.9441" fill="#016A16"/>
<path d="M32.8249 20.9611C32.9549 20.6551 35.3599 20.1111 35.8474 21.0121C35.6524 21.0631 35.4737 20.8421 35.4737 20.8421V21.0461L35.1649 20.7741L35.2787 21.0461L35.0349 20.8251V21.0461L34.7099 20.7061L34.7587 20.8931L34.4824 20.7741L34.5149 20.9441" stroke="black" stroke-width="0.027"/>
<path d="M32.9386 21.0122C33.5561 20.5872 34.4986 20.8762 34.4986 20.8762C35.1161 21.2162 35.4411 21.1652 35.5061 21.8282C35.4574 21.8112 35.2949 21.5902 35.2949 21.5902L35.1649 21.8452L35.1324 21.4882L35.0349 21.7772L34.8724 21.3012L34.8399 21.6242L34.6124 21.3012L34.5149 21.4032L34.4174 21.1482L34.3199 21.3182C34.3199 21.3182 34.1574 21.2162 34.0761 21.2672L33.9136 21.0632L33.8649 21.2162L33.7024 21.0462L33.6536 21.1652L33.5074 21.0292V21.1312H33.0199" fill="#016A16"/>
<path d="M32.9386 21.0122C33.5561 20.5872 34.4986 20.8762 34.4986 20.8762C35.1161 21.2162 35.4411 21.1652 35.5061 21.8282C35.4574 21.8112 35.2949 21.5902 35.2949 21.5902L35.1649 21.8452L35.1324 21.4882L35.0349 21.7772L34.8724 21.3012L34.8399 21.6242L34.6124 21.3012L34.5149 21.4032L34.4174 21.1482L34.3199 21.3182C34.3199 21.3182 34.1574 21.2162 34.0761 21.2672L33.9136 21.0632L33.8649 21.2162L33.7024 21.0462L33.6536 21.1652L33.5074 21.0292V21.1312H33.0199" stroke="black" stroke-width="0.027"/>
<path d="M33.0688 21.0801C33.5075 21.0801 34.7425 21.5731 35.0513 22.0661C34.9827 22.0281 34.9121 21.9941 34.84 21.9641L34.7913 22.1681L34.71 21.9641L34.6938 22.1341C34.645 21.9981 34.5963 21.9981 34.4988 22.1171L34.4663 21.9301L34.4175 22.1001L34.3363 21.9131C34.3363 21.9131 34.2875 22.1171 34.255 22.1171C34.255 22.1171 34.125 21.7431 34.06 21.7261L34.0438 21.9641L33.9625 21.7261L33.8813 21.8961V21.6581L33.7838 21.8281C33.7838 21.8281 33.7513 21.6581 33.6863 21.6241L33.5563 21.7431L33.0038 21.3181" fill="#016A16"/>
<path d="M33.0688 21.0801C33.5075 21.0801 34.7425 21.5731 35.0513 22.0661C34.9827 22.0281 34.9121 21.9941 34.84 21.9641L34.7913 22.1681L34.71 21.9641L34.6938 22.1341C34.645 21.9981 34.5963 21.9981 34.4988 22.1171L34.4663 21.9301L34.4175 22.1001L34.3363 21.9131C34.3363 21.9131 34.2875 22.1171 34.255 22.1171C34.255 22.1171 34.125 21.7431 34.06 21.7261L34.0438 21.9641L33.9625 21.7261L33.8813 21.8961V21.6581L33.7838 21.8281C33.7838 21.8281 33.7513 21.6581 33.6863 21.6241L33.5563 21.7431L33.0038 21.3181" stroke="black" stroke-width="0.027"/>
<path d="M32.9873 21.1992C33.5561 21.4202 34.0761 22.2532 34.0273 22.5932C33.7836 22.2532 33.8323 22.3042 33.7186 22.6952C33.7186 22.6952 33.6861 22.3552 33.6373 22.3212L33.5561 22.5592L33.5398 22.2362H33.4586L33.4748 22.0492L33.3611 22.1342C33.3936 22.0152 33.4098 21.9812 33.2961 21.8792C33.2961 21.8792 33.4586 21.8962 33.3286 21.6242L33.2148 21.7262C33.2148 21.7262 33.2473 21.6072 33.2148 21.5562L32.7923 21.4202" fill="#016A16"/>
<path d="M32.9873 21.1992C33.5561 21.4202 34.0761 22.2532 34.0273 22.5932C33.7836 22.2532 33.8323 22.3042 33.7186 22.6952C33.7186 22.6952 33.6861 22.3552 33.6373 22.3212L33.5561 22.5592L33.5398 22.2362H33.4586L33.4748 22.0492L33.3611 22.1342C33.3936 22.0152 33.4098 21.9812 33.2961 21.8792C33.2961 21.8792 33.4586 21.8962 33.3286 21.6242L33.2148 21.7262C33.2148 21.7262 33.2473 21.6072 33.2148 21.5562L32.7923 21.4202" stroke="black" stroke-width="0.027"/>
<path d="M32.9386 21.25L33.1499 21.692L33.0361 21.726L33.2961 21.913L33.0849 21.896C33.0849 21.896 33.4099 22.015 33.4424 22.355L33.1174 22.185C33.1174 22.185 33.3936 22.491 33.4424 22.678L33.2311 22.508C33.2311 22.508 33.4261 22.712 33.3936 23.018L33.2474 22.848C33.2799 23.239 33.2799 23.273 33.1174 23.562C33.1174 23.562 33.1499 23.12 33.1174 23.052L32.7436 23.46L32.9386 22.899C32.9386 22.899 32.7111 23.239 32.5811 23.222L32.8736 22.763L32.5811 23.001L32.9061 22.491L32.6136 22.593C32.6136 22.593 32.8249 22.304 32.8086 22.117L32.5974 22.355C32.5974 22.355 32.6786 22.1 32.6624 22.015L32.5486 22.032L32.7599 21.794L32.6136 21.76L32.6299 21.59L32.5324 21.573V21.386M32.7111 21.386C33.0686 21.896 32.8899 22.661 33.1011 23.069Z" fill="#016A16"/>
<path d="M32.9386 21.25L33.1499 21.692L33.0361 21.726L33.2961 21.913L33.0849 21.896C33.0849 21.896 33.4099 22.015 33.4424 22.355L33.1174 22.185C33.1174 22.185 33.3936 22.491 33.4424 22.678L33.2311 22.508C33.2311 22.508 33.4261 22.712 33.3936 23.018L33.2474 22.848C33.2799 23.239 33.2799 23.273 33.1174 23.562C33.1174 23.562 33.1499 23.12 33.1174 23.052L32.7436 23.46L32.9386 22.899C32.9386 22.899 32.7111 23.239 32.5811 23.222L32.8736 22.763L32.5811 23.001L32.9061 22.491L32.6136 22.593C32.6136 22.593 32.8249 22.304 32.8086 22.117L32.5974 22.355C32.5974 22.355 32.6786 22.1 32.6624 22.015L32.5486 22.032L32.7599 21.794L32.6136 21.76L32.6299 21.59L32.5324 21.573V21.386M32.7111 21.386C33.0686 21.896 32.8899 22.661 33.1011 23.069" stroke="black" stroke-width="0.027"/>
<path d="M32.6626 28.3052C32.6626 28.3052 32.8413 26.6052 32.8413 25.8912C32.8413 25.3132 32.7113 24.0552 32.7113 24.0552H32.1751C32.1751 24.0552 32.0938 25.3132 32.1101 25.8912C32.1101 26.6052 32.2888 28.3052 32.2888 28.3052H32.6626Z" fill="#F1B517" stroke="black" stroke-width="0.027"/>
<path d="M32.1262 24.1402H32.7762L32.695 23.6812H32.2237L32.1262 24.1232V24.1402Z" fill="#F1B517" stroke="black" stroke-width="0.027"/>
<path d="M32.1749 23.7661H32.7437L32.6299 23.3071H32.2724L32.1587 23.7661H32.1749Z" fill="#F1B517" stroke="black" stroke-width="0.027"/>
<path d="M32.2075 23.4092H32.695L32.5975 22.9502H32.2888L32.2075 23.4092Z" fill="#F1B517" stroke="black" stroke-width="0.027"/>
<path d="M32.6136 22.8994H32.2886L32.2399 23.0694H32.6461L32.6136 22.8994ZM32.6786 27.9484H32.2561ZM32.7111 27.6084H32.2236ZM32.7761 27.2684H32.1586ZM32.8086 26.9114H32.1586ZM32.8086 26.5374H32.1424ZM32.8249 26.1974H32.1099ZM32.8249 25.9084H32.0774ZM32.8249 25.5344H32.0774ZM32.8086 25.1774H32.0774ZM32.7761 24.8034H32.1099ZM32.7436 24.4634H32.1424Z" fill="#F1B517"/>
<path d="M32.6786 27.9484H32.2561M32.7111 27.6084H32.2236M32.7761 27.2684H32.1586M32.8086 26.9114H32.1586M32.8086 26.5374H32.1424M32.8249 26.1974H32.1099M32.8249 25.9084H32.0774M32.8249 25.5344H32.0774M32.8086 25.1774H32.0774M32.7761 24.8034H32.1099M32.7436 24.4634H32.1424M32.6136 22.8994H32.2886L32.2399 23.0694H32.6461L32.6136 22.8994Z" stroke="black" stroke-width="0.027"/>
<path d="M32.5 20.2302C32.37 20.1792 32.1262 20.0092 32.1912 19.9072L32.305 19.7032C32.4675 19.3292 32.305 19.4652 32.305 19.3632C32.2725 19.2272 32.9225 19.3292 32.9225 19.5842C32.9225 19.6692 32.8737 19.6182 32.89 20.0262L32.76 20.2812C32.6666 20.2939 32.5717 20.2822 32.4837 20.2472L32.5 20.2302Z" fill="#0A328C" stroke="#0A328C" stroke-width="0.027"/>
<path d="M32.5651 21.2501L32.4026 21.0971L32.4513 19.8901L32.6138 19.9411L32.5651 21.2331V21.2501Z" fill="#F1B517" stroke="black" stroke-width="0.027"/>
<path d="M32.7762 20.281C32.8737 20.213 32.9387 20.026 32.8737 19.924C32.7112 19.703 32.5974 19.788 32.3212 19.686C32.2724 19.754 32.1587 19.856 32.1749 19.958C32.5487 20.128 32.4024 19.992 32.5324 20.009C32.5974 20.009 32.6299 20.094 32.7762 20.264V20.281Z" fill="#D20014" stroke="#D20014" stroke-width="0.027"/>
<path d="M30.6314 27.251C30.5989 27.166 30.4689 27.098 30.3064 27.098C30.1439 27.098 30.0302 27.166 29.9814 27.251C29.9759 27.2287 29.9759 27.2053 29.9814 27.183C29.9814 27.064 30.1277 26.979 30.3064 26.979C30.5014 26.979 30.6477 27.064 30.6477 27.183C30.6532 27.2053 30.6532 27.2287 30.6477 27.251H30.6314Z" fill="#016A16" stroke="white" stroke-width="0.027" stroke-linecap="round"/>
<path d="M30.6152 27.5062C30.6152 27.7102 30.4689 27.8972 30.3064 27.8972C30.1439 27.8972 30.0139 27.7272 30.0139 27.4892V27.2852H30.6152V27.4892V27.5062Z" fill="#016A16" stroke="white" stroke-width="0.027" stroke-linecap="round"/>
<path d="M30.3064 27.3705C30.468 27.3705 30.5989 27.302 30.5989 27.2175C30.5989 27.133 30.468 27.0645 30.3064 27.0645C30.1449 27.0645 30.0139 27.133 30.0139 27.2175C30.0139 27.302 30.1449 27.3705 30.3064 27.3705Z" fill="white"/>
<path d="M30.2414 27.3702L30.1926 26.8262H30.4201L30.3876 27.3872H30.2414V27.3702Z" fill="#016A16" stroke="#F1B517" stroke-width="0.027"/>
<path d="M30.6314 27.2173C30.5989 27.3023 30.4689 27.3703 30.3064 27.3703C30.1439 27.3703 30.0302 27.3023 29.9814 27.2173C29.9759 27.2396 29.9759 27.263 29.9814 27.2853C29.9814 27.4043 30.1277 27.4893 30.3064 27.4893C30.5014 27.4893 30.6477 27.4043 30.6477 27.2853C30.6532 27.263 30.6532 27.2396 30.6477 27.2173H30.6314Z" fill="#016A16" stroke="white" stroke-width="0.027" stroke-linecap="round"/>
<path d="M31.85 29.3761L30.7125 29.0021L30.2087 28.1011L28.4375 28.0161L28.5025 28.6961L30.0137 28.9851L30.1437 29.2571L31.8825 29.7671L31.85 29.3761V29.3761Z" fill="#F1B517" stroke="black" stroke-width="0.027"/>
<path d="M30.6639 29.6312L28.8439 26.8262L28.7627 26.9112L30.5502 29.6992L30.6639 29.6312Z" fill="#503200" stroke="black" stroke-width="0.027"/>
<path d="M29.0227 26.9452L28.8277 26.6052C28.779 26.5372 28.7302 26.5202 28.649 26.5712C28.5677 26.6052 28.584 26.6902 28.6165 26.7582L28.779 27.0812L29.0227 26.9452V26.9452Z" fill="white" stroke="black" stroke-width="0.027"/>
<path d="M30.8751 27.8973L27.2188 27.5063L27.1213 28.0673L30.7613 28.4583L30.8751 27.8973Z" fill="#F1B517" stroke="black" stroke-width="0.027"/>
<path d="M27.1376 27.3701L27.0564 28.1351H27.2189L27.3164 27.4381L27.1539 27.3701H27.1376ZM27.7551 27.4891L27.7226 28.1861H27.8201L27.9014 27.5911L27.7714 27.4891H27.7551ZM30.2414 27.7951L30.1439 28.4411H30.3226L30.4039 27.7951H30.2414ZM30.7776 27.8121L30.6639 28.5601L30.8589 28.5941L30.9239 28.2031C30.9239 28.2881 31.0051 28.3391 31.0864 28.3391C31.1839 28.3391 31.2489 28.2541 31.2489 28.1691C31.2489 28.0671 31.1839 27.9991 31.0864 27.9991C31.0525 27.9962 31.0186 28.0045 30.9895 28.0228C30.9603 28.0411 30.9374 28.0685 30.9239 28.1011L30.9726 27.8291L30.7776 27.8121V27.8121ZM29.4776 27.9311L28.9576 28.5261L29.0226 28.5941L29.6726 28.1351L29.4614 27.9311H29.4776ZM28.2751 29.4101L28.7789 28.8151L28.7301 28.7471L28.0801 29.2061L28.2751 29.4101V29.4101ZM29.5914 29.2571L28.9901 28.7641L28.9251 28.8151L29.4126 29.4611L29.5914 29.2571V29.2571ZM28.0801 28.1181L28.7139 28.5941L28.7789 28.5431L28.2914 27.8971L28.0801 28.1181ZM28.7626 27.7271L28.8276 28.5091H28.9089L29.1039 27.7441L28.7626 27.7271ZM28.9576 29.5971L28.9089 28.8321H28.8114L28.6976 29.6141H28.9576V29.5971ZM29.7864 28.5771L29.0064 28.6451V28.7301L29.7864 28.8321V28.5601V28.5771ZM27.9339 28.8321L28.6976 28.7131V28.6451L27.9176 28.5601V28.8321H27.9339Z" fill="#F1B517" stroke="black" stroke-width="0.027"/>
<path d="M28.8763 28.866C28.993 28.866 29.0875 28.7747 29.0875 28.662C29.0875 28.5493 28.993 28.458 28.8763 28.458C28.7596 28.458 28.665 28.5493 28.665 28.662C28.665 28.7747 28.7596 28.866 28.8763 28.866Z" fill="#F1B517" stroke="black" stroke-width="0.027"/>
<path fill-rule="evenodd" clip-rule="evenodd" d="M29.9651 28.6623C29.9651 29.2573 29.4776 29.7673 28.8763 29.7673C28.7355 29.7695 28.5956 29.7427 28.4647 29.6884C28.3337 29.6341 28.2143 29.5533 28.1132 29.4507C28.0121 29.3481 27.9313 29.2256 27.8754 29.0904C27.8196 28.9551 27.7897 28.8096 27.7876 28.6623C27.7876 28.0503 28.2751 27.5573 28.8763 27.5573C29.0172 27.555 29.1571 27.5818 29.288 27.6361C29.419 27.6904 29.5384 27.7712 29.6395 27.8738C29.7406 27.9764 29.8214 28.0989 29.8773 28.2342C29.9331 28.3694 29.963 28.5149 29.9651 28.6623ZM29.7538 28.6623C29.7517 28.7806 29.7274 28.8973 29.6821 29.0058C29.6369 29.1143 29.5716 29.2123 29.4901 29.2944C29.4087 29.3765 29.3125 29.441 29.2072 29.4842C29.1019 29.5274 28.9895 29.5485 28.8763 29.5463C28.7619 29.5485 28.6481 29.5269 28.5418 29.4826C28.4354 29.4383 28.3385 29.3723 28.2568 29.2884C28.1751 29.2046 28.1102 29.1045 28.0659 28.994C28.0216 28.8836 27.9988 28.765 27.9988 28.6453C28.0073 28.4093 28.104 28.1862 28.2681 28.024C28.4322 27.8619 28.6507 27.7736 28.8763 27.7783C28.9895 27.776 29.1019 27.7971 29.2072 27.8403C29.3125 27.8835 29.4087 27.948 29.4901 28.0301C29.5716 28.1122 29.6369 28.2103 29.6821 28.3187C29.7274 28.4272 29.7517 28.5439 29.7538 28.6623V28.6623Z" fill="#F1B517" stroke="black" stroke-width="0.027" stroke-linecap="round"/>
<path d="M28.1937 28.1011L28.0312 27.9651ZM29.4125 27.9651L29.575 27.7951ZM29.7375 29.3591L29.5587 29.2061ZM28.1937 29.5291L28.3562 29.3591ZM31.8825 27.5571L32.0613 28.5771L31.915 28.6451L31.7525 27.5741H31.8825V27.5571Z" fill="#F1B517"/>
<path d="M28.1937 28.1011L28.0312 27.9651M29.4125 27.9651L29.575 27.7951M29.7375 29.3591L29.5587 29.2061M28.1937 29.5291L28.3562 29.3591M31.8825 27.5571L32.0613 28.5771L31.915 28.6451L31.7525 27.5741H31.8825V27.5571Z" stroke="black" stroke-width="0.027"/>
<path d="M31.7851 27.4383C31.7038 27.3873 31.5901 27.4553 31.3951 27.2173C31.0863 27.5063 31.3951 27.5573 31.4276 27.8463C31.5088 27.8803 31.5738 27.6083 31.8013 27.5913L32.1751 27.5573L32.0938 27.4383H31.7688H31.7851Z" fill="white" stroke="black" stroke-width="0.027"/>
<path d="M31.9152 27.6252L31.8827 27.3362C31.834 27.2172 31.7202 27.3192 31.7202 27.3702L31.7527 27.6592L31.9152 27.6252Z" fill="white" stroke="black" stroke-width="0.027"/>
<path fill-rule="evenodd" clip-rule="evenodd" d="M31.005 28.458V28.73C30.9075 28.764 30.9238 28.832 30.9238 28.934V29.733C30.9075 29.801 30.81 29.801 30.7613 29.835C30.7125 29.886 30.7288 29.971 30.9238 30.005L31.0863 30.022C31.33 29.971 31.3788 29.886 31.2488 29.852C31.2 29.818 31.1025 29.784 31.0863 29.75V29.546H31.2488C31.2813 29.546 31.3625 29.444 31.3625 29.359V28.934C31.3625 28.696 31.2 28.662 31.135 28.679V28.458H31.005V28.458ZM31.265 28.917C31.265 28.849 31.1675 28.781 31.135 28.781C31.1025 28.781 31.0213 28.866 31.0213 28.934V29.104C31.0213 29.172 31.07 29.376 31.1675 29.393C31.2 29.393 31.265 29.325 31.265 29.257V28.917V28.917Z" fill="#F1B517" stroke="black" stroke-width="0.027"/>
<path d="M29.9489 29.2914C29.8352 29.2574 29.8352 29.4954 29.8352 29.4954H29.9977C30.0789 29.5294 30.1277 29.6314 30.0952 29.6994C30.0464 29.7334 29.7377 29.6144 29.7214 29.6994C29.7702 30.0224 30.1927 30.1414 30.3389 30.0054C30.4852 29.8524 30.5177 29.4954 30.0464 29.3764L29.9489 29.2914ZM30.0464 29.3934L29.9977 29.4954Z" fill="white"/>
<path d="M30.0464 29.3934L29.9977 29.4954M29.9489 29.2914C29.8352 29.2574 29.8352 29.4954 29.8352 29.4954H29.9977C30.0789 29.5294 30.1277 29.6314 30.0952 29.6994C30.0464 29.7334 29.7377 29.6144 29.7214 29.6994C29.7702 30.0224 30.1927 30.1414 30.3389 30.0054C30.4852 29.8524 30.5177 29.4954 30.0464 29.3764L29.9489 29.2914Z" stroke="black" stroke-width="0.027"/>
<path d="M26.8125 29.4104L26.65 28.7304ZM26.9913 29.3764L26.7475 28.8494ZM27.3975 29.2404L26.8613 28.9344ZM27.6413 29.1724L26.6338 28.7134Z" fill="#F1B517"/>
<path d="M26.8125 29.4104L26.65 28.7304M26.9913 29.3764L26.7475 28.8494M27.3975 29.2404L26.8613 28.9344M27.6413 29.1724L26.6338 28.7134" stroke="black" stroke-width="0.027"/>
<path d="M26.0326 28.2202L25.6101 28.2372C25.5776 28.2542 25.6913 28.3902 25.6751 28.4242C25.5776 28.6112 24.9601 28.5942 24.9113 28.5602C24.8301 28.4752 25.4801 28.4242 25.4963 28.3902C25.4963 28.3222 25.3988 28.1862 25.4151 28.1012C25.4151 27.9822 25.6913 27.9312 25.6913 27.9312L26.0326 28.2202Z" fill="#D20014" stroke="#D20014" stroke-width="0.027"/>
<path d="M26.52 28.5602L25.7075 27.8462C25.7075 27.8462 25.6588 27.8122 25.6263 27.8462C25.5938 27.8802 25.6263 27.9142 25.6263 27.9142L26.5038 28.6622L26.52 28.5772V28.5602Z" fill="#503200" stroke="black" stroke-width="0.027"/>
<path d="M27.3325 29.2742L26.65 28.6622L26.6013 28.4922L26.4713 28.5942C26.4225 28.6282 26.3738 28.7302 26.3738 28.7302H26.5525L27.1375 29.3082L27.3163 29.2742H27.3325Z" fill="#F1B517" stroke="black" stroke-width="0.027"/>
<path d="M29.6562 30.2263C29.7191 30.2263 29.77 30.173 29.77 30.1073C29.77 30.0416 29.7191 29.9883 29.6562 29.9883C29.5934 29.9883 29.5425 30.0416 29.5425 30.1073C29.5425 30.173 29.5934 30.2263 29.6562 30.2263Z" fill="#F1B517" stroke="black" stroke-width="0.027"/>
<path d="M29.3476 29.988C29.4105 29.988 29.4614 29.9347 29.4614 29.869C29.4614 29.8033 29.4105 29.75 29.3476 29.75C29.2848 29.75 29.2339 29.8033 29.2339 29.869C29.2339 29.9347 29.2848 29.988 29.3476 29.988Z" fill="#F1B517" stroke="black" stroke-width="0.027"/>
<path d="M28.9414 30.1413C29.0042 30.1413 29.0551 30.088 29.0551 30.0223C29.0551 29.9566 29.0042 29.9033 28.9414 29.9033C28.8786 29.9033 28.8276 29.9566 28.8276 30.0223C28.8276 30.088 28.8786 30.1413 28.9414 30.1413Z" fill="#F1B517" stroke="black" stroke-width="0.027"/>
<path d="M28.3076 30.2771C28.3704 30.2771 28.4213 30.2238 28.4213 30.1581C28.4213 30.0923 28.3704 30.0391 28.3076 30.0391C28.2448 30.0391 28.1938 30.0923 28.1938 30.1581C28.1938 30.2238 28.2448 30.2771 28.3076 30.2771Z" fill="#F1B517" stroke="black" stroke-width="0.027"/>
<path d="M28.0315 30.3112C28.0943 30.3112 28.1452 30.258 28.1452 30.1922C28.1452 30.1265 28.0943 30.0732 28.0315 30.0732C27.9687 30.0732 27.9177 30.1265 27.9177 30.1922C27.9177 30.258 27.9687 30.3112 28.0315 30.3112Z" fill="#F1B517" stroke="black" stroke-width="0.027"/>
<path d="M27.7551 30.3112C27.8179 30.3112 27.8689 30.258 27.8689 30.1922C27.8689 30.1265 27.8179 30.0732 27.7551 30.0732C27.6923 30.0732 27.6414 30.1265 27.6414 30.1922C27.6414 30.258 27.6923 30.3112 27.7551 30.3112Z" fill="#F1B517" stroke="black" stroke-width="0.027"/>
<path d="M27.4951 30.3112C27.5579 30.3112 27.6088 30.258 27.6088 30.1922C27.6088 30.1265 27.5579 30.0732 27.4951 30.0732C27.4323 30.0732 27.3813 30.1265 27.3813 30.1922C27.3813 30.258 27.4323 30.3112 27.4951 30.3112Z" fill="#F1B517" stroke="black" stroke-width="0.027"/>
<path d="M27.625 30.09C27.6878 30.09 27.7387 30.0368 27.7387 29.9711C27.7387 29.9053 27.6878 29.8521 27.625 29.8521C27.5622 29.8521 27.5112 29.9053 27.5112 29.9711C27.5112 30.0368 27.5622 30.09 27.625 30.09Z" fill="#F1B517" stroke="black" stroke-width="0.027"/>
<path d="M27.885 30.1071C27.9478 30.1071 27.9987 30.0539 27.9987 29.9881C27.9987 29.9224 27.9478 29.8691 27.885 29.8691C27.8222 29.8691 27.7712 29.9224 27.7712 29.9881C27.7712 30.0539 27.8222 30.1071 27.885 30.1071Z" fill="#F1B517" stroke="black" stroke-width="0.027"/>
<path d="M28.1289 30.073C28.1917 30.073 28.2426 30.0197 28.2426 29.954C28.2426 29.8882 28.1917 29.835 28.1289 29.835C28.0661 29.835 28.0151 29.8882 28.0151 29.954C28.0151 30.0197 28.0661 30.073 28.1289 30.073Z" fill="#F1B517" stroke="black" stroke-width="0.027"/>
<path d="M28.0151 29.8693C28.0779 29.8693 28.1289 29.8161 28.1289 29.7503C28.1289 29.6846 28.0779 29.6313 28.0151 29.6313C27.9523 29.6313 27.9014 29.6846 27.9014 29.7503C27.9014 29.8161 27.9523 29.8693 28.0151 29.8693Z" fill="#F1B517" stroke="black" stroke-width="0.027"/>
<path d="M27.7551 29.8523C27.8179 29.8523 27.8689 29.799 27.8689 29.7333C27.8689 29.6675 27.8179 29.6143 27.7551 29.6143C27.6923 29.6143 27.6414 29.6675 27.6414 29.7333C27.6414 29.799 27.6923 29.8523 27.7551 29.8523Z" fill="#F1B517" stroke="black" stroke-width="0.027"/>
<path fill-rule="evenodd" clip-rule="evenodd" d="M30.3063 30.2602C30.3063 30.2092 30.1763 30.2262 30.1763 30.1582C30.1763 30.0902 30.3713 30.1582 30.3875 30.2092C30.5013 30.1072 30.55 30.1752 30.615 30.2092C30.7125 30.0732 30.8263 30.0732 30.94 30.1752C31.005 30.1072 31.1675 30.1242 31.2163 30.2092C31.33 30.1072 31.4275 30.1242 31.4925 30.2092C31.525 30.1582 31.5738 30.1582 31.6063 30.2092C31.655 30.0902 31.8013 30.1242 31.8663 30.2092C31.915 30.1412 31.98 30.1922 32.045 30.2262C32.0938 30.1922 32.175 30.1922 32.175 30.2262C32.175 30.2942 32.0775 30.2772 32.0775 30.3282C32.0775 30.3622 32.1425 30.3282 32.1425 30.3962C32.1425 30.4472 32.045 30.4642 32.0288 30.3962C31.98 30.4642 31.85 30.4302 31.8338 30.3622C31.8216 30.3767 31.8066 30.3883 31.7898 30.3962C31.7729 30.4042 31.7547 30.4083 31.7363 30.4083C31.7178 30.4083 31.6996 30.4042 31.6828 30.3962C31.666 30.3883 31.651 30.3767 31.6388 30.3622C31.59 30.3962 31.525 30.3962 31.5088 30.3622C31.4275 30.4472 31.2813 30.4302 31.2325 30.3282H31.1838C31.1685 30.3463 31.1498 30.3608 31.1288 30.3707C31.1077 30.3807 31.0849 30.3858 31.0619 30.3858C31.0388 30.3858 31.016 30.3807 30.995 30.3707C30.974 30.3608 30.9553 30.3463 30.94 30.3282C30.7938 30.4302 30.7125 30.3962 30.6313 30.3282C30.55 30.4472 30.4038 30.4472 30.3875 30.3282C30.3225 30.3792 30.1925 30.3962 30.1925 30.3282C30.1925 30.2942 30.3063 30.3112 30.3063 30.2602V30.2602ZM30.5663 30.2772C30.5663 30.3112 30.5338 30.3282 30.5013 30.3282C30.4688 30.3282 30.4363 30.3112 30.4363 30.2772C30.4363 30.2432 30.4525 30.2432 30.5013 30.2432C30.55 30.2432 30.5663 30.2602 30.5663 30.2772ZM30.875 30.2432C30.875 30.2772 30.8263 30.2942 30.7775 30.2942C30.7288 30.2942 30.6963 30.2772 30.6963 30.2432C30.6963 30.2262 30.7288 30.1922 30.7775 30.1922C30.8263 30.1922 30.8588 30.2262 30.8588 30.2432H30.875ZM31.4438 30.2772C31.4438 30.3112 31.4113 30.3282 31.3625 30.3282C31.3138 30.3282 31.2975 30.3112 31.2975 30.2772C31.2975 30.2602 31.33 30.2262 31.3625 30.2262C31.395 30.2262 31.4438 30.2432 31.4438 30.2772ZM31.135 30.2772C31.135 30.3112 31.1025 30.3282 31.0538 30.3282C31.005 30.3282 30.9888 30.3112 30.9888 30.2602C30.9888 30.2262 31.0213 30.1922 31.0538 30.1922C31.0863 30.1922 31.135 30.2262 31.135 30.2602V30.2772ZM31.785 30.2772C31.785 30.2942 31.7688 30.3282 31.7363 30.3282C31.6875 30.3282 31.655 30.2942 31.655 30.2602C31.655 30.2262 31.6875 30.2092 31.7363 30.2092C31.7688 30.2092 31.8013 30.2262 31.8013 30.2602L31.785 30.2772ZM31.59 30.2772C31.59 30.3112 31.59 30.3282 31.5575 30.3282C31.525 30.3282 31.5088 30.3112 31.5088 30.2772C31.5088 30.2432 31.525 30.2432 31.5575 30.2432L31.59 30.2772ZM31.98 30.2942C31.98 30.3282 31.98 30.3622 31.9313 30.3622C31.915 30.3622 31.8825 30.3282 31.8825 30.2942C31.8825 30.2602 31.915 30.2432 31.9313 30.2432C31.9638 30.2432 31.98 30.2602 31.98 30.2942Z" fill="#F1B517" stroke="black" stroke-width="0.027"/>
<path d="M33.1339 29.3761L34.2714 29.0021L34.7751 28.1011L36.5464 28.0161L36.4814 28.6961L34.9701 28.9851L34.8401 29.2571L33.1014 29.7671L33.1339 29.3761V29.3761Z" fill="#F1B517" stroke="black" stroke-width="0.027"/>
<path d="M34.3202 29.6312L36.1402 26.8262L36.2214 26.9112L34.4339 29.6992L34.3202 29.6312Z" fill="#503200" stroke="black" stroke-width="0.027"/>
<path d="M35.9614 26.9452L36.1564 26.6052C36.2052 26.5372 36.2539 26.5202 36.3352 26.5712C36.4164 26.6052 36.4002 26.6902 36.3677 26.7582L36.2052 27.0812L35.9614 26.9452V26.9452Z" fill="white" stroke="black" stroke-width="0.027"/>
<path d="M34.1088 27.8973L37.765 27.5063L37.8625 28.0673L34.2225 28.4583L34.1088 27.8973Z" fill="#F1B517" stroke="black" stroke-width="0.027"/>
<path d="M37.8462 27.3701L37.9275 28.1351H37.765L37.6675 27.4381L37.83 27.3701H37.8462ZM37.2287 27.4891L37.2612 28.1861H37.1637L37.0825 27.5911L37.2125 27.4891H37.2287ZM34.7425 27.7951L34.84 28.4411H34.6612L34.58 27.7951H34.7425ZM34.2062 27.8121L34.32 28.5601L34.125 28.5941L34.06 28.2031C34.06 28.2881 33.9787 28.3391 33.8975 28.3391C33.8 28.3391 33.735 28.2541 33.735 28.1691C33.735 28.0671 33.8 27.9991 33.8975 27.9991C33.9314 27.9962 33.9653 28.0045 33.9944 28.0228C34.0236 28.0411 34.0465 28.0685 34.06 28.1011L34.0112 27.8291L34.2062 27.8121V27.8121ZM35.5062 27.9311L36.0262 28.5261L35.9612 28.5941L35.3112 28.1351L35.5225 27.9311H35.5062ZM36.7087 29.4101L36.205 28.8151L36.2537 28.7471L36.9037 29.2061L36.7087 29.4101V29.4101ZM35.3925 29.2571L35.9937 28.7641L36.0587 28.8151L35.5712 29.4611L35.3925 29.2571V29.2571ZM36.9037 28.1181L36.27 28.5941L36.205 28.5431L36.6925 27.8971L36.9037 28.1181ZM36.2212 27.7271L36.1562 28.5091H36.075L35.88 27.7441L36.2212 27.7271ZM36.0262 29.5971L36.075 28.8321H36.1725L36.2862 29.6141H36.0262V29.5971ZM35.1975 28.5771L35.9775 28.6451V28.7301L35.1975 28.8321V28.5601V28.5771ZM37.05 28.8321L36.2862 28.7131V28.6451L37.0662 28.5601V28.8321H37.05Z" fill="#F1B517" stroke="black" stroke-width="0.027"/>
<path d="M36.1076 28.866C35.9909 28.866 35.8963 28.7747 35.8963 28.662C35.8963 28.5493 35.9909 28.458 36.1076 28.458C36.2243 28.458 36.3188 28.5493 36.3188 28.662C36.3188 28.7747 36.2243 28.866 36.1076 28.866Z" fill="#F1B517" stroke="black" stroke-width="0.027"/>
<path fill-rule="evenodd" clip-rule="evenodd" d="M35.0188 28.6623C35.0188 29.2573 35.5063 29.7673 36.1075 29.7673C36.2484 29.7695 36.3883 29.7427 36.5192 29.6884C36.6502 29.6341 36.7696 29.5533 36.8707 29.4507C36.9718 29.3481 37.0526 29.2256 37.1085 29.0904C37.1643 28.9551 37.1942 28.8096 37.1963 28.6623C37.1963 28.0503 36.7088 27.5573 36.1075 27.5573C35.9667 27.555 35.8268 27.5818 35.6959 27.6361C35.5649 27.6904 35.4455 27.7712 35.3444 27.8738C35.2433 27.9764 35.1625 28.0989 35.1066 28.2342C35.0507 28.3694 35.0209 28.5149 35.0188 28.6623ZM35.23 28.6623C35.2322 28.7806 35.2565 28.8973 35.3018 29.0058C35.347 29.1143 35.4123 29.2123 35.4937 29.2944C35.5752 29.3765 35.6714 29.441 35.7767 29.4842C35.882 29.5274 35.9944 29.5485 36.1075 29.5463C36.222 29.5485 36.3357 29.5269 36.4421 29.4826C36.5485 29.4383 36.6454 29.3723 36.7271 29.2884C36.8088 29.2046 36.8737 29.1045 36.918 28.994C36.9623 28.8836 36.9851 28.765 36.985 28.6453C36.9766 28.4093 36.8799 28.1862 36.7158 28.024C36.5516 27.8619 36.3332 27.7736 36.1075 27.7783C35.9944 27.776 35.882 27.7971 35.7767 27.8403C35.6714 27.8835 35.5752 27.948 35.4937 28.0301C35.4123 28.1122 35.347 28.2103 35.3018 28.3187C35.2565 28.4272 35.2322 28.5439 35.23 28.6623V28.6623Z" fill="#F1B517" stroke="black" stroke-width="0.027" stroke-linecap="round"/>
<path d="M36.7901 28.1011L36.9526 27.9651ZM35.5714 27.9651L35.4089 27.7951ZM35.2464 29.3591L35.4251 29.2061ZM36.7901 29.5291L36.6276 29.3591ZM33.1014 27.5571L32.9226 28.5771L33.0689 28.6451L33.2314 27.5741H33.1014V27.5571Z" fill="#F1B517"/>
<path d="M36.7901 28.1011L36.9526 27.9651M35.5714 27.9651L35.4089 27.7951M35.2464 29.3591L35.4251 29.2061M36.7901 29.5291L36.6276 29.3591M33.1014 27.5571L32.9226 28.5771L33.0689 28.6451L33.2314 27.5741H33.1014V27.5571Z" stroke="black" stroke-width="0.027"/>
<path d="M33.1988 27.4383C33.2801 27.3873 33.3938 27.4553 33.5888 27.2173C33.8976 27.5063 33.5888 27.5573 33.5563 27.8463C33.4751 27.8803 33.4101 27.6083 33.1826 27.5913L32.8088 27.5573L32.8901 27.4383H33.2151H33.1988Z" fill="white" stroke="black" stroke-width="0.027"/>
<path d="M33.0689 27.6252L33.1014 27.3362C33.1502 27.2172 33.2639 27.3192 33.2639 27.3702L33.2314 27.6592L33.0689 27.6252Z" fill="white" stroke="black" stroke-width="0.027"/>
<path fill-rule="evenodd" clip-rule="evenodd" d="M33.9788 28.458V28.73C34.0763 28.764 34.0601 28.832 34.0601 28.934V29.733C34.0763 29.801 34.1738 29.801 34.2226 29.835C34.2713 29.886 34.2551 29.971 34.0601 30.005L33.8976 30.022C33.6538 29.971 33.6051 29.886 33.7351 29.852C33.7838 29.818 33.8813 29.784 33.8976 29.75V29.546H33.7351C33.7026 29.546 33.6213 29.444 33.6213 29.359V28.934C33.6213 28.696 33.7838 28.662 33.8488 28.679V28.458H33.9788V28.458ZM33.7188 28.917C33.7188 28.849 33.8163 28.781 33.8488 28.781C33.8813 28.781 33.9626 28.866 33.9626 28.934V29.104C33.9626 29.172 33.9138 29.376 33.8163 29.393C33.7838 29.393 33.7188 29.325 33.7188 29.257V28.917V28.917Z" fill="#F1B517" stroke="black" stroke-width="0.027"/>
<path d="M35.0352 29.2914C35.1489 29.2574 35.1489 29.4954 35.1489 29.4954H34.9864C34.9052 29.5294 34.8564 29.6314 34.8889 29.6994C34.9377 29.7334 35.2464 29.6144 35.2627 29.6994C35.2139 30.0224 34.7914 30.1414 34.6452 30.0054C34.4989 29.8524 34.4664 29.4954 34.9377 29.3764L35.0352 29.2914ZM34.9377 29.3934L34.9864 29.4954Z" fill="white"/>
<path d="M34.9377 29.3934L34.9864 29.4954M35.0352 29.2914C35.1489 29.2574 35.1489 29.4954 35.1489 29.4954H34.9864C34.9052 29.5294 34.8564 29.6314 34.8889 29.6994C34.9377 29.7334 35.2464 29.6144 35.2627 29.6994C35.2139 30.0224 34.7914 30.1414 34.6452 30.0054C34.4989 29.8524 34.4664 29.4954 34.9377 29.3764L35.0352 29.2914Z" stroke="black" stroke-width="0.027"/>
<path d="M38.1713 29.4104L38.3338 28.7304ZM37.9926 29.3764L38.2363 28.8494ZM37.5863 29.2404L38.1226 28.9344ZM37.3426 29.1724L38.3501 28.7134Z" fill="#F1B517"/>
<path d="M38.1713 29.4104L38.3338 28.7304M37.9926 29.3764L38.2363 28.8494M37.5863 29.2404L38.1226 28.9344M37.3426 29.1724L38.3501 28.7134" stroke="black" stroke-width="0.027"/>
<path d="M38.9513 28.2202L39.3738 28.2372C39.4063 28.2542 39.2926 28.3902 39.3088 28.4242C39.4063 28.6112 40.0238 28.5942 40.0726 28.5602C40.1538 28.4752 39.5038 28.4242 39.4876 28.3902C39.4876 28.3222 39.5851 28.1862 39.5688 28.1012C39.5688 27.9822 39.2926 27.9312 39.2926 27.9312L38.9513 28.2202Z" fill="#D20014" stroke="#D20014" stroke-width="0.027"/>
<path d="M38.4639 28.5602L39.2764 27.8462C39.2764 27.8462 39.3251 27.8122 39.3576 27.8462C39.3901 27.8802 39.3576 27.9142 39.3576 27.9142L38.4801 28.6622L38.4639 28.5772V28.5602Z" fill="#503200" stroke="black" stroke-width="0.027"/>
<path d="M37.6514 29.2742L38.3339 28.6622L38.3826 28.4922L38.5126 28.5942C38.5614 28.6282 38.6101 28.7302 38.6101 28.7302H38.4314L37.8464 29.3082L37.6676 29.2742H37.6514Z" fill="#F1B517" stroke="black" stroke-width="0.027"/>
<path d="M35.3277 30.2263C35.2648 30.2263 35.2139 30.173 35.2139 30.1073C35.2139 30.0416 35.2648 29.9883 35.3277 29.9883C35.3905 29.9883 35.4414 30.0416 35.4414 30.1073C35.4414 30.173 35.3905 30.2263 35.3277 30.2263Z" fill="#F1B517" stroke="black" stroke-width="0.027"/>
<path d="M35.6362 29.988C35.5734 29.988 35.5225 29.9347 35.5225 29.869C35.5225 29.8033 35.5734 29.75 35.6362 29.75C35.6991 29.75 35.75 29.8033 35.75 29.869C35.75 29.9347 35.6991 29.988 35.6362 29.988Z" fill="#F1B517" stroke="black" stroke-width="0.027"/>
<path d="M36.0425 30.1413C35.9797 30.1413 35.9287 30.088 35.9287 30.0223C35.9287 29.9566 35.9797 29.9033 36.0425 29.9033C36.1053 29.9033 36.1562 29.9566 36.1562 30.0223C36.1562 30.088 36.1053 30.1413 36.0425 30.1413Z" fill="#F1B517" stroke="black" stroke-width="0.027"/>
<path d="M36.6763 30.2771C36.6135 30.2771 36.5625 30.2238 36.5625 30.1581C36.5625 30.0923 36.6135 30.0391 36.6763 30.0391C36.7391 30.0391 36.79 30.0923 36.79 30.1581C36.79 30.2238 36.7391 30.2771 36.6763 30.2771Z" fill="#F1B517" stroke="black" stroke-width="0.027"/>
<path d="M36.9527 30.3112C36.8898 30.3112 36.8389 30.258 36.8389 30.1922C36.8389 30.1265 36.8898 30.0732 36.9527 30.0732C37.0155 30.0732 37.0664 30.1265 37.0664 30.1922C37.0664 30.258 37.0155 30.3112 36.9527 30.3112Z" fill="#F1B517" stroke="black" stroke-width="0.027"/>
<path d="M37.2288 30.3112C37.166 30.3112 37.115 30.258 37.115 30.1922C37.115 30.1265 37.166 30.0732 37.2288 30.0732C37.2916 30.0732 37.3425 30.1265 37.3425 30.1922C37.3425 30.258 37.2916 30.3112 37.2288 30.3112Z" fill="#F1B517" stroke="black" stroke-width="0.027"/>
<path d="M37.4888 30.3112C37.426 30.3112 37.375 30.258 37.375 30.1922C37.375 30.1265 37.426 30.0732 37.4888 30.0732C37.5516 30.0732 37.6025 30.1265 37.6025 30.1922C37.6025 30.258 37.5516 30.3112 37.4888 30.3112Z" fill="#F1B517" stroke="black" stroke-width="0.027"/>
<path d="M37.3589 30.09C37.2961 30.09 37.2452 30.0368 37.2452 29.9711C37.2452 29.9053 37.2961 29.8521 37.3589 29.8521C37.4217 29.8521 37.4727 29.9053 37.4727 29.9711C37.4727 30.0368 37.4217 30.09 37.3589 30.09Z" fill="#F1B517" stroke="black" stroke-width="0.027"/>
<path d="M37.0989 30.1071C37.0361 30.1071 36.9851 30.0539 36.9851 29.9881C36.9851 29.9224 37.0361 29.8691 37.0989 29.8691C37.1617 29.8691 37.2126 29.9224 37.2126 29.9881C37.2126 30.0539 37.1617 30.1071 37.0989 30.1071Z" fill="#F1B517" stroke="black" stroke-width="0.027"/>
<path d="M36.855 30.073C36.7922 30.073 36.7412 30.0197 36.7412 29.954C36.7412 29.8882 36.7922 29.835 36.855 29.835C36.9178 29.835 36.9688 29.8882 36.9688 29.954C36.9688 30.0197 36.9178 30.073 36.855 30.073Z" fill="#F1B517" stroke="black" stroke-width="0.027"/>
<path d="M36.9688 29.8693C36.9059 29.8693 36.855 29.8161 36.855 29.7503C36.855 29.6846 36.9059 29.6313 36.9688 29.6313C37.0316 29.6313 37.0825 29.6846 37.0825 29.7503C37.0825 29.8161 37.0316 29.8693 36.9688 29.8693Z" fill="#F1B517" stroke="black" stroke-width="0.027"/>
<path d="M37.2288 29.8523C37.166 29.8523 37.115 29.799 37.115 29.7333C37.115 29.6675 37.166 29.6143 37.2288 29.6143C37.2916 29.6143 37.3425 29.6675 37.3425 29.7333C37.3425 29.799 37.2916 29.8523 37.2288 29.8523Z" fill="#F1B517" stroke="black" stroke-width="0.027"/>
<path fill-rule="evenodd" clip-rule="evenodd" d="M34.6776 30.2602C34.6776 30.2092 34.8076 30.2262 34.8076 30.1582C34.8076 30.0902 34.6126 30.1582 34.5964 30.2092C34.4826 30.1072 34.4339 30.1752 34.3689 30.2092C34.2714 30.0732 34.1576 30.0732 34.0439 30.1752C33.9789 30.1072 33.8164 30.1242 33.7676 30.2092C33.6539 30.1072 33.5564 30.1242 33.4914 30.2092C33.4589 30.1582 33.4101 30.1582 33.3776 30.2092C33.3289 30.0902 33.1826 30.1242 33.1176 30.2092C33.0689 30.1412 33.0039 30.1922 32.9389 30.2262C32.8901 30.1922 32.8089 30.1922 32.8089 30.2262C32.8089 30.2942 32.9064 30.2772 32.9064 30.3282C32.9064 30.3622 32.8414 30.3282 32.8414 30.3962C32.8414 30.4472 32.9389 30.4642 32.9551 30.3962C33.0039 30.4642 33.1339 30.4302 33.1501 30.3622C33.1623 30.3767 33.1773 30.3883 33.1941 30.3962C33.2109 30.4042 33.2292 30.4083 33.2476 30.4083C33.2661 30.4083 33.2843 30.4042 33.3011 30.3962C33.3179 30.3883 33.3329 30.3767 33.3451 30.3622C33.3939 30.3962 33.4589 30.3962 33.4751 30.3622C33.5564 30.4472 33.7026 30.4302 33.7514 30.3282H33.8001C33.8154 30.3463 33.8341 30.3608 33.8551 30.3707C33.8761 30.3807 33.8989 30.3858 33.922 30.3858C33.945 30.3858 33.9678 30.3807 33.9889 30.3707C34.0099 30.3608 34.0286 30.3463 34.0439 30.3282C34.1901 30.4302 34.2714 30.3962 34.3526 30.3282C34.4339 30.4472 34.5801 30.4472 34.5964 30.3282C34.6614 30.3792 34.7914 30.3962 34.7914 30.3282C34.7914 30.2942 34.6776 30.3112 34.6776 30.2602V30.2602ZM34.4176 30.2772C34.4176 30.3112 34.4501 30.3282 34.4826 30.3282C34.5151 30.3282 34.5476 30.3112 34.5476 30.2772C34.5476 30.2432 34.5314 30.2432 34.4826 30.2432C34.4339 30.2432 34.4176 30.2602 34.4176 30.2772ZM34.1089 30.2432C34.1089 30.2772 34.1576 30.2942 34.2064 30.2942C34.2551 30.2942 34.2876 30.2772 34.2876 30.2432C34.2876 30.2262 34.2551 30.1922 34.2064 30.1922C34.1576 30.1922 34.1251 30.2262 34.1251 30.2432H34.1089ZM33.5401 30.2772C33.5401 30.3112 33.5726 30.3282 33.6214 30.3282C33.6701 30.3282 33.6864 30.3112 33.6864 30.2772C33.6864 30.2602 33.6539 30.2262 33.6214 30.2262C33.5889 30.2262 33.5401 30.2432 33.5401 30.2772ZM33.8489 30.2772C33.8489 30.3112 33.8814 30.3282 33.9301 30.3282C33.9789 30.3282 33.9951 30.3112 33.9951 30.2602C33.9951 30.2262 33.9626 30.1922 33.9301 30.1922C33.8976 30.1922 33.8489 30.2262 33.8489 30.2602V30.2772ZM33.1989 30.2772C33.1989 30.2942 33.2151 30.3282 33.2476 30.3282C33.2964 30.3282 33.3289 30.2942 33.3289 30.2602C33.3289 30.2262 33.2964 30.2092 33.2476 30.2092C33.2151 30.2092 33.1826 30.2262 33.1826 30.2602L33.1989 30.2772ZM33.3939 30.2772C33.3939 30.3112 33.3939 30.3282 33.4264 30.3282C33.4589 30.3282 33.4751 30.3112 33.4751 30.2772C33.4751 30.2432 33.4589 30.2432 33.4264 30.2432L33.3939 30.2772ZM33.0039 30.2942C33.0039 30.3282 33.0039 30.3622 33.0526 30.3622C33.0689 30.3622 33.1014 30.3282 33.1014 30.2942C33.1014 30.2602 33.0689 30.2432 33.0526 30.2432C33.0201 30.2432 33.0039 30.2602 33.0039 30.2942Z" fill="#F1B517" stroke="black" stroke-width="0.027"/>
<path d="M32.4676 28.1694C32.0613 28.1694 31.7363 28.3394 31.7363 28.5264C31.7363 28.5604 31.7363 28.5944 31.7688 28.6284C31.8501 28.7304 32.1426 28.7984 32.4838 28.7984C32.8088 28.7984 33.0688 28.7474 33.1663 28.6454C33.1988 28.6114 33.2151 28.5774 33.2151 28.5264C33.2151 28.3394 32.8901 28.1864 32.4676 28.1864V28.1694Z" fill="#0A328C" stroke="#0A328C" stroke-width="0.027"/>
<path d="M33.2151 28.5601V29.7501C33.2151 29.9031 32.8901 30.0051 32.4838 30.0051C32.0776 30.0051 31.7363 29.9031 31.7363 29.7501V28.5601C31.7363 28.6961 32.0613 28.8151 32.4676 28.8151C32.8901 28.8151 33.2151 28.6961 33.2151 28.5601Z" fill="#F1B517" stroke="black" stroke-width="0.027"/>
<path d="M31.7363 28.5601V28.7301L32.0938 29.9201L32.3863 29.0021L32.7113 29.9371L32.9226 29.0531L33.2151 29.6481V29.3251L32.9551 28.7471C32.923 28.7597 32.8905 28.771 32.8576 28.7811L32.6951 29.4271L32.4513 28.8151C32.4134 28.816 32.3755 28.816 32.3376 28.8151L32.0938 29.4271L31.8338 28.6791C31.7688 28.6451 31.7363 28.5941 31.7363 28.5601V28.5601Z" fill="#D20014" stroke="#D20014" stroke-width="0.027"/>
<path d="M33.2151 29.5293V29.7503C33.2151 29.9033 32.8901 30.0053 32.4838 30.0053C32.0776 30.0053 31.7363 29.9033 31.7363 29.7503V29.5293C31.7363 29.6823 32.0613 29.7843 32.4676 29.7843C32.8901 29.7843 33.2151 29.6823 33.2151 29.5293Z" fill="#0A328C" stroke="#0A328C" stroke-width="0.027"/>
<path d="M32.7763 29.7503L32.5976 29.7843V30.0053L32.7926 29.9883V29.7673L32.7763 29.7503ZM31.9963 29.7333V29.9543L32.1751 29.9883V29.7673C32.1149 29.7599 32.0552 29.7485 31.9963 29.7333ZM31.7363 29.5293V29.7503C31.7363 29.8013 31.7688 29.8353 31.8176 29.8693V29.6483C31.7688 29.6143 31.7363 29.5803 31.7363 29.5293ZM33.2151 29.5633C33.2151 29.5973 33.1501 29.6483 33.0851 29.6823V29.9033C33.1663 29.8693 33.2151 29.8183 33.2151 29.7503V29.5803V29.5633Z" fill="#F1B517" stroke="black" stroke-width="0.027"/>
<path d="M33.2151 28.5601V29.7501C33.2151 29.9031 32.8901 30.0051 32.4838 30.0051C32.0776 30.0051 31.7363 29.9031 31.7363 29.7501V28.5601" stroke="black" stroke-width="0.027"/>
<path d="M33.0527 28.4753C33.0527 28.5603 32.7927 28.6453 32.4839 28.6453C32.1589 28.6453 31.8989 28.5603 31.8989 28.4753C31.8989 28.3903 32.1589 28.3223 32.4677 28.3223C32.7927 28.3223 33.0527 28.3903 33.0527 28.4923V28.4753Z" fill="white" stroke="white" stroke-width="0.027"/>
<path d="M32.289 28.5942L32.3215 28.7982H32.484L32.5002 28.5942H32.289V28.5942ZM32.9552 28.5432L32.7927 28.5772L32.809 28.7812L32.9715 28.7472V28.5602L32.9552 28.5432ZM32.0777 28.2032L31.964 28.2542L31.9802 28.4242L32.0777 28.3902V28.2202V28.2032ZM32.4677 28.1522H32.419L32.4515 28.3562H32.549L32.5815 28.1522C32.5436 28.1508 32.5056 28.1508 32.4677 28.1522V28.1522ZM32.9065 28.2202L32.8902 28.3902L33.004 28.4412V28.2712C32.9725 28.2521 32.94 28.235 32.9065 28.2202V28.2202ZM31.8502 28.6962L31.8827 28.4752L31.7202 28.3902V28.6452L31.8502 28.6962ZM33.2152 28.6452V28.4242L33.0852 28.4752L33.2152 28.6452ZM34.7265 27.2002C34.8565 27.2002 35.0515 27.3702 35.0677 27.6252C35.0677 27.7952 34.7915 27.7952 34.7915 27.7952C34.7915 27.8802 34.629 27.9482 34.499 27.9652C34.369 27.9652 34.5315 27.7102 34.5315 27.7102C34.4502 27.4892 34.564 27.2512 34.564 27.2512L34.7265 27.2002Z" fill="#F1B517" stroke="black" stroke-width="0.027"/>
<path d="M34.5312 27.7104H34.6612C34.6612 27.7104 34.6613 27.7614 34.6938 27.7614C34.7263 27.7614 34.7425 27.6934 34.7425 27.6934H34.9375" fill="#F1B517"/>
<path d="M34.5312 27.7104H34.6612C34.6612 27.7104 34.6613 27.7614 34.6938 27.7614C34.7263 27.7614 34.7425 27.6934 34.7425 27.6934H34.9375" stroke="black" stroke-width="0.027"/>
<path d="M34.7915 27.3531C34.9052 27.2681 34.8077 27.0981 34.7265 27.0981H34.564C34.4665 27.0981 34.3365 27.2001 34.3527 27.2681C34.3527 27.3531 34.4177 27.3871 34.4827 27.3701C34.5152 27.3701 34.5802 27.2681 34.6127 27.2681C34.6615 27.2681 34.7752 27.3701 34.7915 27.3531V27.3531Z" fill="#D20014" stroke="#F1B517" stroke-width="0.027"/>
<path fill-rule="evenodd" clip-rule="evenodd" d="M26.6826 29.7163C26.5851 29.7333 26.5688 29.8523 26.6013 29.9713C26.1788 30.0903 25.7888 30.2603 25.3988 30.3793C25.3826 30.2943 25.5938 30.0733 25.5938 30.0733C25.6426 30.0903 25.6913 30.2263 25.6913 30.2263C25.6913 29.9543 25.9513 29.7843 25.9513 29.7843C25.7888 29.7503 25.3501 29.9543 25.3013 30.0223C25.3013 30.0223 25.4638 29.9883 25.4963 30.0223C25.4963 30.0223 25.1388 30.4133 25.1226 30.5323C25.1876 30.6513 25.7726 30.7533 25.7726 30.7533C25.7726 30.7873 25.6101 30.9233 25.6101 30.9233C25.8538 30.9573 26.2113 30.7873 26.3088 30.6853C26.3088 30.6853 26.0326 30.6513 25.8213 30.4643C25.8213 30.4643 25.8538 30.5833 25.8213 30.6343C25.8213 30.6343 25.4963 30.5323 25.4476 30.4643C25.4476 30.4643 26.2601 30.2603 26.6501 30.1243C26.6663 30.2093 26.7476 30.3453 26.8451 30.3113C26.8938 30.2943 26.8776 30.1753 26.8451 30.0733C26.8582 30.0856 26.8737 30.095 26.8905 30.1008C26.9072 30.1067 26.925 30.1089 26.9426 30.1073C27.0076 30.1073 27.0563 30.0563 27.0563 29.9883C27.0563 29.9203 27.0076 29.8693 26.9426 29.8693C26.9178 29.8707 26.894 29.8794 26.8738 29.8945C26.8537 29.9095 26.8381 29.9303 26.8288 29.9543C26.8126 29.8693 26.7638 29.7163 26.6988 29.7333L26.6826 29.7163ZM27.0076 29.9883C27.0076 30.0223 26.9751 30.0393 26.9426 30.0393C26.935 30.0421 26.9268 30.0429 26.9189 30.0417C26.9109 30.0404 26.9034 30.0371 26.897 30.0321C26.8905 30.027 26.8854 30.0204 26.882 30.0127C26.8786 30.0051 26.8771 29.9967 26.8776 29.9883C26.8776 29.9543 26.9101 29.9203 26.9426 29.9203C26.9751 29.9203 26.9913 29.9543 26.9913 29.9883H27.0076Z" fill="#F1B517" stroke="black" stroke-width="0.027"/>
<path d="M39.4876 30.2431C39.5201 30.1751 39.4876 29.8691 39.4876 29.8691C39.4063 29.8691 39.3251 29.9881 39.3251 29.9881C39.4063 29.7161 39.1951 29.3081 39.1951 29.3081C39.3413 29.3251 39.8288 29.8181 39.8451 29.9201C39.8451 29.9201 39.6338 29.8351 39.6013 29.8521C39.6501 30.1071 39.8126 30.2261 39.8776 30.3621C39.8776 30.3621 39.6013 30.4131 39.6176 30.6681H39.4388C39.3738 30.5831 39.4551 30.4471 39.4551 30.4471L38.2038 29.9031C38.1226 29.8691 37.9438 29.7671 37.9763 29.6651C37.9926 29.5801 38.3013 29.7161 38.3663 29.7501L39.5038 30.2431H39.4876Z" fill="#F1B517" stroke="black" stroke-width="0.027"/>
<path d="M38.285 30.0053L38.4475 29.7333C38.4963 29.6483 38.3825 29.5633 38.3013 29.6653L38.1388 29.9203C38.0738 30.0733 38.22 30.1073 38.3013 30.0053H38.285Z" fill="#F1B517" stroke="black" stroke-width="0.027"/>
<path d="M29.4733 30.6635L29.4632 30.3447L29.1077 30.3766L29.0874 30.706L29.4733 30.6635V30.6635Z" fill="white" stroke="black" stroke-width="0.0253125"/>
<path d="M26.853 31.0995L26.3756 30.8126C28.3459 31.0039 28.7522 30.2814 29.2295 30.2495C29.5342 30.2176 29.5647 30.5895 28.9959 30.4089L29.1483 30.7914C29.1483 30.7914 27.7467 31.6201 26.3655 31.2801L26.853 31.0995V31.0995ZM35.4655 30.6639L35.4756 30.3451L35.9124 30.3664L35.9327 30.6958L35.4655 30.6639Z" fill="white" stroke="black" stroke-width="0.0253125"/>
<path d="M38.1773 31.0249L38.6343 30.7593C36.3593 30.8336 36.8773 30.3768 35.7499 30.2493C35.4453 30.2068 35.2421 30.6105 35.9734 30.4086L35.8312 30.7911H36.1867C36.9585 31.3224 37.9945 31.3755 38.6851 31.2055L38.1773 31.0249V31.0249Z" fill="white" stroke="black" stroke-width="0.0253125"/>
<path d="M28.9958 30.4194V30.9507C28.9958 30.9507 30.2451 31.4394 32.4896 31.4394C34.7443 31.4394 35.9833 30.9507 35.9833 30.9507V30.4194C35.9833 30.4194 35.0388 30.8763 32.4896 30.8763C29.9505 30.8763 28.9958 30.4194 28.9958 30.4194Z" fill="white" stroke="black" stroke-width="0.0253125"/>
<path d="M29.179 30.9507L29.2907 30.5576L29.3415 30.5789L29.2399 30.9189L29.443 30.972L29.4227 31.0251L29.179 30.9507V30.9507ZM29.5446 30.7807V30.7064L29.5649 30.632L29.6258 30.6532L29.6055 30.717L29.5751 30.7914L29.5446 30.7807ZM30.0829 30.7489L30.1336 30.7701L30.093 30.9932L30.0524 31.0995C30.0395 31.1182 30.0219 31.1329 30.0016 31.142H29.9C29.8667 31.136 29.8352 31.1214 29.8086 31.0995C29.788 31.0843 29.7735 31.0615 29.768 31.0357L29.7782 30.9295L29.829 30.6957L29.8797 30.7064L29.829 30.9401C29.8238 30.9682 29.8238 30.997 29.829 31.0251C29.8311 31.0412 29.8382 31.0562 29.8493 31.0676L29.9 31.0889H30.0016L30.0422 30.9826L30.0829 30.7489V30.7489ZM30.1438 31.1739L30.2047 30.7807H30.2657L30.418 31.142L30.4688 30.8232H30.5196L30.4586 31.2376L30.4079 31.227L30.2454 30.8764L30.1946 31.1951L30.1438 31.1845V31.1739ZM30.55 31.2482L30.611 30.8445H30.6618L30.611 31.2482H30.5602H30.55ZM30.7125 31.0676C30.7125 31.0039 30.743 30.9507 30.7836 30.9189C30.8243 30.8865 30.875 30.8713 30.9258 30.8764C30.9665 30.8764 30.9969 30.887 31.0274 30.9082L31.0782 30.9932C31.0985 31.0251 31.0985 31.0676 31.0883 31.0995C31.0865 31.137 31.076 31.1734 31.0579 31.2057C31.0391 31.239 31.0106 31.265 30.9766 31.2801C30.9442 31.2926 30.9092 31.2963 30.8751 31.2907C30.8391 31.2897 30.804 31.2787 30.7735 31.2589C30.7492 31.2361 30.7316 31.2066 30.7227 31.1739C30.7112 31.1398 30.7077 31.1034 30.7125 31.0676V31.0676ZM30.7633 31.0676C30.7633 31.1207 30.7633 31.1739 30.7938 31.1951C30.8141 31.227 30.8446 31.2482 30.8852 31.2482C30.9258 31.2482 30.9563 31.2482 30.9868 31.2164C31.0172 31.1951 31.0274 31.1526 31.0376 31.1101C31.0466 31.0753 31.0466 31.0386 31.0376 31.0039C31.0261 30.9812 31.0084 30.9627 30.9868 30.9507C30.9666 30.9329 30.9419 30.9218 30.9157 30.9189C30.8852 30.9189 30.8446 30.9189 30.8141 30.9507C30.7938 30.972 30.7735 31.0145 30.7633 31.0782V31.0676ZM31.1391 31.312L31.1696 30.9082H31.2305L31.4133 31.2482L31.4336 30.9295H31.4844L31.454 31.3439H31.4032L31.2102 31.0039L31.1899 31.3226H31.1391V31.312ZM31.7079 31.3545L31.718 30.9507L31.9922 30.9614V31.0145L31.779 31.0039L31.7688 31.1207L31.9618 31.1314V31.1845L31.7586 31.1739V31.3651H31.7079V31.3545ZM32.0126 31.3651L32.1649 30.9614H32.2258L32.3782 31.3864H32.3172L32.2766 31.2482H32.104L32.0633 31.3757H32.0024L32.0126 31.3651ZM32.1141 31.2057H32.2563L32.2157 31.0995C32.2075 31.068 32.2007 31.0361 32.1954 31.0039L32.175 31.0889L32.1243 31.2057H32.1141ZM32.429 31.3757V30.972H32.4899V31.3757H32.429ZM32.6829 31.3757V31.0251H32.5508V30.9826H32.8657V31.0251H32.7336V31.3864H32.6829V31.3757ZM33.0891 31.3757L33.0586 30.9507H33.1196L33.1297 31.312H33.3329V31.3545L33.079 31.3651L33.0891 31.3757ZM33.3532 31.3545L33.4751 30.9295H33.536L33.7391 31.3226H33.668L33.6172 31.2164H33.4446L33.4141 31.3545H33.3532ZM33.4547 31.1739H33.5969L33.5461 31.0676L33.5055 30.972C33.5044 31.0006 33.501 31.029 33.4954 31.057L33.4547 31.1739V31.1739ZM33.9321 31.3014L33.8915 30.8976L34.1555 30.8657L34.1657 30.9189L33.9524 30.9401V31.0676L34.1555 31.0464V31.0995L33.9625 31.1207L33.9829 31.3014H33.9321V31.3014ZM34.2368 31.0782C34.2287 31.05 34.2263 31.0203 34.2298 30.991C34.2333 30.9617 34.2426 30.9336 34.2571 30.9082C34.2904 30.8667 34.3376 30.8401 34.3891 30.8339L34.4907 30.8445C34.5313 30.8551 34.5516 30.8764 34.5719 30.9082L34.6125 31.0145L34.6024 31.1207C34.5913 31.1552 34.5699 31.1849 34.5415 31.2057C34.5149 31.2277 34.4834 31.2423 34.4501 31.2482C34.4159 31.2538 34.3809 31.2501 34.3485 31.2376C34.3159 31.2254 34.2876 31.2032 34.2672 31.1739C34.2451 31.1427 34.2311 31.1061 34.2266 31.0676L34.2368 31.0782ZM34.2876 31.0676C34.2876 31.1101 34.3079 31.1526 34.3383 31.1739C34.3688 31.2057 34.3993 31.2057 34.4399 31.2057C34.4805 31.2057 34.511 31.1845 34.5415 31.1526C34.5618 31.1207 34.5618 31.0782 34.5618 31.0251C34.5576 30.9948 34.5472 30.9658 34.5313 30.9401C34.5167 30.9163 34.4954 30.8977 34.4704 30.887C34.447 30.8807 34.4226 30.8807 34.3993 30.887C34.3586 30.887 34.3282 30.8976 34.2977 30.9295C34.2876 30.9614 34.2774 31.0039 34.2876 31.0676V31.0676ZM34.704 31.2057L34.643 30.802L34.8157 30.7701H34.8969C34.9172 30.7701 34.9376 30.7701 34.9477 30.7914L34.9782 30.8551C34.9782 30.887 34.9782 30.9082 34.9579 30.9295C34.9477 30.9507 34.9172 30.972 34.8868 30.9826C34.8973 30.9849 34.9075 30.9885 34.9172 30.9932L34.968 31.0464L35.0696 31.142H34.9985L34.9274 31.0782C34.9113 31.0597 34.8943 31.042 34.8766 31.0251C34.8675 31.0165 34.8573 31.0093 34.8461 31.0039C34.8361 31.0019 34.8257 31.0019 34.8157 31.0039H34.7852L34.7243 31.0145L34.7649 31.1951H34.704V31.2057ZM34.7243 30.972L34.8258 30.9507C34.8472 30.9477 34.8679 30.9405 34.8868 30.9295C34.8973 30.9232 34.9059 30.9138 34.9113 30.9025C34.9167 30.8911 34.9188 30.8783 34.9172 30.8657C34.916 30.8494 34.9087 30.8341 34.8969 30.8232H34.8258L34.6938 30.8339L34.7243 30.972V30.972ZM35.3641 30.9295H35.4149C35.4149 30.972 35.4047 31.0145 35.3844 31.0357C35.3574 31.0671 35.322 31.0893 35.2829 31.0995C35.2496 31.1085 35.2146 31.1085 35.1813 31.0995C35.1484 31.0879 35.1199 31.0655 35.1001 31.0357C35.076 31.0046 35.0586 30.9683 35.0493 30.9295C35.0415 30.8945 35.0415 30.8582 35.0493 30.8232C35.0493 30.7807 35.0797 30.7489 35.1001 30.7276L35.1915 30.6851H35.293C35.3336 30.7064 35.354 30.7276 35.3743 30.7701L35.3235 30.7914C35.312 30.7687 35.2943 30.7502 35.2727 30.7382C35.2496 30.7301 35.2247 30.7301 35.2016 30.7382C35.1748 30.7386 35.1493 30.7501 35.1305 30.7701C35.1122 30.7903 35.1014 30.8167 35.1001 30.8445V30.9189C35.1081 30.9497 35.1219 30.9786 35.1407 31.0039C35.1508 31.0251 35.1711 31.0464 35.2016 31.0464H35.2727C35.2957 31.0426 35.317 31.0315 35.3336 31.0145C35.354 30.9932 35.3641 30.9614 35.3641 30.9295ZM35.5063 31.0357L35.4047 30.6426L35.679 30.5682L35.6993 30.6107L35.4657 30.6745L35.4961 30.7914L35.7094 30.7382L35.7297 30.7807L35.5063 30.8445L35.5469 30.972L35.7907 30.9082V30.9507L35.5063 31.0357V31.0357Z" fill="black"/>
</g>
<defs>
<clipPath id="clip0_804_202">
<rect width="65" height="51" fill="white"/>
</clipPath>
</defs>
</svg>
