<svg width="65" height="51" viewBox="0 0 65 51" fill="none" xmlns="http://www.w3.org/2000/svg">
<g clip-path="url(#clip0_806_1555)">
<path d="M26 0H65V51H26V0Z" fill="#FF0000"/>
<path d="M0 0H26V51H0V0Z" fill="#006600"/>
<path fill-rule="evenodd" clip-rule="evenodd" d="M34.4807 32.5339C31.2002 32.4276 16.1995 22.6314 16.0979 21.0589L16.9206 19.6245C18.4135 21.8876 33.7495 31.4183 35.2627 31.0783L34.4807 32.5339Z" fill="#FFFF00" stroke="black" stroke-width="0.05" stroke-linecap="round" stroke-linejoin="round"/>
<path fill-rule="evenodd" clip-rule="evenodd" d="M16.748 19.4224C16.4535 20.2511 20.6683 22.9711 25.7261 26.2011C30.7941 29.4205 35.1613 31.4074 35.4761 31.1311L35.6285 30.8336C35.5675 30.9399 35.4254 30.9717 35.1918 30.8974C33.8207 30.483 30.2558 28.7724 25.8379 25.9674C21.4097 23.1624 17.5707 20.5805 16.9715 19.4861C16.9247 19.3835 16.9038 19.2702 16.9105 19.1567H16.8902L16.7683 19.3905L16.748 19.4224V19.4224ZM34.5519 32.5761C34.5011 32.6824 34.3894 32.6824 34.1965 32.6611C32.9777 32.523 29.2605 30.6317 24.8629 27.8799C19.7441 24.6711 15.5191 21.7599 15.9863 20.9949L16.1082 20.7611L16.1285 20.7717C15.7222 22.068 24.4668 27.2955 24.9847 27.6355C30.0425 30.908 34.3082 32.8311 34.684 32.3317L34.5519 32.5761V32.5761Z" fill="#FFFF00" stroke="black" stroke-width="0.05" stroke-linecap="round" stroke-linejoin="round"/>
<path fill-rule="evenodd" clip-rule="evenodd" d="M26.0204 22.0148C29.2907 21.9829 33.3329 21.5473 35.6688 20.5698L35.161 19.7198C33.7899 20.5167 29.7274 21.0479 25.9899 21.1223C21.5821 21.0798 18.4641 20.6442 16.9 19.5498L16.4329 20.4636C19.2969 21.7386 22.2422 22.0042 26.0204 22.0148" fill="#FFFF00"/>
<path d="M26.0204 22.0148C29.2907 21.9829 33.3329 21.5473 35.6688 20.5698L35.161 19.7198C33.7899 20.5167 29.7274 21.0479 25.9899 21.1223C21.5821 21.0798 18.4641 20.6442 16.9 19.5498L16.4329 20.4636C19.2969 21.7386 22.2422 22.0042 26.0204 22.0148" stroke="black" stroke-width="0.05" stroke-linecap="round" stroke-linejoin="round"/>
<path fill-rule="evenodd" clip-rule="evenodd" d="M35.8012 20.591C35.72 20.7291 34.1965 21.271 31.9622 21.6747C29.9925 21.987 28.0027 22.1397 26.0106 22.1316C24.1019 22.1391 22.1949 22.0113 20.3028 21.7491C17.9567 21.3666 16.7481 20.8354 16.2911 20.6441L16.4028 20.4104C17.6926 20.9416 18.9114 21.2604 20.3333 21.4941C22.2116 21.7594 24.105 21.8908 26.0004 21.8872C27.9823 21.8894 29.9615 21.7367 31.9215 21.4304C34.2067 21.0372 35.4559 20.5379 35.6387 20.3147L35.8012 20.6016V20.591ZM35.3543 19.7304C35.1106 19.9429 33.8715 20.3997 31.6981 20.761C29.8213 21.045 27.9273 21.1871 26.0309 21.186C23.7965 21.186 21.9583 21.016 20.5668 20.8035C18.3528 20.506 17.1747 19.9535 16.7481 19.8047L16.8801 19.571C17.2153 19.7516 18.3426 20.2297 20.5872 20.5591C22.3915 20.8119 24.2105 20.9327 26.0309 20.9204C27.9138 20.921 29.7942 20.7789 31.6575 20.4954C33.8411 20.1766 35.0192 19.6029 35.202 19.4541L35.3543 19.7304V19.7304ZM15.2653 26.1372C17.2762 27.2741 21.7551 27.8372 25.9903 27.8797C29.8497 27.8903 34.8668 27.2635 36.7457 26.2222L36.695 25.0854C36.1059 26.0416 30.7231 26.966 25.9497 26.9341C21.1762 26.8916 16.7379 26.1266 15.2551 25.1279V26.1372" fill="#FFFF00"/>
<path d="M15.2653 26.1372C17.2762 27.2741 21.7551 27.8372 25.9903 27.8797C29.8497 27.8903 34.8668 27.2635 36.7457 26.2222L36.695 25.0854C36.1059 26.0416 30.7231 26.966 25.9497 26.9341C21.1762 26.8916 16.7379 26.1266 15.2551 25.1279V26.1372M35.8012 20.591C35.72 20.7291 34.1965 21.271 31.9622 21.6747C29.9925 21.987 28.0027 22.1397 26.0106 22.1316C24.1019 22.1391 22.1949 22.0113 20.3028 21.7491C17.9567 21.3666 16.7481 20.8354 16.2911 20.6441L16.4028 20.4104C17.6926 20.9416 18.9114 21.2604 20.3333 21.4941C22.2116 21.7594 24.105 21.8908 26.0004 21.8872C27.9823 21.8894 29.9615 21.7367 31.9215 21.4304C34.2067 21.0372 35.4559 20.5379 35.6387 20.3147L35.8012 20.6016V20.591ZM35.3543 19.7304C35.1106 19.9429 33.8715 20.3997 31.6981 20.761C29.8213 21.045 27.9273 21.1871 26.0309 21.186C23.7965 21.186 21.9583 21.016 20.5668 20.8035C18.3528 20.506 17.1747 19.9535 16.7481 19.8047L16.8801 19.571C17.2153 19.7516 18.3426 20.2297 20.5872 20.5591C22.3915 20.8119 24.2105 20.9327 26.0309 20.9204C27.9138 20.921 29.7942 20.7789 31.6575 20.4954C33.8411 20.1766 35.0192 19.6029 35.202 19.4541L35.3543 19.7304V19.7304Z" stroke="black" stroke-width="0.05" stroke-linecap="round" stroke-linejoin="round"/>
<path fill-rule="evenodd" clip-rule="evenodd" d="M36.8471 25.9782V26.2439C36.5627 26.6051 34.7956 27.1364 32.5815 27.5189C30.3819 27.8496 28.1615 28.0059 25.9393 27.9864C23.8322 28.0051 21.7269 27.8524 19.6424 27.5295C18.0871 27.3415 16.5672 26.9117 15.1331 26.2545V25.9464C16.1182 26.6264 18.7791 27.1364 19.6729 27.2851C21.2776 27.5401 23.3393 27.7314 25.9393 27.7314C28.6713 27.7314 30.8549 27.5295 32.5409 27.2639C34.1354 27.0195 36.4002 26.3926 36.8471 25.9782V25.9782ZM36.8471 25.022V25.2876C36.5627 25.6382 34.7956 26.1695 32.5815 26.552C30.3821 26.8863 28.1617 27.0462 25.9393 27.0301C23.8324 27.0431 21.7275 26.8904 19.6424 26.5732C18.0871 26.3852 16.5672 25.9555 15.1331 25.2982V24.9795C16.1182 25.6701 18.7893 26.1695 19.6729 26.3182C21.7476 26.6362 23.8425 26.7889 25.9393 26.7751C28.6713 26.7751 30.8651 26.5626 32.5409 26.297C34.1354 26.0632 36.4002 25.4364 36.8471 25.022V25.022ZM25.9799 32.332C21.3487 32.3107 17.3776 31.0145 16.5346 30.802L17.144 31.8007C19.9927 32.8562 22.9988 33.3708 26.0206 33.3201C29.5448 33.2139 32.6221 32.927 34.7854 31.822L35.4151 30.7807C33.9424 31.5139 28.9151 32.332 25.9698 32.332" fill="#FFFF00"/>
<path d="M25.9799 32.332C21.3487 32.3107 17.3776 31.0145 16.5346 30.802L17.144 31.8007C19.9927 32.8562 22.9988 33.3708 26.0206 33.3201C29.5448 33.2139 32.6221 32.927 34.7854 31.822L35.4151 30.7807C33.9424 31.5139 28.9151 32.332 25.9698 32.332M36.8471 25.9782V26.2439C36.5627 26.6051 34.7956 27.1364 32.5815 27.5189C30.3819 27.8496 28.1615 28.0059 25.9393 27.9864C23.8322 28.0051 21.7269 27.8524 19.6424 27.5295C18.0871 27.3415 16.5672 26.9117 15.1331 26.2545V25.9464C16.1182 26.6264 18.7791 27.1364 19.6729 27.2851C21.2776 27.5401 23.3393 27.7314 25.9393 27.7314C28.6713 27.7314 30.8549 27.5295 32.5409 27.2639C34.1354 27.0195 36.4002 26.3926 36.8471 25.9782V25.9782ZM36.8471 25.022V25.2876C36.5627 25.6382 34.7956 26.1695 32.5815 26.552C30.3821 26.8863 28.1617 27.0462 25.9393 27.0301C23.8324 27.0431 21.7275 26.8904 19.6424 26.5732C18.0871 26.3852 16.5672 25.9555 15.1331 25.2982V24.9795C16.1182 25.6701 18.7893 26.1695 19.6729 26.3182C21.7476 26.6362 23.8425 26.7889 25.9393 26.7751C28.6713 26.7751 30.8651 26.5626 32.5409 26.297C34.1354 26.0632 36.4002 25.4364 36.8471 25.022V25.022Z" stroke="black" stroke-width="0.05" stroke-linecap="round" stroke-linejoin="round"/>
<path fill-rule="evenodd" clip-rule="evenodd" d="M35.0291 31.5882C34.9367 31.7316 34.8419 31.8732 34.7448 32.0132C33.7291 32.3957 32.1041 32.7995 31.4338 32.9057C29.6351 33.2563 27.8096 33.4342 25.9799 33.437C21.8768 33.3732 18.5151 32.5338 16.9409 31.8113L16.8088 31.5882L16.8292 31.5457L17.0424 31.6413C19.9329 32.642 22.9556 33.1619 26.0002 33.182C27.9096 33.182 29.8088 32.9588 31.3424 32.672C33.6987 32.1726 34.6534 31.8007 34.9479 31.6307L35.019 31.5882H35.0291ZM35.5674 30.6532C35.5006 30.7777 35.4328 30.9016 35.3643 31.0251C34.8159 31.2376 33.3331 31.6838 31.1698 32.0026C29.7479 32.2045 28.8643 32.4063 26.0307 32.4595C22.7915 32.4254 19.5722 31.9249 16.4635 30.972L16.3518 30.7063C19.5102 31.6195 22.7648 32.1192 26.0409 32.1938C28.6307 32.1407 29.7377 31.9388 31.1495 31.737C33.6682 31.3332 34.9377 30.887 35.3135 30.7701C35.3138 30.763 35.3138 30.7559 35.3135 30.7488L35.5776 30.6426L35.5674 30.6532Z" fill="#FFFF00" stroke="black" stroke-width="0.05" stroke-linecap="round" stroke-linejoin="round"/>
<path fill-rule="evenodd" clip-rule="evenodd" d="M35.6286 25.245C35.6387 28.4325 34.0747 31.3012 32.8255 32.555C30.9804 34.4375 28.5165 35.5096 25.9395 35.5512C22.8622 35.6044 19.9676 33.5113 19.1856 32.5869C17.4361 30.646 16.4404 28.0929 16.3926 25.4256C16.5755 21.9406 17.8856 19.5181 19.7747 17.85C21.6098 16.2696 23.9182 15.4157 26.295 15.4381C27.6825 15.5085 29.0406 15.8813 30.2823 16.5327C31.5241 17.184 32.622 18.0996 33.5059 19.2206C34.7755 20.8356 35.334 22.5888 35.6286 25.245V25.245ZM25.9598 14.3438C28.801 14.3437 31.5271 15.5186 33.5437 17.6124C35.5603 19.7061 36.704 22.549 36.7255 25.5212C36.7255 26.9961 36.4478 28.4565 35.9083 29.819C35.3688 31.1816 34.578 32.4196 33.5812 33.4625C32.5843 34.5054 31.4009 35.3326 30.0985 35.897C28.796 36.4614 27.4001 36.7519 25.9903 36.7519C24.5805 36.7519 23.1846 36.4614 21.8821 35.897C20.5797 35.3326 19.3962 34.5054 18.3994 33.4625C17.4025 32.4196 16.6118 31.1816 16.0723 29.819C15.5328 28.4565 15.2551 26.9961 15.2551 25.5212C15.245 19.3587 20.0591 14.3438 25.9598 14.3438" fill="#FFFF00"/>
<path d="M25.9598 14.3438C28.801 14.3437 31.5271 15.5186 33.5437 17.6124C35.5603 19.7061 36.704 22.549 36.7255 25.5212C36.7255 26.9961 36.4478 28.4565 35.9083 29.819C35.3688 31.1816 34.578 32.4196 33.5812 33.4625C32.5843 34.5054 31.4009 35.3326 30.0985 35.897C28.796 36.4614 27.4001 36.7519 25.9903 36.7519C24.5805 36.7519 23.1846 36.4614 21.8821 35.897C20.5797 35.3326 19.3962 34.5054 18.3994 33.4625C17.4025 32.4196 16.6118 31.1816 16.0723 29.819C15.5328 28.4565 15.2551 26.9961 15.2551 25.5212C15.245 19.3587 20.0591 14.3438 25.9598 14.3438M35.6286 25.245C35.6387 28.4325 34.0747 31.3012 32.8255 32.555C30.9804 34.4375 28.5165 35.5096 25.9395 35.5512C22.8622 35.6044 19.9676 33.5113 19.1856 32.5869C17.4361 30.646 16.4404 28.0929 16.3926 25.4256C16.5755 21.9406 17.8856 19.5181 19.7747 17.85C21.6098 16.2696 23.9182 15.4157 26.295 15.4381C27.6825 15.5085 29.0406 15.8813 30.2823 16.5327C31.5241 17.184 32.622 18.0996 33.5059 19.2206C34.7755 20.8356 35.334 22.5888 35.6286 25.245V25.245Z" stroke="black" stroke-width="0.05" stroke-linecap="round" stroke-linejoin="round"/>
<path fill-rule="evenodd" clip-rule="evenodd" d="M25.99 14.2905C31.9009 14.2905 36.715 19.3268 36.715 25.5105C36.715 31.6943 31.9009 36.7305 26.0001 36.7305C20.0994 36.7305 15.2751 31.6943 15.2751 25.5105C15.2751 19.3268 20.0892 14.2905 26.0001 14.2905H25.99ZM15.4986 25.4999C15.4986 31.5349 20.2416 36.4755 25.99 36.4755C31.7384 36.4755 36.4814 31.5349 36.4814 25.4999C36.4814 19.4649 31.7384 14.5243 25.99 14.5243C20.2416 14.5243 15.4986 19.4649 15.4986 25.4999Z" fill="#FFFF00" stroke="black" stroke-width="0.05" stroke-linecap="round" stroke-linejoin="round"/>
<path fill-rule="evenodd" clip-rule="evenodd" d="M26.0003 15.2256C28.6025 15.234 31.0959 16.3192 32.936 18.2442C34.7761 20.1692 35.8134 22.7776 35.8214 25.5C35.8134 28.2233 34.7764 30.8328 32.9366 32.7595C31.0968 34.6862 28.6035 35.7738 26.0003 35.785C20.6175 35.785 16.1792 31.1525 16.1792 25.5C16.1899 22.7785 17.228 20.1716 19.0675 18.2472C20.907 16.3228 23.3989 15.2368 26.0003 15.2256V15.2256ZM16.4128 25.5C16.4128 31.025 20.7394 35.53 26.0003 35.53C31.2612 35.53 35.5878 31.0143 35.5878 25.5C35.5878 19.975 31.2612 15.47 26.0003 15.47C23.4608 15.4811 21.0284 16.5415 19.2327 18.42C17.437 20.2986 16.4235 22.8433 16.4128 25.5V25.5Z" fill="#FFFF00" stroke="black" stroke-width="0.05" stroke-linecap="round" stroke-linejoin="round"/>
<path fill-rule="evenodd" clip-rule="evenodd" d="M26.4372 14.2373H25.5129V36.7942H26.427L26.4372 14.2373Z" fill="#FFFF00" stroke="black" stroke-width="0.05" stroke-linecap="round" stroke-linejoin="round"/>
<path fill-rule="evenodd" clip-rule="evenodd" d="M26.3354 14.1099H26.569V36.9217H26.3456V14.1099H26.3354ZM25.4214 14.1099H25.6651V36.9217H25.4315V14.1099H25.4214Z" fill="#FFFF00" stroke="black" stroke-width="0.05" stroke-linecap="round" stroke-linejoin="round"/>
<path fill-rule="evenodd" clip-rule="evenodd" d="M36.7254 25.9463V25.1176L36.0754 24.4801L32.3887 23.4601L27.0871 22.897L20.6887 23.237L16.1387 24.3632L15.2246 25.0751V25.9145L17.5504 24.8201L23.0754 23.917H28.3871L32.2871 24.3632L34.9887 25.0432L36.7254 25.9463Z" fill="#FFFF00" stroke="black" stroke-width="0.05" stroke-linecap="round" stroke-linejoin="round"/>
<path fill-rule="evenodd" clip-rule="evenodd" d="M26.0002 23.7785C28.5291 23.7785 30.9768 24.0229 32.937 24.416C34.9479 24.841 36.3596 25.3723 36.8471 25.9566V26.2541C36.2581 25.5104 34.3588 24.9791 32.8862 24.6604C30.9565 24.2779 28.519 24.0229 25.9901 24.0229C23.3393 24.0229 20.8612 24.2991 18.9518 24.6816C17.4284 25.0004 15.387 25.6379 15.1331 26.2541V25.946C15.2651 25.521 16.7885 24.8835 18.9213 24.4266C20.8409 24.0335 23.319 23.7785 25.9901 23.7785H26.0002ZM26.0002 22.8116C28.3261 22.8068 30.6476 23.0201 32.937 23.4491C34.9479 23.8741 36.3596 24.4054 36.8471 25.0004V25.2873C36.2581 24.5541 34.3588 24.0123 32.8862 23.7041C30.9565 23.311 28.519 23.0666 25.9901 23.0666C23.633 23.0588 21.2802 23.2794 18.962 23.7254C17.4893 24.0123 15.3667 24.671 15.1331 25.2873V24.9898C15.2752 24.5648 16.819 23.8954 18.9213 23.4704C20.851 23.0773 23.319 22.8116 26.0002 22.8116V22.8116ZM25.9393 17.9029C29.9307 17.8816 33.4143 18.4873 35.0088 19.3373L35.5877 20.3998C34.2065 19.6135 30.4487 18.806 25.9495 18.9123C22.2831 18.9441 18.3627 19.3373 16.4026 20.4423L17.0932 19.231C18.7081 18.3491 22.5065 17.9029 25.9393 17.9029" fill="#FFFF00"/>
<path d="M25.9393 17.9029C29.9307 17.8816 33.4143 18.4873 35.0088 19.3373L35.5877 20.3998C34.2065 19.6135 30.4487 18.806 25.9495 18.9123C22.2831 18.9441 18.3627 19.3373 16.4026 20.4423L17.0932 19.231C18.7081 18.3491 22.5065 17.9029 25.9393 17.9029M26.0002 23.7785C28.5291 23.7785 30.9768 24.0229 32.937 24.416C34.9479 24.841 36.3596 25.3723 36.8471 25.9566V26.2541C36.2581 25.5104 34.3588 24.9791 32.8862 24.6604C30.9565 24.2779 28.519 24.0229 25.9901 24.0229C23.3393 24.0229 20.8612 24.2991 18.9518 24.6816C17.4284 25.0004 15.387 25.6379 15.1331 26.2541V25.946C15.2651 25.521 16.7885 24.8835 18.9213 24.4266C20.8409 24.0335 23.319 23.7785 25.9901 23.7785H26.0002ZM26.0002 22.8116C28.3261 22.8068 30.6476 23.0201 32.937 23.4491C34.9479 23.8741 36.3596 24.4054 36.8471 25.0004V25.2873C36.2581 24.5541 34.3588 24.0123 32.8862 23.7041C30.9565 23.311 28.519 23.0666 25.9901 23.0666C23.633 23.0588 21.2802 23.2794 18.962 23.7254C17.4893 24.0123 15.3667 24.671 15.1331 25.2873V24.9898C15.2752 24.5648 16.819 23.8954 18.9213 23.4704C20.851 23.0773 23.319 22.8116 26.0002 22.8116V22.8116Z" stroke="black" stroke-width="0.05" stroke-linecap="round" stroke-linejoin="round"/>
<path fill-rule="evenodd" clip-rule="evenodd" d="M26 18.7743C28.084 18.7375 30.1671 18.8904 32.2258 19.2312C33.8508 19.5499 35.4047 20.0174 35.6282 20.2724L35.8008 20.5912C35.2625 20.2299 33.9118 19.8156 32.1852 19.4756C30.4586 19.1356 28.2547 19.0187 25.9899 19.0293C23.4204 19.0187 21.4196 19.1568 19.7133 19.4756C18.5371 19.648 17.3952 20.0175 16.3313 20.5699L16.504 20.2406C17.1133 19.9218 18.0579 19.5287 19.6625 19.2206C21.4399 18.8806 23.461 18.7849 26 18.7743V18.7743ZM26 17.8181C28.1735 17.7968 30.3266 17.9243 32.0024 18.2431C33.0881 18.4117 34.1388 18.7709 35.1102 19.3056L35.3641 19.7306C34.9375 19.2312 33.3329 18.7531 31.9008 18.4981C30.2352 18.1899 28.1735 18.0731 26 18.0518C23.9768 18.0329 21.9556 18.1893 19.9571 18.5193C18.9121 18.6716 17.8971 18.9981 16.9508 19.4862L17.1743 19.1356C17.7633 18.8168 18.718 18.5193 19.9165 18.2749C21.9282 17.9406 23.9632 17.7842 26 17.8074V17.8181ZM31.3219 30.1749C29.5616 29.8561 27.7761 29.7138 25.9899 29.7499C19.3375 29.8349 17.1946 31.1843 16.9305 31.5881L16.4227 30.738C18.129 29.463 21.7446 28.7406 26.0305 28.8043C28.2547 28.8468 30.1743 29.0062 31.779 29.3356L31.3219 30.1856" fill="#FFFF00"/>
<path d="M31.3219 30.1749C29.5616 29.8561 27.7761 29.7138 25.9899 29.7499C19.3375 29.8349 17.1946 31.1843 16.9305 31.5881L16.4227 30.738C18.129 29.463 21.7446 28.7406 26.0305 28.8043C28.2547 28.8468 30.1743 29.0062 31.779 29.3356L31.3219 30.1856M26 18.7743C28.084 18.7375 30.1671 18.8904 32.2258 19.2312C33.8508 19.5499 35.4047 20.0174 35.6282 20.2724L35.8008 20.5912C35.2625 20.2299 33.9118 19.8156 32.1852 19.4756C30.4586 19.1356 28.2547 19.0187 25.9899 19.0293C23.4204 19.0187 21.4196 19.1568 19.7133 19.4756C18.5371 19.648 17.3952 20.0175 16.3313 20.5699L16.504 20.2406C17.1133 19.9218 18.0579 19.5287 19.6625 19.2206C21.4399 18.8806 23.461 18.7849 26 18.7743V18.7743ZM26 17.8181C28.1735 17.7968 30.3266 17.9243 32.0024 18.2431C33.0881 18.4117 34.1388 18.7709 35.1102 19.3056L35.3641 19.7306C34.9375 19.2312 33.3329 18.7531 31.9008 18.4981C30.2352 18.1899 28.1735 18.0731 26 18.0518C23.9768 18.0329 21.9556 18.1893 19.9571 18.5193C18.9121 18.6716 17.8971 18.9981 16.9508 19.4862L17.1743 19.1356C17.7633 18.8168 18.718 18.5193 19.9165 18.2749C21.9282 17.9406 23.9632 17.7842 26 17.8074V17.8181Z" stroke="black" stroke-width="0.05" stroke-linecap="round" stroke-linejoin="round"/>
<path fill-rule="evenodd" clip-rule="evenodd" d="M25.9598 29.6328C27.8082 29.6647 29.616 29.739 31.373 30.079L31.2512 30.3128C29.6262 29.994 27.8793 29.8878 25.9699 29.8878C23.502 29.8665 21.0238 30.1109 18.8605 30.759C18.1801 30.9609 17.0527 31.4178 16.9309 31.8003L16.809 31.5878C16.8496 31.354 17.5199 30.8865 18.7996 30.5253C21.2777 29.7815 23.5934 29.6434 25.9598 29.6328ZM26.041 28.6553C27.992 28.6532 29.9394 28.831 31.8605 29.1865L31.7285 29.4309C29.8525 29.0709 27.9483 28.8966 26.041 28.9103C23.5832 28.9103 20.973 29.1015 18.5965 29.824C17.8348 30.0578 16.5043 30.5678 16.4637 30.9609L16.3418 30.7272C16.3621 30.3659 17.5098 29.8878 18.5457 29.5797C20.9324 28.8465 23.5527 28.6659 26.041 28.6553V28.6553Z" fill="#FFFF00" stroke="black" stroke-width="0.05" stroke-linecap="round" stroke-linejoin="round"/>
<path fill-rule="evenodd" clip-rule="evenodd" d="M35.4862 30.8655L34.694 32.1724L32.3886 30.0367L26.437 25.8399L19.7136 21.983L16.23 20.7399L16.9714 19.2949L17.2253 19.1567L19.3886 19.7199L26.5386 23.5767L30.662 26.2967L34.1253 28.8999L35.537 30.5999L35.4862 30.8655Z" fill="#FFFF00" stroke="black" stroke-width="0.05" stroke-linecap="round" stroke-linejoin="round"/>
<path fill-rule="evenodd" clip-rule="evenodd" d="M16.1079 20.7719C16.7172 20.3469 21.2063 22.4294 25.9188 25.4044C30.6008 28.3794 35.0899 31.7369 34.6836 32.3638L34.5516 32.5869L34.4907 32.6401C34.5008 32.6294 34.5719 32.5338 34.4907 32.3107C34.2876 31.6201 31.0985 28.9638 25.8274 25.6276C20.6782 22.4294 16.3922 20.4957 15.9758 21.0482L16.1079 20.7719V20.7719ZM35.6485 30.8551C36.0344 30.0476 31.8704 26.7644 26.7008 23.5663C21.4196 20.4319 17.6008 18.5832 16.9 19.1357L16.7579 19.4438C16.7579 19.4544 16.7579 19.4226 16.7985 19.3907C16.9204 19.2844 17.1336 19.2844 17.225 19.2844C18.4235 19.3057 21.8461 20.9526 26.65 23.8319C28.7625 25.1069 35.5469 29.6757 35.5165 30.9507C35.5165 31.0569 35.5266 31.0782 35.486 31.1419L35.6586 30.8657L35.6485 30.8551Z" fill="#FFFF00" stroke="black" stroke-width="0.05" stroke-linecap="round" stroke-linejoin="round"/>
<path d="M19.5649 26.7501C19.5665 27.6298 19.7349 28.5005 20.0604 29.3117C20.3858 30.123 20.8618 30.8586 21.4608 31.4761C22.0525 32.1046 22.7572 32.6045 23.5344 32.9468C24.3116 33.2891 25.1459 33.4672 25.9891 33.4707C27.6958 33.4706 29.3324 32.7613 30.5391 31.4987C31.136 30.8778 31.6098 30.1397 31.9333 29.3268C32.2568 28.5138 32.4236 27.642 32.4241 26.7614V17.7854L19.5649 17.7627V26.7501V26.7501Z" fill="white" stroke="black" stroke-width="0.0622224"/>
<path d="M19.8035 26.7616C19.8058 27.6056 19.9678 28.4406 20.2801 29.2187C20.5925 29.9968 21.0491 30.7025 21.6235 31.295C22.7769 32.5079 24.3431 33.1927 25.9785 33.199C27.611 33.1999 29.1772 32.5233 30.3335 31.3177C30.9059 30.7242 31.3605 30.0181 31.671 29.2401C31.9815 28.462 32.1418 27.6274 32.1427 26.7843V18.0576H19.8251V26.7616M29.6835 20.6756V26.2176L29.6727 26.7956C29.6763 27.302 29.5822 27.8038 29.3961 28.2712C29.21 28.7386 28.9355 29.1619 28.5893 29.5157C27.9004 30.2389 26.9653 30.6465 25.9893 30.649C24.971 30.649 24.0718 30.1957 23.4001 29.493C22.7088 28.7723 22.3192 27.794 22.3168 26.773V20.653L29.6835 20.6756Z" fill="#FF0000"/>
<path d="M19.8035 26.7616C19.8058 27.6056 19.9678 28.4406 20.2801 29.2187C20.5925 29.9968 21.0491 30.7025 21.6235 31.295C22.7769 32.5079 24.3431 33.1927 25.9785 33.199C27.611 33.1999 29.1772 32.5233 30.3335 31.3177C30.9059 30.7242 31.3605 30.0181 31.671 29.2401C31.9815 28.462 32.1418 27.6274 32.1427 26.7843V18.0576H19.8251V26.7616M29.6835 20.6756V26.2176L29.6727 26.7956C29.6763 27.302 29.5822 27.8038 29.3961 28.2712C29.21 28.7386 28.9355 29.1619 28.5893 29.5157C27.9004 30.2389 26.9653 30.6465 25.9893 30.649C24.971 30.649 24.0718 30.1957 23.4001 29.493C22.7088 28.7723 22.3192 27.794 22.3168 26.773V20.653L29.6835 20.6756Z" stroke="black" stroke-width="0.0444446"/>
<path d="M20.6047 20.3356C20.6156 19.7123 21.0381 19.5649 21.0381 19.5649C21.0489 19.5649 21.5039 19.7236 21.5039 20.3469H20.6047" fill="#FFFF00"/>
<path d="M20.2366 19.5763L20.1607 20.2903H20.6157C20.6157 19.7009 21.0491 19.6103 21.0491 19.6103C21.0599 19.6103 21.4824 19.7349 21.4932 20.2903H21.9482L21.8616 19.5649H20.2366V19.5763ZM20.1282 20.3016H21.9699C22.0024 20.3016 22.0349 20.3356 22.0349 20.3809C22.0349 20.4376 22.0024 20.4716 21.9699 20.4716H20.1282C20.0957 20.4716 20.0632 20.4376 20.0632 20.3809C20.0632 20.3356 20.0957 20.3016 20.1391 20.3016H20.1282Z" fill="#FFFF00" stroke="black" stroke-width="0.0444446"/>
<path d="M20.7998 20.2902C20.7998 19.9162 21.0489 19.8142 21.0489 19.8142C21.0489 19.8142 21.2981 19.9275 21.2981 20.2902H20.7998ZM20.1714 19.2702H21.9373C21.9698 19.2702 22.0023 19.3155 22.0023 19.3609C22.0023 19.3949 21.9698 19.4289 21.9373 19.4289H20.1714C20.1389 19.4289 20.1064 19.3949 20.1064 19.3495C20.1064 19.3155 20.1389 19.2815 20.1714 19.2815V19.2702ZM20.2148 19.4402H21.8831C21.9156 19.4402 21.9481 19.4742 21.9481 19.5195C21.9481 19.5649 21.9156 19.5989 21.8831 19.5989H20.2039C20.1606 19.5989 20.1389 19.5649 20.1389 19.5195C20.1389 19.4742 20.1606 19.4402 20.2039 19.4402H20.2148ZM20.7564 18.2389H20.8864V18.3295H20.9839V18.2389H21.1248V18.3409H21.2223V18.2275H21.3523V18.4542C21.3523 18.4995 21.3306 18.5222 21.2981 18.5222H20.8214C20.7889 18.5222 20.7564 18.4995 20.7564 18.4655V18.2389ZM21.2548 18.5449L21.2873 19.2702H20.8214L20.8539 18.5335H21.2548" fill="#FFFF00"/>
<path d="M21.2548 18.5449L21.2873 19.2702H20.8214L20.8539 18.5335H21.2548M20.7998 20.2902C20.7998 19.9162 21.0489 19.8142 21.0489 19.8142C21.0489 19.8142 21.2981 19.9275 21.2981 20.2902H20.7998ZM20.1714 19.2702H21.9373C21.9698 19.2702 22.0023 19.3155 22.0023 19.3609C22.0023 19.3949 21.9698 19.4289 21.9373 19.4289H20.1714C20.1389 19.4289 20.1064 19.3949 20.1064 19.3495C20.1064 19.3155 20.1389 19.2815 20.1714 19.2815V19.2702ZM20.2148 19.4402H21.8831C21.9156 19.4402 21.9481 19.4742 21.9481 19.5195C21.9481 19.5649 21.9156 19.5989 21.8831 19.5989H20.2039C20.1606 19.5989 20.1389 19.5649 20.1389 19.5195C20.1389 19.4742 20.1606 19.4402 20.2039 19.4402H20.2148ZM20.7564 18.2389H20.8864V18.3295H20.9839V18.2389H21.1248V18.3409H21.2223V18.2275H21.3523V18.4542C21.3523 18.4995 21.3306 18.5222 21.2981 18.5222H20.8214C20.7889 18.5222 20.7564 18.4995 20.7564 18.4655V18.2389Z" stroke="black" stroke-width="0.0444446"/>
<path d="M20.6914 18.8848V19.2701H20.2581V18.8848H20.6914Z" fill="#FFFF00" stroke="black" stroke-width="0.0444446"/>
<path d="M21.8396 18.8848V19.2701H21.4062V18.8848H21.8396Z" fill="#FFFF00" stroke="black" stroke-width="0.0444446"/>
<path d="M20.1821 18.5903H20.3121V18.7037H20.4096V18.5903H20.5396V18.7037H20.6371V18.5903H20.7671V18.817C20.7671 18.8623 20.7455 18.885 20.713 18.885H20.2471C20.2299 18.885 20.2134 18.8778 20.2012 18.8651C20.189 18.8523 20.1821 18.835 20.1821 18.817V18.5903V18.5903Z" fill="#FFFF00" stroke="black" stroke-width="0.0444446"/>
<path d="M21.3308 18.5903H21.4608V18.7037H21.5583V18.5903H21.6883V18.7037H21.7858V18.5903H21.9158V18.817C21.9158 18.8623 21.8941 18.885 21.8616 18.885H21.3958C21.3786 18.885 21.362 18.8778 21.3498 18.8651C21.3377 18.8523 21.3308 18.835 21.3308 18.817V18.5903V18.5903Z" fill="#FFFF00" stroke="black" stroke-width="0.0444446"/>
<path d="M21.0054 18.7717C21.0054 18.7037 21.1029 18.7037 21.1029 18.7717V18.953H21.0054V18.7717Z" fill="black"/>
<path d="M20.4314 19.0207C20.4314 18.9527 20.5181 18.9527 20.5181 19.0207V19.1567H20.4314V19.0207Z" fill="black"/>
<path d="M21.5796 19.0207C21.5796 18.9527 21.6663 18.9527 21.6663 19.0207V19.1567H21.5796V19.0207Z" fill="black"/>
<path d="M20.6047 25.5832C20.6156 24.9598 21.0381 24.8125 21.0381 24.8125C21.0489 24.8125 21.5039 24.9712 21.5039 25.5945H20.6047" fill="#FFFF00"/>
<path d="M20.2366 24.8238L20.1607 25.5378H20.6157C20.6157 24.9485 21.0491 24.8578 21.0491 24.8578C21.0599 24.8578 21.4824 24.9825 21.4932 25.5378H21.9482L21.8616 24.8125H20.2366V24.8238ZM20.1282 25.5492H21.9699C22.0024 25.5492 22.0349 25.5832 22.0349 25.6285C22.0349 25.6852 22.0024 25.7192 21.9699 25.7192H20.1282C20.0957 25.7192 20.0632 25.6852 20.0632 25.6285C20.0632 25.5832 20.0957 25.5492 20.1391 25.5492H20.1282Z" fill="#FFFF00" stroke="black" stroke-width="0.0444446"/>
<path d="M20.7998 25.5378C20.7998 25.1638 21.0489 25.0618 21.0489 25.0618C21.0489 25.0618 21.2981 25.1751 21.2981 25.5378H20.7998ZM20.1714 24.5178H21.9373C21.9698 24.5178 22.0023 24.5631 22.0023 24.6084C22.0023 24.6424 21.9698 24.6764 21.9373 24.6764H20.1714C20.1389 24.6764 20.1064 24.6424 20.1064 24.5971C20.1064 24.5631 20.1389 24.5291 20.1714 24.5291V24.5178ZM20.2148 24.6878H21.8831C21.9156 24.6878 21.9481 24.7218 21.9481 24.7671C21.9481 24.8124 21.9156 24.8464 21.8831 24.8464H20.2039C20.1606 24.8464 20.1389 24.8124 20.1389 24.7671C20.1389 24.7218 20.1606 24.6878 20.2039 24.6878H20.2148ZM20.7564 23.4864H20.8864V23.5771H20.9839V23.4864H21.1248V23.5884H21.2223V23.4751H21.3523V23.7018C21.3523 23.7471 21.3306 23.7698 21.2981 23.7698H20.8214C20.7889 23.7698 20.7564 23.7471 20.7564 23.7131V23.4864ZM21.2548 23.7924L21.2873 24.5178H20.8214L20.8539 23.7811H21.2548" fill="#FFFF00"/>
<path d="M21.2548 23.7924L21.2873 24.5178H20.8214L20.8539 23.7811H21.2548M20.7998 25.5378C20.7998 25.1638 21.0489 25.0618 21.0489 25.0618C21.0489 25.0618 21.2981 25.1751 21.2981 25.5378H20.7998ZM20.1714 24.5178H21.9373C21.9698 24.5178 22.0023 24.5631 22.0023 24.6084C22.0023 24.6424 21.9698 24.6764 21.9373 24.6764H20.1714C20.1389 24.6764 20.1064 24.6424 20.1064 24.5971C20.1064 24.5631 20.1389 24.5291 20.1714 24.5291V24.5178ZM20.2148 24.6878H21.8831C21.9156 24.6878 21.9481 24.7218 21.9481 24.7671C21.9481 24.8124 21.9156 24.8464 21.8831 24.8464H20.2039C20.1606 24.8464 20.1389 24.8124 20.1389 24.7671C20.1389 24.7218 20.1606 24.6878 20.2039 24.6878H20.2148ZM20.7564 23.4864H20.8864V23.5771H20.9839V23.4864H21.1248V23.5884H21.2223V23.4751H21.3523V23.7018C21.3523 23.7471 21.3306 23.7698 21.2981 23.7698H20.8214C20.7889 23.7698 20.7564 23.7471 20.7564 23.7131V23.4864Z" stroke="black" stroke-width="0.0444446"/>
<path d="M20.6914 24.1323V24.5177H20.2581V24.1323H20.6914Z" fill="#FFFF00" stroke="black" stroke-width="0.0444446"/>
<path d="M21.8396 24.1323V24.5177H21.4062V24.1323H21.8396Z" fill="#FFFF00" stroke="black" stroke-width="0.0444446"/>
<path d="M20.1821 23.8379H20.3121V23.9512H20.4096V23.8379H20.5396V23.9512H20.6371V23.8379H20.7671V24.0646C20.7671 24.1099 20.7455 24.1326 20.713 24.1326H20.2471C20.2299 24.1326 20.2134 24.1254 20.2012 24.1126C20.189 24.0999 20.1821 24.0826 20.1821 24.0646V23.8379V23.8379Z" fill="#FFFF00" stroke="black" stroke-width="0.0444446"/>
<path d="M21.3308 23.8379H21.4608V23.9512H21.5583V23.8379H21.6883V23.9512H21.7858V23.8379H21.9158V24.0646C21.9158 24.1099 21.8941 24.1326 21.8616 24.1326H21.3958C21.3786 24.1326 21.362 24.1254 21.3498 24.1126C21.3377 24.0999 21.3308 24.0826 21.3308 24.0646V23.8379V23.8379Z" fill="#FFFF00" stroke="black" stroke-width="0.0444446"/>
<path d="M21.0054 24.0193C21.0054 23.9513 21.1029 23.9513 21.1029 24.0193V24.2006H21.0054V24.0193Z" fill="black"/>
<path d="M20.4314 24.2683C20.4314 24.2003 20.5181 24.2003 20.5181 24.2683V24.4043H20.4314V24.2683Z" fill="black"/>
<path d="M21.5796 24.2683C21.5796 24.2003 21.6663 24.2003 21.6663 24.2683V24.4043H21.5796V24.2683Z" fill="black"/>
<path d="M22.5599 31.0514C22.1447 30.6041 22.3424 30.1867 22.3424 30.1867C22.35 30.1786 22.7782 29.9527 23.2011 30.392L22.5676 31.0594" fill="#FFFF00"/>
<path d="M21.7853 30.79L22.2163 31.3495L22.5369 31.0118C22.1371 30.5964 22.3809 30.2109 22.3809 30.2109C22.3885 30.2028 22.7707 29.9771 23.1551 30.3604L23.4757 30.0227L22.9226 29.5758L21.7776 30.782L21.7853 30.79ZM22.2011 31.3816L23.4987 30.0146C23.5216 29.9905 23.5675 29.9903 23.5983 30.0223C23.6367 30.0622 23.6369 30.1103 23.614 30.1344L22.3164 31.5014C22.2935 31.5255 22.2475 31.5257 22.2091 31.4858C22.1784 31.4538 22.1782 31.4057 22.2087 31.3736L22.2011 31.3816Z" fill="#FFFF00" stroke="black" stroke-width="0.0444446"/>
<path d="M22.6668 30.8751C22.4131 30.6115 22.5194 30.3547 22.5194 30.3547C22.5194 30.3547 22.7718 30.2496 23.0179 30.5052L22.6668 30.8751ZM21.5322 30.6226L22.7762 29.312C22.7991 29.2879 22.8528 29.2957 22.8835 29.3277C22.9066 29.3516 22.9068 29.3997 22.8839 29.4238L21.6398 30.7344C21.6169 30.7585 21.5709 30.7587 21.5402 30.7268C21.5171 30.7028 21.517 30.6547 21.5399 30.6306L21.5322 30.6226ZM21.678 30.7103L22.8534 29.472C22.8763 29.4479 22.9223 29.4477 22.953 29.4797C22.9838 29.5116 22.9839 29.5597 22.961 29.5838L21.778 30.8301C21.7475 30.8623 21.7092 30.8544 21.6784 30.8224C21.6477 30.7905 21.6399 30.7505 21.6704 30.7183L21.678 30.7103ZM21.2447 29.4616L21.3363 29.3651L21.3978 29.429L21.4665 29.3566L21.405 29.2927L21.5042 29.1882L21.5734 29.2601L21.6421 29.1877L21.5652 29.1079L21.6568 29.0114L21.8105 29.1711C21.8413 29.2031 21.8414 29.2351 21.8185 29.2592L21.4827 29.613C21.4598 29.6371 21.4215 29.6453 21.3984 29.6213L21.2447 29.4616ZM21.8033 29.3074L22.3183 29.7944L21.9901 30.1402L21.5133 29.5969L21.7957 29.2994" fill="#FFFF00"/>
<path d="M21.8033 29.3074L22.3183 29.7944L21.9901 30.1402L21.5133 29.5969L21.7957 29.2994M22.6668 30.8751C22.4131 30.6115 22.5194 30.3547 22.5194 30.3547C22.5194 30.3547 22.7718 30.2496 23.0179 30.5052L22.6668 30.8751ZM21.5322 30.6226L22.7762 29.312C22.7991 29.2879 22.8528 29.2957 22.8835 29.3277C22.9066 29.3516 22.9068 29.3997 22.8839 29.4238L21.6398 30.7344C21.6169 30.7585 21.5709 30.7587 21.5402 30.7268C21.5171 30.7028 21.517 30.6547 21.5399 30.6306L21.5322 30.6226ZM21.678 30.7103L22.8534 29.472C22.8763 29.4479 22.9223 29.4477 22.953 29.4797C22.9838 29.5116 22.9839 29.5597 22.961 29.5838L21.778 30.8301C21.7475 30.8623 21.7092 30.8544 21.6784 30.8224C21.6477 30.7905 21.6399 30.7505 21.6704 30.7183L21.678 30.7103ZM21.2447 29.4616L21.3363 29.3651L21.3978 29.429L21.4665 29.3566L21.405 29.2927L21.5042 29.1882L21.5734 29.2601L21.6421 29.1877L21.5652 29.1079L21.6568 29.0114L21.8105 29.1711C21.8413 29.2031 21.8414 29.2351 21.8185 29.2592L21.4827 29.613C21.4598 29.6371 21.4215 29.6453 21.3984 29.6213L21.2447 29.4616Z" stroke="black" stroke-width="0.0444446"/>
<path d="M21.6368 29.965L21.8982 30.2366L21.5929 30.5582L21.3315 30.2866L21.6368 29.965Z" fill="#FFFF00" stroke="black" stroke-width="0.0444446"/>
<path d="M22.4462 29.1125L22.7076 29.384L22.4023 29.7056L22.1409 29.4341L22.4462 29.1125Z" fill="#FFFF00" stroke="black" stroke-width="0.0444446"/>
<path d="M21.0784 30.1353L21.17 30.0388L21.2468 30.1186L21.3155 30.0463L21.2387 29.9664L21.3303 29.8699L21.4071 29.9498L21.4758 29.8774L21.3989 29.7975L21.4905 29.701L21.6443 29.8608C21.6751 29.8927 21.6752 29.9248 21.6523 29.9489L21.3241 30.2947C21.3119 30.3075 21.2954 30.3147 21.2782 30.3148C21.2609 30.3148 21.2444 30.3077 21.2321 30.295L21.0784 30.1353V30.1353Z" fill="#FFFF00" stroke="black" stroke-width="0.0444446"/>
<path d="M21.8877 29.2827L21.9793 29.1862L22.0562 29.2661L22.1249 29.1937L22.048 29.1139L22.1396 29.0174L22.2165 29.0972L22.2852 29.0249L22.2083 28.945L22.2999 28.8485L22.4536 29.0083C22.4844 29.0402 22.4845 29.0723 22.4616 29.0964L22.1334 29.4421C22.1213 29.4549 22.1047 29.4622 22.0875 29.4622C22.0703 29.4623 22.0537 29.4552 22.0415 29.4425L21.8877 29.2827V29.2827Z" fill="#FFFF00" stroke="black" stroke-width="0.0444446"/>
<path d="M21.7814 29.6517C21.7353 29.6037 21.804 29.5314 21.8501 29.5793L21.9731 29.7071L21.9044 29.7794L21.7814 29.6517Z" fill="black"/>
<path d="M21.5458 30.2537C21.4997 30.2058 21.5608 30.1415 21.6069 30.1894L21.6991 30.2852L21.6381 30.3496L21.5458 30.2537Z" fill="black"/>
<path d="M22.3552 29.4012C22.309 29.3533 22.3701 29.2889 22.4162 29.3369L22.5085 29.4327L22.4474 29.497L22.3552 29.4012Z" fill="black"/>
<path d="M25.5559 20.3356C25.5667 19.7123 25.9892 19.5649 25.9892 19.5649C26.0001 19.5649 26.4551 19.7236 26.4551 20.3469H25.5559" fill="#FFFF00"/>
<path d="M25.1877 19.5763L25.1119 20.2903H25.5669C25.5669 19.7009 26.0002 19.6103 26.0002 19.6103C26.0111 19.6103 26.4336 19.7349 26.4444 20.2903H26.8994L26.8127 19.5649H25.1877V19.5763ZM25.0794 20.3016H26.9211C26.9536 20.3016 26.9861 20.3356 26.9861 20.3809C26.9861 20.4376 26.9536 20.4716 26.9211 20.4716H25.0794C25.0469 20.4716 25.0144 20.4376 25.0144 20.3809C25.0144 20.3356 25.0469 20.3016 25.0902 20.3016H25.0794Z" fill="#FFFF00" stroke="black" stroke-width="0.0444446"/>
<path d="M25.751 20.2902C25.751 19.9162 26.0001 19.8142 26.0001 19.8142C26.0001 19.8142 26.2493 19.9275 26.2493 20.2902H25.751ZM25.1226 19.2702H26.8885C26.921 19.2702 26.9535 19.3155 26.9535 19.3609C26.9535 19.3949 26.921 19.4289 26.8885 19.4289H25.1226C25.0901 19.4289 25.0576 19.3949 25.0576 19.3495C25.0576 19.3155 25.0901 19.2815 25.1226 19.2815V19.2702ZM25.166 19.4402H26.8343C26.8668 19.4402 26.8993 19.4742 26.8993 19.5195C26.8993 19.5649 26.8668 19.5989 26.8343 19.5989H25.1551C25.1118 19.5989 25.0901 19.5649 25.0901 19.5195C25.0901 19.4742 25.1118 19.4402 25.1551 19.4402H25.166ZM25.7076 18.2389H25.8376V18.3295H25.9351V18.2389H26.076V18.3409H26.1735V18.2275H26.3035V18.4542C26.3035 18.4995 26.2818 18.5222 26.2493 18.5222H25.7726C25.7401 18.5222 25.7076 18.4995 25.7076 18.4655V18.2389ZM26.206 18.5449L26.2385 19.2702H25.7726L25.8051 18.5335H26.206" fill="#FFFF00"/>
<path d="M26.206 18.5449L26.2385 19.2702H25.7726L25.8051 18.5335H26.206M25.751 20.2902C25.751 19.9162 26.0001 19.8142 26.0001 19.8142C26.0001 19.8142 26.2493 19.9275 26.2493 20.2902H25.751ZM25.1226 19.2702H26.8885C26.921 19.2702 26.9535 19.3155 26.9535 19.3609C26.9535 19.3949 26.921 19.4289 26.8885 19.4289H25.1226C25.0901 19.4289 25.0576 19.3949 25.0576 19.3495C25.0576 19.3155 25.0901 19.2815 25.1226 19.2815V19.2702ZM25.166 19.4402H26.8343C26.8668 19.4402 26.8993 19.4742 26.8993 19.5195C26.8993 19.5649 26.8668 19.5989 26.8343 19.5989H25.1551C25.1118 19.5989 25.0901 19.5649 25.0901 19.5195C25.0901 19.4742 25.1118 19.4402 25.1551 19.4402H25.166ZM25.7076 18.2389H25.8376V18.3295H25.9351V18.2389H26.076V18.3409H26.1735V18.2275H26.3035V18.4542C26.3035 18.4995 26.2818 18.5222 26.2493 18.5222H25.7726C25.7401 18.5222 25.7076 18.4995 25.7076 18.4655V18.2389Z" stroke="black" stroke-width="0.0444446"/>
<path d="M25.6426 18.8848V19.2701H25.2092V18.8848H25.6426Z" fill="#FFFF00" stroke="black" stroke-width="0.0444446"/>
<path d="M26.7912 18.8848V19.2701H26.3579V18.8848H26.7912Z" fill="#FFFF00" stroke="black" stroke-width="0.0444446"/>
<path d="M25.1333 18.5903H25.2633V18.7037H25.3608V18.5903H25.4908V18.7037H25.5883V18.5903H25.7183V18.817C25.7183 18.8623 25.6966 18.885 25.6641 18.885H25.1983C25.1811 18.885 25.1645 18.8778 25.1523 18.8651C25.1401 18.8523 25.1333 18.835 25.1333 18.817V18.5903V18.5903Z" fill="#FFFF00" stroke="black" stroke-width="0.0444446"/>
<path d="M26.282 18.5903H26.412V18.7037H26.5095V18.5903H26.6395V18.7037H26.737V18.5903H26.867V18.817C26.867 18.8623 26.8453 18.885 26.8128 18.885H26.347C26.3297 18.885 26.3132 18.8778 26.301 18.8651C26.2888 18.8523 26.282 18.835 26.282 18.817V18.5903V18.5903Z" fill="#FFFF00" stroke="black" stroke-width="0.0444446"/>
<path d="M25.9568 18.7717C25.9568 18.7037 26.0543 18.7037 26.0543 18.7717V18.953H25.9568V18.7717Z" fill="black"/>
<path d="M25.3826 19.0207C25.3826 18.9527 25.4692 18.9527 25.4692 19.0207V19.1567H25.3826V19.0207Z" fill="black"/>
<path d="M26.5308 19.0207C26.5308 18.9527 26.6174 18.9527 26.6174 19.0207V19.1567H26.5308V19.0207Z" fill="black"/>
<path d="M31.3733 20.3356C31.3625 19.7123 30.94 19.5649 30.94 19.5649C30.9291 19.5649 30.4741 19.7236 30.4741 20.3469H31.3733" fill="#FFFF00"/>
<path d="M31.7415 19.5763L31.8173 20.2903H31.3623C31.3623 19.7009 30.929 19.6103 30.929 19.6103C30.9181 19.6103 30.4956 19.7349 30.4848 20.2903H30.0298L30.1165 19.5649H31.7415V19.5763ZM31.8498 20.3016H30.0081C29.9756 20.3016 29.9431 20.3356 29.9431 20.3809C29.9431 20.4376 29.9756 20.4716 30.0081 20.4716H31.8498C31.8823 20.4716 31.9148 20.4376 31.9148 20.3809C31.9148 20.3356 31.8823 20.3016 31.839 20.3016H31.8498Z" fill="#FFFF00" stroke="black" stroke-width="0.0444446"/>
<path d="M31.178 20.2902C31.178 19.9162 30.9288 19.8142 30.9288 19.8142C30.9288 19.8142 30.6797 19.9275 30.6797 20.2902H31.178ZM31.8063 19.2702H30.0405C30.008 19.2702 29.9755 19.3155 29.9755 19.3609C29.9755 19.3949 30.008 19.4289 30.0405 19.4289H31.8063C31.8388 19.4289 31.8713 19.3949 31.8713 19.3495C31.8713 19.3155 31.8388 19.2815 31.8063 19.2815V19.2702ZM31.763 19.4402H30.0947C30.0622 19.4402 30.0297 19.4742 30.0297 19.5195C30.0297 19.5649 30.0622 19.5989 30.0947 19.5989H31.7738C31.8172 19.5989 31.8388 19.5649 31.8388 19.5195C31.8388 19.4742 31.8172 19.4402 31.7738 19.4402H31.763ZM31.2213 18.2389H31.0913V18.3295H30.9938V18.2389H30.853V18.3409H30.7555V18.2275H30.6255V18.4542C30.6255 18.4995 30.6472 18.5222 30.6797 18.5222H31.1563C31.1888 18.5222 31.2213 18.4995 31.2213 18.4655V18.2389ZM30.723 18.5449L30.6905 19.2702H31.1563L31.1238 18.5335H30.723" fill="#FFFF00"/>
<path d="M30.723 18.5449L30.6905 19.2702H31.1563L31.1238 18.5335H30.723M31.178 20.2902C31.178 19.9162 30.9288 19.8142 30.9288 19.8142C30.9288 19.8142 30.6797 19.9275 30.6797 20.2902H31.178ZM31.8063 19.2702H30.0405C30.008 19.2702 29.9755 19.3155 29.9755 19.3609C29.9755 19.3949 30.008 19.4289 30.0405 19.4289H31.8063C31.8388 19.4289 31.8713 19.3949 31.8713 19.3495C31.8713 19.3155 31.8388 19.2815 31.8063 19.2815V19.2702ZM31.763 19.4402H30.0947C30.0622 19.4402 30.0297 19.4742 30.0297 19.5195C30.0297 19.5649 30.0622 19.5989 30.0947 19.5989H31.7738C31.8172 19.5989 31.8388 19.5649 31.8388 19.5195C31.8388 19.4742 31.8172 19.4402 31.7738 19.4402H31.763ZM31.2213 18.2389H31.0913V18.3295H30.9938V18.2389H30.853V18.3409H30.7555V18.2275H30.6255V18.4542C30.6255 18.4995 30.6472 18.5222 30.6797 18.5222H31.1563C31.1888 18.5222 31.2213 18.4995 31.2213 18.4655V18.2389Z" stroke="black" stroke-width="0.0444446"/>
<path d="M31.2861 18.8848V19.2701H31.7195V18.8848H31.2861Z" fill="#FFFF00" stroke="black" stroke-width="0.0444446"/>
<path d="M30.138 18.8848V19.2701H30.5713V18.8848H30.138Z" fill="#FFFF00" stroke="black" stroke-width="0.0444446"/>
<path d="M31.7959 18.5903H31.6659V18.7037H31.5684V18.5903H31.4384V18.7037H31.3409V18.5903H31.2109V18.817C31.2109 18.8623 31.2326 18.885 31.2651 18.885H31.7309C31.7481 18.885 31.7647 18.8778 31.7769 18.8651C31.7891 18.8523 31.7959 18.835 31.7959 18.817V18.5903V18.5903Z" fill="#FFFF00" stroke="black" stroke-width="0.0444446"/>
<path d="M30.6472 18.5903H30.5172V18.7037H30.4197V18.5903H30.2897V18.7037H30.1922V18.5903H30.0622V18.817C30.0622 18.8623 30.0839 18.885 30.1164 18.885H30.5822C30.5995 18.885 30.616 18.8778 30.6282 18.8651C30.6404 18.8523 30.6472 18.835 30.6472 18.817V18.5903V18.5903Z" fill="#FFFF00" stroke="black" stroke-width="0.0444446"/>
<path d="M30.9724 18.7717C30.9724 18.7037 30.8749 18.7037 30.8749 18.7717V18.953H30.9724V18.7717Z" fill="black"/>
<path d="M31.5466 19.0207C31.5466 18.9527 31.46 18.9527 31.46 19.0207V19.1567H31.5466V19.0207Z" fill="black"/>
<path d="M30.3982 19.0207C30.3982 18.9527 30.3115 18.9527 30.3115 19.0207V19.1567H30.3982V19.0207Z" fill="black"/>
<path d="M31.373 25.5832C31.3622 24.9598 30.9397 24.8125 30.9397 24.8125C30.9289 24.8125 30.4739 24.9712 30.4739 25.5945H31.373" fill="#FFFF00"/>
<path d="M31.7412 24.8238L31.817 25.5378H31.362C31.362 24.9485 30.9287 24.8578 30.9287 24.8578C30.9179 24.8578 30.4954 24.9825 30.4845 25.5378H30.0295L30.1162 24.8125H31.7412V24.8238ZM31.8495 25.5492H30.0079C29.9754 25.5492 29.9429 25.5832 29.9429 25.6285C29.9429 25.6852 29.9754 25.7192 30.0079 25.7192H31.8495C31.8821 25.7192 31.9146 25.6852 31.9146 25.6285C31.9146 25.5832 31.8821 25.5492 31.8387 25.5492H31.8495Z" fill="#FFFF00" stroke="black" stroke-width="0.0444446"/>
<path d="M31.1778 25.5378C31.1778 25.1638 30.9286 25.0618 30.9286 25.0618C30.9286 25.0618 30.6794 25.1751 30.6794 25.5378H31.1778ZM31.8061 24.5178H30.0403C30.0078 24.5178 29.9753 24.5631 29.9753 24.6084C29.9753 24.6424 30.0078 24.6764 30.0403 24.6764H31.8061C31.8386 24.6764 31.8711 24.6424 31.8711 24.5971C31.8711 24.5631 31.8386 24.5291 31.8061 24.5291V24.5178ZM31.7628 24.6878H30.0944C30.0619 24.6878 30.0294 24.7218 30.0294 24.7671C30.0294 24.8124 30.0619 24.8464 30.0944 24.8464H31.7736C31.8169 24.8464 31.8386 24.8124 31.8386 24.7671C31.8386 24.7218 31.8169 24.6878 31.7736 24.6878H31.7628ZM31.2211 23.4864H31.0911V23.5771H30.9936V23.4864H30.8528V23.5884H30.7553V23.4751H30.6253V23.7018C30.6253 23.7471 30.6469 23.7698 30.6794 23.7698H31.1561C31.1886 23.7698 31.2211 23.7471 31.2211 23.7131V23.4864ZM30.7228 23.7924L30.6903 24.5178H31.1561L31.1236 23.7811H30.7228" fill="#FFFF00"/>
<path d="M30.7228 23.7924L30.6903 24.5178H31.1561L31.1236 23.7811H30.7228M31.1778 25.5378C31.1778 25.1638 30.9286 25.0618 30.9286 25.0618C30.9286 25.0618 30.6794 25.1751 30.6794 25.5378H31.1778ZM31.8061 24.5178H30.0403C30.0078 24.5178 29.9753 24.5631 29.9753 24.6084C29.9753 24.6424 30.0078 24.6764 30.0403 24.6764H31.8061C31.8386 24.6764 31.8711 24.6424 31.8711 24.5971C31.8711 24.5631 31.8386 24.5291 31.8061 24.5291V24.5178ZM31.7628 24.6878H30.0944C30.0619 24.6878 30.0294 24.7218 30.0294 24.7671C30.0294 24.8124 30.0619 24.8464 30.0944 24.8464H31.7736C31.8169 24.8464 31.8386 24.8124 31.8386 24.7671C31.8386 24.7218 31.8169 24.6878 31.7736 24.6878H31.7628ZM31.2211 23.4864H31.0911V23.5771H30.9936V23.4864H30.8528V23.5884H30.7553V23.4751H30.6253V23.7018C30.6253 23.7471 30.6469 23.7698 30.6794 23.7698H31.1561C31.1886 23.7698 31.2211 23.7471 31.2211 23.7131V23.4864Z" stroke="black" stroke-width="0.0444446"/>
<path d="M31.2859 24.1323V24.5177H31.7192V24.1323H31.2859Z" fill="#FFFF00" stroke="black" stroke-width="0.0444446"/>
<path d="M30.1377 24.1323V24.5177H30.571V24.1323H30.1377Z" fill="#FFFF00" stroke="black" stroke-width="0.0444446"/>
<path d="M31.7957 23.8379H31.6657V23.9512H31.5682V23.8379H31.4382V23.9512H31.3407V23.8379H31.2107V24.0646C31.2107 24.1099 31.2323 24.1326 31.2648 24.1326H31.7307C31.7479 24.1326 31.7644 24.1254 31.7766 24.1126C31.7888 24.0999 31.7957 24.0826 31.7957 24.0646V23.8379V23.8379Z" fill="#FFFF00" stroke="black" stroke-width="0.0444446"/>
<path d="M30.647 23.8379H30.517V23.9512H30.4195V23.8379H30.2895V23.9512H30.192V23.8379H30.062V24.0646C30.062 24.1099 30.0836 24.1326 30.1161 24.1326H30.582C30.5992 24.1326 30.6157 24.1254 30.6279 24.1126C30.6401 24.0999 30.647 24.0826 30.647 24.0646V23.8379V23.8379Z" fill="#FFFF00" stroke="black" stroke-width="0.0444446"/>
<path d="M30.9722 24.0193C30.9722 23.9513 30.8747 23.9513 30.8747 24.0193V24.2006H30.9722V24.0193Z" fill="black"/>
<path d="M31.5464 24.2683C31.5464 24.2003 31.4597 24.2003 31.4597 24.2683V24.4043H31.5464V24.2683Z" fill="black"/>
<path d="M30.3979 24.2683C30.3979 24.2003 30.3113 24.2003 30.3113 24.2683V24.4043H30.3979V24.2683Z" fill="black"/>
<path d="M29.4176 31.0514C29.8328 30.6041 29.6351 30.1867 29.6351 30.1867C29.6275 30.1786 29.1993 29.9527 28.7764 30.392L29.4099 31.0594" fill="#FFFF00"/>
<path d="M30.1925 30.79L29.7615 31.3495L29.4409 31.0118C29.8407 30.5964 29.5969 30.2109 29.5969 30.2109C29.5893 30.2028 29.207 29.9771 28.8227 30.3604L28.5021 30.0227L29.0552 29.5758L30.2001 30.782L30.1925 30.79ZM29.7767 31.3816L28.4791 30.0146C28.4562 29.9905 28.4103 29.9903 28.3795 30.0223C28.3411 30.0622 28.3409 30.1103 28.3638 30.1344L29.6614 31.5014C29.6843 31.5255 29.7302 31.5257 29.7687 31.4858C29.7994 31.4538 29.7996 31.4057 29.7691 31.3736L29.7767 31.3816Z" fill="#FFFF00" stroke="black" stroke-width="0.0444446"/>
<path d="M29.3108 30.8751C29.5645 30.6115 29.4581 30.3547 29.4581 30.3547C29.4581 30.3547 29.2057 30.2496 28.9597 30.5052L29.3108 30.8751ZM30.4454 30.6226L29.2013 29.312C29.1784 29.2879 29.1248 29.2957 29.094 29.3277C29.0709 29.3516 29.0708 29.3997 29.0937 29.4238L30.3377 30.7344C30.3606 30.7585 30.4066 30.7587 30.4374 30.7268C30.4604 30.7028 30.4606 30.6547 30.4377 30.6306L30.4454 30.6226ZM30.2995 30.7103L29.1241 29.472C29.1012 29.4479 29.0553 29.4477 29.0245 29.4797C28.9938 29.5116 28.9936 29.5597 29.0165 29.5838L30.1995 30.8301C30.2301 30.8623 30.2684 30.8544 30.2991 30.8224C30.3299 30.7905 30.3377 30.7505 30.3072 30.7183L30.2995 30.7103ZM30.7329 29.4616L30.6413 29.3651L30.5798 29.429L30.5111 29.3566L30.5726 29.2927L30.4734 29.1882L30.4042 29.2601L30.3355 29.1877L30.4124 29.1079L30.3208 29.0114L30.167 29.1711C30.1363 29.2031 30.1361 29.2351 30.159 29.2592L30.4949 29.613C30.5178 29.6371 30.556 29.6453 30.5791 29.6213L30.7329 29.4616ZM30.1742 29.3074L29.6592 29.7944L29.9874 30.1402L30.4643 29.5969L30.1819 29.2994" fill="#FFFF00"/>
<path d="M30.1742 29.3074L29.6592 29.7944L29.9874 30.1402L30.4643 29.5969L30.1819 29.2994M29.3108 30.8751C29.5645 30.6115 29.4581 30.3547 29.4581 30.3547C29.4581 30.3547 29.2057 30.2496 28.9597 30.5052L29.3108 30.8751ZM30.4454 30.6226L29.2013 29.312C29.1784 29.2879 29.1248 29.2957 29.094 29.3277C29.0709 29.3516 29.0708 29.3997 29.0937 29.4238L30.3377 30.7344C30.3606 30.7585 30.4066 30.7587 30.4374 30.7268C30.4604 30.7028 30.4606 30.6547 30.4377 30.6306L30.4454 30.6226ZM30.2995 30.7103L29.1241 29.472C29.1012 29.4479 29.0553 29.4477 29.0245 29.4797C28.9938 29.5116 28.9936 29.5597 29.0165 29.5838L30.1995 30.8301C30.2301 30.8623 30.2684 30.8544 30.2991 30.8224C30.3299 30.7905 30.3377 30.7505 30.3072 30.7183L30.2995 30.7103ZM30.7329 29.4616L30.6413 29.3651L30.5798 29.429L30.5111 29.3566L30.5726 29.2927L30.4734 29.1882L30.4042 29.2601L30.3355 29.1877L30.4124 29.1079L30.3208 29.0114L30.167 29.1711C30.1363 29.2031 30.1361 29.2351 30.159 29.2592L30.4949 29.613C30.5178 29.6371 30.556 29.6453 30.5791 29.6213L30.7329 29.4616Z" stroke="black" stroke-width="0.0444446"/>
<path d="M30.3407 29.965L30.0793 30.2366L30.3846 30.5582L30.646 30.2866L30.3407 29.965Z" fill="#FFFF00" stroke="black" stroke-width="0.0444446"/>
<path d="M29.5316 29.1125L29.2702 29.384L29.5755 29.7056L29.8369 29.4341L29.5316 29.1125Z" fill="#FFFF00" stroke="black" stroke-width="0.0444446"/>
<path d="M30.8992 30.1353L30.8076 30.0388L30.7307 30.1186L30.662 30.0463L30.7389 29.9664L30.6473 29.8699L30.5704 29.9498L30.5017 29.8774L30.5786 29.7975L30.487 29.701L30.3332 29.8608C30.3025 29.8927 30.3024 29.9248 30.3253 29.9489L30.6535 30.2947C30.6656 30.3075 30.6821 30.3147 30.6994 30.3148C30.7166 30.3148 30.7332 30.3077 30.7454 30.295L30.8992 30.1353V30.1353Z" fill="#FFFF00" stroke="black" stroke-width="0.0444446"/>
<path d="M30.0903 29.2827L29.9987 29.1862L29.9219 29.2661L29.8532 29.1937L29.93 29.1139L29.8385 29.0174L29.7616 29.0972L29.6929 29.0249L29.7698 28.945L29.6782 28.8485L29.5244 29.0083C29.4936 29.0402 29.4935 29.0723 29.5164 29.0964L29.8446 29.4421C29.8568 29.4549 29.8733 29.4622 29.8905 29.4622C29.9078 29.4623 29.9243 29.4552 29.9366 29.4425L30.0903 29.2827V29.2827Z" fill="#FFFF00" stroke="black" stroke-width="0.0444446"/>
<path d="M30.1961 29.6517C30.2422 29.6037 30.1736 29.5314 30.1274 29.5793L30.0044 29.7071L30.0731 29.7794L30.1961 29.6517Z" fill="black"/>
<path d="M30.4317 30.2537C30.4778 30.2058 30.4168 30.1415 30.3707 30.1894L30.2784 30.2852L30.3395 30.3496L30.4317 30.2537Z" fill="black"/>
<path d="M29.6224 29.4012C29.6685 29.3533 29.6075 29.2889 29.5613 29.3369L29.4691 29.4327L29.5301 29.497L29.6224 29.4012Z" fill="black"/>
<path d="M25.1983 25.7753C25.1963 26.0145 25.2815 26.2455 25.4366 26.4213C25.509 26.5059 25.5974 26.5738 25.6963 26.6206C25.7951 26.6675 25.9023 26.6922 26.0108 26.6933C26.2383 26.6933 26.4441 26.5799 26.5849 26.4213C26.74 26.2455 26.8252 26.0145 26.8233 25.7753V24.5513H25.1983V25.7753Z" fill="#003399"/>
<path d="M25.5775 25.1862C25.6673 25.1862 25.74 25.1101 25.74 25.0162C25.74 24.9223 25.6673 24.8462 25.5775 24.8462C25.4878 24.8462 25.415 24.9223 25.415 25.0162C25.415 25.1101 25.4878 25.1862 25.5775 25.1862Z" fill="white"/>
<path d="M26.4765 25.1862C26.5662 25.1862 26.639 25.1101 26.639 25.0162C26.639 24.9223 26.5662 24.8462 26.4765 24.8462C26.3867 24.8462 26.314 24.9223 26.314 25.0162C26.314 25.1101 26.3867 25.1862 26.4765 25.1862Z" fill="white"/>
<path d="M26.0216 25.6393C26.1114 25.6393 26.1841 25.5632 26.1841 25.4693C26.1841 25.3754 26.1114 25.2993 26.0216 25.2993C25.9319 25.2993 25.8591 25.3754 25.8591 25.4693C25.8591 25.5632 25.9319 25.6393 26.0216 25.6393Z" fill="white"/>
<path d="M25.5775 26.1154C25.6673 26.1154 25.74 26.0393 25.74 25.9454C25.74 25.8515 25.6673 25.7754 25.5775 25.7754C25.4878 25.7754 25.415 25.8515 25.415 25.9454C25.415 26.0393 25.4878 26.1154 25.5775 26.1154Z" fill="white"/>
<path d="M26.4765 26.1154C26.5662 26.1154 26.639 26.0393 26.639 25.9454C26.639 25.8515 26.5662 25.7754 26.4765 25.7754C26.3867 25.7754 26.314 25.8515 26.314 25.9454C26.314 26.0393 26.3867 26.1154 26.4765 26.1154Z" fill="white"/>
<path d="M25.1983 22.829C25.1963 23.0682 25.2815 23.2992 25.4366 23.475C25.509 23.5596 25.5974 23.6275 25.6963 23.6744C25.7951 23.7212 25.9023 23.7459 26.0108 23.747C26.2383 23.747 26.4441 23.6337 26.5849 23.475C26.74 23.2992 26.8252 23.0682 26.8233 22.829V21.605H25.1983V22.829Z" fill="#003399"/>
<path d="M25.5775 22.2394C25.6673 22.2394 25.74 22.1633 25.74 22.0694C25.74 21.9755 25.6673 21.8994 25.5775 21.8994C25.4878 21.8994 25.415 21.9755 25.415 22.0694C25.415 22.1633 25.4878 22.2394 25.5775 22.2394Z" fill="white"/>
<path d="M26.4765 22.2394C26.5662 22.2394 26.639 22.1633 26.639 22.0694C26.639 21.9755 26.5662 21.8994 26.4765 21.8994C26.3867 21.8994 26.314 21.9755 26.314 22.0694C26.314 22.1633 26.3867 22.2394 26.4765 22.2394Z" fill="white"/>
<path d="M26.0216 22.693C26.1114 22.693 26.1841 22.6169 26.1841 22.523C26.1841 22.4291 26.1114 22.353 26.0216 22.353C25.9319 22.353 25.8591 22.4291 25.8591 22.523C25.8591 22.6169 25.9319 22.693 26.0216 22.693Z" fill="white"/>
<path d="M25.5775 23.1691C25.6673 23.1691 25.74 23.093 25.74 22.9991C25.74 22.9052 25.6673 22.8291 25.5775 22.8291C25.4878 22.8291 25.415 22.9052 25.415 22.9991C25.415 23.093 25.4878 23.1691 25.5775 23.1691Z" fill="white"/>
<path d="M26.4765 23.1691C26.5662 23.1691 26.639 23.093 26.639 22.9991C26.639 22.9052 26.5662 22.8291 26.4765 22.8291C26.3867 22.8291 26.314 22.9052 26.314 22.9991C26.314 23.093 26.3867 23.1691 26.4765 23.1691Z" fill="white"/>
<path d="M22.9446 25.7753C22.9427 26.0145 23.0279 26.2455 23.1829 26.4213C23.2553 26.5059 23.3437 26.5738 23.4426 26.6206C23.5415 26.6675 23.6486 26.6922 23.7571 26.6933C23.9846 26.6933 24.1904 26.5799 24.3313 26.4213C24.4864 26.2455 24.5716 26.0145 24.5696 25.7753V24.5513H22.9446V25.7753Z" fill="#003399"/>
<path d="M23.3239 25.1862C23.4136 25.1862 23.4864 25.1101 23.4864 25.0162C23.4864 24.9223 23.4136 24.8462 23.3239 24.8462C23.2341 24.8462 23.1614 24.9223 23.1614 25.0162C23.1614 25.1101 23.2341 25.1862 23.3239 25.1862Z" fill="white"/>
<path d="M24.2228 25.1862C24.3125 25.1862 24.3853 25.1101 24.3853 25.0162C24.3853 24.9223 24.3125 24.8462 24.2228 24.8462C24.1331 24.8462 24.0603 24.9223 24.0603 25.0162C24.0603 25.1101 24.1331 25.1862 24.2228 25.1862Z" fill="white"/>
<path d="M23.768 25.6393C23.8577 25.6393 23.9305 25.5632 23.9305 25.4693C23.9305 25.3754 23.8577 25.2993 23.768 25.2993C23.6782 25.2993 23.6055 25.3754 23.6055 25.4693C23.6055 25.5632 23.6782 25.6393 23.768 25.6393Z" fill="white"/>
<path d="M23.3239 26.1154C23.4136 26.1154 23.4864 26.0393 23.4864 25.9454C23.4864 25.8515 23.4136 25.7754 23.3239 25.7754C23.2341 25.7754 23.1614 25.8515 23.1614 25.9454C23.1614 26.0393 23.2341 26.1154 23.3239 26.1154Z" fill="white"/>
<path d="M24.2228 26.1154C24.3125 26.1154 24.3853 26.0393 24.3853 25.9454C24.3853 25.8515 24.3125 25.7754 24.2228 25.7754C24.1331 25.7754 24.0603 25.8515 24.0603 25.9454C24.0603 26.0393 24.1331 26.1154 24.2228 26.1154Z" fill="white"/>
<path d="M27.4514 25.7753C27.4495 26.0145 27.5347 26.2455 27.6898 26.4213C27.7621 26.5059 27.8506 26.5738 27.9494 26.6206C28.0483 26.6675 28.1554 26.6922 28.264 26.6933C28.4915 26.6933 28.6973 26.5799 28.8381 26.4213C28.9932 26.2455 29.0784 26.0145 29.0765 25.7753V24.5513H27.4514V25.7753Z" fill="#003399"/>
<path d="M27.8307 25.1862C27.9205 25.1862 27.9932 25.1101 27.9932 25.0162C27.9932 24.9223 27.9205 24.8462 27.8307 24.8462C27.741 24.8462 27.6682 24.9223 27.6682 25.0162C27.6682 25.1101 27.741 25.1862 27.8307 25.1862Z" fill="white"/>
<path d="M28.7296 25.1862C28.8194 25.1862 28.8921 25.1101 28.8921 25.0162C28.8921 24.9223 28.8194 24.8462 28.7296 24.8462C28.6399 24.8462 28.5671 24.9223 28.5671 25.0162C28.5671 25.1101 28.6399 25.1862 28.7296 25.1862Z" fill="white"/>
<path d="M28.2748 25.6393C28.3646 25.6393 28.4373 25.5632 28.4373 25.4693C28.4373 25.3754 28.3646 25.2993 28.2748 25.2993C28.1851 25.2993 28.1123 25.3754 28.1123 25.4693C28.1123 25.5632 28.1851 25.6393 28.2748 25.6393Z" fill="white"/>
<path d="M27.8307 26.1154C27.9205 26.1154 27.9932 26.0393 27.9932 25.9454C27.9932 25.8515 27.9205 25.7754 27.8307 25.7754C27.741 25.7754 27.6682 25.8515 27.6682 25.9454C27.6682 26.0393 27.741 26.1154 27.8307 26.1154Z" fill="white"/>
<path d="M28.7296 26.1154C28.8194 26.1154 28.8921 26.0393 28.8921 25.9454C28.8921 25.8515 28.8194 25.7754 28.7296 25.7754C28.6399 25.7754 28.5671 25.8515 28.5671 25.9454C28.5671 26.0393 28.6399 26.1154 28.7296 26.1154Z" fill="white"/>
<path d="M25.1983 28.6996C25.1963 28.9388 25.2815 29.1698 25.4366 29.3456C25.509 29.4302 25.5974 29.4981 25.6963 29.545C25.7951 29.5918 25.9023 29.6165 26.0108 29.6176C26.2383 29.6176 26.4441 29.5043 26.5849 29.3456C26.74 29.1698 26.8252 28.9388 26.8233 28.6996V27.4756H25.1983V28.6996Z" fill="#003399"/>
<path d="M25.5775 28.11C25.6673 28.11 25.74 28.0339 25.74 27.94C25.74 27.8461 25.6673 27.77 25.5775 27.77C25.4878 27.77 25.415 27.8461 25.415 27.94C25.415 28.0339 25.4878 28.11 25.5775 28.11Z" fill="white"/>
<path d="M26.4765 28.11C26.5662 28.11 26.639 28.0339 26.639 27.94C26.639 27.8461 26.5662 27.77 26.4765 27.77C26.3867 27.77 26.314 27.8461 26.314 27.94C26.314 28.0339 26.3867 28.11 26.4765 28.11Z" fill="white"/>
<path d="M26.0216 28.5636C26.1114 28.5636 26.1841 28.4875 26.1841 28.3936C26.1841 28.2997 26.1114 28.2236 26.0216 28.2236C25.9319 28.2236 25.8591 28.2997 25.8591 28.3936C25.8591 28.4875 25.9319 28.5636 26.0216 28.5636Z" fill="white"/>
<path d="M25.5775 29.0397C25.6673 29.0397 25.74 28.9636 25.74 28.8697C25.74 28.7758 25.6673 28.6997 25.5775 28.6997C25.4878 28.6997 25.415 28.7758 25.415 28.8697C25.415 28.9636 25.4878 29.0397 25.5775 29.0397Z" fill="white"/>
<path d="M26.4765 29.0397C26.5662 29.0397 26.639 28.9636 26.639 28.8697C26.639 28.7758 26.5662 28.6997 26.4765 28.6997C26.3867 28.6997 26.314 28.7758 26.314 28.8697C26.314 28.9636 26.3867 29.0397 26.4765 29.0397Z" fill="white"/>
</g>
<defs>
<clipPath id="clip0_806_1555">
<rect width="65" height="51" fill="white"/>
</clipPath>
</defs>
</svg>
