<svg width="65" height="51" viewBox="0 0 65 51" fill="none" xmlns="http://www.w3.org/2000/svg">
<g clip-path="url(#clip0_806_1450)">
<path fill-rule="evenodd" clip-rule="evenodd" d="M-0.0300041 23.271H80.7747V43.8452H-0.0395508L-0.0300041 23.271Z" fill="white"/>
<path fill-rule="evenodd" clip-rule="evenodd" d="M0.0270996 0H80.7937V25.6279H0.0270996V0ZM0.0557405 38.5418H81.4047V51.136H0.0557405V38.5418Z" fill="#081873"/>
<path fill-rule="evenodd" clip-rule="evenodd" d="M0.0559082 30.2222H80.8225V34.1772H0.0559082V30.2222Z" fill="#DE3929"/>
<path fill-rule="evenodd" clip-rule="evenodd" d="M24.2573 39.8699L24.8874 41.9073H26.9304L25.2693 43.1757L25.8994 45.2232L24.2573 43.9448L22.5961 45.2132L23.2358 43.1657L21.5746 41.8973H23.6272M42.0145 25.0085L42.6541 27.0559H44.6876L43.0265 28.3143L43.6566 30.3618L41.9954 29.0933L40.3342 30.3618L40.9643 28.3143L39.3032 27.0559H41.3653M20.1712 33.4878L20.8013 35.5353H22.8539L21.2023 36.8137L21.8419 38.8511L20.1808 37.5927L18.5196 38.8511L19.1497 36.8137L17.4886 35.5453H19.5411M42.0145 32.9086L42.6541 34.946H44.6876L43.0265 36.2144L43.6566 38.2519L41.9954 36.9935L40.3342 38.2619L40.9643 36.2144L39.3032 34.946H41.3653M37.4988 18.7962L38.1385 20.8337H40.2006L38.5394 22.1021L39.1695 24.1495L37.5084 22.8811L35.8472 24.1495L36.4869 22.1021L34.8161 20.8337H36.8783M30.7205 16.3193L31.3602 18.3668H33.4128L31.7516 19.6252L32.3817 21.6726L30.7205 20.4142L29.0594 21.6726L29.699 19.6252L28.0379 18.3668H30.0809M23.9232 18.6564L24.5628 20.7038H26.6154L24.9542 21.9623L25.5939 24.0097L23.9232 22.7413L22.262 24.0097L22.9016 21.9623L21.2405 20.7038H23.3026M19.9803 25.0184L20.6104 27.0659H22.6725L21.0018 28.3243L21.6415 30.3718L19.9803 29.1033L18.3191 30.3718L18.9492 28.3243L17.2881 27.0659H19.3407M30.7205 41.9872L31.3602 44.0346H33.4128L31.7516 45.2931L32.3912 47.3405L30.7205 46.0721L29.0594 47.3405L29.699 45.2931L28.0379 44.0346H30.0809M37.9284 39.8699L38.5585 41.9073H40.6111L38.9595 43.1757L39.5991 45.2232L37.938 43.9548L36.2673 45.2232L36.9069 43.1757L35.2458 41.9073H37.2983" fill="#FFCE08"/>
</g>
<defs>
<clipPath id="clip0_806_1450">
<rect width="65" height="51" fill="white"/>
</clipPath>
</defs>
</svg>
