<svg width="65" height="51" viewBox="0 0 65 51" fill="none" xmlns="http://www.w3.org/2000/svg">
<g clip-path="url(#clip0_804_32)">
<path d="M0 33.9683H65V51.0001H0V33.9683Z" fill="#0038A8"/>
<path d="M0 17H65V34H0V17Z" fill="white"/>
<path d="M0 0H65V17H0V0Z" fill="#D52B1E"/>
<path d="M32.4968 32.0217C35.9398 32.0217 38.7309 29.1018 38.7309 25.4999C38.7309 21.898 35.9398 18.978 32.4968 18.978C29.0538 18.978 26.2627 21.898 26.2627 25.4999C26.2627 29.1018 29.0538 32.0217 32.4968 32.0217Z" stroke="black" stroke-width="0.133334"/>
<path d="M32.4968 30.8627C35.3279 30.8627 37.6229 28.4617 37.6229 25.5C37.6229 22.5382 35.3279 20.1372 32.4968 20.1372C29.6657 20.1372 27.3706 22.5382 27.3706 25.5C27.3706 28.4617 29.6657 30.8627 32.4968 30.8627Z" stroke="black" stroke-width="0.0606062"/>
<path d="M32.4967 29.611C34.6669 29.611 36.4263 27.7705 36.4263 25.5001C36.4263 23.2297 34.6669 21.3892 32.4967 21.3892C30.3265 21.3892 28.5671 23.2297 28.5671 25.5001C28.5671 27.7705 30.3265 29.611 32.4967 29.611Z" stroke="black" stroke-width="0.048485"/>
<path d="M29.1793 28.0183L28.4582 28.4646L28.2348 28.0714C28.2035 28.0186 28.1796 27.9613 28.1637 27.9014C28.1522 27.8555 28.1558 27.8069 28.1738 27.7633C28.1941 27.7208 28.2246 27.6889 28.2754 27.6571C28.316 27.6358 28.3465 27.6252 28.3871 27.6252C28.4255 27.6226 28.4638 27.6299 28.4988 27.6464L28.5801 27.7102V27.5721L28.6105 27.5189L28.7629 27.2746L28.9051 27.5402L28.7629 27.7952L28.7324 27.8802L28.7426 27.9439L28.7527 27.9652L29.0574 27.7846L29.1793 28.0183ZM28.6207 28.0502L28.5598 27.9439L28.5191 27.8908C28.5124 27.8839 28.5045 27.8785 28.4958 27.8749C28.4871 27.8712 28.4777 27.8694 28.4684 27.8696C28.4508 27.8672 28.4329 27.871 28.4176 27.8802L28.377 27.9439C28.377 27.9652 28.3871 27.9971 28.4176 28.0396L28.4684 28.1458L28.6207 28.0502ZM27.9402 27.4658L27.7168 26.7752L27.8895 26.7114L28.0215 27.1471L28.1535 27.1046L28.0215 26.7008L28.184 26.6477L28.316 27.0408L28.4684 26.9877L28.3262 26.5414L28.509 26.4883L28.7324 27.1896L27.9402 27.4658ZM27.6457 26.4352L27.6051 25.9889C27.5848 25.8827 27.6051 25.8189 27.6457 25.7658C27.6863 25.7021 27.7473 25.6702 27.8285 25.6596C27.9098 25.6596 27.9809 25.6702 28.0316 25.7233C28.0824 25.7658 28.1129 25.8508 28.1332 25.9571L28.1434 26.1058L28.448 26.0633L28.4887 26.3396L27.6457 26.4352ZM27.9809 26.1164L27.9707 26.0527C27.9707 25.9996 27.9504 25.9677 27.9301 25.9464C27.9207 25.9373 27.9093 25.9306 27.897 25.9269C27.8846 25.9232 27.8716 25.9226 27.859 25.9252C27.8343 25.9309 27.8126 25.9461 27.798 25.9677C27.7777 25.9783 27.7777 26.0208 27.7777 26.0739L27.7879 26.1483L27.9809 26.1164ZM27.6254 24.7883L27.6559 24.5121L28.1434 24.5758C28.1928 24.5812 28.2409 24.5956 28.2855 24.6183C28.3262 24.6396 28.3668 24.6608 28.3871 24.7033C28.4277 24.7352 28.4379 24.7777 28.448 24.8096C28.4684 24.8733 28.4684 24.9371 28.4582 25.0114L28.4379 25.1496C28.4277 25.2027 28.4074 25.2346 28.3871 25.2664C28.3453 25.3353 28.2799 25.3847 28.2043 25.4046H28.0621L27.5645 25.3514L27.5949 25.0858L28.1027 25.1389C28.1434 25.1389 28.184 25.1389 28.2043 25.1177C28.2449 25.0964 28.2551 25.0539 28.2652 25.0114C28.2686 24.9732 28.2576 24.9352 28.2348 24.9052C28.2145 24.8627 28.1738 24.8521 28.1332 24.8414L27.6254 24.7883ZM27.727 24.1508L27.8996 23.6621C27.9199 23.5771 27.9605 23.5239 28.0113 23.5027C28.0355 23.4875 28.0625 23.4778 28.0904 23.4742C28.1184 23.4705 28.1468 23.473 28.1738 23.4814C28.2246 23.5027 28.2551 23.5346 28.2754 23.5771C28.2957 23.6089 28.3059 23.6408 28.3059 23.6833C28.3363 23.6302 28.377 23.5983 28.4176 23.5771C28.4634 23.5591 28.5139 23.5591 28.5598 23.5771C28.5998 23.5907 28.6353 23.6159 28.6623 23.6497C28.6893 23.6835 28.7065 23.7247 28.7121 23.7683V23.8746L28.6816 23.9808L28.5293 24.4271L27.727 24.1508ZM28.1332 24.0021L28.1738 23.8852C28.1738 23.8427 28.184 23.8108 28.1738 23.8002C28.1738 23.7789 28.1535 23.7577 28.1332 23.7471C28.1237 23.7423 28.1133 23.7399 28.1027 23.7399C28.0922 23.7399 28.0818 23.7423 28.0723 23.7471C28.052 23.7683 28.0316 23.7896 28.0215 23.8321L27.9809 23.9383L28.1332 24.0021ZM28.4379 24.1083L28.4887 23.9808C28.4988 23.9383 28.509 23.9064 28.4887 23.8746C28.4805 23.8557 28.4661 23.8406 28.448 23.8321C28.4372 23.8255 28.425 23.8221 28.4125 23.8221C28.4 23.8221 28.3878 23.8255 28.377 23.8321L28.3262 23.9277L28.2855 24.0552L28.4379 24.1083ZM28.1332 23.0883L28.2652 22.8546L28.8137 23.1946L29.0168 22.8333L29.1996 22.9396L28.8543 23.5346L28.1332 23.0883ZM28.641 22.2808L28.8035 22.0683L29.4535 22.6314L29.291 22.8439L28.641 22.2808ZM29.7684 21.8239L29.9918 21.7177C30.0223 21.7814 30.0324 21.8452 30.0426 21.8983C30.0453 21.9533 30.0348 22.0081 30.0121 22.0577C29.9829 22.1194 29.9414 22.1737 29.8902 22.2171C29.8348 22.2758 29.7642 22.3165 29.6871 22.3339C29.6208 22.3546 29.5503 22.3546 29.484 22.3339C29.4025 22.298 29.3322 22.2392 29.2809 22.1639C29.1793 22.0577 29.1387 21.9514 29.1488 21.8346C29.1545 21.7744 29.1719 21.716 29.1998 21.663C29.2278 21.6101 29.2657 21.5636 29.3113 21.5264C29.377 21.467 29.4585 21.4299 29.5449 21.4202C29.616 21.4096 29.6973 21.4202 29.7785 21.4733L29.6363 21.6752C29.618 21.6609 29.5974 21.6501 29.5754 21.6433C29.552 21.6375 29.5277 21.6375 29.5043 21.6433C29.481 21.6521 29.4601 21.6667 29.4434 21.6858C29.4214 21.7027 29.4042 21.7253 29.3935 21.7515C29.3828 21.7777 29.379 21.8063 29.3824 21.8346C29.3824 21.8771 29.423 21.9302 29.4637 21.9833C29.5246 22.0577 29.5754 22.1002 29.6262 22.1108C29.6668 22.1108 29.7074 22.1108 29.748 22.0683C29.7887 22.0364 29.809 22.0046 29.809 21.9621C29.809 21.9196 29.7988 21.8771 29.7684 21.8239V21.8239ZM30.6621 21.4839L30.4082 21.6327L30.4387 21.7814L30.2051 21.9089L30.0832 20.9846L30.3371 20.8464L31.0074 21.4627L30.7637 21.6008L30.6621 21.4839ZM30.5301 21.3458L30.3066 21.1121L30.3676 21.4308L30.5301 21.3458ZM31.3223 20.4427L31.7082 20.3789C31.7685 20.3664 31.8307 20.3664 31.891 20.3789C31.9418 20.3896 31.9926 20.4108 32.023 20.4533C32.0535 20.4958 32.0941 20.5277 32.1145 20.5808C32.1348 20.6233 32.1551 20.6871 32.1551 20.7402C32.1754 20.8358 32.1754 20.9102 32.1652 20.9527C32.1559 21.0065 32.1351 21.0573 32.1043 21.1014C32.0787 21.1418 32.0438 21.1747 32.0027 21.1971C31.9544 21.2217 31.9032 21.2396 31.8504 21.2502L31.4746 21.3139L31.3223 20.4427ZM31.6168 20.5914L31.698 21.0696L31.759 21.0589C31.8098 21.0483 31.8504 21.0377 31.8605 21.0164C31.891 21.0058 31.9012 20.9739 31.9113 20.9421V20.7933C31.891 20.6977 31.8605 20.6446 31.8301 20.6127C31.7996 20.5808 31.7488 20.5702 31.6777 20.5808L31.6168 20.5914ZM32.409 20.2939L33.0996 20.3258V20.5171L32.6629 20.4958L32.6527 20.6339L33.059 20.6552L33.0488 20.8358L32.6426 20.8146V20.9846L33.0895 21.0058L33.0793 21.2077L32.3684 21.1758L32.409 20.2939ZM33.4246 20.3789L33.6684 20.4427L33.516 21.0802L33.9223 21.1864L33.8613 21.3989L33.2215 21.2289L33.4246 20.3789ZM34.7652 20.8464L35.141 21.0802C35.2223 21.1227 35.273 21.1864 35.2832 21.2502C35.3035 21.3139 35.2832 21.3883 35.2527 21.4627C35.2355 21.4977 35.2111 21.5282 35.1813 21.5521C35.1514 21.5759 35.1168 21.5926 35.0801 21.6008C35.0191 21.6114 34.9379 21.6008 34.8465 21.5371L34.7246 21.4627L34.5621 21.7389L34.3387 21.6008L34.7652 20.8464ZM34.8059 21.3139L34.8668 21.3458L34.9684 21.3777C34.981 21.3761 34.9931 21.3714 35.0037 21.364C35.0142 21.3567 35.023 21.3468 35.0293 21.3352C35.0379 21.3112 35.0379 21.2848 35.0293 21.2608C35.0293 21.2289 35.009 21.2077 34.9684 21.1758L34.9074 21.1439L34.8059 21.3139ZM35.5371 22.3339L35.3238 22.1214L35.202 22.1958L34.9988 22.0152L35.8113 21.5902L36.0145 21.8027L35.6691 22.6633L35.466 22.4721L35.5371 22.3339ZM35.6184 22.1533L35.7605 21.8558L35.4863 22.0258L35.6184 22.1533ZM35.7199 22.7377L36.4207 22.2383L36.6543 22.6102L36.7559 22.7908L36.7457 22.9183C36.7251 22.968 36.6894 23.0091 36.6441 23.0352C36.6137 23.0671 36.573 23.0777 36.5426 23.0777C36.5009 23.0822 36.4588 23.0748 36.4207 23.0564C36.4004 23.0564 36.3699 23.0246 36.3395 23.0033L36.3598 23.0777L36.3395 23.1414C36.3346 23.1633 36.3278 23.1847 36.3191 23.2052L36.1871 23.4496L36.0246 23.2052L36.1566 22.9289L36.1871 22.8546C36.1895 22.828 36.1823 22.8014 36.1668 22.7802L36.1566 22.7589L35.8723 22.9714L35.7199 22.7377ZM36.2785 22.6739L36.3496 22.7696L36.3902 22.8121C36.4105 22.8333 36.4207 22.8333 36.441 22.8333C36.4586 22.8357 36.4764 22.8319 36.4918 22.8227C36.501 22.815 36.5085 22.8053 36.5137 22.7943C36.519 22.7833 36.5219 22.7712 36.5223 22.7589C36.5223 22.7377 36.5223 22.7058 36.4918 22.6633L36.4207 22.5677L36.2785 22.6739ZM36.5426 23.9914L36.441 23.6939L36.2887 23.7152L36.1871 23.4496L37.091 23.4389L37.1926 23.7152L36.5324 24.3527L36.4309 24.0764L36.5426 23.9914ZM36.6949 23.8639L36.9387 23.6514L36.6238 23.6833L36.6949 23.8639ZM36.9082 24.8202L37.0809 24.7989L37.1418 25.2133L36.7863 25.2664C36.734 25.2094 36.6896 25.1451 36.6543 25.0752C36.6236 25.0081 36.6031 24.9364 36.5934 24.8627C36.5752 24.7747 36.5787 24.6833 36.6035 24.5971C36.6326 24.5293 36.6781 24.4707 36.7355 24.4271C36.8014 24.3765 36.8781 24.3437 36.959 24.3314C37.0407 24.3176 37.1244 24.3249 37.2027 24.3527C37.2737 24.3822 37.3341 24.4342 37.3754 24.5014C37.416 24.5652 37.4363 24.6396 37.4566 24.7352V24.9477C37.4486 24.9986 37.4275 25.0464 37.3957 25.0858C37.3652 25.1283 37.3246 25.1496 37.2738 25.1814L37.1926 24.9264C37.223 24.9158 37.2434 24.8946 37.2637 24.8627C37.284 24.8308 37.2738 24.7989 37.2637 24.7564C37.2611 24.7312 37.2534 24.7067 37.2411 24.6848C37.2289 24.6628 37.2123 24.6438 37.1926 24.6289C37.152 24.5971 37.091 24.5864 36.9895 24.6077C36.9259 24.613 36.8655 24.639 36.8168 24.6821C36.7762 24.7246 36.766 24.7883 36.7762 24.8414C36.7762 24.8733 36.7863 24.9052 36.8066 24.9264L36.8574 25.0114H36.9387L36.9082 24.8202ZM37.4566 26.0952L37.4363 26.3714L36.9285 26.3289C36.8826 26.3224 36.838 26.308 36.7965 26.2864C36.7572 26.2661 36.7225 26.2371 36.6949 26.2014C36.667 26.1674 36.6462 26.1276 36.634 26.0846C36.6164 26.0226 36.6095 25.9578 36.6137 25.8933L36.634 25.7552L36.6848 25.6277C36.7065 25.5942 36.734 25.5654 36.766 25.5427C36.7967 25.5213 36.8313 25.5068 36.8676 25.5002C36.9137 25.486 36.9616 25.4788 37.0098 25.4789L37.5176 25.5321L37.4871 25.7977L36.9793 25.7552C36.9285 25.7552 36.8879 25.7552 36.8676 25.7871C36.8526 25.8002 36.8403 25.8164 36.8316 25.8347C36.8229 25.8529 36.8178 25.8729 36.8168 25.8933C36.8168 25.9358 36.8168 25.9783 36.8473 25.9996C36.8676 26.0314 36.898 26.0527 36.9488 26.0527L37.4566 26.0952ZM36.5324 27.0302L36.6238 26.7327L36.502 26.6477L36.5832 26.3821L37.2941 26.9771L37.1926 27.2533L36.2988 27.2958L36.3902 27.0302H36.5324ZM36.7254 27.0302L37.0301 27.0408L36.7762 26.8496L36.7254 27.0302ZM37.0301 27.7527L36.8777 28.0077H36.5426L36.6949 28.3158L36.5527 28.5708L36.2988 28.0183L35.9941 27.8271L36.1363 27.5933L36.441 27.7846L37.0301 27.7527Z" fill="black"/>
<path d="M33.3227 22.4507C33.3227 22.4507 35.6993 23.5238 35.2829 25.7338C34.8766 27.9438 33.5563 27.9226 33.0282 28.1776C32.5204 28.4113 32.1548 28.7619 31.9516 28.7088C31.7485 28.6663 31.4743 28.4963 31.4743 28.4963C31.4743 28.4963 31.454 28.8682 31.8704 28.9213C32.2868 28.9957 32.8352 28.3582 33.0891 28.2838C33.3532 28.2201 34.968 28.0288 35.3641 25.7869C35.8212 23.3857 33.3329 22.5251 33.3329 22.4507H33.3227Z" fill="#009B3A" stroke="black" stroke-width="0.00833333"/>
<path d="M34.5214 22.9292C34.5283 22.9863 34.529 23.0347 34.5236 23.0686C34.5181 23.1025 34.5067 23.1205 34.4907 23.1205C34.4747 23.1205 34.4547 23.1025 34.4331 23.0686C34.4116 23.0347 34.3894 22.9863 34.3691 22.9292C34.3513 22.879 34.3356 22.8238 34.3235 22.7687C34.3114 22.7136 34.3032 22.6603 34.2997 22.6137C34.2963 22.5672 34.2976 22.5289 34.3037 22.5023C34.3097 22.4758 34.3203 22.4619 34.3343 22.4619C34.3484 22.4619 34.3656 22.4758 34.3842 22.5023C34.4029 22.5289 34.4224 22.5672 34.4411 22.6137C34.4597 22.6603 34.4768 22.7136 34.4909 22.7687C34.5049 22.8238 34.5154 22.879 34.5214 22.9292V22.9292Z" fill="#009B3A" stroke="black" stroke-width="0.00833333"/>
<path d="M34.4401 22.9501C34.4607 22.9935 34.4793 23.0373 34.4947 23.0788C34.5102 23.1203 34.5223 23.1587 34.5302 23.1919C34.5382 23.2251 34.5419 23.2524 34.5412 23.2723C34.5405 23.2921 34.5353 23.3042 34.5259 23.3077C34.5166 23.3111 34.5033 23.306 34.4868 23.2926C34.4703 23.2792 34.4509 23.2578 34.4297 23.2295C34.4085 23.2012 34.386 23.1667 34.3634 23.1278C34.3408 23.089 34.3185 23.0467 34.2979 23.0032C34.2563 22.9154 34.2238 22.8284 34.2077 22.7613C34.1916 22.6943 34.1932 22.6526 34.2121 22.6456C34.2309 22.6386 34.2655 22.6667 34.3083 22.7238C34.3511 22.7809 34.3985 22.8623 34.4401 22.9501V22.9501ZM34.2065 23.1094C34.28 23.1344 34.347 23.1653 34.3947 23.1961C34.4423 23.227 34.4673 23.2557 34.4648 23.2767C34.4623 23.2978 34.4324 23.3097 34.3811 23.3102C34.3297 23.3107 34.2603 23.2997 34.1862 23.2794C34.1126 23.2545 34.0456 23.2236 33.998 23.1927C33.9503 23.1619 33.9254 23.1332 33.9279 23.1121C33.9304 23.0911 33.9602 23.0792 34.0116 23.0787C34.063 23.0782 34.1324 23.0891 34.2065 23.1094V23.1094Z" fill="#009B3A" stroke="black" stroke-width="0.00833333"/>
<path d="M34.2371 23.0245C34.3145 23.079 34.385 23.1385 34.433 23.1899C34.481 23.2414 34.5027 23.2806 34.4933 23.2989C34.4839 23.3172 34.4441 23.3132 34.3827 23.2876C34.3214 23.2621 34.2434 23.2171 34.166 23.1627C34.1277 23.1357 34.0907 23.1072 34.0571 23.0788C34.0235 23.0504 33.994 23.0227 33.9702 22.9972C33.9221 22.9458 33.9004 22.9066 33.9099 22.8883C33.9193 22.8699 33.9591 22.874 34.0205 22.8996C34.0818 22.9251 34.1598 22.9701 34.2371 23.0245V23.0245Z" fill="#009B3A" stroke="black" stroke-width="0.00833333"/>
<path d="M34.3386 22.9821C34.4008 23.0498 34.4551 23.1204 34.4895 23.1782C34.524 23.2361 34.5358 23.2765 34.5223 23.2906C34.5088 23.3047 34.4712 23.2913 34.4177 23.2534C34.3642 23.2154 34.2992 23.1561 34.237 23.0884C34.1748 23.0206 34.1205 22.9501 34.0861 22.8922C34.0516 22.8344 34.0398 22.794 34.0533 22.7799C34.0668 22.7658 34.1044 22.7792 34.1579 22.8171C34.2114 22.855 34.2764 22.9144 34.3386 22.9821V22.9821Z" fill="#009B3A" stroke="black" stroke-width="0.00833333"/>
<path d="M34.5011 23.2902L34.3996 23.354C34.3691 23.354 34.3386 23.3221 34.2777 23.354C34.2167 23.3859 34.1761 23.4496 34.166 23.4815C34.1558 23.5134 34.1863 23.5346 34.2574 23.4921C34.3285 23.4602 34.3488 23.3965 34.3792 23.3752L34.5113 23.3009L34.5925 23.1627C34.623 23.1202 34.7144 23.0565 34.755 22.9715C34.7855 22.9077 34.7753 22.8546 34.7347 22.8759C34.6817 22.908 34.6393 22.9562 34.6128 23.014C34.5925 23.0565 34.6128 23.1202 34.5824 23.1627L34.5011 23.2902V23.2902ZM35.2425 23.5452C35.2449 23.693 35.2354 23.8319 35.2161 23.9314C35.1969 24.0309 35.1694 24.0829 35.1397 24.0758C35.1101 24.0688 35.0808 24.0033 35.0581 23.8939C35.0355 23.7844 35.0215 23.6399 35.0191 23.4921C35.0167 23.3443 35.0262 23.2054 35.0455 23.1059C35.0648 23.0064 35.0922 22.9544 35.1219 22.9615C35.1515 22.9685 35.1809 23.034 35.2035 23.1435C35.2261 23.2529 35.2402 23.3975 35.2425 23.5452V23.5452Z" fill="#009B3A" stroke="black" stroke-width="0.00833333"/>
<path d="M35.1205 23.5348C35.1511 23.6842 35.1687 23.8281 35.1694 23.9348C35.1701 24.0415 35.1539 24.1022 35.1242 24.1036C35.0946 24.105 35.054 24.047 35.0114 23.9423C34.9688 23.8376 34.9277 23.6949 34.8971 23.5454C34.8829 23.4755 34.8715 23.4062 34.8638 23.3416C34.856 23.2769 34.852 23.2182 34.8518 23.1687C34.8517 23.1193 34.8555 23.08 34.863 23.0532C34.8705 23.0265 34.8815 23.0127 34.8955 23.0127C34.9095 23.0127 34.9262 23.0265 34.9446 23.0532C34.963 23.08 34.9827 23.1193 35.0026 23.1687C35.0226 23.2182 35.0423 23.2769 35.0608 23.3416C35.0793 23.4062 35.0961 23.4755 35.1103 23.5454L35.1205 23.5348Z" fill="#009B3A" stroke="black" stroke-width="0.00833333"/>
<path d="M34.7343 23.662C34.7863 23.6988 34.8369 23.7382 34.8833 23.778C34.9296 23.8179 34.9706 23.8573 35.0041 23.8942C35.0376 23.931 35.0629 23.9645 35.0785 23.9928C35.0941 24.021 35.0998 24.0434 35.0951 24.0588C35.0904 24.0741 35.0755 24.0821 35.0513 24.0822C35.0271 24.0823 34.994 24.0746 34.9539 24.0595C34.9138 24.0443 34.8674 24.0221 34.8176 23.994C34.7677 23.9659 34.7152 23.9325 34.6632 23.8958C34.6111 23.859 34.5605 23.8196 34.5142 23.7798C34.4679 23.7399 34.4268 23.7005 34.3933 23.6636C34.3598 23.6268 34.3345 23.5933 34.3189 23.565C34.3033 23.5368 34.2977 23.5144 34.3024 23.499C34.307 23.4837 34.3219 23.4757 34.3461 23.4756C34.3704 23.4755 34.4035 23.4832 34.4436 23.4983C34.4837 23.5135 34.53 23.5357 34.5799 23.5638C34.6298 23.5919 34.6822 23.6253 34.7343 23.662V23.662Z" fill="#009B3A" stroke="black" stroke-width="0.00833333"/>
<path d="M34.8158 23.5453C34.9056 23.6592 34.9842 23.7774 35.0343 23.8739C35.0844 23.9704 35.102 24.0373 35.0831 24.0598C35.0643 24.0824 35.0105 24.0587 34.9337 23.9941C34.8569 23.9295 34.7634 23.8292 34.6736 23.7153C34.5867 23.6046 34.5109 23.4902 34.4628 23.397C34.4146 23.3038 34.3982 23.2396 34.417 23.2185C34.4359 23.1973 34.4885 23.221 34.5633 23.2843C34.6381 23.3476 34.7289 23.4453 34.8158 23.5559V23.5453Z" fill="#009B3A" stroke="black" stroke-width="0.00833333"/>
<path d="M34.9681 23.5345C35.035 23.6648 35.0895 23.7954 35.1197 23.8976C35.1499 23.9997 35.1532 24.065 35.1289 24.0791C35.1047 24.0932 35.0549 24.0549 34.9904 23.9727C34.926 23.8905 34.8522 23.7711 34.7853 23.6407C34.7522 23.5762 34.7217 23.5109 34.6957 23.4486C34.6697 23.3863 34.6486 23.3282 34.6337 23.2776C34.6035 23.1755 34.6002 23.1102 34.6244 23.0961C34.6487 23.082 34.6985 23.1203 34.763 23.2025C34.8274 23.2847 34.9012 23.4041 34.9681 23.5345V23.5345Z" fill="#009B3A" stroke="black" stroke-width="0.00833333"/>
<path d="M35.1001 24.0551L34.9172 24.0976C34.8868 24.0976 34.8563 24.0232 34.7649 24.0445C34.6735 24.0657 34.5922 24.1295 34.5618 24.172C34.5415 24.2145 34.5719 24.257 34.6837 24.2357C34.8055 24.2145 34.8462 24.1295 34.9071 24.1295C34.9579 24.1082 35.0493 24.087 35.1102 24.087C35.1305 24.0445 35.2118 23.9595 35.2626 23.917C35.3133 23.8638 35.4657 23.8107 35.5368 23.7257C35.6079 23.6407 35.6079 23.5557 35.5368 23.5663C35.459 23.5938 35.3892 23.6413 35.3337 23.7045C35.2829 23.7682 35.293 23.8638 35.2422 23.917L35.1001 24.0551ZM35.618 24.5757C35.5953 24.7177 35.5628 24.8482 35.5277 24.9387C35.4926 25.0291 35.4578 25.072 35.4308 25.0579C35.4039 25.0438 35.3871 24.9739 35.3841 24.8635C35.3811 24.7532 35.3922 24.6114 35.4149 24.4695C35.4262 24.3992 35.4399 24.3309 35.4554 24.2686C35.4709 24.2064 35.4878 24.1513 35.5052 24.1065C35.5226 24.0617 35.5401 24.0281 35.5567 24.0077C35.5733 23.9872 35.5888 23.9803 35.6021 23.9873C35.6154 23.9942 35.6264 24.015 35.6345 24.0483C35.6425 24.0817 35.6474 24.127 35.6488 24.1816C35.6503 24.2363 35.6484 24.2992 35.6431 24.3668C35.6378 24.4344 35.6293 24.5054 35.618 24.5757V24.5757Z" fill="#009B3A" stroke="black" stroke-width="0.00833333"/>
<path d="M35.5063 24.5441C35.5097 24.6181 35.5101 24.6925 35.5075 24.7624C35.5049 24.8322 35.4994 24.896 35.4913 24.9496C35.4831 25.0031 35.4726 25.0454 35.4603 25.0734C35.4481 25.1015 35.4344 25.1149 35.4201 25.1127C35.4058 25.1104 35.3913 25.0926 35.3774 25.0604C35.3636 25.0282 35.3508 24.9824 35.3397 24.9258C35.3287 24.8692 35.3198 24.8031 35.3135 24.7319C35.3072 24.6607 35.3037 24.5858 35.3032 24.5122C35.2998 24.4381 35.2994 24.3637 35.302 24.2939C35.3046 24.2241 35.3101 24.1603 35.3182 24.1067C35.3264 24.0531 35.3369 24.0109 35.3491 23.9828C35.3614 23.9547 35.3751 23.9414 35.3894 23.9436C35.4037 23.9458 35.4182 23.9636 35.432 23.9958C35.4459 24.028 35.4587 24.0739 35.4697 24.1305C35.4808 24.1871 35.4897 24.2531 35.496 24.3243C35.5023 24.3956 35.5058 24.4704 35.5063 24.5441V24.5441Z" fill="#009B3A" stroke="black" stroke-width="0.00833333"/>
<path d="M35.1103 24.5863C35.1627 24.6339 35.2159 24.6881 35.2656 24.7447C35.3154 24.8012 35.3604 24.8586 35.3971 24.9123C35.4338 24.966 35.4612 25.0145 35.4771 25.054C35.4931 25.0936 35.4971 25.123 35.4889 25.1401C35.4808 25.1572 35.4606 25.1615 35.43 25.1525C35.3995 25.1436 35.3594 25.1217 35.3128 25.0886C35.2663 25.0556 35.2146 25.0122 35.1618 24.9619C35.1091 24.9116 35.0566 24.8558 35.0087 24.7988C34.9563 24.7512 34.9032 24.697 34.8534 24.6404C34.8036 24.5839 34.7586 24.5265 34.7219 24.4728C34.6852 24.4191 34.6578 24.3706 34.6419 24.3311C34.626 24.2916 34.6219 24.2621 34.6301 24.245C34.6383 24.2279 34.6584 24.2236 34.689 24.2326C34.7195 24.2415 34.7597 24.2634 34.8062 24.2965C34.8528 24.3295 34.9044 24.3729 34.9572 24.4232C35.01 24.4735 35.0624 24.5293 35.1103 24.5863Z" fill="#009B3A" stroke="black" stroke-width="0.00833333"/>
<path d="M35.212 24.4911C35.2457 24.5558 35.2768 24.6217 35.3036 24.6849C35.3304 24.7482 35.3523 24.8076 35.3681 24.8598C35.3839 24.9119 35.3933 24.9559 35.3957 24.989C35.3981 25.0222 35.3935 25.0439 35.3822 25.0529C35.3708 25.062 35.353 25.0583 35.3296 25.0419C35.3063 25.0255 35.2778 24.9968 35.246 24.9574C35.2142 24.9181 35.1795 24.8689 35.1441 24.8125C35.1086 24.7562 35.073 24.6939 35.0393 24.6292C35.0056 24.5645 34.9745 24.4986 34.9477 24.4353C34.9209 24.3721 34.899 24.3127 34.8832 24.2605C34.8674 24.2083 34.858 24.1644 34.8556 24.1313C34.8532 24.0981 34.8578 24.0764 34.8691 24.0673C34.8805 24.0582 34.8983 24.062 34.9217 24.0784C34.945 24.0948 34.9735 24.1235 35.0053 24.1628C35.0371 24.2022 35.0718 24.2514 35.1072 24.3077C35.1427 24.3641 35.1783 24.4264 35.212 24.4911V24.4911Z" fill="#009B3A" stroke="black" stroke-width="0.00833333"/>
<path d="M35.3542 24.5121C35.3963 24.6506 35.4264 24.7874 35.438 24.8923C35.4496 24.9973 35.4418 25.0618 35.4162 25.0716C35.3906 25.0815 35.3494 25.0359 35.3016 24.9449C35.2538 24.854 35.2033 24.725 35.1613 24.5865C35.1395 24.5146 35.1206 24.4425 35.1056 24.3743C35.0907 24.3061 35.0799 24.243 35.0739 24.1888C35.068 24.1345 35.067 24.0901 35.071 24.0581C35.075 24.0261 35.0839 24.0071 35.0973 24.0022C35.1106 23.9974 35.1281 24.0067 35.1487 24.0296C35.1694 24.0526 35.1928 24.0888 35.2176 24.1362C35.2424 24.1835 35.2681 24.2411 35.2933 24.3056C35.3185 24.3701 35.3427 24.4403 35.3644 24.5121H35.3542Z" fill="#009B3A" stroke="black" stroke-width="0.00833333"/>
<path d="M35.3947 25.0538H35.222C35.1915 25.0538 35.1712 24.9688 35.0798 24.9688C35.0014 24.9701 34.9259 25.0002 34.8665 25.0538C34.8259 25.0963 34.8564 25.1388 34.9681 25.1388C35.0798 25.1388 35.1408 25.0856 35.2017 25.075H35.4048L35.5876 24.9475C35.6486 24.905 35.8009 24.8838 35.8923 24.8094C35.9634 24.7456 35.9837 24.6606 35.9228 24.6606C35.8385 24.6716 35.7582 24.7045 35.6892 24.7563C35.6384 24.7988 35.6283 24.8944 35.5673 24.9369C35.5267 24.9581 35.4048 25.0538 35.3947 25.0431M35.6486 25.7231C35.577 25.8422 35.5009 25.9469 35.4369 26.0141C35.373 26.0814 35.3265 26.1057 35.3076 26.0817C35.2888 26.0578 35.2991 25.9875 35.3364 25.8864C35.3737 25.7853 35.4348 25.6616 35.5064 25.5425C35.578 25.4235 35.6541 25.3188 35.718 25.2515C35.782 25.1843 35.8285 25.16 35.8474 25.1839C35.8662 25.2079 35.8559 25.2781 35.8186 25.3793C35.7813 25.4804 35.7202 25.6041 35.6486 25.7231" fill="#009B3A"/>
<path d="M35.3947 25.0538H35.222C35.1915 25.0538 35.1712 24.9688 35.0798 24.9688C35.0014 24.9701 34.9259 25.0002 34.8665 25.0538C34.8259 25.0963 34.8564 25.1388 34.9681 25.1388C35.0798 25.1388 35.1408 25.0856 35.2017 25.075H35.4048L35.5876 24.9475C35.6486 24.905 35.8009 24.8838 35.8923 24.8094C35.9634 24.7456 35.9837 24.6606 35.9228 24.6606C35.8385 24.6716 35.7582 24.7045 35.6892 24.7563C35.6384 24.7988 35.6283 24.8944 35.5673 24.9369C35.5267 24.9581 35.4048 25.0538 35.3947 25.0431M35.6486 25.7231C35.577 25.8422 35.5009 25.9469 35.4369 26.0141C35.373 26.0814 35.3265 26.1057 35.3076 26.0817C35.2888 26.0578 35.2991 25.9875 35.3364 25.8864C35.3737 25.7853 35.4348 25.6616 35.5064 25.5425C35.578 25.4235 35.6541 25.3188 35.718 25.2515C35.782 25.1843 35.8285 25.16 35.8474 25.1839C35.8662 25.2079 35.8559 25.2781 35.8186 25.3793C35.7813 25.4804 35.7202 25.6041 35.6486 25.7231" stroke="black" stroke-width="0.00833333"/>
<path d="M35.5572 25.6381C35.5071 25.7744 35.4495 25.8989 35.3969 25.9843C35.3443 26.0696 35.3012 26.1089 35.277 26.0934C35.2527 26.0779 35.2494 26.0089 35.2676 25.9016C35.2859 25.7943 35.3243 25.6575 35.3744 25.5213C35.4245 25.385 35.4822 25.2605 35.5347 25.1752C35.5873 25.0898 35.6304 25.0505 35.6547 25.066C35.6789 25.0815 35.6823 25.1505 35.664 25.2578C35.6457 25.3651 35.6073 25.5019 35.5572 25.6381ZM35.1814 25.5106C35.2323 25.6499 35.2714 25.7919 35.2902 25.9054C35.309 26.0188 35.306 26.0944 35.2817 26.1156C35.2575 26.1367 35.214 26.1016 35.1609 26.0181C35.1079 25.9345 35.0495 25.8093 34.9986 25.67C34.9478 25.5307 34.9087 25.3887 34.8899 25.2753C34.8711 25.1618 34.8741 25.0862 34.8984 25.0651C34.9226 25.044 34.9661 25.079 35.0191 25.1626C35.0722 25.2461 35.1306 25.3713 35.1814 25.5106" fill="#009B3A"/>
<path d="M35.1814 25.5106C35.2323 25.6499 35.2714 25.7919 35.2902 25.9054C35.309 26.0188 35.306 26.0944 35.2817 26.1156C35.2575 26.1367 35.214 26.1016 35.1609 26.0181C35.1079 25.9345 35.0495 25.8093 34.9986 25.67C34.9478 25.5307 34.9087 25.3887 34.8899 25.2753C34.8711 25.1618 34.8741 25.0862 34.8984 25.0651C34.9226 25.044 34.9661 25.079 35.0191 25.1626C35.0722 25.2461 35.1306 25.3713 35.1814 25.5106M35.5572 25.6381C35.5071 25.7744 35.4495 25.8989 35.3969 25.9843C35.3443 26.0696 35.3012 26.1089 35.277 26.0934C35.2527 26.0779 35.2494 26.0089 35.2676 25.9016C35.2859 25.7943 35.3243 25.6575 35.3744 25.5213C35.4245 25.385 35.4822 25.2605 35.5347 25.1752C35.5873 25.0898 35.6304 25.0505 35.6547 25.066C35.6789 25.0815 35.6823 25.1505 35.664 25.2578C35.6457 25.3651 35.6073 25.5019 35.5572 25.6381Z" stroke="black" stroke-width="0.00833333"/>
<path d="M35.3034 25.4681C35.3162 25.6137 35.3177 25.7562 35.3078 25.8642C35.2978 25.9721 35.277 26.0367 35.2501 26.0438C35.2231 26.0508 35.1922 25.9997 35.1641 25.9017C35.136 25.8037 35.113 25.6668 35.1002 25.5212C35.0939 25.4491 35.0903 25.377 35.0895 25.309C35.0887 25.241 35.0909 25.1786 35.0959 25.1251C35.1008 25.0716 35.1084 25.0283 35.1183 24.9974C35.1282 24.9666 35.1402 24.949 35.1535 24.9455C35.1669 24.942 35.1813 24.9527 35.1961 24.9771C35.2108 25.0015 35.2256 25.039 35.2395 25.0875C35.2534 25.1361 35.2662 25.1946 35.2772 25.2599C35.2881 25.3252 35.297 25.3959 35.3034 25.4681" fill="#009B3A"/>
<path d="M35.3034 25.4681C35.3162 25.6137 35.3177 25.7562 35.3078 25.8642C35.2978 25.9721 35.277 26.0367 35.2501 26.0438C35.2231 26.0508 35.1922 25.9997 35.1641 25.9017C35.136 25.8037 35.113 25.6668 35.1002 25.5212C35.0939 25.4491 35.0903 25.377 35.0895 25.309C35.0887 25.241 35.0909 25.1786 35.0959 25.1251C35.1008 25.0716 35.1084 25.0283 35.1183 24.9974C35.1282 24.9666 35.1402 24.949 35.1535 24.9455C35.1669 24.942 35.1813 24.9527 35.1961 24.9771C35.2108 25.0015 35.2256 25.039 35.2395 25.0875C35.2534 25.1361 35.2662 25.1946 35.2772 25.2599C35.2881 25.3252 35.297 25.3959 35.3034 25.4681" stroke="black" stroke-width="0.00833333"/>
<path d="M35.4454 25.5428C35.4322 25.6887 35.4088 25.8281 35.3804 25.9303C35.3521 26.0324 35.321 26.089 35.2941 26.0876C35.2671 26.0862 35.2465 26.0269 35.2368 25.9227C35.2271 25.8186 35.229 25.6781 35.2422 25.5322C35.2488 25.4599 35.2579 25.3885 35.269 25.322C35.2801 25.2556 35.2931 25.1953 35.3071 25.1447C35.3212 25.0941 35.3361 25.0542 35.3509 25.0272C35.3657 25.0002 35.3802 24.9866 35.3935 24.9873C35.4205 24.9887 35.4411 25.0481 35.4508 25.1522C35.4605 25.2564 35.4585 25.3969 35.4454 25.5428Z" fill="#009B3A" stroke="black" stroke-width="0.00833333"/>
<path d="M35.2727 26.0635C35.2727 26.0635 35.1305 26.0104 35.1102 25.9891C35.0797 25.9679 35.1 25.9041 35.0086 25.851C34.9367 25.8224 34.8572 25.8224 34.7852 25.851C34.7344 25.851 34.7446 25.9148 34.8461 25.9573C34.9477 26.021 35.0289 25.9785 35.0797 25.9998L35.2625 26.0954C35.3133 26.0741 35.425 26.0635 35.486 26.0529C35.5469 26.0423 35.6993 26.0954 35.811 26.0529C35.9024 26.021 35.943 25.9466 35.8821 25.9254C35.8055 25.9042 35.725 25.9042 35.6485 25.9254C35.5774 25.936 35.5368 26.0316 35.4657 26.0316C35.4149 26.0316 35.2727 26.0741 35.2625 26.0635M35.3641 26.8816C35.3039 26.9416 35.2394 26.9994 35.1753 27.0507C35.1112 27.102 35.0493 27.1455 34.994 27.1778C34.9387 27.2102 34.8916 27.2307 34.8561 27.2377C34.8206 27.2448 34.7977 27.2382 34.7891 27.2185C34.7804 27.1988 34.7863 27.1665 34.8062 27.124C34.8262 27.0814 34.8597 27.0298 34.9042 26.9729C34.9487 26.916 35.0032 26.8553 35.0635 26.7954C35.1237 26.7354 35.1883 26.6777 35.2524 26.6266C35.3134 26.5632 35.3805 26.501 35.4482 26.4452C35.5158 26.3893 35.582 26.3414 35.6414 26.3054C35.7008 26.2694 35.7516 26.2463 35.7897 26.238C35.8278 26.2298 35.8521 26.2365 35.8605 26.2578C35.869 26.2791 35.8614 26.3142 35.8384 26.3603C35.8154 26.4065 35.7776 26.4623 35.7281 26.5232C35.6787 26.5841 35.619 26.6484 35.5539 26.7107C35.4889 26.773 35.4203 26.8316 35.3539 26.8816" fill="#009B3A"/>
<path d="M35.2727 26.0635C35.2727 26.0635 35.1305 26.0104 35.1102 25.9891C35.0797 25.9679 35.1 25.9041 35.0086 25.851C34.9367 25.8224 34.8572 25.8224 34.7852 25.851C34.7344 25.851 34.7446 25.9148 34.8461 25.9573C34.9477 26.021 35.0289 25.9785 35.0797 25.9998L35.2625 26.0954C35.3133 26.0741 35.425 26.0635 35.486 26.0529C35.5469 26.0423 35.6993 26.0954 35.811 26.0529C35.9024 26.021 35.943 25.9466 35.8821 25.9254C35.8055 25.9042 35.725 25.9042 35.6485 25.9254C35.5774 25.936 35.5368 26.0316 35.4657 26.0316C35.4149 26.0316 35.2727 26.0741 35.2625 26.0635M35.3641 26.8816C35.3039 26.9416 35.2394 26.9994 35.1753 27.0507C35.1112 27.102 35.0493 27.1455 34.994 27.1778C34.9387 27.2102 34.8916 27.2307 34.8561 27.2377C34.8206 27.2448 34.7977 27.2382 34.7891 27.2185C34.7804 27.1988 34.7863 27.1665 34.8062 27.124C34.8262 27.0814 34.8597 27.0298 34.9042 26.9729C34.9487 26.916 35.0032 26.8553 35.0635 26.7954C35.1237 26.7354 35.1883 26.6777 35.2524 26.6266C35.3134 26.5632 35.3805 26.501 35.4482 26.4452C35.5158 26.3893 35.582 26.3414 35.6414 26.3054C35.7008 26.2694 35.7516 26.2463 35.7897 26.238C35.8278 26.2298 35.8521 26.2365 35.8605 26.2578C35.869 26.2791 35.8614 26.3142 35.8384 26.3603C35.8154 26.4065 35.7776 26.4623 35.7281 26.5232C35.6787 26.5841 35.619 26.6484 35.5539 26.7107C35.4889 26.773 35.4203 26.8316 35.3539 26.8816" stroke="black" stroke-width="0.00833333"/>
<path d="M35.2729 26.7643C35.176 26.8932 35.075 27.0056 34.9922 27.0768C34.9094 27.148 34.8515 27.1722 34.8313 27.144C34.8111 27.1158 34.8303 27.0376 34.8845 26.9265C34.9387 26.8155 35.0236 26.6807 35.1205 26.5518C35.1685 26.488 35.218 26.4276 35.2661 26.3739C35.3143 26.3203 35.3602 26.2746 35.4012 26.2393C35.4422 26.2041 35.4775 26.18 35.5051 26.1685C35.5327 26.1569 35.552 26.1582 35.562 26.1721C35.572 26.1861 35.5725 26.2125 35.5634 26.2498C35.5542 26.2871 35.5357 26.3346 35.5089 26.3896C35.482 26.4446 35.4474 26.506 35.4069 26.5703C35.3664 26.6346 35.3208 26.7005 35.2729 26.7643" fill="#009B3A"/>
<path d="M35.2729 26.7643C35.176 26.8932 35.075 27.0056 34.9922 27.0768C34.9094 27.148 34.8515 27.1722 34.8313 27.144C34.8111 27.1158 34.8303 27.0376 34.8845 26.9265C34.9387 26.8155 35.0236 26.6807 35.1205 26.5518C35.1685 26.488 35.218 26.4276 35.2661 26.3739C35.3143 26.3203 35.3602 26.2746 35.4012 26.2393C35.4422 26.2041 35.4775 26.18 35.5051 26.1685C35.5327 26.1569 35.552 26.1582 35.562 26.1721C35.572 26.1861 35.5725 26.2125 35.5634 26.2498C35.5542 26.2871 35.5357 26.3346 35.5089 26.3896C35.482 26.4446 35.4474 26.506 35.4069 26.5703C35.3664 26.6346 35.3208 26.7005 35.2729 26.7643" stroke="black" stroke-width="0.00833333"/>
<path d="M34.907 26.4777C34.9202 26.5622 34.9292 26.6545 34.9332 26.7469C34.9372 26.8393 34.936 26.9292 34.9299 27.0091C34.9237 27.0891 34.9128 27.1569 34.8978 27.2068C34.8829 27.2567 34.8645 27.2874 34.8441 27.2963C34.8237 27.3052 34.8019 27.292 34.7806 27.2579C34.7592 27.2238 34.7388 27.1697 34.7211 27.1001C34.7035 27.0305 34.689 26.9474 34.6789 26.8577C34.6689 26.7679 34.6635 26.6741 34.6633 26.584C34.65 26.4995 34.6411 26.4072 34.6371 26.3148C34.6331 26.2224 34.6342 26.1325 34.6404 26.0525C34.6465 25.9726 34.6575 25.9048 34.6724 25.8549C34.6873 25.805 34.7057 25.7743 34.7261 25.7654C34.7465 25.7565 34.7683 25.7697 34.7897 25.8038C34.8111 25.8379 34.8315 25.8919 34.8491 25.9615C34.8668 26.0311 34.8813 26.1142 34.8913 26.204C34.9014 26.2937 34.9068 26.3876 34.907 26.4777" fill="#009B3A"/>
<path d="M34.907 26.4777C34.9202 26.5622 34.9292 26.6545 34.9332 26.7469C34.9372 26.8393 34.936 26.9292 34.9299 27.0091C34.9237 27.0891 34.9128 27.1569 34.8978 27.2068C34.8829 27.2567 34.8645 27.2874 34.8441 27.2963C34.8237 27.3052 34.8019 27.292 34.7806 27.2579C34.7592 27.2238 34.7388 27.1697 34.7211 27.1001C34.7035 27.0305 34.689 26.9474 34.6789 26.8577C34.6689 26.7679 34.6635 26.6741 34.6633 26.584C34.65 26.4995 34.6411 26.4072 34.6371 26.3148C34.6331 26.2224 34.6342 26.1325 34.6404 26.0525C34.6465 25.9726 34.6575 25.9048 34.6724 25.8549C34.6873 25.805 34.7057 25.7743 34.7261 25.7654C34.7465 25.7565 34.7683 25.7697 34.7897 25.8038C34.8111 25.8379 34.8315 25.8919 34.8491 25.9615C34.8668 26.0311 34.8813 26.1142 34.8913 26.204C34.9014 26.2937 34.9068 26.3876 34.907 26.4777" stroke="black" stroke-width="0.00833333"/>
<path d="M35.0497 26.4777C35.0179 26.6026 34.9814 26.7111 34.9454 26.7873C34.9095 26.8634 34.876 26.9032 34.8498 26.9009C34.8237 26.8985 34.8063 26.854 34.8002 26.774C34.7942 26.6941 34.7997 26.5827 34.8161 26.4564C34.8274 26.3637 34.8443 26.2651 34.8655 26.1688C34.8867 26.0724 34.9115 25.9811 34.938 25.9024C34.9644 25.8237 34.9917 25.7598 35.0175 25.7161C35.0434 25.6724 35.0671 25.65 35.0866 25.6509C35.1062 25.6518 35.1211 25.6759 35.13 25.7212C35.139 25.7665 35.1418 25.8318 35.1382 25.9115C35.1346 25.9913 35.1247 26.0832 35.1093 26.1798C35.0939 26.2764 35.0735 26.3749 35.0497 26.4671" fill="#009B3A"/>
<path d="M35.0497 26.4777C35.0179 26.6026 34.9814 26.7111 34.9454 26.7873C34.9095 26.8634 34.876 26.9032 34.8498 26.9009C34.8237 26.8985 34.8063 26.854 34.8002 26.774C34.7942 26.6941 34.7997 26.5827 34.8161 26.4564C34.8274 26.3637 34.8443 26.2651 34.8655 26.1688C34.8867 26.0724 34.9115 25.9811 34.938 25.9024C34.9644 25.8237 34.9917 25.7598 35.0175 25.7161C35.0434 25.6724 35.0671 25.65 35.0866 25.6509C35.1062 25.6518 35.1211 25.6759 35.13 25.7212C35.139 25.7665 35.1418 25.8318 35.1382 25.9115C35.1346 25.9913 35.1247 26.0832 35.1093 26.1798C35.0939 26.2764 35.0735 26.3749 35.0497 26.4671" stroke="black" stroke-width="0.00833333"/>
<path d="M35.1712 26.6051C35.143 26.6971 35.108 26.7942 35.069 26.888C35.0301 26.9819 34.9884 27.0698 34.9475 27.1441C34.9066 27.2184 34.8678 27.277 34.8343 27.3148C34.8008 27.3527 34.7737 27.3686 34.7553 27.3612C34.7369 27.3539 34.7277 27.3235 34.7286 27.2727C34.7294 27.2219 34.7403 27.1522 34.7602 27.0695C34.7801 26.9868 34.8085 26.8936 34.8429 26.7979C34.8773 26.7022 34.9168 26.6069 34.9579 26.5201C34.986 26.4281 35.0211 26.331 35.06 26.2372C35.099 26.1433 35.1407 26.0554 35.1816 25.9811C35.2225 25.9067 35.2613 25.8482 35.2948 25.8103C35.3282 25.7725 35.3553 25.7566 35.3737 25.7639C35.3922 25.7713 35.4013 25.8017 35.4005 25.8525C35.3996 25.9033 35.3888 25.973 35.3689 26.0557C35.349 26.1384 35.3206 26.2316 35.2861 26.3273C35.2517 26.4229 35.2123 26.5183 35.1712 26.6051" fill="#009B3A"/>
<path d="M35.1712 26.6051C35.143 26.6971 35.108 26.7942 35.069 26.888C35.0301 26.9819 34.9884 27.0698 34.9475 27.1441C34.9066 27.2184 34.8678 27.277 34.8343 27.3148C34.8008 27.3527 34.7737 27.3686 34.7553 27.3612C34.7369 27.3539 34.7277 27.3235 34.7286 27.2727C34.7294 27.2219 34.7403 27.1522 34.7602 27.0695C34.7801 26.9868 34.8085 26.8936 34.8429 26.7979C34.8773 26.7022 34.9168 26.6069 34.9579 26.5201C34.986 26.4281 35.0211 26.331 35.06 26.2372C35.099 26.1433 35.1407 26.0554 35.1816 25.9811C35.2225 25.9067 35.2613 25.8482 35.2948 25.8103C35.3282 25.7725 35.3553 25.7566 35.3737 25.7639C35.3922 25.7713 35.4013 25.8017 35.4005 25.8525C35.3996 25.9033 35.3888 25.973 35.3689 26.0557C35.349 26.1384 35.3206 26.2316 35.2861 26.3273C35.2517 26.4229 35.2123 26.5183 35.1712 26.6051" stroke="black" stroke-width="0.00833333"/>
<path d="M34.8362 27.1259C34.779 27.0801 34.7247 27.0304 34.6737 26.9772C34.6534 26.9453 34.6839 26.8709 34.6026 26.7859C34.5214 26.7009 34.4198 26.6797 34.3589 26.6797C34.2979 26.6903 34.298 26.7541 34.3894 26.8497C34.4909 26.9559 34.5925 26.9347 34.6331 26.9772C34.694 27.0197 34.7753 27.0941 34.8058 27.1472L35.0698 27.1897C35.1409 27.1897 35.2933 27.3066 35.4253 27.3066C35.5269 27.3066 35.6081 27.2534 35.5472 27.2003C35.4698 27.1409 35.3786 27.1042 35.2831 27.0941C35.2019 27.0941 35.1308 27.1791 35.0597 27.1578L34.8261 27.1259M34.5925 27.9016C34.4329 27.9289 34.2815 27.9389 34.1715 27.9293C34.0615 27.9198 34.002 27.8914 34.0061 27.8506C34.0101 27.8097 34.0774 27.7597 34.193 27.7114C34.3087 27.6632 34.4634 27.6208 34.6229 27.5934C34.702 27.5799 34.7798 27.5705 34.852 27.5657C34.9243 27.561 34.9895 27.5609 35.0439 27.5657C35.0984 27.5704 35.141 27.5798 35.1694 27.5933C35.1978 27.6068 35.2114 27.6242 35.2094 27.6444C35.2074 27.6647 35.1898 27.6874 35.1578 27.7112C35.1257 27.7351 35.0797 27.7597 35.0224 27.7836C34.9651 27.8074 34.8977 27.8301 34.8239 27.8504C34.7501 27.8706 34.6715 27.888 34.5925 27.9016" fill="#009B3A"/>
<path d="M34.8362 27.1259C34.779 27.0801 34.7247 27.0304 34.6737 26.9772C34.6534 26.9453 34.6839 26.8709 34.6026 26.7859C34.5214 26.7009 34.4198 26.6797 34.3589 26.6797C34.2979 26.6903 34.298 26.7541 34.3894 26.8497C34.4909 26.9559 34.5925 26.9347 34.6331 26.9772C34.694 27.0197 34.7753 27.0941 34.8058 27.1472L35.0698 27.1897C35.1409 27.1897 35.2933 27.3066 35.4253 27.3066C35.5269 27.3066 35.6081 27.2534 35.5472 27.2003C35.4698 27.1409 35.3786 27.1042 35.2831 27.0941C35.2019 27.0941 35.1308 27.1791 35.0597 27.1578L34.8261 27.1259M34.5925 27.9016C34.4329 27.9289 34.2815 27.9389 34.1715 27.9293C34.0615 27.9198 34.002 27.8914 34.0061 27.8506C34.0101 27.8097 34.0774 27.7597 34.193 27.7114C34.3087 27.6632 34.4634 27.6208 34.6229 27.5934C34.702 27.5799 34.7798 27.5705 34.852 27.5657C34.9243 27.561 34.9895 27.5609 35.0439 27.5657C35.0984 27.5704 35.141 27.5798 35.1694 27.5933C35.1978 27.6068 35.2114 27.6242 35.2094 27.6444C35.2074 27.6647 35.1898 27.6874 35.1578 27.7112C35.1257 27.7351 35.0797 27.7597 35.0224 27.7836C34.9651 27.8074 34.8977 27.8301 34.8239 27.8504C34.7501 27.8706 34.6715 27.888 34.5925 27.9016" stroke="black" stroke-width="0.00833333"/>
<path d="M34.5825 27.7313C34.4215 27.7962 34.2644 27.8439 34.1458 27.8638C34.0272 27.8838 33.9567 27.8744 33.95 27.8378C33.9433 27.8011 34.0008 27.7402 34.1099 27.6685C34.219 27.5967 34.3707 27.52 34.5318 27.4551C34.6986 27.388 34.8612 27.3387 34.9839 27.3181C35.1066 27.2976 35.1794 27.3074 35.1861 27.3454C35.1928 27.3835 35.133 27.4466 35.0198 27.521C34.9066 27.5954 34.7493 27.6748 34.5825 27.742" fill="#009B3A"/>
<path d="M34.5825 27.7313C34.4215 27.7962 34.2644 27.8439 34.1458 27.8638C34.0272 27.8838 33.9567 27.8744 33.95 27.8378C33.9433 27.8011 34.0008 27.7402 34.1099 27.6685C34.219 27.5967 34.3707 27.52 34.5318 27.4551C34.6986 27.388 34.8612 27.3387 34.9839 27.3181C35.1066 27.2976 35.1794 27.3074 35.1861 27.3454C35.1928 27.3835 35.133 27.4466 35.0198 27.521C34.9066 27.5954 34.7493 27.6748 34.5825 27.742" stroke="black" stroke-width="0.00833333"/>
<path d="M34.369 27.2425C34.3038 27.3702 34.2337 27.4825 34.1703 27.5607C34.1069 27.6388 34.0541 27.6781 34.0208 27.6719C33.9875 27.6657 33.9756 27.6143 33.9873 27.5265C33.9989 27.4386 34.0333 27.3196 34.0846 27.1893C34.118 27.1047 34.1575 27.0181 34.2002 26.9358C34.2429 26.8535 34.2877 26.7775 34.3314 26.7136C34.3751 26.6496 34.4165 26.5991 34.4527 26.5659C34.4889 26.5327 34.5189 26.5176 34.5405 26.5216C34.5622 26.5257 34.5749 26.5488 34.5778 26.5893C34.5807 26.6298 34.5736 26.6867 34.5572 26.7557C34.5408 26.8248 34.5153 26.9044 34.4828 26.9886C34.4502 27.0728 34.4114 27.1595 34.369 27.2425" fill="#009B3A"/>
<path d="M34.369 27.2425C34.3038 27.3702 34.2337 27.4825 34.1703 27.5607C34.1069 27.6388 34.0541 27.6781 34.0208 27.6719C33.9875 27.6657 33.9756 27.6143 33.9873 27.5265C33.9989 27.4386 34.0333 27.3196 34.0846 27.1893C34.118 27.1047 34.1575 27.0181 34.2002 26.9358C34.2429 26.8535 34.2877 26.7775 34.3314 26.7136C34.3751 26.6496 34.4165 26.5991 34.4527 26.5659C34.4889 26.5327 34.5189 26.5176 34.5405 26.5216C34.5622 26.5257 34.5749 26.5488 34.5778 26.5893C34.5807 26.6298 34.5736 26.6867 34.5572 26.7557C34.5408 26.8248 34.5153 26.9044 34.4828 26.9886C34.4502 27.0728 34.4114 27.1595 34.369 27.2425" stroke="black" stroke-width="0.00833333"/>
<path d="M34.5211 27.3276C34.4612 27.3986 34.3988 27.4668 34.3376 27.5284C34.2764 27.5899 34.2175 27.6436 34.1643 27.6864C34.1111 27.7292 34.0646 27.7602 34.0275 27.7777C33.9904 27.7952 33.9634 27.7988 33.9481 27.7884C33.9327 27.7779 33.9293 27.7536 33.9381 27.7167C33.9469 27.6799 33.9676 27.6313 33.9991 27.5737C34.0306 27.5162 34.0723 27.4507 34.1218 27.3811C34.1713 27.3116 34.2276 27.2392 34.2875 27.1683C34.4085 27.0249 34.5369 26.8959 34.6443 26.8094C34.7518 26.723 34.8296 26.6864 34.8605 26.7075C34.8915 26.7286 34.8731 26.8058 34.8095 26.9221C34.7458 27.0384 34.6421 27.1843 34.5211 27.3276" fill="#009B3A"/>
<path d="M34.5211 27.3276C34.4612 27.3986 34.3988 27.4668 34.3376 27.5284C34.2764 27.5899 34.2175 27.6436 34.1643 27.6864C34.1111 27.7292 34.0646 27.7602 34.0275 27.7777C33.9904 27.7952 33.9634 27.7988 33.9481 27.7884C33.9327 27.7779 33.9293 27.7536 33.9381 27.7167C33.9469 27.6799 33.9676 27.6313 33.9991 27.5737C34.0306 27.5162 34.0723 27.4507 34.1218 27.3811C34.1713 27.3116 34.2276 27.2392 34.2875 27.1683C34.4085 27.0249 34.5369 26.8959 34.6443 26.8094C34.7518 26.723 34.8296 26.6864 34.8605 26.7075C34.8915 26.7286 34.8731 26.8058 34.8095 26.9221C34.7458 27.0384 34.6421 27.1843 34.5211 27.3276" stroke="black" stroke-width="0.00833333"/>
<path d="M34.5617 27.5297C34.4883 27.5927 34.4103 27.6539 34.3332 27.7089C34.256 27.7639 34.1817 27.8114 34.1152 27.8482C34.0488 27.8849 33.9919 27.91 33.9486 27.9215C33.9053 27.9331 33.8766 27.931 33.8646 27.9152C33.8526 27.8994 33.8574 27.8705 33.8789 27.8304C33.9004 27.7902 33.9379 27.7399 33.9888 27.6829C34.0398 27.6259 34.1029 27.5636 34.1738 27.5005C34.2447 27.4373 34.3216 27.3747 34.3992 27.3172C34.524 27.2246 34.6441 27.1497 34.7383 27.1058C34.8325 27.0619 34.8947 27.0518 34.9141 27.0771C34.9335 27.1025 34.9088 27.1618 34.8443 27.2445C34.7799 27.3273 34.6798 27.4283 34.5617 27.5297" fill="#009B3A"/>
<path d="M34.5617 27.5297C34.4883 27.5927 34.4103 27.6539 34.3332 27.7089C34.256 27.7639 34.1817 27.8114 34.1152 27.8482C34.0488 27.8849 33.9919 27.91 33.9486 27.9215C33.9053 27.9331 33.8766 27.931 33.8646 27.9152C33.8526 27.8994 33.8574 27.8705 33.8789 27.8304C33.9004 27.7902 33.9379 27.7399 33.9888 27.6829C34.0398 27.6259 34.1029 27.5636 34.1738 27.5005C34.2447 27.4373 34.3216 27.3747 34.3992 27.3172C34.524 27.2246 34.6441 27.1497 34.7383 27.1058C34.8325 27.0619 34.8947 27.0518 34.9141 27.0771C34.9335 27.1025 34.9088 27.1618 34.8443 27.2445C34.7799 27.3273 34.6798 27.4283 34.5617 27.5297" stroke="black" stroke-width="0.00833333"/>
<path d="M33.9626 27.806C33.9341 27.7297 33.9104 27.6516 33.8915 27.5722C33.8813 27.5297 33.9524 27.4872 33.922 27.3597C33.8876 27.2568 33.8191 27.1701 33.729 27.1153C33.6782 27.0835 33.6376 27.1366 33.6782 27.2853C33.7188 27.4341 33.8204 27.4872 33.8509 27.5616L33.9321 27.8166L34.1555 28.0185C34.2165 28.0716 34.3079 28.2735 34.4298 28.3478C34.5313 28.4222 34.6329 28.401 34.6126 28.3266C34.5668 28.2248 34.4969 28.1371 34.4095 28.0716C34.3384 28.0078 34.2266 28.0397 34.1555 27.9866C34.1149 27.9335 33.9524 27.8166 33.9524 27.806" fill="#009B3A"/>
<path d="M33.9626 27.806C33.9341 27.7297 33.9104 27.6516 33.8915 27.5722C33.8813 27.5297 33.9524 27.4872 33.922 27.3597C33.8876 27.2568 33.8191 27.1701 33.729 27.1153C33.6782 27.0835 33.6376 27.1366 33.6782 27.2853C33.7188 27.4341 33.8204 27.4872 33.8509 27.5616L33.9321 27.8166L34.1555 28.0185C34.2165 28.0716 34.3079 28.2735 34.4298 28.3478C34.5313 28.4222 34.6329 28.401 34.6126 28.3266C34.5668 28.2248 34.4969 28.1371 34.4095 28.0716C34.3384 28.0078 34.2266 28.0397 34.1555 27.9866C34.1149 27.9335 33.9524 27.8166 33.9524 27.806" stroke="black" stroke-width="0.00833333"/>
<path d="M33.5972 28.4749C33.462 28.4671 33.3418 28.4453 33.2558 28.413C33.1698 28.3807 33.123 28.3398 33.123 28.2969C33.123 28.2539 33.1698 28.2115 33.2558 28.1763C33.3418 28.1412 33.462 28.1154 33.5972 28.103C33.7323 28.1108 33.8525 28.1327 33.9385 28.1649C34.0245 28.1972 34.0713 28.2381 34.0713 28.2811C34.0713 28.324 34.0245 28.3664 33.9385 28.4016C33.8525 28.4368 33.7323 28.4626 33.5972 28.4749" fill="#009B3A"/>
<path d="M33.5972 28.4749C33.462 28.4671 33.3418 28.4453 33.2558 28.413C33.1698 28.3807 33.123 28.3398 33.123 28.2969C33.123 28.2539 33.1698 28.2115 33.2558 28.1763C33.3418 28.1412 33.462 28.1154 33.5972 28.103C33.7323 28.1108 33.8525 28.1327 33.9385 28.1649C34.0245 28.1972 34.0713 28.2381 34.0713 28.2811C34.0713 28.324 34.0245 28.3664 33.9385 28.4016C33.8525 28.4368 33.7323 28.4626 33.5972 28.4749" stroke="black" stroke-width="0.00833333"/>
<path d="M33.516 27.8909C33.4097 28.0347 33.2933 28.1603 33.1925 28.2401C33.0916 28.3198 33.0145 28.3472 32.9781 28.3162C32.9418 28.2852 32.9491 28.1984 32.9986 28.0748C33.048 27.9512 33.1355 27.8009 33.2418 27.6571C33.2933 27.5876 33.3478 27.5218 33.402 27.4635C33.4562 27.4051 33.5092 27.3554 33.5579 27.3171C33.6066 27.2788 33.6501 27.2527 33.6858 27.2402C33.7215 27.2278 33.7489 27.2293 33.7662 27.2447C33.7835 27.26 33.7906 27.2889 33.7869 27.3297C33.7832 27.3705 33.7688 27.4224 33.7446 27.4824C33.7205 27.5424 33.6869 27.6093 33.646 27.6794C33.605 27.7495 33.5574 27.8214 33.5059 27.8909" fill="#009B3A"/>
<path d="M33.516 27.8909C33.4097 28.0347 33.2933 28.1603 33.1925 28.2401C33.0916 28.3198 33.0145 28.3472 32.9781 28.3162C32.9418 28.2852 32.9491 28.1984 32.9986 28.0748C33.048 27.9512 33.1355 27.8009 33.2418 27.6571C33.2933 27.5876 33.3478 27.5218 33.402 27.4635C33.4562 27.4051 33.5092 27.3554 33.5579 27.3171C33.6066 27.2788 33.6501 27.2527 33.6858 27.2402C33.7215 27.2278 33.7489 27.2293 33.7662 27.2447C33.7835 27.26 33.7906 27.2889 33.7869 27.3297C33.7832 27.3705 33.7688 27.4224 33.7446 27.4824C33.7205 27.5424 33.6869 27.6093 33.646 27.6794C33.605 27.7495 33.5574 27.8214 33.5059 27.8909" stroke="black" stroke-width="0.00833333"/>
<path d="M33.597 28.1884C33.4388 28.2594 33.2807 28.3091 33.1574 28.3264C33.0341 28.3438 32.9558 28.3274 32.9396 28.2809C32.9235 28.2344 32.9708 28.1616 33.0712 28.0785C33.1717 27.9954 33.317 27.9088 33.4751 27.8377C33.6333 27.7667 33.7915 27.717 33.9148 27.6997C34.038 27.6823 34.1164 27.6987 34.1325 27.7451C34.1487 27.7916 34.1014 27.8645 34.0009 27.9476C33.9005 28.0307 33.7552 28.1173 33.597 28.1884M33.7697 22.5146C33.8392 22.5828 33.8968 22.6502 33.931 22.7037C33.9652 22.7572 33.9736 22.7928 33.9544 22.8035C33.9353 22.8141 33.8901 22.7991 33.8277 22.7614C33.7652 22.7236 33.6902 22.6659 33.6173 22.5996C33.577 22.5629 33.5385 22.5247 33.5045 22.4874C33.4704 22.4501 33.4414 22.4145 33.4194 22.383C33.3974 22.3514 33.3828 22.3246 33.3765 22.3041C33.3703 22.2836 33.3726 22.27 33.3832 22.2641C33.3938 22.2582 33.4125 22.2601 33.4381 22.2697C33.4638 22.2794 33.4958 22.2965 33.5321 22.3201C33.5685 22.3436 33.6083 22.3731 33.6492 22.4066C33.6901 22.4401 33.7312 22.4769 33.7697 22.5146M33.5767 22.674C33.6608 22.6903 33.7362 22.7113 33.7913 22.7338C33.8464 22.7562 33.8782 22.7789 33.8816 22.7982C33.8851 22.8176 33.8601 22.8325 33.8105 22.8408C33.7609 22.8491 33.6894 22.8502 33.6072 22.844C33.5497 22.8396 33.4889 22.8319 33.4294 22.8212C33.3698 22.8106 33.3133 22.7975 33.264 22.7828C33.2147 22.7681 33.1741 22.7522 33.1453 22.7365C33.1165 22.7208 33.1002 22.7056 33.0978 22.692C33.0954 22.6785 33.1069 22.6671 33.1313 22.6585C33.1558 22.65 33.1926 22.6447 33.2389 22.6429C33.2853 22.6412 33.3398 22.6431 33.3984 22.6485C33.457 22.6539 33.518 22.6626 33.5767 22.674" fill="#009B3A"/>
<path d="M33.597 28.1884C33.4388 28.2594 33.2807 28.3091 33.1574 28.3264C33.0341 28.3438 32.9558 28.3274 32.9396 28.2809C32.9235 28.2344 32.9708 28.1616 33.0712 28.0785C33.1717 27.9954 33.317 27.9088 33.4751 27.8377C33.6333 27.7667 33.7915 27.717 33.9148 27.6997C34.038 27.6823 34.1164 27.6987 34.1325 27.7451C34.1487 27.7916 34.1014 27.8645 34.0009 27.9476C33.9005 28.0307 33.7552 28.1173 33.597 28.1884M33.7697 22.5146C33.8392 22.5828 33.8968 22.6502 33.931 22.7037C33.9652 22.7572 33.9736 22.7928 33.9544 22.8035C33.9353 22.8141 33.8901 22.7991 33.8277 22.7614C33.7652 22.7236 33.6902 22.6659 33.6173 22.5996C33.577 22.5629 33.5385 22.5247 33.5045 22.4874C33.4704 22.4501 33.4414 22.4145 33.4194 22.383C33.3974 22.3514 33.3828 22.3246 33.3765 22.3041C33.3703 22.2836 33.3726 22.27 33.3832 22.2641C33.3938 22.2582 33.4125 22.2601 33.4381 22.2697C33.4638 22.2794 33.4958 22.2965 33.5321 22.3201C33.5685 22.3436 33.6083 22.3731 33.6492 22.4066C33.6901 22.4401 33.7312 22.4769 33.7697 22.5146M33.5767 22.674C33.6608 22.6903 33.7362 22.7113 33.7913 22.7338C33.8464 22.7562 33.8782 22.7789 33.8816 22.7982C33.8851 22.8176 33.8601 22.8325 33.8105 22.8408C33.7609 22.8491 33.6894 22.8502 33.6072 22.844C33.5497 22.8396 33.4889 22.8319 33.4294 22.8212C33.3698 22.8106 33.3133 22.7975 33.264 22.7828C33.2147 22.7681 33.1741 22.7522 33.1453 22.7365C33.1165 22.7208 33.1002 22.7056 33.0978 22.692C33.0954 22.6785 33.1069 22.6671 33.1313 22.6585C33.1558 22.65 33.1926 22.6447 33.2389 22.6429C33.2853 22.6412 33.3398 22.6431 33.3984 22.6485C33.457 22.6539 33.518 22.6626 33.5767 22.674" stroke="black" stroke-width="0.00833333"/>
<path d="M33.6583 22.5678C33.7099 22.5953 33.76 22.6243 33.8057 22.6531C33.8514 22.682 33.8918 22.7101 33.9246 22.736C33.9573 22.7618 33.9818 22.7849 33.9967 22.8038C34.0115 22.8227 34.0164 22.837 34.0111 22.8461C34.0057 22.8552 33.9903 22.8588 33.9656 22.8566C33.9409 22.8545 33.9074 22.8467 33.8671 22.8337C33.8268 22.8206 33.7804 22.8027 33.7307 22.7807C33.6809 22.7588 33.6287 22.7334 33.577 22.7059C33.4727 22.6504 33.3769 22.5899 33.3107 22.5377C33.2445 22.4855 33.2134 22.4459 33.2242 22.4276C33.2349 22.4093 33.2867 22.4138 33.3681 22.4401C33.4495 22.4664 33.5539 22.5123 33.6583 22.5678M30.845 27.8378C30.845 27.8378 31.3629 27.9547 31.82 28.1247C32.277 28.3053 32.9676 28.8897 33.1504 28.9322C33.3536 28.9322 33.6481 28.8578 33.7598 28.5497C33.4348 28.6347 33.252 28.7728 32.9473 28.6028C32.8356 28.5603 32.4801 28.2203 32.084 28.0397C31.6981 27.859 30.9161 27.6572 30.9161 27.6572L30.845 27.8378M31.4036 22.8972L32.0028 22.5678L31.3426 22.7484L31.2614 22.8653L31.4036 22.8972" fill="#009B3A"/>
<path d="M33.6583 22.5678C33.7099 22.5953 33.76 22.6243 33.8057 22.6531C33.8514 22.682 33.8918 22.7101 33.9246 22.736C33.9573 22.7618 33.9818 22.7849 33.9967 22.8038C34.0115 22.8227 34.0164 22.837 34.0111 22.8461C34.0057 22.8552 33.9903 22.8588 33.9656 22.8566C33.9409 22.8545 33.9074 22.8467 33.8671 22.8337C33.8268 22.8206 33.7804 22.8027 33.7307 22.7807C33.6809 22.7588 33.6287 22.7334 33.577 22.7059C33.4727 22.6504 33.3769 22.5899 33.3107 22.5377C33.2445 22.4855 33.2134 22.4459 33.2242 22.4276C33.2349 22.4093 33.2867 22.4138 33.3681 22.4401C33.4495 22.4664 33.5539 22.5123 33.6583 22.5678M30.845 27.8378C30.845 27.8378 31.3629 27.9547 31.82 28.1247C32.277 28.3053 32.9676 28.8897 33.1504 28.9322C33.3536 28.9322 33.6481 28.8578 33.7598 28.5497C33.4348 28.6347 33.252 28.7728 32.9473 28.6028C32.8356 28.5603 32.4801 28.2203 32.084 28.0397C31.6981 27.859 30.9161 27.6572 30.9161 27.6572L30.845 27.8378M31.4036 22.8972L32.0028 22.5678L31.3426 22.7484L31.2614 22.8653L31.4036 22.8972" stroke="black" stroke-width="0.00833333"/>
<path d="M31.9719 23.0563C31.7383 23.0032 31.3829 22.9182 31.1594 22.9075C31.3118 22.7269 31.525 22.4082 31.6672 22.2275C31.5657 22.4082 31.4336 22.6525 31.3829 22.8119C31.5352 22.9075 31.7891 22.9819 31.9719 23.0457" fill="#009B3A"/>
<path d="M31.9719 23.0563C31.7383 23.0032 31.3829 22.9182 31.1594 22.9075C31.3118 22.7269 31.525 22.4082 31.6672 22.2275C31.5657 22.4082 31.4336 22.6525 31.3829 22.8119C31.5352 22.9075 31.7891 22.9819 31.9719 23.0457" stroke="black" stroke-width="0.00833333"/>
<path d="M31.2916 22.9395C31.4695 22.7923 31.649 22.6471 31.8299 22.5039L31.2103 22.7908L31.1494 22.9289H31.2916" fill="#009B3A"/>
<path d="M31.2916 22.9395C31.4695 22.7923 31.649 22.6471 31.8299 22.5039L31.2103 22.7908L31.1494 22.9289H31.2916" stroke="black" stroke-width="0.00833333"/>
<path d="M31.8604 23.0457C31.6268 22.9926 31.2713 22.9076 31.0479 22.8863C31.19 22.7057 31.4033 22.3869 31.5354 22.1851C31.4541 22.3763 31.3119 22.6207 31.2611 22.8013C31.4236 22.8969 31.6775 22.9713 31.8705 23.0457" fill="#009B3A"/>
<path d="M31.8604 23.0457C31.6268 22.9926 31.2713 22.9076 31.0479 22.8863C31.19 22.7057 31.4033 22.3869 31.5354 22.1851C31.4541 22.3763 31.3119 22.6207 31.2611 22.8013C31.4236 22.8969 31.6775 22.9713 31.8705 23.0457" stroke="black" stroke-width="0.00833333"/>
<path d="M31.2103 22.9716L31.8298 22.6953L31.1595 22.8122L31.0681 22.9184L31.2001 22.9716" fill="#009B3A"/>
<path d="M31.2103 22.9716L31.8298 22.6953L31.1595 22.8122L31.0681 22.9184L31.2001 22.9716" stroke="black" stroke-width="0.00833333"/>
<path d="M31.7894 23.0567C31.5558 23.0248 31.18 22.9823 30.9565 22.9929C31.0886 22.7804 31.2612 22.4298 31.3729 22.2173C31.312 22.4192 31.2003 22.6848 31.1698 22.8654C31.3425 22.9504 31.6065 22.9929 31.7894 23.046" fill="#009B3A"/>
<path d="M31.7894 23.0567C31.5558 23.0248 31.18 22.9823 30.9565 22.9929C31.0886 22.7804 31.2612 22.4298 31.3729 22.2173C31.312 22.4192 31.2003 22.6848 31.1698 22.8654C31.3425 22.9504 31.6065 22.9929 31.7894 23.046" stroke="black" stroke-width="0.00833333"/>
<path d="M31.1393 22.9717L31.5658 22.4404L31.0275 22.8548L30.9971 22.9929L31.1393 22.9717" fill="#009B3A"/>
<path d="M31.1393 22.9717L31.5658 22.4404L31.0275 22.8548L30.9971 22.9929L31.1393 22.9717" stroke="black" stroke-width="0.00833333"/>
<path d="M31.7893 23.0884C31.5354 23.0884 31.1393 23.0565 30.8955 23.0884C31.0174 22.844 31.1697 22.4509 31.2611 22.2065C31.2205 22.4297 31.1291 22.7378 31.1189 22.9397C31.3018 23.0034 31.5861 23.0459 31.7893 23.0884" fill="#009B3A"/>
<path d="M31.7893 23.0884C31.5354 23.0884 31.1393 23.0565 30.8955 23.0884C31.0174 22.844 31.1697 22.4509 31.2611 22.2065C31.2205 22.4297 31.1291 22.7378 31.1189 22.9397C31.3018 23.0034 31.5861 23.0459 31.7893 23.0884" stroke="black" stroke-width="0.00833333"/>
<path d="M31.0581 23.0987L31.5659 22.5781L30.9464 22.95L30.9058 23.0987H31.0581Z" fill="#009B3A" stroke="black" stroke-width="0.00833333"/>
<path d="M31.6777 23.0989C31.4035 23.0989 30.9871 23.0883 30.7129 23.1202C30.8957 22.8546 31.1395 22.4189 31.2816 22.1533C31.1801 22.3977 31.0379 22.7271 30.977 22.9502C31.1699 23.0246 31.4645 23.0564 31.6777 23.0989Z" fill="#009B3A" stroke="black" stroke-width="0.00833333"/>
<path d="M30.8754 23.1415L31.5457 22.5571L30.7941 22.9715L30.7129 23.1415H30.8754" fill="#009B3A"/>
<path d="M30.8754 23.1415L31.5457 22.5571L30.7941 22.9715L30.7129 23.1415H30.8754" stroke="black" stroke-width="0.00833333"/>
<path d="M31.586 23.1203C31.3118 23.1628 30.8853 23.2053 30.6313 23.2796C30.7634 22.9928 30.9462 22.5359 31.0579 22.249C30.997 22.504 30.8853 22.844 30.8548 23.0778C31.0579 23.1203 31.3626 23.1096 31.5759 23.1203" fill="#009B3A"/>
<path d="M31.586 23.1203C31.3118 23.1628 30.8853 23.2053 30.6313 23.2796C30.7634 22.9928 30.9462 22.5359 31.0579 22.249C30.997 22.504 30.8853 22.844 30.8548 23.0778C31.0579 23.1203 31.3626 23.1096 31.5759 23.1203" stroke="black" stroke-width="0.00833333"/>
<path d="M30.7938 23.2584L31.3017 22.5146L30.6618 23.1203L30.6313 23.3009L30.7938 23.2584" fill="#009B3A"/>
<path d="M30.7938 23.2584L31.3017 22.5146L30.6618 23.1203L30.6313 23.3009L30.7938 23.2584" stroke="black" stroke-width="0.00833333"/>
<path d="M31.4234 23.205C31.1594 23.2369 30.7328 23.2581 30.4688 23.3112C30.6211 23.035 30.8242 22.5888 30.9562 22.3125C30.875 22.5569 30.7531 22.8969 30.7125 23.1306C30.9156 23.1837 31.2203 23.1837 31.4234 23.205" fill="#009B3A"/>
<path d="M31.4234 23.205C31.1594 23.2369 30.7328 23.2581 30.4688 23.3112C30.6211 23.035 30.8242 22.5888 30.9562 22.3125C30.875 22.5569 30.7531 22.8969 30.7125 23.1306C30.9156 23.1837 31.2203 23.1837 31.4234 23.205" stroke="black" stroke-width="0.00833333"/>
<path d="M30.7023 23.3329L31.3523 22.7485L30.6109 23.1629L30.5398 23.3329H30.7023Z" fill="#009B3A" stroke="black" stroke-width="0.00833333"/>
<path d="M31.3524 23.2371C31.0782 23.3008 30.6516 23.3752 30.3977 23.4602C30.5196 23.1733 30.6821 22.7058 30.7836 22.4189C30.7329 22.6739 30.6415 23.0139 30.6211 23.2477C30.8243 23.2796 31.129 23.2477 31.3524 23.2371Z" fill="#009B3A" stroke="black" stroke-width="0.00833333"/>
<path d="M30.5906 23.3753L30.9968 22.5571L30.4484 23.2584L30.4382 23.439L30.5906 23.3646" fill="#009B3A"/>
<path d="M30.5906 23.3753L30.9968 22.5571L30.4484 23.2584L30.4382 23.439L30.5906 23.3646" stroke="black" stroke-width="0.00833333"/>
<path d="M31.3525 23.2798C31.0479 23.3648 30.601 23.4711 30.3369 23.5773C30.4385 23.2479 30.5502 22.7273 30.6314 22.3979C30.601 22.6848 30.54 23.0673 30.5502 23.3329C30.7838 23.3542 31.1088 23.3011 31.3424 23.2798" fill="#009B3A"/>
<path d="M31.3525 23.2798C31.0479 23.3648 30.601 23.4711 30.3369 23.5773C30.4385 23.2479 30.5502 22.7273 30.6314 22.3979C30.601 22.6848 30.54 23.0673 30.5502 23.3329C30.7838 23.3542 31.1088 23.3011 31.3424 23.2798" stroke="black" stroke-width="0.00833333"/>
<path d="M30.5096 23.556L31.0377 22.7485L30.3674 23.3967L30.3369 23.6092L30.5096 23.556" fill="#009B3A"/>
<path d="M30.5096 23.556L31.0377 22.7485L30.3674 23.3967L30.3369 23.6092L30.5096 23.556" stroke="black" stroke-width="0.00833333"/>
<path d="M31.2307 23.375C30.9463 23.4706 30.4994 23.5981 30.2354 23.7256C30.3166 23.3856 30.4182 22.865 30.4791 22.5356C30.4689 22.8225 30.4283 23.205 30.4486 23.46C30.6721 23.4706 30.9971 23.3963 31.2307 23.375" fill="#009B3A"/>
<path d="M31.2307 23.375C30.9463 23.4706 30.4994 23.5981 30.2354 23.7256C30.3166 23.3856 30.4182 22.865 30.4791 22.5356C30.4689 22.8225 30.4283 23.205 30.4486 23.46C30.6721 23.4706 30.9971 23.3963 31.2307 23.375" stroke="black" stroke-width="0.00833333"/>
<path d="M30.408 23.6728L30.8041 22.7803L30.2354 23.5453V23.7578L30.408 23.6728" fill="#009B3A"/>
<path d="M30.408 23.6728L30.8041 22.7803L30.2354 23.5453V23.7578L30.408 23.6728" stroke="black" stroke-width="0.00833333"/>
<path d="M31.1189 23.5026C30.8345 23.5664 30.3775 23.662 30.1033 23.7576C30.215 23.4389 30.3572 22.9076 30.4486 22.5889C30.408 22.8757 30.3369 23.2689 30.3369 23.5132C30.5603 23.5451 30.8853 23.5026 31.1189 23.492" fill="#009B3A"/>
<path d="M31.1189 23.5026C30.8345 23.5664 30.3775 23.662 30.1033 23.7576C30.215 23.4389 30.3572 22.9076 30.4486 22.5889C30.408 22.8757 30.3369 23.2689 30.3369 23.5132C30.5603 23.5451 30.8853 23.5026 31.1189 23.492" stroke="black" stroke-width="0.00833333"/>
<path d="M30.3064 23.7579L30.9564 23.0566L30.1947 23.5773L30.1338 23.7685L30.3064 23.7579" fill="#009B3A"/>
<path d="M30.3064 23.7579L30.9564 23.0566L30.1947 23.5773L30.1338 23.7685L30.3064 23.7579" stroke="black" stroke-width="0.00833333"/>
<path d="M30.9968 23.6195C30.7023 23.662 30.2554 23.7045 29.9812 23.7788C30.1132 23.4601 30.2859 22.9501 30.3875 22.6313C30.3265 22.9182 30.2351 23.3007 30.2148 23.5557C30.4382 23.6088 30.7632 23.5982 30.9968 23.6195" fill="#009B3A"/>
<path d="M30.9968 23.6195C30.7023 23.662 30.2554 23.7045 29.9812 23.7788C30.1132 23.4601 30.2859 22.9501 30.3875 22.6313C30.3265 22.9182 30.2351 23.3007 30.2148 23.5557C30.4382 23.6088 30.7632 23.5982 30.9968 23.6195" stroke="black" stroke-width="0.00833333"/>
<path d="M30.1847 23.6939L30.6214 22.812L30.0222 23.5558V23.7576L30.1847 23.6833" fill="#009B3A"/>
<path d="M30.1847 23.6939L30.6214 22.812L30.0222 23.5558V23.7576L30.1847 23.6833" stroke="black" stroke-width="0.00833333"/>
<path d="M31.0277 23.5135C30.723 23.6516 30.2152 23.8322 29.9207 24.0022C30.0222 23.6091 30.1238 22.9929 30.1847 22.6104C30.1847 22.9397 30.1339 23.3966 30.1542 23.6835C30.4082 23.6835 30.7636 23.5666 31.0277 23.5135" fill="#009B3A"/>
<path d="M31.0277 23.5135C30.723 23.6516 30.2152 23.8322 29.9207 24.0022C30.0222 23.6091 30.1238 22.9929 30.1847 22.6104C30.1847 22.9397 30.1339 23.3966 30.1542 23.6835C30.4082 23.6835 30.7636 23.5666 31.0277 23.5135" stroke="black" stroke-width="0.00833333"/>
<path d="M30.1236 23.9489L30.6518 22.9502L29.951 23.8002L29.9307 24.0339L30.1236 23.9489" fill="#009B3A"/>
<path d="M30.1236 23.9489L30.6518 22.9502L29.951 23.8002L29.9307 24.0339L30.1236 23.9489" stroke="black" stroke-width="0.00833333"/>
<path d="M30.9057 23.6406C30.601 23.7894 30.1135 24.0019 29.8291 24.1825C29.9104 23.8 29.9814 23.1731 30.0322 22.8013C30.0322 23.12 30.0119 23.5769 30.0424 23.8638C30.2963 23.8319 30.6518 23.7044 30.9057 23.6406Z" fill="#009B3A" stroke="black" stroke-width="0.00833333"/>
<path d="M30.0121 24.0975L30.398 23.0244L29.8191 23.9807L29.8394 24.225L30.0121 24.0975" fill="#009B3A"/>
<path d="M30.0121 24.0975L30.398 23.0244L29.8191 23.9807L29.8394 24.225L30.0121 24.0975" stroke="black" stroke-width="0.00833333"/>
<path d="M30.7736 23.7257C30.4689 23.8851 29.9814 24.0976 29.697 24.2888C29.7681 23.8957 29.8392 23.2795 29.89 22.897C29.89 23.2157 29.8697 23.6726 29.9103 23.9595C30.1642 23.9276 30.5197 23.7895 30.7736 23.7257" fill="#009B3A"/>
<path d="M30.7736 23.7257C30.4689 23.8851 29.9814 24.0976 29.697 24.2888C29.7681 23.8957 29.8392 23.2795 29.89 22.897C29.89 23.2157 29.8697 23.6726 29.9103 23.9595C30.1642 23.9276 30.5197 23.7895 30.7736 23.7257" stroke="black" stroke-width="0.00833333"/>
<path d="M29.9305 24.2254L30.5196 23.2798L29.768 24.0554L29.7375 24.2892L29.9305 24.2254Z" fill="#009B3A" stroke="black" stroke-width="0.00833333"/>
<path d="M30.743 23.6726C30.4688 23.9064 30.032 24.2464 29.7883 24.5014C29.7883 24.0976 29.7375 23.492 29.707 23.1201C29.768 23.4282 29.8391 23.8639 29.9406 24.1295C30.1844 24.0339 30.4992 23.8107 30.7531 23.6832" fill="#009B3A"/>
<path d="M30.743 23.6726C30.4688 23.9064 30.032 24.2464 29.7883 24.5014C29.7883 24.0976 29.7375 23.492 29.707 23.1201C29.768 23.4282 29.8391 23.8639 29.9406 24.1295C30.1844 24.0339 30.4992 23.8107 30.7531 23.6832" stroke="black" stroke-width="0.00833333"/>
<path d="M29.961 24.2785L30.0219 23.1416L29.7375 24.2466L29.8188 24.4591L29.961 24.2785" fill="#009B3A"/>
<path d="M29.961 24.2785L30.0219 23.1416L29.7375 24.2466L29.8188 24.4591L29.961 24.2785" stroke="black" stroke-width="0.00833333"/>
<path d="M30.6721 23.7789C30.3877 24.0127 29.9611 24.3421 29.7072 24.5971C29.7072 24.2039 29.6564 23.5877 29.626 23.2158C29.6971 23.5346 29.758 23.9596 29.8596 24.2252C30.1033 24.1402 30.4182 23.9064 30.6721 23.7789Z" fill="#009B3A" stroke="black" stroke-width="0.00833333"/>
<path d="M29.8901 24.4696L30.1644 23.354L29.687 24.374L29.7175 24.6078L29.8901 24.4696" fill="#009B3A"/>
<path d="M29.8901 24.4696L30.1644 23.354L29.687 24.374L29.7175 24.6078L29.8901 24.4696" stroke="black" stroke-width="0.00833333"/>
<path d="M30.6315 23.8003C30.3776 24.0765 29.9612 24.4803 29.7276 24.7565C29.687 24.3634 29.5752 23.7365 29.5042 23.354C29.6057 23.6728 29.7174 24.1084 29.8495 24.3634C30.0831 24.2465 30.3979 23.9809 30.6315 23.8109" fill="#009B3A"/>
<path d="M30.6315 23.8003C30.3776 24.0765 29.9612 24.4803 29.7276 24.7565C29.687 24.3634 29.5752 23.7365 29.5042 23.354C29.6057 23.6728 29.7174 24.1084 29.8495 24.3634C30.0831 24.2465 30.3979 23.9809 30.6315 23.8109" stroke="black" stroke-width="0.00833333"/>
<path d="M29.8899 24.6076L29.9407 23.4282L29.6665 24.5757L29.7478 24.7882L29.8899 24.6076" fill="#009B3A"/>
<path d="M29.8899 24.6076L29.9407 23.4282L29.6665 24.5757L29.7478 24.7882L29.8899 24.6076" stroke="black" stroke-width="0.00833333"/>
<path d="M30.5502 24.0126C30.276 24.2463 29.8393 24.597 29.5752 24.8626C29.5752 24.4588 29.5041 23.8213 29.4736 23.4282C29.5447 23.747 29.626 24.2038 29.7275 24.4801C29.9814 24.3738 30.3064 24.1507 30.5502 24.002" fill="#009B3A"/>
<path d="M30.5502 24.0126C30.276 24.2463 29.8393 24.597 29.5752 24.8626C29.5752 24.4588 29.5041 23.8213 29.4736 23.4282C29.5447 23.747 29.626 24.2038 29.7275 24.4801C29.9814 24.3738 30.3064 24.1507 30.5502 24.002" stroke="black" stroke-width="0.00833333"/>
<path d="M29.8086 24.746L30.1945 23.6304L29.6055 24.6185L29.6258 24.8629L29.8086 24.746" fill="#009B3A"/>
<path d="M29.8086 24.746L30.1945 23.6304L29.6055 24.6185L29.6258 24.8629L29.8086 24.746" stroke="black" stroke-width="0.00833333"/>
<path d="M30.5502 24.0125C30.2963 24.2782 29.9103 24.6925 29.6869 24.9794C29.6463 24.5757 29.5346 23.9382 29.4736 23.5557C29.5752 23.8744 29.6768 24.3207 29.7986 24.5757C30.0322 24.4482 30.3166 24.1825 30.5502 24.0125" fill="#009B3A"/>
<path d="M30.5502 24.0125C30.2963 24.2782 29.9103 24.6925 29.6869 24.9794C29.6463 24.5757 29.5346 23.9382 29.4736 23.5557C29.5752 23.8744 29.6768 24.3207 29.7986 24.5757C30.0322 24.4482 30.3166 24.1825 30.5502 24.0125" stroke="black" stroke-width="0.00833333"/>
<path d="M29.8189 24.7991L29.7783 23.6304L29.5955 24.7991L29.697 25.001L29.8189 24.7991Z" fill="#009B3A" stroke="black" stroke-width="0.00833333"/>
<path d="M30.4283 24.0976C30.1845 24.3739 29.8087 24.7882 29.5955 25.0857C29.5447 24.6607 29.4126 24.0445 29.3416 23.6514C29.4431 23.9701 29.5751 24.4164 29.697 24.6714C29.9205 24.5439 30.2048 24.2676 30.4283 24.0976Z" fill="#009B3A" stroke="black" stroke-width="0.00833333"/>
<path d="M29.758 24.9156L29.8798 23.7256L29.5447 24.8518L29.6158 25.0856L29.758 24.9156" fill="#009B3A"/>
<path d="M29.758 24.9156L29.8798 23.7256L29.5447 24.8518L29.6158 25.0856L29.758 24.9156" stroke="black" stroke-width="0.00833333"/>
<path d="M30.3675 24.14C30.1644 24.4482 29.8089 24.8838 29.616 25.2025C29.5347 24.7988 29.3621 24.1932 29.2605 23.8213C29.3925 24.1188 29.5449 24.5438 29.6871 24.7882C29.9003 24.6394 30.1644 24.3419 30.3777 24.1507" fill="#009B3A"/>
<path d="M30.3675 24.14C30.1644 24.4482 29.8089 24.8838 29.616 25.2025C29.5347 24.7988 29.3621 24.1932 29.2605 23.8213C29.3925 24.1188 29.5449 24.5438 29.6871 24.7882C29.9003 24.6394 30.1644 24.3419 30.3777 24.1507" stroke="black" stroke-width="0.00833333"/>
<path d="M29.7579 25.0327L29.6766 23.832L29.5344 25.022L29.636 25.2345L29.7477 25.022" fill="#009B3A"/>
<path d="M29.7579 25.0327L29.6766 23.832L29.5344 25.022L29.636 25.2345L29.7477 25.022" stroke="black" stroke-width="0.00833333"/>
<path d="M30.357 24.2147C30.1539 24.5335 29.8187 24.9904 29.646 25.3197C29.5445 24.916 29.3414 24.3104 29.2195 23.9385C29.3617 24.236 29.5343 24.661 29.6968 24.8947C29.8999 24.7354 30.1539 24.4166 30.357 24.2147Z" fill="#009B3A" stroke="black" stroke-width="0.00833333"/>
<path d="M29.8188 25.1391L29.9407 23.9385L29.6157 25.0647L29.6767 25.3091L29.8188 25.1391Z" fill="#009B3A" stroke="black" stroke-width="0.00833333"/>
<path d="M30.3066 24.3317C30.1339 24.6611 29.8496 25.1817 29.6972 25.5323C29.5652 25.1498 29.3113 24.5761 29.1589 24.2148C29.3316 24.4911 29.5347 24.8842 29.7175 25.1073C29.9105 24.9161 30.1238 24.5548 30.3066 24.3211" fill="#009B3A"/>
<path d="M30.3066 24.3317C30.1339 24.6611 29.8496 25.1817 29.6972 25.5323C29.5652 25.1498 29.3113 24.5761 29.1589 24.2148C29.3316 24.4911 29.5347 24.8842 29.7175 25.1073C29.9105 24.9161 30.1238 24.5548 30.3066 24.3211" stroke="black" stroke-width="0.00833333"/>
<path d="M29.7886 25.2452L29.4636 24.0977L29.5652 25.2983L29.7175 25.4683L29.7785 25.2452" fill="#009B3A"/>
<path d="M29.7886 25.2452L29.4636 24.0977L29.5652 25.2983L29.7175 25.4683L29.7785 25.2452" stroke="black" stroke-width="0.00833333"/>
<path d="M30.3062 24.4588C30.1234 24.7988 29.8187 25.3088 29.6664 25.6594C29.5343 25.2769 29.2804 24.7032 29.1179 24.3525C29.2906 24.6288 29.5039 25.0219 29.6867 25.2344C29.8898 25.0432 30.1132 24.6925 30.296 24.4588" fill="#009B3A"/>
<path d="M30.3062 24.4588C30.1234 24.7988 29.8187 25.3088 29.6664 25.6594C29.5343 25.2769 29.2804 24.7032 29.1179 24.3525C29.2906 24.6288 29.5039 25.0219 29.6867 25.2344C29.8898 25.0432 30.1132 24.6925 30.296 24.4588" stroke="black" stroke-width="0.00833333"/>
<path d="M29.7986 25.4575L29.6768 24.2568L29.5752 25.4575L29.6869 25.67L29.7986 25.4575" fill="#009B3A"/>
<path d="M29.7986 25.4575L29.6768 24.2568L29.5752 25.4575L29.6869 25.67L29.7986 25.4575" stroke="black" stroke-width="0.00833333"/>
<path d="M30.3267 24.5654C30.1337 24.8947 29.8189 25.4047 29.6666 25.7447C29.5345 25.3622 29.2908 24.7885 29.1384 24.4272C29.3111 24.7035 29.5142 25.1072 29.697 25.3197C29.9001 25.1391 30.1337 24.7885 30.3267 24.5654Z" fill="#009B3A" stroke="black" stroke-width="0.00833333"/>
<path d="M29.7884 25.5535L29.5751 24.3848L29.5649 25.5748L29.697 25.766L29.7884 25.5535" fill="#009B3A"/>
<path d="M29.7884 25.5535L29.5751 24.3848L29.5649 25.5748L29.697 25.766L29.7884 25.5535" stroke="black" stroke-width="0.00833333"/>
<path d="M30.2455 24.7353C30.0424 25.0541 29.7072 25.5322 29.5346 25.8722C29.4228 25.4791 29.1994 24.8735 29.0674 24.5122C29.2197 24.7991 29.4127 25.2135 29.5752 25.4472C29.7885 25.2772 30.0424 24.9478 30.2455 24.7353Z" fill="#009B3A" stroke="black" stroke-width="0.00833333"/>
<path d="M29.6869 25.6806L29.7885 24.48L29.4736 25.6169L29.5447 25.8506L29.6869 25.6806" fill="#009B3A"/>
<path d="M29.6869 25.6806L29.7885 24.48L29.4736 25.6169L29.5447 25.8506L29.6869 25.6806" stroke="black" stroke-width="0.00833333"/>
<path d="M30.2557 24.7564C30.083 25.107 29.7885 25.6382 29.6463 25.9889C29.5041 25.617 29.24 25.0539 29.0674 24.7139C29.2502 24.9689 29.4736 25.3514 29.6564 25.5639C29.8596 25.362 30.0627 25.0007 30.2557 24.767" fill="#009B3A"/>
<path d="M30.2557 24.7564C30.083 25.107 29.7885 25.6382 29.6463 25.9889C29.5041 25.617 29.24 25.0539 29.0674 24.7139C29.2502 24.9689 29.4736 25.3514 29.6564 25.5639C29.8596 25.362 30.0627 25.0007 30.2557 24.767" stroke="black" stroke-width="0.00833333"/>
<path d="M29.6565 25.7869L29.301 24.6606L29.4331 25.8506L29.5854 26.0206L29.6463 25.7869" fill="#009B3A"/>
<path d="M29.6565 25.7869L29.301 24.6606L29.4331 25.8506L29.5854 26.0206L29.6463 25.7869" stroke="black" stroke-width="0.00833333"/>
<path d="M30.205 24.8521C30.0831 25.2346 29.88 25.8083 29.7987 26.2014C29.5956 25.8614 29.2401 25.3727 29.0269 25.0646C29.2401 25.2877 29.5245 25.6171 29.7378 25.7764C29.9003 25.5321 30.0628 25.1389 30.205 24.8521Z" fill="#009B3A" stroke="black" stroke-width="0.00833333"/>
<path d="M29.961 25.8721L29.5852 24.7671L29.7477 25.9571L29.9 26.1058L29.961 25.8721" fill="#009B3A"/>
<path d="M29.961 25.8721L29.5852 24.7671L29.7477 25.9571L29.9 26.1058L29.961 25.8721" stroke="black" stroke-width="0.00833333"/>
<path d="M30.205 24.9688C30.0831 25.3512 29.88 25.9356 29.7987 26.3181C29.5956 25.9781 29.2503 25.5 29.0269 25.2025C29.2401 25.415 29.5245 25.7338 29.7378 25.9038C29.9003 25.6594 30.0628 25.2556 30.205 24.9688" fill="#009B3A"/>
<path d="M30.205 24.9688C30.0831 25.3512 29.88 25.9356 29.7987 26.3181C29.5956 25.9781 29.2503 25.5 29.0269 25.2025C29.2401 25.415 29.5245 25.7338 29.7378 25.9038C29.9003 25.6594 30.0628 25.2556 30.205 24.9688" stroke="black" stroke-width="0.00833333"/>
<path d="M29.9611 26.0633L29.4736 25.0327L29.758 26.1802L29.9307 26.3077L29.9713 26.0633" fill="#009B3A"/>
<path d="M29.9611 26.0633L29.4736 25.0327L29.758 26.1802L29.9307 26.3077L29.9713 26.0633" stroke="black" stroke-width="0.00833333"/>
<path d="M30.1644 25.0645C30.0933 25.4576 29.9612 26.0738 29.9105 26.467C29.6769 26.1588 29.2706 25.7232 29.0269 25.4682C29.2604 25.6488 29.5753 25.9357 29.8089 26.0526C29.9409 25.787 30.0526 25.362 30.1644 25.0645" fill="#009B3A"/>
<path d="M30.1644 25.0645C30.0933 25.4576 29.9612 26.0738 29.9105 26.467C29.6769 26.1588 29.2706 25.7232 29.0269 25.4682C29.2604 25.6488 29.5753 25.9357 29.8089 26.0526C29.9409 25.787 30.0526 25.362 30.1644 25.0645" stroke="black" stroke-width="0.00833333"/>
<path d="M30.0016 26.2226L29.7375 25.0645L29.7782 26.2651L29.9204 26.4457L30.0016 26.2332" fill="#009B3A"/>
<path d="M30.0016 26.2226L29.7375 25.0645L29.7782 26.2651L29.9204 26.4457L30.0016 26.2332" stroke="black" stroke-width="0.00833333"/>
<path d="M30.1641 25.1816C30.1235 25.596 30.0422 26.2229 30.0422 26.616C29.7782 26.3504 29.3415 25.9785 29.0774 25.7554C29.3211 25.9041 29.6563 26.1379 29.9 26.2229C30.0016 25.9466 30.0829 25.5004 30.1641 25.1923" fill="#009B3A"/>
<path d="M30.1641 25.1816C30.1235 25.596 30.0422 26.2229 30.0422 26.616C29.7782 26.3504 29.3415 25.9785 29.0774 25.7554C29.3211 25.9041 29.6563 26.1379 29.9 26.2229C30.0016 25.9466 30.0829 25.5004 30.1641 25.1923" stroke="black" stroke-width="0.00833333"/>
<path d="M30.0118 26.3078L29.311 25.479L29.8392 26.4884L30.0423 26.5521L30.0118 26.3078" fill="#009B3A"/>
<path d="M30.0118 26.3078L29.311 25.479L29.8392 26.4884L30.0423 26.5521L30.0118 26.3078" stroke="black" stroke-width="0.00833333"/>
<path d="M30.1848 25.3301C30.1441 25.7338 30.0629 26.3607 30.0527 26.7538C29.7887 26.4882 29.352 26.1163 29.0879 25.8826C29.3418 26.0313 29.677 26.2757 29.9105 26.3607C30.0223 26.0845 30.0934 25.6382 30.1848 25.3301" fill="#009B3A"/>
<path d="M30.1848 25.3301C30.1441 25.7338 30.0629 26.3607 30.0527 26.7538C29.7887 26.4882 29.352 26.1163 29.0879 25.8826C29.3418 26.0313 29.677 26.2757 29.9105 26.3607C30.0223 26.0845 30.0934 25.6382 30.1848 25.3301" stroke="black" stroke-width="0.00833333"/>
<path d="M30.0932 26.4987L29.5549 25.5L29.8901 26.6369L30.0627 26.7538L30.0932 26.5094" fill="#009B3A"/>
<path d="M30.0932 26.4987L29.5549 25.5L29.8901 26.6369L30.0627 26.7538L30.0932 26.5094" stroke="black" stroke-width="0.00833333"/>
<path d="M30.215 25.5004C30.1845 25.9041 30.1337 26.531 30.1337 26.9347C29.8159 26.6474 29.4836 26.3778 29.1384 26.1272C29.4025 26.2547 29.7478 26.4779 29.9814 26.5522C30.083 26.2654 30.1439 25.8085 30.215 25.4897" fill="#009B3A"/>
<path d="M30.215 25.5004C30.1845 25.9041 30.1337 26.531 30.1337 26.9347C29.8159 26.6474 29.4836 26.3778 29.1384 26.1272C29.4025 26.2547 29.7478 26.4779 29.9814 26.5522C30.083 26.2654 30.1439 25.8085 30.215 25.4897" stroke="black" stroke-width="0.00833333"/>
<path d="M30.1642 26.6905L29.4939 25.8086L29.9814 26.8498L30.1642 26.9348V26.6905Z" fill="#009B3A" stroke="black" stroke-width="0.00833333"/>
<path d="M30.2255 25.6913C30.195 26.095 30.1442 26.7219 30.1544 27.1257C29.8802 26.8707 29.4333 26.5307 29.1489 26.3182C29.413 26.4563 29.7583 26.6688 30.0021 26.7432C30.1036 26.4563 30.1544 25.9994 30.2255 25.6807" fill="#009B3A"/>
<path d="M30.2255 25.6913C30.195 26.095 30.1442 26.7219 30.1544 27.1257C29.8802 26.8707 29.4333 26.5307 29.1489 26.3182C29.413 26.4563 29.7583 26.6688 30.0021 26.7432C30.1036 26.4563 30.1544 25.9994 30.2255 25.6807" stroke="black" stroke-width="0.00833333"/>
<path d="M30.2151 26.8389L29.7581 25.7764L30.012 26.9451L30.1745 27.0832L30.2151 26.8389Z" fill="#009B3A" stroke="black" stroke-width="0.00833333"/>
<path d="M30.2353 25.8086C30.2556 26.223 30.2556 26.8498 30.2962 27.2536C29.9538 27.0175 29.6014 26.7977 29.24 26.5948C29.5041 26.6905 29.8595 26.8498 30.1134 26.8923C30.1845 26.5842 30.1947 26.138 30.2353 25.8086" fill="#009B3A"/>
<path d="M30.2353 25.8086C30.2556 26.223 30.2556 26.8498 30.2962 27.2536C29.9538 27.0175 29.6014 26.7977 29.24 26.5948C29.5041 26.6905 29.8595 26.8498 30.1134 26.8923C30.1845 26.5842 30.1947 26.138 30.2353 25.8086" stroke="black" stroke-width="0.00833333"/>
<path d="M30.2963 26.7965L29.4534 26.1909L30.1643 27.0197L30.3674 27.0303L30.2963 26.7965" fill="#009B3A"/>
<path d="M30.2963 26.7965L29.4534 26.1909L30.1643 27.0197L30.3674 27.0303L30.2963 26.7965" stroke="black" stroke-width="0.00833333"/>
<path d="M30.2659 25.8506C30.2963 26.265 30.337 26.8918 30.3979 27.285C30.0932 27.0831 29.6057 26.8281 29.301 26.6687C29.5752 26.7537 29.9409 26.9025 30.1948 26.9343C30.2456 26.6262 30.2354 26.18 30.2659 25.8506Z" fill="#009B3A" stroke="black" stroke-width="0.00833333"/>
<path d="M30.3979 27.0194L29.687 26.1694L30.2253 27.1894L30.4183 27.2638L30.3878 27.0194" fill="#009B3A"/>
<path d="M30.3979 27.0194L29.687 26.1694L30.2253 27.1894L30.4183 27.2638L30.3878 27.0194" stroke="black" stroke-width="0.00833333"/>
<path d="M30.3268 26.0103C30.3776 26.414 30.4284 27.0409 30.5198 27.434C30.2151 27.2534 29.7073 27.0303 29.4026 26.8921C29.6768 26.9559 30.0526 27.0834 30.2963 27.1046C30.337 26.7859 30.3167 26.3396 30.3268 26.0103" fill="#009B3A"/>
<path d="M30.3268 26.0103C30.3776 26.414 30.4284 27.0409 30.5198 27.434C30.2151 27.2534 29.7073 27.0303 29.4026 26.8921C29.6768 26.9559 30.0526 27.0834 30.2963 27.1046C30.337 26.7859 30.3167 26.3396 30.3268 26.0103" stroke="black" stroke-width="0.00833333"/>
<path d="M30.53 27.1684L29.687 26.5415L30.3979 27.3915L30.6011 27.4021L30.53 27.1684Z" fill="#009B3A" stroke="black" stroke-width="0.00833333"/>
<path d="M30.3573 26.1802C30.4284 26.5839 30.53 27.2108 30.6315 27.5933C30.3167 27.4339 29.7987 27.2639 29.4839 27.1577C29.7683 27.1896 30.144 27.2852 30.3979 27.2639C30.4183 26.9558 30.3675 26.5202 30.3573 26.1802" fill="#009B3A"/>
<path d="M30.3573 26.1802C30.4284 26.5839 30.53 27.2108 30.6315 27.5933C30.3167 27.4339 29.7987 27.2639 29.4839 27.1577C29.7683 27.1896 30.144 27.2852 30.3979 27.2639C30.4183 26.9558 30.3675 26.5202 30.3573 26.1802" stroke="black" stroke-width="0.00833333"/>
<path d="M30.6316 27.2961L29.9207 26.4248L30.4488 27.4554L30.6519 27.5404L30.6316 27.2961Z" fill="#009B3A" stroke="black" stroke-width="0.00833333"/>
<path d="M30.3978 26.2866C30.5096 26.6797 30.6619 27.296 30.8041 27.6679C30.4689 27.5616 29.951 27.4554 29.626 27.3916C29.9104 27.3916 30.2861 27.4235 30.54 27.381C30.54 27.0622 30.4385 26.6266 30.3978 26.2972" fill="#009B3A"/>
<path d="M30.3978 26.2866C30.5096 26.6797 30.6619 27.296 30.8041 27.6679C30.4689 27.5616 29.951 27.4554 29.626 27.3916C29.9104 27.3916 30.2861 27.4235 30.54 27.381C30.54 27.0622 30.4385 26.6266 30.3978 26.2972" stroke="black" stroke-width="0.00833333"/>
<path d="M30.6722 27.296L29.687 27.0835L30.6112 27.5616L30.8042 27.4872L30.662 27.296" fill="#009B3A"/>
<path d="M30.6722 27.296L29.687 27.0835L30.6112 27.5616L30.8042 27.4872L30.662 27.296" stroke="black" stroke-width="0.00833333"/>
<path d="M30.469 26.4141C30.5706 26.8072 30.7229 27.4128 30.855 27.7847C30.53 27.6784 30.012 27.5722 29.687 27.5084C29.9714 27.5084 30.3472 27.5403 30.6011 27.5084C30.6011 27.1897 30.4995 26.7434 30.469 26.4141" fill="#009B3A"/>
<path d="M30.469 26.4141C30.5706 26.8072 30.7229 27.4128 30.855 27.7847C30.53 27.6784 30.012 27.5722 29.687 27.5084C29.9714 27.5084 30.3472 27.5403 30.6011 27.5084C30.6011 27.1897 30.4995 26.7434 30.469 26.4141" stroke="black" stroke-width="0.00833333"/>
<path d="M30.8245 27.402L29.8901 26.9238L30.723 27.6357L30.9261 27.6145L30.8245 27.402Z" fill="#009B3A" stroke="black" stroke-width="0.00833333"/>
<path d="M30.4179 26.4775C30.6007 26.8388 30.8749 27.4019 31.0781 27.7207C30.7328 27.6994 30.2046 27.7207 29.8796 27.7207C30.1539 27.6675 30.5296 27.6144 30.7632 27.5082C30.6921 27.2 30.5195 26.7963 30.4179 26.4775Z" fill="#009B3A" stroke="black" stroke-width="0.00833333"/>
<path d="M30.9767 27.5082L30.0017 27.2319L30.9158 27.7632L31.0986 27.7101L30.9666 27.4976" fill="#009B3A"/>
<path d="M30.9767 27.5082L30.0017 27.2319L30.9158 27.7632L31.0986 27.7101L30.9666 27.4976" stroke="black" stroke-width="0.00833333"/>
<path d="M30.5097 26.6372C30.7026 26.9878 30.9769 27.551 31.1901 27.8697C30.8448 27.8485 30.3167 27.8697 29.9917 27.891C30.2558 27.8166 30.6417 27.7635 30.8651 27.6572C30.8042 27.3491 30.6214 26.9453 30.5198 26.6372" fill="#009B3A"/>
<path d="M30.5097 26.6372C30.7026 26.9878 30.9769 27.551 31.1901 27.8697C30.8448 27.8485 30.3167 27.8697 29.9917 27.891C30.2558 27.8166 30.6417 27.7635 30.8651 27.6572C30.8042 27.3491 30.6214 26.9453 30.5198 26.6372" stroke="black" stroke-width="0.00833333"/>
<path d="M31.0885 27.5934L30.1846 27.0303L30.9768 27.8165H31.1799L31.0885 27.5934" fill="#009B3A"/>
<path d="M31.0885 27.5934L30.1846 27.0303L30.9768 27.8165H31.1799L31.0885 27.5934" stroke="black" stroke-width="0.00833333"/>
<path d="M30.5908 26.7222C30.8041 27.0515 31.1291 27.5722 31.3627 27.8803C30.9666 27.9136 30.5731 27.974 30.1846 28.0609C30.4486 27.9547 30.8143 27.8484 31.0377 27.7103C30.9361 27.4128 30.7229 27.0197 30.5908 26.7222" fill="#009B3A"/>
<path d="M30.5908 26.7222C30.8041 27.0515 31.1291 27.5722 31.3627 27.8803C30.9666 27.9136 30.5731 27.974 30.1846 28.0609C30.4486 27.9547 30.8143 27.8484 31.0377 27.7103C30.9361 27.4128 30.7229 27.0197 30.5908 26.7222" stroke="black" stroke-width="0.00833333"/>
<path d="M31.1596 27.6785L30.1846 27.6466L31.1494 27.9547L31.3221 27.8379L31.1596 27.6785M31.7283 22.7272L32.4291 22.6104L31.7283 22.621L31.6064 22.6847L31.7283 22.7272Z" fill="#009B3A"/>
<path d="M31.1596 27.6785L30.1846 27.6466L31.1494 27.9547L31.3221 27.8379L31.1596 27.6785M31.7283 22.7272L32.4291 22.6104L31.7283 22.621L31.6064 22.6847L31.7283 22.7272Z" stroke="black" stroke-width="0.00833333"/>
<path d="M32.1142 22.8866C31.911 22.8229 31.6063 22.7166 31.3931 22.6741L32.1446 22.3022C31.9923 22.4085 31.7587 22.536 31.6368 22.6422C31.7587 22.7272 31.972 22.8122 32.1142 22.8866" fill="#009B3A"/>
<path d="M32.1142 22.8866C31.911 22.8229 31.6063 22.7166 31.3931 22.6741L32.1446 22.3022C31.9923 22.4085 31.7587 22.536 31.6368 22.6422C31.7587 22.7272 31.972 22.8122 32.1142 22.8866" stroke="black" stroke-width="0.00833333"/>
<path d="M31.6876 22.7484L32.3782 22.5571L31.6672 22.6528L31.5657 22.7271L31.6977 22.7484" fill="#009B3A"/>
<path d="M31.6876 22.7484L32.3782 22.5571L31.6672 22.6528L31.5657 22.7271L31.6977 22.7484" stroke="black" stroke-width="0.00833333"/>
<path d="M32.1445 22.9398C31.9007 22.9079 31.5351 22.8654 31.3015 22.8654C31.4843 22.6954 31.7281 22.4298 31.8804 22.2598C31.7789 22.4191 31.6164 22.621 31.5453 22.7698C31.7078 22.8441 31.9617 22.8866 32.1445 22.9398" fill="#009B3A"/>
<path d="M32.1445 22.9398C31.9007 22.9079 31.5351 22.8654 31.3015 22.8654C31.4843 22.6954 31.7281 22.4298 31.8804 22.2598C31.7789 22.4191 31.6164 22.621 31.5453 22.7698C31.7078 22.8441 31.9617 22.8866 32.1445 22.9398" stroke="black" stroke-width="0.00833333"/>
<path d="M31.4438 22.8016L32.1547 22.7166L31.4641 22.6953L31.332 22.7591L31.4336 22.8016" fill="#009B3A"/>
<path d="M31.4438 22.8016L32.1547 22.7166L31.4641 22.6953L31.332 22.7591L31.4336 22.8016" stroke="black" stroke-width="0.00833333"/>
<path d="M31.9617 22.9608L31.2 22.8227L31.9007 22.4189C31.7585 22.5252 31.5554 22.6739 31.4539 22.7802C31.5859 22.8439 31.8093 22.9077 31.9617 22.9608" fill="#009B3A"/>
<path d="M31.9617 22.9608L31.2 22.8227L31.9007 22.4189C31.7585 22.5252 31.5554 22.6739 31.4539 22.7802C31.5859 22.8439 31.8093 22.9077 31.9617 22.9608" stroke="black" stroke-width="0.00833333"/>
<path d="M31.3832 22.8015L32.0027 22.5146L31.3222 22.7059L31.241 22.7909H31.3832" fill="#009B3A"/>
<path d="M31.3832 22.8015L32.0027 22.5146L31.3222 22.7059L31.241 22.7909H31.3832" stroke="black" stroke-width="0.00833333"/>
<path d="M31.9417 23.0456C31.769 22.9713 31.4847 22.8331 31.312 22.78L31.7589 22.27C31.6776 22.4081 31.5558 22.5888 31.4948 22.7375C31.6167 22.8438 31.7995 22.95 31.9417 23.0456" fill="#009B3A"/>
<path d="M31.9417 23.0456C31.769 22.9713 31.4847 22.8331 31.312 22.78L31.7589 22.27C31.6776 22.4081 31.5558 22.5888 31.4948 22.7375C31.6167 22.8438 31.7995 22.95 31.9417 23.0456" stroke="black" stroke-width="0.00833333"/>
<path d="M31.4133 22.8438L31.9008 22.6313L31.3727 22.6951L31.3117 22.8013L31.4133 22.8438ZM31.007 27.5826H30.0117L31.0273 27.8482L31.1898 27.742L31.007 27.5826Z" fill="#009B3A" stroke="black" stroke-width="0.00833333"/>
<path d="M31.1899 27.6467L30.1743 27.4023L31.1493 27.9017L31.3524 27.838L31.1899 27.6467" fill="#009B3A"/>
<path d="M31.1899 27.6467L30.1743 27.4023L31.1493 27.9017L31.3524 27.838L31.1899 27.6467" stroke="black" stroke-width="0.00833333"/>
<path d="M31.3625 27.7206L30.3469 27.6675L31.3625 27.9862L31.5352 27.88L31.3625 27.7206Z" fill="#009B3A" stroke="black" stroke-width="0.00833333"/>
<path d="M30.7229 26.9771C30.9768 27.2746 31.3729 27.7633 31.6471 28.0289C31.3119 28.0821 30.8041 28.2202 30.4893 28.3158C30.733 28.1883 31.0986 28.0396 31.3018 27.8908C31.1596 27.6146 30.8955 27.2533 30.7229 26.9771" fill="#009B3A"/>
<path d="M30.7229 26.9771C30.9768 27.2746 31.3729 27.7633 31.6471 28.0289C31.3119 28.0821 30.8041 28.2202 30.4893 28.3158C30.733 28.1883 31.0986 28.0396 31.3018 27.8908C31.1596 27.6146 30.8955 27.2533 30.7229 26.9771" stroke="black" stroke-width="0.00833333"/>
<path d="M31.4949 27.774L30.4792 27.4233L31.4339 28.0183L31.6371 27.9758L31.4949 27.7633" fill="#009B3A"/>
<path d="M31.4949 27.774L30.4792 27.4233L31.4339 28.0183L31.6371 27.9758L31.4949 27.7633" stroke="black" stroke-width="0.00833333"/>
<path d="M30.8145 27.041C31.0988 27.3173 31.5254 27.7529 31.8301 27.9973C31.5051 28.0929 31.0176 28.2948 30.7129 28.4223C30.9465 28.2735 31.2816 28.0823 31.4645 27.891C31.302 27.636 31.0074 27.3066 30.8145 27.041Z" fill="#009B3A" stroke="black" stroke-width="0.00833333"/>
<path d="M31.5862 27.8379L30.6213 28.0398L31.637 28.1035L31.7791 27.9654L31.576 27.8379" fill="#009B3A"/>
<path d="M31.5862 27.8379L30.6213 28.0398L31.637 28.1035L31.7791 27.9654L31.576 27.8379" stroke="black" stroke-width="0.00833333"/>
<path d="M31.383 27.7739L30.3877 27.8589L31.4135 28.0396L31.576 27.9121L31.3728 27.7739" fill="#009B3A"/>
<path d="M31.383 27.7739L30.3877 27.8589L31.4135 28.0396L31.576 27.9121L31.3728 27.7739" stroke="black" stroke-width="0.00833333"/>
<path d="M31.5657 27.8379L30.5298 27.6572L31.5454 28.0822L31.7282 28.0079L31.5657 27.8272V27.8379Z" fill="#009B3A" stroke="black" stroke-width="0.00833333"/>
<path d="M31.7385 27.8906L30.7229 27.9119L31.7588 28.1563L31.9213 28.0394L31.7385 27.8906Z" fill="#009B3A" stroke="black" stroke-width="0.00833333"/>
<path d="M31.048 27.2001C31.3323 27.4763 31.7589 27.9226 32.0534 28.1776C31.7183 28.252 31.2104 28.4326 30.9058 28.5388C31.1495 28.4007 31.4948 28.2307 31.6878 28.0607C31.5253 27.7951 31.2409 27.4551 31.048 27.1895V27.2001Z" fill="#009B3A" stroke="black" stroke-width="0.00833333"/>
<path d="M31.8809 27.9335L30.845 27.6572L31.8403 28.1885L32.0333 28.1247L31.8809 27.9335V27.9335Z" fill="#009B3A" stroke="black" stroke-width="0.00833333"/>
<path d="M31.1392 27.2534C31.4438 27.5084 31.911 27.9122 32.2259 28.1247C31.9009 28.2415 31.4337 28.4965 31.1493 28.6453C31.3728 28.4647 31.6876 28.2522 31.8603 28.0609C31.6774 27.8059 31.3524 27.4978 31.1493 27.2534H31.1392Z" fill="#009B3A" stroke="black" stroke-width="0.00833333"/>
<path d="M31.9721 27.9863L31.0276 28.2626H32.0432L32.1752 28.1032L31.9721 27.997V27.9863Z" fill="#009B3A" stroke="black" stroke-width="0.00833333"/>
<path d="M33.2722 26.5094L32.5003 25.9462L31.7285 26.5094L32.023 25.6169L31.3425 25.0644H32.216L32.5003 24.1719L32.7847 25.0644H33.6582L32.9777 25.6169L33.2722 26.5094Z" fill="#FEDF00" stroke="black" stroke-width="0.0333333"/>
</g>
<defs>
<clipPath id="clip0_804_32">
<rect width="65" height="51" fill="white"/>
</clipPath>
</defs>
</svg>
