<svg width="65" height="51" viewBox="0 0 65 51" fill="none" xmlns="http://www.w3.org/2000/svg">
<g clip-path="url(#clip0_806_537)">
<path d="M0 34H65V51H0V34Z" fill="black"/>
<path d="M0 17H65V34H0V17Z" fill="white"/>
<path d="M0 0H65V17H0V0Z" fill="#CE1126"/>
<path d="M32.565 25.7037L38.1306 31.1097L37.7325 21.2922C37.6756 19.8047 36.4406 20.1447 35.5388 20.6802C34.6369 21.2922 33.5888 21.2922 32.5 20.8927C31.4031 21.2922 30.3631 21.2922 29.4613 20.6802C28.5675 20.1447 27.3244 19.8047 27.2675 21.2922L26.8694 31.1097L32.565 25.7037V25.7037Z" fill="white" stroke="#C09300" stroke-width="0.086125" stroke-linejoin="round"/>
<path d="M27.9094 20.9526L27.5194 30.4981L26.8694 31.1101L27.2675 21.2926C27.4595 21.1386 27.6771 21.0233 27.9094 20.9526V20.9526ZM28.6894 21.6326L28.3644 29.6226L27.7144 30.3196L28.1044 21.0971C28.2344 21.2331 28.6163 21.5646 28.6894 21.6326ZM29.3963 22.2446L29.1444 28.9086L28.6163 29.4441L28.9413 21.8451C29.0713 21.9726 29.3313 22.1681 29.3963 22.2446ZM30.1681 22.5846L29.9163 28.2626L29.4044 28.6961L29.6563 22.3806C29.7863 22.4401 30.0381 22.5846 30.1681 22.5846ZM30.8831 22.5846L30.6963 27.3191L30.1681 27.8546L30.3713 22.6441C30.4931 22.6441 30.8263 22.6441 30.8831 22.5846Z" fill="#C09300"/>
<path d="M37.0906 20.9526L37.4806 30.4981L38.1306 31.1101L37.7325 21.2926C37.5405 21.1386 37.3229 21.0233 37.0906 20.9526V20.9526ZM36.3106 21.6326L36.6356 29.6226L37.2856 30.3196L36.8956 21.0971C36.7656 21.2331 36.3837 21.5646 36.3106 21.6326ZM35.6037 22.2446L35.8556 28.9086L36.3837 29.4441L36.0587 21.8451C35.9287 21.9726 35.6687 22.1681 35.6037 22.2446ZM34.8319 22.5846L35.0837 28.2626L35.5956 28.6961L35.3437 22.3806C35.2137 22.4401 34.9619 22.5846 34.8319 22.5846ZM34.1169 22.5846L34.3037 27.3191L34.8319 27.8546L34.6287 22.6441C34.5069 22.6441 34.1737 22.6441 34.1169 22.5846Z" fill="#C09300"/>
<path d="M32.76 26.7749L33.54 30.4979L33.28 30.7699L33.0118 30.5574L32.5731 27.2424L32.76 30.5574L32.5 30.8974L32.2481 30.5574L32.435 27.2424L31.9881 30.5574L31.72 30.7699L31.46 30.4979L32.24 26.7834H32.76V26.7749Z" fill="#C09300" stroke="#C09300" stroke-width="0.072875"/>
<path d="M30.753 25.1431L29.2012 30.8976L31.338 31.2376L32.2399 26.9111L30.753 25.1431Z" fill="white" stroke="#C09300" stroke-width="0.0795" stroke-linejoin="round"/>
<path d="M30.2412 27.1151L30.4281 27.5826L31.4356 26.5796" stroke="#C09300" stroke-width="0.086125" stroke-linejoin="round"/>
<path d="M30.9398 25.9248L31.1511 27.9903L31.793 27.1063M31.533 27.4463L31.8823 28.7213M32.0205 28.2538L31.3136 29.3758M31.533 30.4978L31.3055 29.3758L31.1105 28.2368L30.6311 28.9083L30.428 28.1348L29.7617 28.8488L30.0948 30.1408L30.5661 29.3418L30.818 30.1578L31.3055 29.3758" stroke="#C09300" stroke-width="0.086125" stroke-linejoin="round"/>
<path d="M29.6562 30.7698L30.0869 30.1323L30.3631 31.1098L30.7531 30.4298L31.005 31.2458" stroke="#C09300" stroke-width="0.086125" stroke-linejoin="round"/>
<path d="M34.247 25.1431L35.7988 30.8976L33.662 31.2376L32.7601 26.9111L34.247 25.1431Z" fill="white" stroke="#C09300" stroke-width="0.0795" stroke-linejoin="round"/>
<path d="M34.7588 27.1151L34.5719 27.5826L33.5644 26.5796" stroke="#C09300" stroke-width="0.086125" stroke-linejoin="round"/>
<path d="M34.0602 25.9248L33.8489 27.9903L33.207 27.1063M33.467 27.4463L33.1177 28.7213M32.9795 28.2538L33.6864 29.3758M33.467 30.4978L33.6945 29.3758L33.8895 28.2368L34.3689 28.9083L34.572 28.1348L35.2383 28.8488L34.9052 30.1408L34.4339 29.3418L34.182 30.1578L33.6945 29.3758" stroke="#C09300" stroke-width="0.086125" stroke-linejoin="round"/>
<path d="M35.3438 30.7698L34.9131 30.1323L34.6369 31.1098L34.2469 30.4298L33.995 31.2458" stroke="#C09300" stroke-width="0.086125" stroke-linejoin="round"/>
<path d="M32.5001 33.4726C34.1251 33.4726 35.6688 33.3366 36.5788 33.0731C36.9607 32.9966 36.9607 32.7926 36.9607 32.5206C37.3507 32.3846 37.1557 31.9086 37.4238 31.9086C37.1476 31.9936 37.0988 31.4411 36.7738 31.5091C36.7738 31.0331 36.3107 30.9736 35.9288 31.1096C35.157 31.3731 33.792 31.4411 32.5001 31.4411C31.2001 31.3731 29.8513 31.3731 29.0713 31.1011C28.6895 30.9736 28.2345 31.0331 28.2345 31.5091C27.9095 31.4411 27.8526 31.9851 27.5845 31.9086C27.8526 31.9086 27.6495 32.3931 28.0395 32.5206C28.0395 32.7926 28.0395 32.9966 28.4295 33.0731C29.3232 33.3366 30.8832 33.4726 32.5001 33.4726V33.4726Z" fill="white" stroke="#C09300" stroke-width="0.159" stroke-linecap="round" stroke-linejoin="round"/>
<path d="M30.2982 30.8973C30.8182 30.9738 31.4032 31.0333 31.8582 30.9738C32.1182 30.9738 32.3051 31.4413 31.7851 31.5093C31.3382 31.5688 30.6232 31.5093 30.2414 31.4413C29.7388 31.3492 29.2401 31.2358 28.7464 31.1013C28.2914 30.8973 28.6164 30.5063 28.8764 30.5573C29.3402 30.7127 29.8159 30.8265 30.2982 30.8973V30.8973ZM34.702 30.8973C34.182 30.9738 33.597 31.0333 33.1582 30.9738C32.882 30.9738 32.6951 31.4413 33.2151 31.5093C33.6701 31.5688 34.377 31.5093 34.7589 31.4413C35.0839 31.3733 35.7989 31.2458 36.2539 31.1013C36.7089 30.8973 36.3839 30.5063 36.1239 30.5573C35.66 30.7128 35.1844 30.8265 34.702 30.8973V30.8973Z" fill="white" stroke="#C09300" stroke-width="0.086125" stroke-linecap="round" stroke-linejoin="round"/>
<path d="M28.6812 30.6337C28.2912 30.5572 28.1125 31.0332 28.2344 31.3052C28.2912 31.1692 28.5594 31.1692 28.6162 31.0332C28.6894 30.8292 28.5594 30.8292 28.6894 30.6337H28.6812ZM30.2412 31.8832C30.2412 31.6112 30.4931 31.6452 30.4931 31.3732C30.4931 31.2457 30.4281 31.0332 30.2981 31.0332C30.2304 31.0373 30.1665 31.0672 30.1186 31.1174C30.0706 31.1675 30.042 31.2344 30.0381 31.3052C29.9812 31.5687 30.2412 31.6112 30.2412 31.8832V31.8832ZM32.0856 31.1097C32.4675 31.1097 32.4269 31.6452 32.2481 31.9172C32.2481 31.7217 31.9231 31.6452 31.9231 31.5092C31.9231 31.3052 32.2156 31.3052 32.0856 31.1097ZM36.3106 30.6337C36.7087 30.5572 36.8956 31.0332 36.7656 31.3052C36.7087 31.1692 36.4406 31.1692 36.3837 31.0332C36.3106 30.8292 36.4406 30.8292 36.3106 30.6337V30.6337ZM34.775 31.8747C34.775 31.6027 34.515 31.6367 34.515 31.3647C34.515 31.2372 34.58 31.0247 34.71 31.0247C34.7777 31.0288 34.8416 31.0587 34.8895 31.1089C34.9375 31.159 34.9661 31.2259 34.97 31.2967C35.0269 31.5602 34.7669 31.6027 34.7669 31.8747H34.775ZM32.9062 31.1097C32.5244 31.1097 32.565 31.6452 32.7437 31.9172C32.7437 31.7217 33.0687 31.6452 33.0687 31.5092C33.0687 31.3052 32.7762 31.3052 32.9062 31.1097Z" fill="white" stroke="#C09300" stroke-width="0.086125" stroke-linecap="round" stroke-linejoin="round"/>
<path d="M28.8196 30.7695C28.9496 30.7695 29.1446 30.829 29.2015 30.9055L28.8196 30.7695ZM29.4615 30.9735C29.5265 30.9735 29.7865 31.033 29.9083 31.1095L29.4615 30.9735ZM31.7852 31.2455C31.6633 31.2455 31.4033 31.2455 31.3383 31.305L31.7852 31.237V31.2455ZM31.0783 31.2455C31.0052 31.169 30.7533 31.169 30.6233 31.2455H31.0783ZM36.1808 30.7695C36.043 30.7713 35.9092 30.819 35.799 30.9055L36.1808 30.7695ZM35.5471 30.9735C35.4658 30.9735 35.2221 31.033 35.0921 31.1095L35.5471 30.9735ZM33.2152 31.2455C33.3371 31.2455 33.5971 31.2455 33.6702 31.305L33.2152 31.237V31.2455ZM33.9221 31.2455C33.9952 31.169 34.2471 31.169 34.3771 31.2455H33.9221Z" fill="white" stroke="#C09300" stroke-width="0.059625" stroke-linecap="round" stroke-linejoin="round"/>
<path d="M28.7059 31.8408C28.6653 31.8323 28.6409 31.7898 28.6572 31.7558C28.6653 31.6963 28.7059 31.6708 28.7384 31.6878C28.7709 31.6878 28.8116 31.7388 28.8116 31.7558L28.7791 31.8153L28.7628 31.8238C28.7628 31.8408 28.7303 31.8408 28.7059 31.8408ZM33.1747 32.1723C33.1584 32.1723 33.1259 32.1298 33.1259 32.1128C33.1259 32.0788 33.1747 32.0278 33.2072 32.0278L33.2722 32.0618C33.2966 32.0873 33.2966 32.1383 33.2641 32.1638C33.2478 32.1808 33.1991 32.1808 33.1747 32.1638V32.1723ZM33.1991 32.3848C33.1666 32.3678 33.1584 32.3508 33.1503 32.3168C33.1503 32.2743 33.1503 32.2658 33.1909 32.2403L33.2234 32.2233L33.2559 32.2403C33.2884 32.2573 33.3128 32.2743 33.3128 32.3083C33.3128 32.3338 33.2884 32.3593 33.2559 32.3763C33.2316 32.3933 33.2234 32.3933 33.1991 32.3763V32.3848Z" fill="#C09300"/>
<path d="M29.0714 31.4497C29.0389 31.4497 28.9983 31.4837 28.9739 31.5007C28.9252 31.5092 28.8602 31.5432 28.8114 31.5007C28.7627 31.4922 28.6977 31.5007 28.6895 31.5687C28.6977 31.6282 28.7708 31.6537 28.8195 31.6197C28.852 31.5772 28.9414 31.5432 28.9577 31.6197C28.917 31.6877 28.9252 31.7642 28.8927 31.8237C28.8927 31.8662 28.8683 31.9002 28.852 31.9342C28.8114 31.9342 28.7708 31.9342 28.7383 31.9597C28.7131 31.9597 28.6882 31.9659 28.6656 31.9777C28.643 31.9895 28.6234 32.0066 28.6083 32.0277C28.5758 32.0787 28.5433 32.1297 28.5352 32.1977C28.5433 32.2487 28.6164 32.2657 28.6652 32.2742L28.8277 32.3252L29.0877 32.4017C29.2177 32.4442 29.3477 32.4612 29.4777 32.4952L29.5183 32.5037C29.5752 32.5207 29.5995 32.4612 29.5995 32.4187L29.6808 32.1127C29.697 32.0702 29.7214 31.9852 29.6483 32.0022C29.6077 32.0277 29.567 32.0702 29.5183 32.0702C29.4452 32.0702 29.4858 32.1552 29.5183 32.1807C29.5183 32.2317 29.502 32.2912 29.4777 32.3337C29.4289 32.3592 29.3802 32.3337 29.3314 32.3167C29.2908 32.3167 29.1933 32.2912 29.2339 32.2317L29.2745 32.0787C29.2989 32.0277 29.2989 31.9682 29.3152 31.9087C29.2827 31.8492 29.2339 31.9342 29.1933 31.9427C29.1608 31.9597 29.0633 31.9682 29.112 32.0277C29.1608 32.0617 29.1283 32.1212 29.112 32.1722C29.112 32.2317 29.047 32.2572 28.9983 32.2317C28.9495 32.2317 28.8764 32.1892 28.917 32.1382L28.9577 31.9852L29.0145 31.8152C29.0145 31.7557 29.0389 31.7132 29.0633 31.6622C29.0633 31.6027 29.1039 31.5517 29.1039 31.4922C29.1039 31.4667 29.0877 31.4582 29.0714 31.4582V31.4497ZM28.7708 32.0702C28.7745 32.068 28.7787 32.0668 28.783 32.0668C28.7872 32.0668 28.7914 32.068 28.7952 32.0702C28.8114 32.0872 28.8114 32.1042 28.7952 32.1212L28.7708 32.1382C28.7302 32.1382 28.722 32.1297 28.722 32.1127C28.722 32.1042 28.722 32.0957 28.7464 32.0872C28.7563 32.0798 28.7673 32.074 28.7789 32.0702H28.7708ZM28.6895 32.4952C28.6489 32.4612 28.657 32.4357 28.7139 32.3847C28.7464 32.3677 28.7545 32.3677 28.787 32.3932C28.8358 32.4357 28.8358 32.4612 28.787 32.5037C28.7708 32.5207 28.7627 32.5207 28.7464 32.5207C28.722 32.5207 28.7139 32.5207 28.6895 32.5037V32.4952ZM28.9333 32.5802C28.9151 32.5743 28.8999 32.5612 28.8908 32.5438C28.8817 32.5263 28.8795 32.5059 28.8845 32.4867C28.9008 32.4527 28.9089 32.4442 28.9577 32.4442C29.0145 32.4442 29.0227 32.4527 29.0308 32.5037C29.0308 32.5377 29.0308 32.5462 29.0064 32.5632C28.9973 32.5707 28.9869 32.5761 28.9757 32.579C28.9645 32.582 28.9528 32.5824 28.9414 32.5802H28.9333ZM36.1808 32.5802C36.1645 32.5717 36.1564 32.5632 36.1564 32.5377C36.1564 32.5037 36.1727 32.4782 36.2214 32.4612C36.2702 32.4357 36.3027 32.4357 36.3189 32.4782C36.3433 32.5292 36.3433 32.5462 36.3108 32.5802C36.2945 32.6057 36.2864 32.6057 36.2458 32.6057C36.2052 32.6057 36.197 32.6057 36.1808 32.5887V32.5802ZM29.2745 32.6822C29.242 32.6822 29.2258 32.6482 29.2258 32.6142C29.2258 32.5887 29.2258 32.5802 29.242 32.5632L29.2908 32.5462L29.3395 32.5547C29.3802 32.5887 29.3883 32.6227 29.3639 32.6567C29.3395 32.6907 29.3152 32.6907 29.2664 32.6822H29.2745ZM31.0458 32.7672L31.0295 32.7417C31.0295 32.6907 31.0295 32.6482 31.0458 32.5972C31.0539 32.5547 31.0458 32.5122 31.062 32.4697L31.0945 32.2317C31.0945 32.1892 31.0945 32.1467 31.1108 32.1127C31.1189 32.0447 31.1108 31.9852 31.127 31.9257C31.127 31.9002 31.1514 31.8407 31.1758 31.8747C31.2083 31.9257 31.2489 31.9597 31.2895 32.0022C31.322 32.0277 31.2895 32.0617 31.2652 32.0702C31.2327 32.0787 31.2245 32.1212 31.2245 32.1552L31.2083 32.2572C31.2083 32.3167 31.2083 32.3677 31.192 32.4272L31.1839 32.5802L31.1677 32.6822C31.1677 32.7162 31.1677 32.7587 31.1352 32.7757C31.1108 32.7927 31.0702 32.7927 31.0539 32.7672H31.0458ZM33.4589 31.9342L33.3533 32.0362C33.3045 32.0787 33.3939 32.0957 33.402 32.1297C33.4183 32.1807 33.4183 32.2317 33.4183 32.2827C33.4345 32.3337 33.4427 32.3762 33.4345 32.4272C33.4345 32.4867 33.3695 32.4697 33.337 32.5037C33.2964 32.5207 33.2802 32.5632 33.2558 32.5887C33.2365 32.6313 33.2254 32.6776 33.2233 32.7247C33.2233 32.7672 33.1989 32.8097 33.2233 32.8437L33.2314 32.8607H33.272L33.3939 32.8522C33.4914 32.8352 33.597 32.8352 33.6945 32.8267L33.8733 32.8097C33.922 32.8182 33.9464 32.7672 33.9464 32.7247C33.9139 32.6652 33.9383 32.6057 33.9139 32.5547C33.8977 32.4867 33.9058 32.4272 33.8977 32.3677C33.8977 32.3167 33.8408 32.2997 33.8164 32.3337C33.7839 32.3677 33.7352 32.3762 33.7189 32.4102C33.6945 32.4612 33.7677 32.4612 33.7839 32.4952L33.792 32.6227C33.8002 32.6737 33.7514 32.6737 33.7108 32.6822C33.6702 32.6992 33.6133 32.7077 33.5889 32.6567C33.5727 32.6142 33.5727 32.5717 33.5727 32.5292C33.5727 32.4442 33.5483 32.3762 33.5483 32.2997C33.5483 32.2147 33.5239 32.1212 33.5239 32.0277C33.5239 31.9852 33.5158 31.9257 33.4589 31.9342V31.9342ZM33.4102 32.6312H33.4345V32.6992L33.4102 32.7077C33.3995 32.7112 33.3886 32.7141 33.3777 32.7162C33.3722 32.7164 33.3668 32.7164 33.3614 32.7162C33.3452 32.6992 33.3452 32.6737 33.3695 32.6482L33.4102 32.6312V32.6312ZM30.9727 31.8492C30.9483 31.8492 30.9077 31.9087 30.8752 31.9002C30.802 31.9087 30.8102 31.9852 30.867 32.0107V32.0787C30.8752 32.1467 30.8345 32.2062 30.8427 32.2742C30.8427 32.3422 30.8183 32.4187 30.8183 32.4952C30.7939 32.5717 30.7939 32.6482 30.7858 32.7247C30.7777 32.7927 30.7289 32.7672 30.6883 32.7502V32.6652C30.6964 32.5887 30.6477 32.5717 30.5908 32.5632C30.5339 32.5632 30.5095 32.5207 30.5258 32.4697C30.5502 32.4357 30.607 32.4442 30.6477 32.4442C30.7289 32.4612 30.7208 32.3507 30.6802 32.3082C30.6477 32.2572 30.5827 32.2232 30.5664 32.1722C30.5664 32.1042 30.5258 32.0277 30.4689 31.9937C30.3795 31.9852 30.3064 32.0617 30.282 32.1467C30.2414 32.1467 30.2008 32.1637 30.1683 32.1807C30.1114 32.1977 30.0302 32.2997 30.1114 32.3422C30.152 32.3507 30.2902 32.3847 30.2252 32.4442C30.1927 32.5122 30.1277 32.5122 30.0708 32.4952C30.0139 32.4952 29.9489 32.4612 29.9489 32.3932C29.9408 32.3252 29.9408 32.2572 29.9164 32.1977C29.9002 32.1297 29.827 32.1467 29.8189 32.2147C29.762 32.2572 29.7702 32.3337 29.8108 32.3847C29.8352 32.4442 29.8108 32.5207 29.7864 32.5717C29.7702 32.6567 29.6889 32.6567 29.632 32.6737C29.6077 32.6907 29.502 32.6737 29.5427 32.7332C29.6036 32.7626 29.6717 32.7715 29.7377 32.7587C29.8027 32.7587 29.8595 32.6992 29.9002 32.6397C29.9408 32.5972 30.0139 32.6227 30.0789 32.6227C30.1358 32.6227 30.2008 32.6652 30.2658 32.6312C30.282 32.5887 30.3633 32.5037 30.3877 32.5887C30.3877 32.6652 30.4445 32.6992 30.5095 32.6907C30.5827 32.6907 30.5502 32.7417 30.5502 32.7927C30.5502 32.8692 30.607 32.9117 30.672 32.9457H30.737C30.7939 32.9202 30.8589 32.8947 30.8833 32.8267C30.9077 32.7672 30.9077 32.6992 30.9239 32.6397C30.9402 32.5462 30.9564 32.4442 30.9564 32.3507C30.9808 32.2657 30.9727 32.1722 30.9889 32.0787L31.0133 31.8832C31.0133 31.8407 30.997 31.8407 30.9727 31.8492V31.8492ZM30.4283 32.1977C30.4364 32.1977 30.4445 32.2147 30.4445 32.2402C30.4445 32.2742 30.4608 32.2997 30.4852 32.3082V32.3337L30.4202 32.3507C30.3795 32.3507 30.347 32.3337 30.3227 32.3082L30.3064 32.2912L30.3308 32.2742L30.3714 32.2317C30.3958 32.2062 30.412 32.1977 30.4283 32.1977V32.1977ZM35.7908 31.5262C35.744 31.5297 35.6977 31.5383 35.6527 31.5517C35.5714 31.5517 35.5308 31.6367 35.612 31.6877C35.6608 31.8152 35.7339 31.6537 35.8152 31.6707C35.9289 31.6877 35.937 31.8237 35.9614 31.9257C35.9614 32.0192 35.9939 32.1127 36.0183 32.2062C36.0995 32.2997 35.9614 32.3592 35.9045 32.2912C35.8558 32.2317 35.742 32.1637 35.6852 32.2402C35.612 32.2742 35.6039 32.3762 35.547 32.4102C35.4495 32.4357 35.4414 32.3082 35.3845 32.2572C35.3358 32.1807 35.2464 32.1722 35.1733 32.1552C35.1408 32.0787 35.157 31.9512 35.092 31.9002C35.027 31.9257 34.9133 32.0447 35.0108 32.1042C35.092 32.1892 34.9702 32.2232 34.9295 32.2742C34.8645 32.3507 34.8483 32.4442 34.8483 32.5292C34.7427 32.5887 34.7264 32.4612 34.7102 32.3847C34.7102 32.2912 34.6289 32.3167 34.572 32.3507C34.4908 32.3847 34.4583 32.4612 34.4095 32.5207V32.6907C34.4258 32.7672 34.507 32.7332 34.5558 32.7247C34.637 32.6907 34.6695 32.7842 34.6045 32.8352C34.5558 32.8862 34.4258 32.8607 34.442 32.9542H34.572C34.6533 32.9287 34.7508 32.8607 34.7589 32.7587C34.7752 32.6737 34.897 32.6822 34.962 32.6652C35.0433 32.6397 35.1489 32.6312 35.1733 32.7502C35.2302 32.8097 35.352 32.8777 35.417 32.7927C35.448 32.7722 35.4728 32.743 35.4886 32.7084C35.5044 32.6738 35.5106 32.6353 35.5064 32.5972C35.4983 32.5292 35.612 32.5292 35.6445 32.5717C35.6852 32.6397 35.8152 32.6227 35.8802 32.5717C35.9452 32.5292 35.9614 32.4357 36.0589 32.4357L36.4977 32.3082C36.6114 32.2827 36.4814 32.2062 36.4489 32.1552C36.3677 32.1127 36.2864 32.2997 36.1889 32.2062C36.1077 32.1467 36.1158 32.0362 36.0914 31.9427C36.067 31.8237 36.0752 31.6877 35.9939 31.6027C35.9452 31.5432 35.8639 31.5262 35.7908 31.5262V31.5262ZM35.2383 32.3337C35.2464 32.3337 35.2627 32.3337 35.2789 32.3507C35.3114 32.3677 35.3358 32.4017 35.3358 32.4357C35.3358 32.4527 35.3358 32.4527 35.3114 32.4612L35.2708 32.4782C35.2545 32.4782 35.2139 32.4527 35.2139 32.4357V32.4017C35.1977 32.3677 35.1977 32.3677 35.2139 32.3507L35.2383 32.3337ZM35.7664 32.3677C35.7989 32.3677 35.8152 32.3677 35.8314 32.3932C35.8395 32.4272 35.8314 32.4442 35.7989 32.4612L35.7583 32.4782L35.7258 32.4527C35.7095 32.4442 35.7014 32.4357 35.7014 32.4187C35.7014 32.3932 35.7339 32.3677 35.7664 32.3592V32.3677ZM35.0352 32.3677C35.0514 32.3677 35.0595 32.3677 35.0677 32.3847C35.0839 32.4017 35.092 32.4102 35.092 32.4357V32.4867C35.092 32.5122 35.092 32.5037 35.0433 32.5037C34.9945 32.5037 34.9864 32.5037 34.9864 32.4527C34.9864 32.4187 34.9864 32.4102 35.0108 32.3932C35.0189 32.3762 35.0352 32.3762 35.0433 32.3762L35.0352 32.3677ZM34.5964 32.4952C34.6041 32.4976 34.6111 32.502 34.6167 32.5079C34.6224 32.5139 34.6266 32.5212 34.6289 32.5292C34.6289 32.5547 34.6289 32.5717 34.6127 32.5802C34.5883 32.5887 34.5477 32.5972 34.5314 32.5802C34.5312 32.5774 34.5312 32.5745 34.5314 32.5717C34.5152 32.5632 34.5152 32.5547 34.5314 32.5462V32.5377L34.5477 32.5122C34.5527 32.5039 34.5603 32.4977 34.5691 32.4946C34.578 32.4915 34.5877 32.4917 34.5964 32.4952V32.4952ZM35.3439 32.5972L35.3845 32.6057V32.6567H35.287L35.2789 32.6397C35.2789 32.6227 35.2789 32.6142 35.2952 32.6057L35.3439 32.5972V32.5972ZM33.9545 33.0052C33.9464 33.0052 33.9302 32.9967 33.9464 32.9882C33.9545 32.9627 33.987 32.9542 34.0114 32.9372C34.0557 32.9195 34.0948 32.8903 34.1252 32.8522C34.1252 32.8182 34.1577 32.8012 34.1577 32.7672L34.1495 32.6482C34.1386 32.6125 34.1154 32.5822 34.0845 32.5632C34.0602 32.5547 34.0277 32.5462 34.0195 32.5122C34.0195 32.4867 34.0439 32.4612 34.052 32.4357L34.1008 32.3337C34.1252 32.3082 34.1577 32.3337 34.1658 32.3507L34.2064 32.4357C34.2308 32.4612 34.247 32.4867 34.2552 32.5207C34.2714 32.5547 34.2877 32.5802 34.2877 32.6057L34.3039 32.7162C34.3039 32.7587 34.3039 32.8097 34.2877 32.8522L34.2389 32.9202C34.2145 32.9457 34.1902 32.9712 34.1577 32.9797C34.1333 32.9882 34.117 33.0137 34.0845 33.0137H33.9627L33.9545 33.0052ZM33.3939 33.0392C33.3777 33.0222 33.3695 33.0137 33.3695 32.9882C33.3695 32.9627 33.3695 32.9627 33.3939 32.9372C33.4264 32.9032 33.4427 32.9032 33.5077 32.9372C33.5645 32.9712 33.5889 32.9712 33.5889 32.9457C33.597 32.9287 33.6295 32.9032 33.6702 32.9032C33.6852 32.9038 33.6995 32.9098 33.7108 32.9202C33.727 32.9372 33.7352 32.9457 33.7352 32.9797C33.7352 33.0222 33.7352 33.0222 33.7108 33.0477C33.6864 33.0647 33.6864 33.0647 33.6539 33.0647C33.6395 33.0639 33.6256 33.0586 33.614 33.0495C33.6024 33.0404 33.5937 33.028 33.5889 33.0137C33.5889 32.9967 33.5889 32.9882 33.5727 33.0052L33.5564 33.0137C33.5402 33.0137 33.5077 33.0392 33.4914 33.0562L33.4508 33.0647C33.4183 33.0647 33.4183 33.0647 33.3939 33.0392V33.0392ZM31.7852 32.2827C31.7283 32.2827 31.6714 32.3337 31.6633 32.3932C31.6795 32.4527 31.7283 32.5207 31.6958 32.5802C31.7202 32.6652 31.6308 32.6992 31.5739 32.6567C31.5414 32.5717 31.5252 32.4867 31.4683 32.4017C31.4033 32.3847 31.3789 32.4952 31.3302 32.5377C31.3545 32.5972 31.4195 32.6567 31.4277 32.7332C31.4439 32.8182 31.3952 32.9032 31.3383 32.9372C31.2814 32.9967 31.2002 32.9797 31.1352 32.9882C31.0539 33.0392 31.192 33.0562 31.2327 33.0562C31.3139 33.0647 31.4033 33.0562 31.4764 32.9882C31.5333 32.9627 31.5252 32.8437 31.5983 32.8352L31.9883 32.8607C32.0533 32.8777 32.1589 32.8522 32.2077 32.9032C32.2077 32.9882 32.2889 33.0562 32.362 33.0902C32.4027 33.1072 32.4433 33.0477 32.4839 33.0392C32.5652 33.0137 32.5408 32.9117 32.5895 32.8692H32.9958C33.012 32.8692 33.0202 32.8267 33.0445 32.8097L33.0283 32.6482C33.0039 32.5802 33.0283 32.4952 32.9877 32.4357C32.9145 32.4187 32.8577 32.4782 32.7927 32.4867C32.7114 32.5207 32.6545 32.5972 32.6464 32.6822C32.6058 32.7587 32.5327 32.6652 32.5652 32.5972L32.557 32.5122C32.5164 32.4697 32.4433 32.4867 32.3864 32.4782L32.1427 32.4612C32.0614 32.4612 31.9883 32.4697 31.9233 32.4527C31.842 32.4527 31.842 32.3677 31.842 32.2997C31.8258 32.2868 31.8055 32.2807 31.7852 32.2827V32.2827ZM31.9477 32.5972L32.0289 32.6057H32.1345C32.2158 32.6227 32.297 32.6227 32.3783 32.6227C32.3945 32.6227 32.4108 32.6397 32.427 32.6567V32.8267C32.427 32.8522 32.427 32.8862 32.4108 32.8947C32.4065 32.9015 32.401 32.9073 32.3945 32.9117C32.3826 32.9095 32.3713 32.9045 32.3615 32.8972C32.3517 32.8898 32.3435 32.8803 32.3377 32.8692V32.7502C32.3216 32.736 32.3017 32.7271 32.2808 32.7247L32.0695 32.7162L31.907 32.7077C31.8827 32.6992 31.8502 32.7077 31.8339 32.6737C31.8177 32.6567 31.842 32.6227 31.8664 32.6142C31.8919 32.6023 31.9197 32.5964 31.9477 32.5972V32.5972ZM32.8658 32.6227C32.8739 32.6227 32.882 32.6227 32.882 32.6482L32.8983 32.6907C32.8983 32.6992 32.8983 32.7077 32.882 32.7077C32.8414 32.7247 32.8008 32.7247 32.7845 32.7077C32.7845 32.6992 32.7845 32.6652 32.8008 32.6567L32.8658 32.6227Z" fill="#C09300"/>
<path d="M32.5001 27.8118C35.1488 25.6868 34.9213 22.5588 34.9213 22.5588L34.7182 22.5758C34.1576 22.5758 32.8332 22.2358 32.5245 21.8193C32.1995 22.2018 30.8345 22.5843 30.282 22.5843L30.0788 22.5588C30.0788 22.5588 29.8432 25.6783 32.5001 27.8118Z" fill="white" stroke="#C09300" stroke-width="0.072875"/>
<path d="M34.71 22.7799H34.645C34.1413 22.7799 32.9713 22.5164 32.5163 22.1084C32.045 22.4824 30.8507 22.7884 30.355 22.7884C30.3332 22.7875 30.3114 22.7847 30.29 22.7799C30.2945 23.3171 30.3655 23.8513 30.5013 24.3694C30.8272 25.6175 31.5279 26.7231 32.5 27.5229C33.4728 26.72 34.1734 25.6116 34.4988 24.3609C34.6339 23.8456 34.7049 23.3142 34.71 22.7799V22.7799Z" fill="white" stroke="#C09300" stroke-width="0.059625"/>
<path d="M31.6388 22.5251C31.2024 22.6738 30.7486 22.7596 30.29 22.7801L30.2982 23.1286C30.3259 23.5456 30.394 23.9585 30.5013 24.3611C30.7197 25.1971 31.1077 25.974 31.6388 26.6391V22.5251ZM33.3125 22.5251V26.7071C33.8692 26.0267 34.2744 25.2254 34.4988 24.3611C34.606 23.9585 34.6741 23.5455 34.7019 23.1286L34.71 22.7886H34.645C34.3363 22.7886 33.8 22.6866 33.3125 22.5166V22.5251Z" fill="#C09300"/>
<path d="M33.4993 21.5049C33.5562 21.5134 33.4262 21.2074 33.4262 21.2074C33.5724 21.3604 34.1087 21.4029 34.1087 21.4029C33.7837 21.2499 33.4587 20.1194 33.4993 19.2099C33.5318 18.3089 33.3774 17.9519 33.2556 17.8159C33.0931 17.6459 32.5649 17.4929 32.2237 17.4759C32.0206 17.4674 32.0612 17.6289 32.0612 17.6289C31.6956 17.5354 31.3299 17.4929 31.1674 17.6119C31.0212 17.7139 30.9887 18.2494 31.1024 18.1559C31.3706 17.9264 31.6062 18.1389 31.7687 18.3854C31.9149 18.5979 31.9068 19.2099 31.6956 19.9324C31.5085 20.4786 31.2337 20.9874 30.8831 21.4369C31.2081 21.4369 31.6631 21.1394 31.6631 21.1394L31.5574 21.6069C31.8987 21.4369 32.1668 21.1734 32.1668 21.1734L32.4918 21.5304C32.5974 21.3774 32.8168 21.1734 32.8168 21.1734C32.8168 21.1734 33.0849 21.4709 33.4993 21.5134V21.5049Z" fill="white" stroke="#C09300" stroke-width="0.0795"/>
<path d="M32.1831 19.3462C32.1831 19.3462 32.0043 20.7402 31.6631 21.1312M32.4756 19.3037C32.4756 19.3037 32.3943 20.7232 32.1668 21.1737M32.7275 19.3632C32.7275 19.3632 32.7275 20.9102 32.8087 21.1737M33.0525 19.4397C33.0525 19.4397 33.1175 20.7402 33.4262 21.2077" stroke="#C09300" stroke-width="0.086125"/>
<path d="M31.8498 18.666C31.8425 18.5674 31.8148 18.4717 31.7685 18.3855C31.606 18.1305 31.3704 17.9265 31.1023 18.156C31.1023 18.156 31.1917 17.8585 31.3948 17.85C31.541 17.8415 31.8904 17.969 32.1992 18.513C32.1992 18.513 31.9717 18.462 31.9148 18.513C31.8173 18.598 31.8579 18.666 31.8579 18.666H31.8498Z" fill="#C09300" stroke="#C09300" stroke-width="0.019875"/>
<path d="M31.0698 17.7904C31.0942 17.7054 31.1267 17.6374 31.1755 17.6119C31.338 17.4929 31.6955 17.5269 32.0611 17.6289C32.0611 17.6289 32.0286 17.4674 32.2236 17.4759C32.5648 17.4929 33.0848 17.6459 33.2473 17.8159C33.2994 17.8757 33.3406 17.9448 33.3692 18.0199C33.288 17.9009 33.0605 17.9094 33.0036 17.9179C32.9223 17.9264 32.8654 17.9179 32.7517 17.9519C32.6948 17.9689 32.6136 17.9859 32.5648 18.0199C32.5323 18.0539 32.4998 18.1559 32.4511 18.1559C32.3698 18.1559 32.3698 18.1389 32.3455 18.1134C32.3211 18.0709 32.3048 18.0199 32.2723 18.0284C32.1911 18.0369 32.0448 17.9689 31.8661 17.8159C31.6792 17.6629 31.6061 17.6289 31.3786 17.6459C31.1348 17.6629 31.0698 17.8074 31.0698 17.8074V17.7904V17.7904Z" fill="#C09300" stroke="#C09300" stroke-width="0.019875"/>
<path d="M32.4018 18.0103C32.4553 18.0103 32.4987 17.965 32.4987 17.909C32.4987 17.853 32.4553 17.8076 32.4018 17.8076C32.3483 17.8076 32.3049 17.853 32.3049 17.909C32.3049 17.965 32.3483 18.0103 32.4018 18.0103Z" fill="white"/>
</g>
<defs>
<clipPath id="clip0_806_537">
<rect width="65" height="51" fill="white"/>
</clipPath>
</defs>
</svg>
