<svg width="65" height="51" viewBox="0 0 65 51" fill="none" xmlns="http://www.w3.org/2000/svg">
<g clip-path="url(#clip0_803_24)">
<path d="M15.2445 0H49.7453V51H15.2344L15.2445 0Z" fill="white"/>
<path d="M-2.00073 0H15.2446V51H-2.00073V0ZM49.7454 0H66.9907V51H49.7555L49.7454 0ZM20.4141 24.65L19.0633 25.1175L25.2993 30.855C25.7766 32.3106 25.1368 32.7463 24.7305 33.5113L31.4946 32.6188L31.3321 39.7375L32.7438 39.7056L32.429 32.6294L39.2032 33.4794C38.7868 32.555 38.411 32.0663 38.7969 30.5894L45.0227 25.1706L43.936 24.7456C43.0422 24.0231 44.3219 21.2819 44.5047 19.55C44.5047 19.55 40.879 20.8569 40.6454 20.1663L39.711 18.3069L36.4001 22.1106C36.0446 22.2063 35.8922 22.0575 35.8008 21.7388L37.3243 13.7913L34.9071 15.215C34.704 15.3106 34.5008 15.2256 34.379 14.9813L32.043 10.0938L29.6461 15.1725C29.4633 15.3531 29.2805 15.3744 29.1383 15.2469L26.8126 13.8975L28.204 21.7706C28.0922 22.0894 27.8282 22.1744 27.5235 22.0044L24.3547 18.2538C23.9485 18.9444 23.6641 20.0706 23.1157 20.3256C22.5672 20.57 20.729 19.8475 19.5001 19.5819C19.9266 21.1544 21.2266 23.7894 20.4141 24.65V24.65Z" fill="#D52B1E"/>
</g>
<defs>
<clipPath id="clip0_803_24">
<rect width="65" height="51" fill="white"/>
</clipPath>
</defs>
</svg>
