<svg width="65" height="51" viewBox="0 0 65 51" fill="none" xmlns="http://www.w3.org/2000/svg">
<g clip-path="url(#clip0_806_392)">
<path fill-rule="evenodd" clip-rule="evenodd" d="M0 0H65V51H0V0Z" fill="#FFE800"/>
<path fill-rule="evenodd" clip-rule="evenodd" d="M0 25.5H65V51H0V25.5Z" fill="#00148E"/>
<path fill-rule="evenodd" clip-rule="evenodd" d="M0 38.25H65V51H0V38.25Z" fill="#DA0010"/>
<path fill-rule="evenodd" clip-rule="evenodd" d="M27.3813 30.8975L20.0079 39.0257L19.886 38.8557L27.2391 30.7275L27.361 30.8975H27.3813ZM32.5 32.2257L22.8719 42.8507L22.7094 42.6807L32.3274 32.0557L32.5 32.2257Z" fill="black"/>
<path fill-rule="evenodd" clip-rule="evenodd" d="M22.9016 42.7266L22.0018 43.6679L20.9761 44.4777L21.7501 43.4047L22.6499 42.4633L22.9016 42.7266Z" fill="#808080" stroke="black" stroke-width="0.0401739"/>
<path fill-rule="evenodd" clip-rule="evenodd" d="M20.4233 38.5723L19.5235 39.5136L18.4978 40.3234L19.2718 39.2504L20.1717 38.309L20.4233 38.5723Z" fill="#808080" stroke="black" stroke-width="0.0401739"/>
<path fill-rule="evenodd" clip-rule="evenodd" d="M21.1189 12.1968C21.1189 12.1968 20.31 35.0856 23.5458 35.0856C26.7816 35.0856 28.404 32.6784 28.404 32.6784L28.3675 20.0984L21.1189 12.1968V12.1968Z" fill="#FFDF00" stroke="black" stroke-width="0.0592558"/>
<path fill-rule="evenodd" clip-rule="evenodd" d="M23.0979 14.332C23.0979 15.5356 22.7368 32.6784 24.3547 32.6784C25.9726 32.6784 28.404 31.4748 28.404 31.4748L28.3674 20.0984L23.0979 14.332V14.332Z" fill="#0000C4" stroke="black" stroke-width="0.0592558"/>
<path fill-rule="evenodd" clip-rule="evenodd" d="M24.1489 15.4878C24.1489 16.6914 24.3546 30.271 25.9771 30.271H28.4039L28.3673 20.0982L24.1489 15.4878Z" fill="#E10000" stroke="black" stroke-width="0.0592558"/>
<path fill-rule="evenodd" clip-rule="evenodd" d="M20.9421 12.3248L28.2953 20.4529L28.4273 20.2829L21.0742 12.1548L20.9421 12.3248V12.3248Z" fill="black"/>
<path fill-rule="evenodd" clip-rule="evenodd" d="M18.7177 16.8867C18.7177 16.8867 16.6324 39.0602 22.8882 39.0602C28.1014 39.0602 28.1014 35.5623 29.1441 35.5623L28.1014 27.3938L18.7118 16.8867H18.7177Z" fill="#FFDF00" stroke="black" stroke-width="0.0662132"/>
<path d="M23.8856 20.5736C23.9302 20.5701 25.5126 16.9878 29.4674 14.7203" stroke="black" stroke-width="0.0717282"/>
<path fill-rule="evenodd" clip-rule="evenodd" d="M23.238 17.1968C23.7895 17.466 24.1385 17.7758 24.4561 18.1371C23.825 17.9988 23.4994 17.9429 22.9479 17.6736C22.3965 17.4044 21.9752 16.9926 21.6404 16.6594C22.0509 16.7901 22.6835 16.9261 23.238 17.1968V17.1968Z" fill="#005B00" stroke="black" stroke-width="0.0324425"/>
<path fill-rule="evenodd" clip-rule="evenodd" d="M24.6213 19.3907C24.6619 19.4629 24.6269 19.5647 24.541 19.6147C24.4551 19.6646 24.3521 19.6454 24.3105 19.5713C24.2688 19.4973 24.3058 19.3991 24.3917 19.3491C24.4776 19.2992 24.5806 19.3184 24.6213 19.3907Z" fill="#FF0000" stroke="black" stroke-width="0.0222517"/>
<path fill-rule="evenodd" clip-rule="evenodd" d="M26.3545 14.9037C26.1155 15.5383 25.8518 15.9565 25.5479 16.3467C25.6846 15.6406 25.7425 15.2782 25.9815 14.6436C26.2205 14.0089 26.5693 13.4996 26.8512 13.0941C26.7295 13.5582 26.5948 14.2655 26.3545 14.9037V14.9037Z" fill="#005B00" stroke="black" stroke-width="0.0305855"/>
<path fill-rule="evenodd" clip-rule="evenodd" d="M25.5478 14.8705C25.4927 15.5052 25.3718 15.9967 25.213 16.4952C25.1714 15.8784 25.1405 15.5702 25.1956 14.9356C25.2508 14.3009 25.42 13.6832 25.5581 13.1885C25.56 13.6159 25.6033 14.2324 25.5478 14.8705V14.8705Z" fill="#005B00" stroke="black" stroke-width="0.0264082"/>
<path fill-rule="evenodd" clip-rule="evenodd" d="M26.0747 15.5968C25.7622 15.9814 25.4994 16.1482 25.2231 16.2566C25.5015 15.7232 25.6379 15.4395 25.9504 15.0549C26.2629 14.6703 26.5979 14.4896 26.8668 14.3494C26.6667 14.674 26.389 15.21 26.0747 15.5968V15.5968Z" fill="#005B00" stroke="black" stroke-width="0.028684"/>
<path fill-rule="evenodd" clip-rule="evenodd" d="M23.4121 16.134C23.7798 16.5956 23.9626 17.0401 24.1007 17.5314C23.6193 17.1889 23.3654 17.0291 22.9978 16.5675C22.6301 16.106 22.4229 15.528 22.2604 15.0622C22.559 15.3295 23.0425 15.6699 23.4121 16.134V16.134Z" fill="#005B00" stroke="black" stroke-width="0.0328223"/>
<path fill-rule="evenodd" clip-rule="evenodd" d="M22.6721 19.6918C23.1316 20.0764 23.3742 20.473 23.5675 20.9209C22.9829 20.6672 22.6758 20.5533 22.2163 20.1687C21.7567 19.784 21.477 19.2638 21.2568 18.8439C21.623 19.0537 22.21 19.3051 22.6721 19.6918V19.6918Z" fill="#005B00" stroke="black" stroke-width="0.0348485"/>
<path fill-rule="evenodd" clip-rule="evenodd" d="M24.8244 19.4805C24.4567 20.0959 24.059 20.5094 23.6032 20.8995C23.823 20.2246 23.918 19.8791 24.2857 19.2637C24.6533 18.6483 25.1782 18.1426 25.6023 17.7397C25.4112 18.1857 25.1941 18.8617 24.8244 19.4805V19.4805Z" fill="#005B00" stroke="black" stroke-width="0.0357995"/>
<path fill-rule="evenodd" clip-rule="evenodd" d="M25.2085 19.4561C24.6202 19.8792 24.1082 20.0994 23.5626 20.2728C24.0655 19.7307 24.3095 19.4457 24.8977 19.0226C25.486 18.5996 26.1421 18.3467 26.6694 18.1478C26.3014 18.4865 25.8 19.0307 25.2085 19.4561V19.4561Z" fill="#005B00" stroke="black" stroke-width="0.0344037"/>
<path fill-rule="evenodd" clip-rule="evenodd" d="M29.1742 15.0339C28.9169 15.3416 28.6861 15.5239 28.4375 15.6829C28.6493 15.3157 28.7511 15.1249 29.0085 14.8172C29.2658 14.5095 29.5628 14.2927 29.8017 14.121C29.6441 14.3562 29.433 14.7245 29.1742 15.0339V15.0339Z" fill="#005B00" stroke="black" stroke-width="0.0182192"/>
<path fill-rule="evenodd" clip-rule="evenodd" d="M28.6167 14.1257C28.4696 14.4527 28.3124 14.6983 28.1328 14.944C28.223 14.617 28.2624 14.4527 28.4095 14.1257C28.5566 13.7988 28.7637 13.4917 28.9311 13.2461C28.8537 13.4701 28.7646 13.797 28.6167 14.1257V14.1257Z" fill="#005B00" stroke="black" stroke-width="0.0151349"/>
<path fill-rule="evenodd" clip-rule="evenodd" d="M29.4777 14.713C29.2204 14.8669 29.027 14.914 28.8336 14.9285C29.091 14.6913 29.2204 14.5634 29.4777 14.4096C29.7351 14.2557 29.9768 14.2124 30.1702 14.1801C29.9939 14.3197 29.7365 14.5583 29.4777 14.713V14.713Z" fill="#005B00" stroke="black" stroke-width="0.0165898"/>
<path fill-rule="evenodd" clip-rule="evenodd" d="M25.9261 16.4363C25.4665 16.7247 25.0885 16.8926 24.6948 17.0371C25.1146 16.6891 25.3215 16.508 25.7811 16.2195C26.2406 15.931 26.7206 15.7324 27.1057 15.5751C26.8072 15.7972 26.3882 16.1462 25.9261 16.4363V16.4363Z" fill="#005B00" stroke="black" stroke-width="0.0208298"/>
<path fill-rule="evenodd" clip-rule="evenodd" d="M27.2675 16.8672C26.6609 17.2518 26.1443 17.4333 25.5987 17.5633C26.1314 17.0478 26.3915 16.775 26.9982 16.3903C27.6048 16.0057 28.2643 15.8034 28.7941 15.6453C28.4089 15.9626 27.8775 16.4804 27.2675 16.8672V16.8672Z" fill="#005B00" stroke="black" stroke-width="0.0346726"/>
<path d="M23.1448 23.0921C23.1839 23.0687 22.8142 19.6942 25.2818 16.1841" stroke="black" stroke-width="0.0706036"/>
<path fill-rule="evenodd" clip-rule="evenodd" d="M26.9269 15.98C26.9675 16.0523 26.9326 16.1541 26.8467 16.204C26.7608 16.254 26.6578 16.2347 26.6161 16.1607C26.5745 16.0866 26.6115 15.9884 26.6974 15.9385C26.7833 15.8886 26.8863 15.9078 26.9269 15.98Z" fill="#FF0000" stroke="black" stroke-width="0.0222517"/>
<path fill-rule="evenodd" clip-rule="evenodd" d="M28.0236 15.3106C28.0642 15.3829 28.0293 15.4846 27.9434 15.5346C27.8574 15.5845 27.7545 15.5653 27.7128 15.4912C27.6712 15.4172 27.7081 15.319 27.7941 15.2691C27.88 15.2191 27.983 15.2384 28.0236 15.3106Z" fill="#FF0000" stroke="black" stroke-width="0.0222517"/>
<path fill-rule="evenodd" clip-rule="evenodd" d="M24.9629 17.5603C24.9913 17.6156 24.9383 17.7029 24.8428 17.7529C24.7474 17.8028 24.6467 17.7976 24.6176 17.741C24.5884 17.6843 24.6429 17.5998 24.7383 17.5498C24.8338 17.4999 24.9344 17.5051 24.9629 17.5603Z" fill="#FF0000" stroke="black" stroke-width="0.0200628"/>
<path fill-rule="evenodd" clip-rule="evenodd" d="M25.2878 17.4114C25.3163 17.4667 25.2633 17.554 25.1678 17.6039C25.0723 17.6539 24.9717 17.6487 24.9425 17.592C24.9134 17.5354 24.9678 17.4508 25.0633 17.4009C25.1588 17.351 25.2594 17.3562 25.2878 17.4114Z" fill="#FF0000" stroke="black" stroke-width="0.0200628"/>
<path fill-rule="evenodd" clip-rule="evenodd" d="M25.095 17.7303C25.1234 17.7855 25.0704 17.8729 24.9749 17.9228C24.8794 17.9727 24.7788 17.9675 24.7497 17.9109C24.7205 17.8543 24.7749 17.7697 24.8704 17.7197C24.9659 17.6698 25.0665 17.675 25.095 17.7303Z" fill="#FF0000" stroke="black" stroke-width="0.0200628"/>
<path fill-rule="evenodd" clip-rule="evenodd" d="M25.6648 17.7757C25.7055 17.8607 25.6648 17.967 25.5633 18.0201C25.4617 18.0732 25.3601 18.0414 25.3195 17.9457C25.2789 17.8501 25.3195 17.7545 25.4211 17.7014C25.5226 17.6482 25.6242 17.6801 25.6547 17.7757H25.6648Z" fill="#FF0000" stroke="black" stroke-width="0.0248437"/>
<path fill-rule="evenodd" clip-rule="evenodd" d="M25.8983 17.5207C25.9288 17.6057 25.8983 17.7119 25.7968 17.765C25.6952 17.8182 25.5937 17.7863 25.5429 17.7013C25.4921 17.6163 25.5429 17.4994 25.6444 17.4463C25.746 17.3932 25.8476 17.4357 25.8882 17.5207H25.8983Z" fill="#FF0000" stroke="black" stroke-width="0.0248437"/>
<path fill-rule="evenodd" clip-rule="evenodd" d="M25.9493 17.6376C25.9899 17.7226 25.9493 17.8394 25.8477 17.8819C25.7461 17.9244 25.6446 17.9032 25.6039 17.8182C25.5633 17.7332 25.6039 17.6269 25.7055 17.5738C25.8071 17.5207 25.9086 17.5526 25.9493 17.6376Z" fill="#FF0000" stroke="black" stroke-width="0.0248437"/>
<path fill-rule="evenodd" clip-rule="evenodd" d="M20.8027 19.2256C20.8027 20.3916 18.7175 33.2306 23.9366 36.7286C26.0218 37.8946 29.1498 35.5626 29.1498 36.7286L28.1071 27.3941L20.8027 19.2256Z" fill="#0000C4" stroke="black" stroke-width="0.0662132"/>
<path fill-rule="evenodd" clip-rule="evenodd" d="M22.8881 21.5576C22.8881 22.7236 21.8455 32.0581 24.9793 34.3967C27.0646 36.7286 32.2837 36.0962 32.2837 36.0962L28.1072 27.3941L22.8881 21.5576V21.5576Z" fill="#E10000" stroke="black" stroke-width="0.0662132"/>
<path fill-rule="evenodd" clip-rule="evenodd" d="M18.6672 16.7873L28.2954 27.4123L28.468 27.2423L18.8399 16.6279L18.6774 16.7979L18.6672 16.7873Z" fill="black"/>
<path fill-rule="evenodd" clip-rule="evenodd" d="M17.1858 15.528L17.797 15.6408L17.9768 15.8289C17.9522 15.8269 18.1565 16.0169 17.9049 16.2802C17.6532 16.5435 17.2951 16.1659 17.2951 16.1659C17.2951 16.1659 17.4029 16.8053 17.7635 17.1825C18.124 17.5597 18.5544 17.4834 18.5544 17.4834C18.5544 17.4834 18.1447 17.1321 18.4466 16.844C18.7488 16.5533 18.878 16.7687 18.878 16.7687L19.2376 17.1449L19.4906 16.8801L18.0515 15.3745L17.9436 14.7351L17.0166 14.5745L17.1862 15.5254L17.1858 15.528Z" fill="#CECECC" stroke="black" stroke-width="0.0184762"/>
<path fill-rule="evenodd" clip-rule="evenodd" d="M18.6041 11.0631L19.3436 12.2625L20.2798 12.5268L19.6686 12.9406L20.7832 12.9029L21.2879 13.2801L21.4687 12.9775L20.9625 12.5993L20.5681 11.4316L20.4592 12.2232L19.8835 11.3553L18.6037 11.0604L18.6041 11.0631Z" fill="#CECECC" stroke="black" stroke-width="0.0198939"/>
<path fill-rule="evenodd" clip-rule="evenodd" d="M21.6124 11.7833C21.6124 11.847 21.5312 11.9012 21.4377 11.9012C21.3443 11.9012 21.259 11.847 21.259 11.7833C21.259 11.7195 21.3402 11.6622 21.4377 11.6622C21.5352 11.6622 21.6124 11.7163 21.6124 11.7833ZM21.3605 12.0351C21.3605 13.1762 22.2096 18.0212 22.2787 18.1392C22.2827 18.2826 22.0837 18.3432 21.9902 18.1678C21.7221 17.6132 21.1452 13.0678 21.1249 12.0064C21.1127 11.5697 21.2752 11.5347 21.4621 11.5442C21.6124 11.5506 21.7993 11.6622 21.7993 11.796C21.7993 11.9554 21.5637 12.0733 21.3605 12.0351V12.0351Z" fill="#E10000" stroke="black" stroke-width="0.0382495"/>
<path fill-rule="evenodd" clip-rule="evenodd" d="M21.9375 12.9149C21.907 12.9786 21.8039 13.0115 21.7152 12.9871C21.6264 12.9627 21.5713 12.8862 21.6017 12.8224C21.6322 12.7587 21.7368 12.7225 21.8294 12.748C21.9221 12.7735 21.9695 12.8479 21.9375 12.9149ZM21.5779 13.1008C21.8582 15.3926 20.9178 18.9318 20.9255 19.071C20.8624 19.2123 20.6428 19.224 20.6393 19.021C20.5931 18.8893 21.6757 15.6922 21.3677 13.0105C21.5649 12.5706 21.736 12.578 21.909 12.6365C22.0487 12.6822 22.1729 12.8426 22.1089 12.9765C22.0328 13.1359 21.7526 13.1922 21.5779 13.1008V13.1008Z" fill="#0000C4" stroke="black" stroke-width="0.0400852"/>
<path fill-rule="evenodd" clip-rule="evenodd" d="M18.9617 16.0969C18.9617 16.2031 18.8601 16.3094 18.7383 16.3094C18.6164 16.3094 18.5148 16.2031 18.5148 16.0969C18.5148 15.9906 18.6164 15.9056 18.7383 15.9056C18.8601 15.9056 18.9515 15.9906 18.9515 16.0969H18.9617ZM18.6367 16.5219C18.6367 18.4237 19.7031 26.4987 19.7843 26.7006C19.7843 26.9344 19.5508 27.0406 19.4289 26.7431C19.0937 25.8187 18.3726 18.2431 18.3422 16.4794C18.332 15.7462 18.5351 15.6931 18.7687 15.7037C18.9617 15.7144 19.1851 15.9056 19.1851 16.1287C19.1851 16.3837 18.8906 16.5856 18.6367 16.5219Z" fill="#E10000" stroke="black" stroke-width="0.0579687"/>
<path fill-rule="evenodd" clip-rule="evenodd" d="M19.5103 17.078C19.4696 17.18 19.3376 17.2348 19.2255 17.1981C19.1134 17.1615 19.0455 17.0413 19.0861 16.9393C19.1268 16.8373 19.2608 16.7774 19.3778 16.8156C19.4948 16.8539 19.5529 16.9709 19.5103 17.078ZM19.0475 17.3821C19.336 21.0155 18.0356 26.6599 18.0413 26.8808C17.9568 27.1068 17.6773 27.1307 17.6789 26.8084C17.624 26.6003 19.0951 21.4958 18.7831 17.2437C19.0467 16.5402 19.2641 16.5479 19.4822 16.6365C19.6585 16.7057 19.8117 16.9575 19.7264 17.1717C19.6248 17.4267 19.2669 17.5229 19.0475 17.3821V17.3821Z" fill="#0000C4" stroke="black" stroke-width="0.0564642"/>
<path fill-rule="evenodd" clip-rule="evenodd" d="M37.6187 30.8975L44.982 39.0257L45.1141 38.8557L37.7508 30.7275L37.6187 30.8975ZM32.5 32.2257L42.1281 42.8507L42.2906 42.6807L32.6727 32.0557L32.5 32.2257V32.2257Z" fill="black"/>
<path fill-rule="evenodd" clip-rule="evenodd" d="M42.0984 42.7266L42.9982 43.6679L44.0239 44.4777L43.2499 43.4047L42.3501 42.4633L42.0984 42.7266Z" fill="#808080" stroke="black" stroke-width="0.0401739"/>
<path fill-rule="evenodd" clip-rule="evenodd" d="M44.5767 38.5723L45.4765 39.5136L46.5022 40.3234L45.7282 39.2504L44.8283 38.309L44.5767 38.5723Z" fill="#808080" stroke="black" stroke-width="0.0401739"/>
<path fill-rule="evenodd" clip-rule="evenodd" d="M43.8811 12.1968C43.8811 12.1968 44.69 35.0856 41.4542 35.0856C38.2184 35.0856 36.596 32.6784 36.596 32.6784L36.6325 20.0984L43.8811 12.1968V12.1968Z" fill="#FFDF00" stroke="black" stroke-width="0.0592558"/>
<path fill-rule="evenodd" clip-rule="evenodd" d="M41.9021 14.332C41.9021 15.5356 42.2632 32.6784 40.6453 32.6784C39.0274 32.6784 36.596 31.4748 36.596 31.4748L36.6326 20.0984L41.9021 14.332V14.332Z" fill="#0000C4" stroke="black" stroke-width="0.0592558"/>
<path fill-rule="evenodd" clip-rule="evenodd" d="M40.8511 15.4883C40.8511 16.6919 40.6454 30.2715 39.0229 30.2715H36.5961L36.6327 20.0987L40.8511 15.4883Z" fill="#E10000" stroke="black" stroke-width="0.0592558"/>
<path fill-rule="evenodd" clip-rule="evenodd" d="M44.0577 12.3253L36.7045 20.4534L36.5725 20.2834L43.9256 12.1553L44.0577 12.3253Z" fill="black"/>
<path fill-rule="evenodd" clip-rule="evenodd" d="M38.2537 18.6022C38.2537 18.6022 40.315 21.3689 41.3095 23.5072C42.3032 25.65 43.4635 28.915 43.4635 28.915C43.4635 28.915 42.8005 25.7005 41.5492 23.1234C39.9096 19.8814 38.2529 18.7866 38.2537 18.6022Z" fill="#005B00" stroke="black" stroke-width="0.0276486"/>
<path fill-rule="evenodd" clip-rule="evenodd" d="M38.1826 16.4045C38.1826 16.4045 40.4829 19.8263 41.5329 22.3641C42.5815 24.9067 43.7491 28.7178 43.7491 28.7178C43.7491 28.7178 43.1824 25.0511 41.8529 21.9832C40.1007 18.112 38.1679 16.608 38.1826 16.4045Z" fill="#005B00" stroke="black" stroke-width="0.0319475"/>
<path fill-rule="evenodd" clip-rule="evenodd" d="M40.1676 13.0212C40.1676 13.0212 41.7951 18.0883 42.291 21.2216C42.7843 24.3577 43.0855 28.6736 43.0855 28.6736C43.0855 28.6736 43.399 25.0513 42.7342 21.2061C41.8146 16.2831 40.1002 13.1783 40.1676 13.0212Z" fill="#005B00" stroke="black" stroke-width="0.0362876"/>
<path fill-rule="evenodd" clip-rule="evenodd" d="M38.7066 12.7892C38.7066 12.7892 40.9601 17.2892 41.8379 20.3472C42.7134 23.4095 43.5367 27.8276 43.5367 27.8276C43.5367 27.8276 43.4178 23.8141 42.2839 20.0917C40.7628 15.3628 38.6573 12.9923 38.7066 12.7892Z" fill="#005B00" stroke="black" stroke-width="0.0367712"/>
<path fill-rule="evenodd" clip-rule="evenodd" d="M41.4128 14.2216C41.4128 14.2216 42.5342 19.0666 42.8159 21.9571C43.0954 24.8496 43.1755 28.7521 43.1755 28.7521C43.1755 28.7521 43.5651 25.5937 43.1741 22.0349C42.6181 17.4643 41.3524 14.3474 41.4128 14.2216Z" fill="#005B00" stroke="black" stroke-width="0.0326094"/>
<path fill-rule="evenodd" clip-rule="evenodd" d="M38.4491 14.355C38.4491 14.355 40.6293 18.2097 41.5116 20.9042C42.3918 23.603 43.2585 27.547 43.2585 27.547C43.2585 27.547 43.0479 23.892 41.9139 20.6195C40.3995 16.4715 38.4091 14.5462 38.4491 14.355Z" fill="#005B00" stroke="black" stroke-width="0.033538"/>
<path fill-rule="evenodd" clip-rule="evenodd" d="M38.0403 17.0392C38.0403 17.0392 40.3406 20.095 41.3905 22.4354C42.4392 24.7806 43.6067 28.3414 43.6067 28.3414C43.6067 28.3414 43.04 24.8528 41.7106 22.0303C39.9584 18.4772 38.0256 17.238 38.0403 17.0392Z" fill="#005B00" stroke="black" stroke-width="0.0315945"/>
<path fill-rule="evenodd" clip-rule="evenodd" d="M38.3389 15.6356C38.3389 15.6356 40.4549 19.2306 41.3761 21.831C42.2958 24.4361 43.2748 28.3004 43.2748 28.3004C43.2748 28.3004 42.8828 24.6384 41.7097 21.4886C40.1558 17.5066 38.315 15.8342 38.3389 15.6356Z" fill="#005B00" stroke="black" stroke-width="0.0315267"/>
<path fill-rule="evenodd" clip-rule="evenodd" d="M40.6305 13.0979C40.6305 13.0979 41.9909 18.0589 42.3281 21.0888C42.6626 24.1212 42.7499 28.2664 42.7499 28.2664C42.7499 28.2664 43.2358 24.8292 42.7665 21.1068C42.0981 16.3358 40.5562 13.243 40.6305 13.0979Z" fill="#005B00" stroke="black" stroke-width="0.0352737"/>
<path fill-rule="evenodd" clip-rule="evenodd" d="M38.7632 11.8611C38.7632 11.8611 40.7497 16.5343 41.4688 19.655C42.1854 22.7798 42.7948 27.251 42.7948 27.251C42.7948 27.251 42.8484 23.2422 41.91 19.4379C40.64 14.5983 38.7071 12.0593 38.7632 11.8611Z" fill="#005B00" stroke="black" stroke-width="0.0362643"/>
<path fill-rule="evenodd" clip-rule="evenodd" d="M41.9264 14.5761C41.9264 14.5761 42.7808 19.2283 42.9038 21.9841C43.0245 24.7417 42.8906 28.447 42.8906 28.447C42.8906 28.447 43.4527 25.4714 43.2572 22.0762C42.9524 17.713 41.8592 14.6923 41.9264 14.5761Z" fill="#005B00" stroke="black" stroke-width="0.0313549"/>
<path fill-rule="evenodd" clip-rule="evenodd" d="M38.5092 13.7877C38.5092 13.7877 40.4958 17.8156 41.2149 20.5728C41.9315 23.3341 42.5409 27.3312 42.5409 27.3312C42.5409 27.3312 42.5945 23.6809 41.6561 20.3265C40.3861 16.0678 38.4532 13.9741 38.5092 13.7877Z" fill="#005B00" stroke="black" stroke-width="0.0342706"/>
<path fill-rule="evenodd" clip-rule="evenodd" d="M46.2823 16.8872C46.2823 16.8872 48.3676 39.0607 42.1118 39.0607C36.8986 39.0607 36.8986 35.5628 35.8559 35.5628L36.8986 27.3943L46.2882 16.8872H46.2823Z" fill="#FFDF00" stroke="black" stroke-width="0.0662132"/>
<path fill-rule="evenodd" clip-rule="evenodd" d="M44.197 19.2256C44.197 20.3916 46.2823 33.2306 41.0632 36.7286C38.9779 37.8946 35.85 35.5626 35.85 36.7286L36.8926 27.3941L44.197 19.2256Z" fill="#0000C4" stroke="black" stroke-width="0.0662132"/>
<path fill-rule="evenodd" clip-rule="evenodd" d="M42.1119 21.5576C42.1119 22.7236 43.1545 32.0581 40.0207 34.3967C37.9354 36.7286 32.7163 36.0962 32.7163 36.0962L36.8928 27.3941L42.1119 21.5576V21.5576Z" fill="#E10000" stroke="black" stroke-width="0.0662132"/>
<path fill-rule="evenodd" clip-rule="evenodd" d="M46.3328 16.7878L36.7046 27.4128L36.532 27.2428L46.1601 16.6284L46.3328 16.7984V16.7878Z" fill="black"/>
<path fill-rule="evenodd" clip-rule="evenodd" d="M47.8142 15.5284L47.203 15.6413L47.0232 15.8293C47.0478 15.8274 46.8435 16.0174 47.0951 16.2807C47.3468 16.544 47.7049 16.1664 47.7049 16.1664C47.7049 16.1664 47.5971 16.8058 47.2365 17.183C46.876 17.5602 46.4456 17.4839 46.4456 17.4839C46.4456 17.4839 46.8553 17.1326 46.5534 16.8445C46.2512 16.5538 46.122 16.7692 46.122 16.7692L45.7624 17.1454L45.5094 16.8806L46.9485 15.375L47.0564 14.7356L47.9834 14.575L47.8138 15.5259L47.8142 15.5284Z" fill="#CECECC" stroke="black" stroke-width="0.0184762"/>
<path fill-rule="evenodd" clip-rule="evenodd" d="M46.3959 11.0631L45.6564 12.2625L44.7202 12.5268L45.3314 12.9406L44.2168 12.9029L43.7121 13.2801L43.5313 12.9775L44.0375 12.5993L44.4319 11.4316L44.5408 12.2232L45.1165 11.3553L46.3963 11.0604L46.3959 11.0631Z" fill="#CECECC" stroke="black" stroke-width="0.0198939"/>
<path fill-rule="evenodd" clip-rule="evenodd" d="M43.3976 11.7833C43.3976 11.847 43.4788 11.9012 43.5723 11.9012C43.6657 11.9012 43.751 11.847 43.751 11.7833C43.751 11.7195 43.6698 11.6622 43.5723 11.6622C43.4748 11.6622 43.3976 11.7163 43.3976 11.7833ZM43.6495 12.0351C43.6495 13.1762 42.8004 18.0212 42.7313 18.1392C42.7273 18.2826 42.9263 18.3432 43.0198 18.1678C43.2879 17.6132 43.8648 13.0678 43.8851 12.0064C43.8973 11.5697 43.7348 11.5347 43.5479 11.5442C43.3976 11.5506 43.2107 11.6622 43.2107 11.796C43.2107 11.9554 43.4463 12.0733 43.6495 12.0351V12.0351Z" fill="#E10000" stroke="black" stroke-width="0.0382495"/>
<path fill-rule="evenodd" clip-rule="evenodd" d="M43.0625 12.9149C43.093 12.9786 43.1961 13.0115 43.2848 12.9871C43.3736 12.9627 43.4287 12.8862 43.3983 12.8224C43.3678 12.7587 43.2632 12.7225 43.1706 12.748C43.0779 12.7735 43.0305 12.8479 43.0625 12.9149ZM43.4221 13.1008C43.1418 15.3926 44.0822 18.9318 44.0745 19.071C44.1376 19.2123 44.3572 19.224 44.3607 19.021C44.4069 18.8893 43.3243 15.6922 43.6323 13.0105C43.4351 12.5706 43.264 12.578 43.091 12.6365C42.9513 12.6822 42.8271 12.8426 42.8911 12.9765C42.9672 13.1359 43.2474 13.1922 43.4221 13.1008V13.1008Z" fill="#0000C4" stroke="black" stroke-width="0.0400852"/>
<path fill-rule="evenodd" clip-rule="evenodd" d="M46.0484 16.0969C46.0484 16.2031 46.1499 16.3094 46.2617 16.3094C46.3835 16.3094 46.4851 16.2031 46.4851 16.0969C46.4851 15.9906 46.3835 15.9056 46.2617 15.9056C46.1398 15.9056 46.0484 15.9906 46.0484 16.0969ZM46.3531 16.5219C46.1099 19.9299 45.7304 23.3258 45.2156 26.7006C45.2156 26.9344 45.4492 27.0406 45.571 26.7431C45.9062 25.8187 46.6273 18.2431 46.6578 16.4794C46.6679 15.7462 46.4648 15.6931 46.2312 15.7037C46.0382 15.7144 45.8148 15.9056 45.8148 16.1287C45.8148 16.3837 46.1093 16.5856 46.3632 16.5219H46.3531Z" fill="#E10000" stroke="black" stroke-width="0.0579687"/>
<path fill-rule="evenodd" clip-rule="evenodd" d="M45.4897 17.0785C45.5304 17.1805 45.6624 17.2353 45.7745 17.1986C45.8866 17.162 45.9545 17.0418 45.9139 16.9398C45.8732 16.8378 45.7392 16.7779 45.6222 16.8161C45.5052 16.8544 45.4471 16.9714 45.4897 17.0785ZM45.9525 17.3825C45.664 21.016 46.9644 26.6604 46.9587 26.8813C47.0432 27.1073 47.3227 27.1312 47.3211 26.8089C47.376 26.6008 45.9049 21.4963 46.2169 17.2442C45.9533 16.5407 45.7359 16.5484 45.5178 16.637C45.3415 16.7062 45.1883 16.958 45.2736 17.1722C45.3752 17.4272 45.7331 17.5234 45.9525 17.3825V17.3825Z" fill="#0000C4" stroke="black" stroke-width="0.0564642"/>
<path fill-rule="evenodd" clip-rule="evenodd" d="M29.1558 44.897C29.6317 45.2027 30.1709 45.3636 30.7198 45.3636C31.2686 45.3636 31.8078 45.2027 32.2837 44.897V35.5625H30.1984C31.2411 39.0605 31.2411 42.565 29.1499 44.897H29.1558Z" fill="#E10000" stroke="black" stroke-width="0.0662132"/>
<path fill-rule="evenodd" clip-rule="evenodd" d="M30.8069 35.7693C30.8069 42.3515 29.2961 43.8166 29.2961 45.1405C29.9253 45.1405 30.3448 44.5232 30.8069 43.6753C31.4361 42.3515 31.4965 35.6651 31.4361 35.7693H30.8069Z" fill="#0000C4" stroke="black" stroke-width="0.0546535"/>
<path fill-rule="evenodd" clip-rule="evenodd" d="M29.5487 35.7692C29.5167 39.6144 27.9562 43.177 28.2512 43.9653C28.5854 44.6719 29.5487 42.3514 30.807 43.6678C31.4362 42.3514 31.4966 35.6651 31.4362 35.7618H29.5487V35.7692Z" fill="#0000C4" stroke="black" stroke-width="0.0546535"/>
<path fill-rule="evenodd" clip-rule="evenodd" d="M29.6897 35.2083C29.6897 39.5337 28.2429 39.8221 28.2429 40.9756C28.8721 40.9756 29.6861 40.3451 29.6897 40.4037C30.3189 39.5337 30.3793 35.1399 30.3189 35.2083H29.6897Z" fill="#FFDF00" stroke="black" stroke-width="0.0443045"/>
<path fill-rule="evenodd" clip-rule="evenodd" d="M28.4314 35.2083C28.3994 37.7351 26.8744 39.8856 27.1695 40.4037C27.5072 40.8631 28.4314 39.5337 29.6897 40.4037C30.3189 39.5337 30.3793 35.1399 30.3189 35.2083H28.4314Z" fill="#FFDF00" stroke="black" stroke-width="0.0443045"/>
<path fill-rule="evenodd" clip-rule="evenodd" d="M35.8442 44.897C35.3683 45.2027 34.8291 45.3636 34.2802 45.3636C33.7314 45.3636 33.1922 45.2027 32.7163 44.897V35.5625H34.8016C33.7589 39.0605 33.7589 42.565 35.8501 44.897H35.8442Z" fill="#E10000" stroke="black" stroke-width="0.0662132"/>
<path fill-rule="evenodd" clip-rule="evenodd" d="M34.1931 35.7693C34.1931 42.3515 35.7039 43.8166 35.7039 45.1405C35.0747 45.1405 34.6552 44.5232 34.1931 43.6753C33.5639 42.3515 33.5035 35.6651 33.5639 35.7693H34.1931Z" fill="#0000C4" stroke="black" stroke-width="0.0546535"/>
<path fill-rule="evenodd" clip-rule="evenodd" d="M35.4513 35.7692C35.4833 39.6144 37.0438 43.177 36.7488 43.9653C36.4146 44.6719 35.4513 42.3514 34.193 43.6678C33.5638 42.3514 33.5034 35.6651 33.5638 35.7618H35.4513V35.7692Z" fill="#0000C4" stroke="black" stroke-width="0.0546535"/>
<path fill-rule="evenodd" clip-rule="evenodd" d="M35.3103 35.2083C35.3103 39.5337 36.7571 39.8221 36.7571 40.9756C36.1279 40.9756 35.3139 40.3451 35.3103 40.4037C34.6811 39.5337 34.6207 35.1399 34.6811 35.2083H35.3103Z" fill="#FFDF00" stroke="black" stroke-width="0.0443045"/>
<path fill-rule="evenodd" clip-rule="evenodd" d="M36.5686 35.2083C36.6006 37.7351 38.1256 39.8856 37.8305 40.4037C37.4928 40.8631 36.5686 39.5337 35.3103 40.4037C34.6811 39.5337 34.6207 35.1399 34.6811 35.2083H36.5686Z" fill="#FFDF00" stroke="black" stroke-width="0.0443045"/>
<path fill-rule="evenodd" clip-rule="evenodd" d="M24.5407 36.2908L23.4475 37.1182L24.5407 37.9457L25.0867 37.532L25.3597 37.9457L25.6327 38.7732L25.9069 37.9457L26.1799 37.532H40.8281V36.7045H26.1787L25.9057 36.2884C25.9057 35.8747 25.963 35.4609 26.1799 35.4609H27.2719C27.2719 35.0472 26.7259 34.2197 25.6327 34.2197C24.5407 34.2197 23.9935 35.0472 23.9935 35.4609H25.0867C25.3024 35.4609 25.3597 35.8747 25.3597 36.2908L25.0867 36.7045L24.5395 36.2884L24.5407 36.2908Z" fill="#908F8A" stroke="black" stroke-width="0.0605495"/>
<path fill-rule="evenodd" clip-rule="evenodd" d="M27.7473 38.2966H37.3222V38.8043H27.7502L27.7473 38.2966ZM27.7473 37.7859H37.3222V38.2966H27.7502L27.7473 37.7859ZM27.7473 37.2781H37.3222V37.7888H27.7502L27.7473 37.2781ZM27.7473 36.7704H37.3222V37.2781H27.7502L27.7473 36.7704ZM27.7473 36.2626H37.3222V36.7704H27.7502L27.7473 36.2626ZM27.7473 35.752H37.3222V36.2626H27.7502L27.7473 35.752ZM27.7473 35.2471H37.3222V35.752H27.7502L27.7473 35.2471Z" fill="#B74D00" stroke="black" stroke-width="0.0409854"/>
<path fill-rule="evenodd" clip-rule="evenodd" d="M28.2039 35.2168L31.7027 38.774H32.2029L28.7066 35.2197H28.2064L28.2039 35.2168Z" fill="#908F8A" stroke="black" stroke-width="0.0710005"/>
<path fill-rule="evenodd" clip-rule="evenodd" d="M28.2039 38.8818L31.7027 35.3246H32.2029L28.7066 38.879H28.2064L28.2039 38.8818Z" fill="#908F8A" stroke="black" stroke-width="0.0710005"/>
<path fill-rule="evenodd" clip-rule="evenodd" d="M28.301 35.2168V38.774H28.8044V35.2168H28.301V35.2168Z" fill="#908F8A" stroke="black" stroke-width="0.070586"/>
<path fill-rule="evenodd" clip-rule="evenodd" d="M32.7031 35.2168L36.202 38.774H36.7021L33.2059 35.2197H32.7057L32.7031 35.2168Z" fill="#908F8A" stroke="black" stroke-width="0.0710005"/>
<path fill-rule="evenodd" clip-rule="evenodd" d="M32.7031 38.8818L36.202 35.3246H36.7021L33.2059 38.879H32.7057L32.7031 38.8818Z" fill="#908F8A" stroke="black" stroke-width="0.0710005"/>
<path fill-rule="evenodd" clip-rule="evenodd" d="M36.304 35.2168V38.774H36.8073V35.2168H36.304V35.2168Z" fill="#908F8A" stroke="black" stroke-width="0.070586"/>
<path fill-rule="evenodd" clip-rule="evenodd" d="M32.8103 35.2168V38.774H33.3136V35.2168H32.8103V35.2168Z" fill="#908F8A" stroke="black" stroke-width="0.070586"/>
<path fill-rule="evenodd" clip-rule="evenodd" d="M31.7947 35.2168V38.774H32.298V35.2168H31.7947V35.2168Z" fill="#908F8A" stroke="black" stroke-width="0.070586"/>
<path fill-rule="evenodd" clip-rule="evenodd" d="M39.588 25.0622C39.588 30.8592 36.3128 35.5627 32.2836 35.5627C28.2544 35.5627 24.9792 30.8592 24.9792 25.0622C24.9792 19.2652 28.2485 14.5552 32.2836 14.5552C36.3187 14.5552 39.588 19.2587 39.588 25.0557V25.0622ZM38.5454 25.0622C38.5454 30.2137 35.7414 34.3967 32.2836 34.3967C28.8258 34.3967 26.0219 30.2137 26.0219 25.0622C26.0219 19.9042 28.8258 15.7212 32.2836 15.7212C35.7414 15.7212 38.5454 19.9042 38.5454 25.0622V25.0622Z" fill="#FFDF00" stroke="black" stroke-width="0.0662132"/>
<path fill-rule="evenodd" clip-rule="evenodd" d="M35.1288 15.3852C34.2511 14.8516 33.2909 14.5552 32.2836 14.5552C31.2764 14.5552 30.3162 14.8516 29.4385 15.3786L29.8508 16.459C30.5916 15.9815 31.4316 15.7301 32.2866 15.7301C33.1416 15.7301 33.9816 15.9815 34.7224 16.459L35.1288 15.3786V15.3852Z" fill="#FFDF00" stroke="black" stroke-width="0.0662132"/>
<path fill-rule="evenodd" clip-rule="evenodd" d="M35.1491 34.4571C34.2714 34.9907 33.3112 35.2871 32.3039 35.2871C31.2966 35.2871 30.3364 34.9907 29.4587 34.4637L29.8711 33.3833C30.6118 33.8608 31.4518 34.1122 32.3069 34.1122C33.1619 34.1122 34.0019 33.8608 34.7426 33.3833L35.1491 34.4637V34.4571Z" fill="#FFDF00" stroke="black" stroke-width="0.0662132"/>
<path fill-rule="evenodd" clip-rule="evenodd" d="M38.5532 25.0644C38.5532 30.2175 35.7399 34.3931 32.2868 34.3931C28.8336 34.3931 26.0305 30.2175 26.0305 25.0644C26.0305 19.9112 28.8336 15.7144 32.2868 15.7144C35.7399 15.7144 38.5532 19.9006 38.5532 25.0644V25.0644Z" fill="#A7CFFF"/>
<path fill-rule="evenodd" clip-rule="evenodd" d="M38.5454 25.0619C38.6102 26.8142 38.2744 27.6706 37.8444 29.4953C37.7325 29.6929 37.1964 29.0671 36.8783 28.7575C36.5602 28.4479 36.4189 29.0342 36.0183 28.5599C35.6236 28.0724 35.3703 28.6916 35.0758 28.2832C34.7813 27.8748 32.0539 27.8221 32.0539 27.7825C32.3249 27.6376 33.7151 27.7957 33.4912 27.0513C33.2379 26.274 31.6651 27.025 31.4531 26.0369C31.3058 25.0487 28.2957 25.0092 28.0777 24.7721C28.1661 25.141 30.4222 25.2991 30.3692 26.2542C30.3162 26.6495 28.1484 26.7615 27.9364 27.0909C27.7596 27.5059 29.6446 26.9789 29.7094 27.4861C29.7094 27.6969 29.4326 27.4861 28.4547 27.8155C27.9599 27.9802 29.3619 28.494 28.8317 28.7773C28.3016 29.0605 27.1647 29.1857 27.2118 29.3043C27.3885 29.8971 29.8449 30.5954 29.6034 30.6942C28.7316 31.129 28.2721 31.4123 27.8539 31.6626C26.6284 29.7377 25.9864 27.4245 26.0219 25.0619C27.8892 24.3109 27.4946 24.1528 30.9465 24.1528C34.3984 24.1528 35.5412 24.3043 38.5454 25.0619V25.0619Z" fill="#AFFF7B" stroke="black" stroke-width="0.0662132"/>
<path fill-rule="evenodd" clip-rule="evenodd" d="M38.5454 25.062C38.0742 25.062 37.5794 25.286 37.0728 25.286C36.5603 25.286 36.0419 25.0554 35.5118 25.0554C34.9816 25.0554 34.3749 25.3585 33.8329 25.3585C33.2851 25.3585 32.808 25.062 32.2601 25.062C31.7123 25.062 31.1645 25.286 30.6225 25.286C30.0806 25.286 29.5446 25.0554 29.0203 25.0554C28.496 25.0554 27.9777 25.286 27.477 25.286C26.9763 25.286 26.4873 25.0554 26.022 25.0554C26.022 23.7709 26.1987 22.5456 26.5168 21.4257C28.1073 21.5575 27.1648 20.3915 28.1073 20.3915C28.3824 20.3748 28.6576 20.4238 28.9145 20.5351C29.1714 20.6464 29.4043 20.8175 29.5976 21.0371C29.739 21.0371 30.4458 20.2861 31.2411 20.3915C32.0304 20.4969 31.7418 22.1899 32.7962 22.2755C33.3263 22.7235 33.6386 23.0067 34.369 23.1912C35.4116 23.2966 38.3982 23.0265 38.4158 23.178C38.5018 23.8014 38.5452 24.4312 38.5454 25.062V25.062Z" fill="white" stroke="black" stroke-width="0.0662132"/>
<path fill-rule="evenodd" clip-rule="evenodd" d="M33.2293 30.4958C33.2293 30.2051 33.5035 30.0113 33.5035 29.5472C33.5035 29.0831 33.2598 29.0729 33.2517 28.6394C33.2476 28.4609 33.4609 28.2824 33.5543 28.262C33.6478 28.2416 33.727 28.6394 33.727 28.7261C33.727 28.8128 33.6315 28.5119 33.5523 28.5068C33.4731 28.5017 33.3025 28.5374 33.3025 28.6241C33.3025 28.7975 33.6031 29.0117 33.5807 29.5931C33.5584 30.1643 33.3228 30.3377 33.3228 30.5111C33.3228 30.6845 33.4243 31.1639 33.4243 31.1639C33.4243 31.1639 33.2273 30.7814 33.2273 30.4907L33.2293 30.4958Z" fill="black" stroke="black" stroke-width="0.0342114"/>
<path fill-rule="evenodd" clip-rule="evenodd" d="M34.1066 30.4533C34.1066 30.1626 33.8324 29.9688 33.8324 29.5047C33.8324 29.0406 34.0761 29.0304 34.0843 28.5969C34.1046 28.3929 33.8446 28.2603 33.7511 28.245C33.6577 28.2297 33.548 28.653 33.548 28.7346C33.548 28.8162 33.6577 28.4694 33.7369 28.4643C33.8161 28.4592 34.0335 28.4949 34.0335 28.5816C34.0335 28.755 33.7329 28.9692 33.7552 29.5506C33.7775 30.1218 34.0132 30.2952 34.0132 30.4686C34.0132 30.642 33.9116 31.1214 33.9116 31.1214C33.9116 31.1214 34.1086 30.7389 34.1086 30.4482L34.1066 30.4533Z" fill="black" stroke="black" stroke-width="0.0342114"/>
<path fill-rule="evenodd" clip-rule="evenodd" d="M33.8204 28.1455C33.8204 28.2836 33.7493 28.4005 33.6681 28.4005C33.5868 28.4005 33.5259 28.2836 33.5259 28.1349C33.5259 27.9861 33.5868 27.8799 33.6681 27.8799C33.7493 27.8799 33.8204 27.9968 33.8204 28.1455ZM35.547 29.1018H35.5876V31.1736H35.5368L35.547 29.1018ZM35.9634 28.9318H36.0142V31.0249H35.9634V28.9318Z" fill="black"/>
<path fill-rule="evenodd" clip-rule="evenodd" d="M35.811 29.8773V29.8242L36.2173 29.8986V29.9517L35.811 29.8773Z" fill="black"/>
<path fill-rule="evenodd" clip-rule="evenodd" d="M30.0049 30.4788C30.0049 30.4788 31.5365 31.2297 31.8722 31.6777C32.2021 32.1256 32.0725 32.1256 32.0725 32.1256L35.4714 32.2771C35.4714 32.0532 36.0723 32.0532 36.2077 31.5262C36.3432 31.0058 36.3432 30.8543 36.3432 30.8543L35.277 31.2297L35.3359 30.5578H34.4052L34.2697 31.2297L32.2669 31.1573L32.4024 29.3589L32.0018 29.4313L31.9429 31.1441C31.8722 31.1441 30.0697 30.6237 29.999 30.4788H30.0049Z" fill="#B74D00" stroke="black" stroke-width="0.0662132"/>
<path fill-rule="evenodd" clip-rule="evenodd" d="M26.9231 19.7525C26.9231 19.7525 29.1439 19.0147 32.3484 19.0674C35.5529 19.1201 37.7736 19.9106 37.7265 19.9106C37.6794 19.9106 37.1139 18.6985 37.1139 18.6985C37.1139 18.6985 34.8519 18.0068 32.3012 17.9541C29.7565 17.9014 27.5357 18.4811 27.5887 18.5338L26.9231 19.7525V19.7525Z" fill="#FEDE00" stroke="#FEDE00" stroke-width="0.0662132"/>
<path fill-rule="evenodd" clip-rule="evenodd" d="M31.0781 18.041L32.4594 18.0198L32.4797 18.8592L31.0984 18.891L31.0781 18.041ZM27.9094 18.4979L27.4219 19.3373L29.0672 19.1248L28.9352 18.3067L27.9094 18.5192V18.4979ZM29.3008 18.1792L30.682 18.0623L30.743 18.891L29.3719 19.0185L29.3008 18.1792ZM34.2672 18.1048L32.8961 17.9985L32.8453 18.8485L34.2164 18.9335L34.2672 18.1048ZM37.2328 18.636L37.7305 19.656L36.2477 19.2735L36.4102 18.4554L37.2227 18.6254L37.2328 18.636ZM36.0344 18.3173L34.6734 18.1367L34.5719 18.9654L35.943 19.1567L36.0344 18.3173Z" fill="#38A9F9"/>
<path fill-rule="evenodd" clip-rule="evenodd" d="M32.3486 20.227L32.2013 19.3377L31.7536 20.0952L31.9186 19.2059L31.2529 19.7132L31.7006 18.9688L30.9113 19.1532L31.5887 18.6526L30.7935 18.4879L31.5887 18.3166L30.9113 17.8159L31.7006 18.0004L31.247 17.256L31.9186 17.7633L31.7536 16.8739L32.2013 17.6315L32.3486 16.7422L32.5017 17.6315L32.9435 16.8739L32.7845 17.7633L33.4501 17.256L32.9965 18.0004L33.7918 17.8159L33.1144 18.3166L33.9096 18.4879L33.1144 18.6526L33.7918 19.1532L32.9965 18.9688L33.4501 19.7132L32.7845 19.2059L32.9494 20.0952L32.5017 19.3377L32.3486 20.227Z" fill="#FFDF00" stroke="black" stroke-width="0.0662132"/>
<path fill-rule="evenodd" clip-rule="evenodd" d="M33.5248 17.9296C33.5248 18.4236 33.1428 18.8221 32.6681 18.8221C32.1934 18.8221 31.8113 18.4236 31.8113 17.9296C31.8113 17.4355 32.1934 17.0317 32.6681 17.0317C33.1428 17.0317 33.5248 17.4355 33.5248 17.9349V17.9296Z" fill="#FFDF00" stroke="black" stroke-width="0.0589464"/>
<path fill-rule="evenodd" clip-rule="evenodd" d="M32.5712 18.1263C32.5712 18.1794 32.4392 18.2325 32.2868 18.2325C32.1345 18.2325 32.0024 18.1794 32.0024 18.1263C32.0024 18.0731 32.1243 18.02 32.2868 18.02C32.4493 18.02 32.5712 18.0625 32.5712 18.1263ZM33.1806 18.1263C33.1806 18.1794 33.0892 18.2325 32.9774 18.2325C32.8657 18.2325 32.754 18.1794 32.754 18.1263C32.754 18.0625 32.8556 18.02 32.9673 18.02C33.079 18.02 33.1806 18.0625 33.1806 18.1263V18.1263Z" fill="black"/>
<path d="M32.5412 18.4925L32.6005 18.5282C32.4579 18.437 32.5229 18.4708 32.7468 18.7016C32.8747 18.6238 32.8989 18.553 32.9783 18.4568" stroke="black" stroke-width="0.0668749"/>
<path d="M31.9743 18.9618L32.0214 19.0145C31.9095 18.8828 31.9625 18.9487 32.2099 19.1199C32.4456 19.1529 32.6871 19.0409 32.8285 18.8564" stroke="black" stroke-width="0.0662132"/>
<path fill-rule="evenodd" clip-rule="evenodd" d="M28.5796 20.6978C28.5796 20.6978 28.6812 21.5478 28.0617 22.6103C27.4523 23.6621 27.5437 23.2903 27.5437 23.2903C27.5437 23.2903 27.8281 23.8746 27.7773 23.8746C27.7265 23.8746 27.2999 23.3434 27.2999 23.3434L26.7921 23.9278C26.7921 23.9278 27.2593 23.0246 27.2085 23.0246C27.1578 23.0246 27.0664 22.7059 27.0664 22.7059L27.4421 22.5465C27.4421 22.5465 28.0109 21.4415 28.0109 21.4946C28.0109 21.5478 26.3148 22.7059 26.3148 22.7059L28.5796 20.7084V20.6978ZM28.9554 21.0165C28.9046 21.0165 29.189 21.8665 29.4328 22.2915C29.6664 22.7165 29.6664 23.2371 29.6664 23.2371L30.4687 23.6621L29.4328 22.0259L30.0929 22.2809L28.9554 21.0165ZM28.9554 23.2371C28.9554 23.2371 29.5242 23.8746 29.5648 24.0871C29.6054 24.2996 29.6156 24.7671 29.6156 24.7671L29.382 24.2359L29.0468 24.714C29.0468 24.714 29.2906 23.9703 29.2398 23.9171C29.189 23.864 28.864 24.1828 28.864 24.1828C28.864 24.1828 29.0062 23.7578 29.0062 23.7153C29.0062 23.6728 29.0062 23.3965 28.9554 23.2371V23.2371ZM26.1218 24.714C26.3148 24.5546 26.6906 24.4484 26.6906 24.4484C26.6906 24.4484 26.457 24.8734 26.4062 24.8734C26.3554 24.8734 26.2234 24.8734 26.1218 24.714ZM32.632 22.3978C32.632 22.3978 33.8609 23.184 33.8609 23.2371C33.8609 23.2903 33.0585 22.8653 33.0585 22.8653L32.632 22.3978V22.3978ZM30.4179 20.7509C30.5195 20.804 32.2156 22.2809 32.1648 22.2809C32.114 22.2809 31.4132 21.8559 31.4132 21.9196V22.2809L31.0273 21.4415L30.9359 21.7603L30.4281 20.7509H30.4179ZM30.8445 23.1309L31.3117 24.1296L31.789 24.0234C31.789 24.0234 30.8953 23.1309 30.8445 23.1309ZM32.307 22.4934L32.3578 23.4496C32.3578 23.4496 32.632 23.7153 32.632 23.6621C32.632 23.609 32.3578 22.5465 32.307 22.4934Z" fill="#B7E1FF"/>
<path fill-rule="evenodd" clip-rule="evenodd" d="M18.5454 9.50926C18.5454 9.50926 20.6782 8.27676 23.1056 7.36301C24.8914 6.67655 26.7342 6.16436 28.6103 5.83301C29.3212 5.83301 30.5603 7.72426 30.7634 7.72426C30.9665 7.72426 31.7892 7.19301 32.8251 7.19301C33.861 7.19301 34.4603 8.04301 34.6735 8.04301H36.522C36.7251 8.04301 35.9024 5.93926 36.522 6.04551C36.8267 6.09863 39.447 6.52363 41.8845 7.34176C44.322 8.17051 47.7751 9.63676 47.7751 9.63676C47.7751 9.63676 42.1384 10.4124 40.6251 10.1893C40.422 10.2955 40.6251 11.5705 40.3204 11.0074C39.8532 10.9011 38.1165 10.6143 37.8118 10.6143C37.5071 10.6143 36.9282 10.9755 36.1056 11.188C35.2931 11.4005 34.2571 11.7193 34.2571 11.7193L35.5978 13.9186L33.9524 14.7686C33.9524 14.7686 32.9267 12.2399 32.5103 12.2399C32.0938 12.2399 31.9009 14.0249 31.3829 13.9186C30.8751 13.8124 30.672 12.2399 30.2556 11.8149C29.8493 11.4005 27.6759 11.2411 26.8532 11.0393C26.0407 10.8268 24.7103 10.6674 23.9892 10.4549C23.2782 10.2424 22.547 10.9861 22.2423 10.9861C21.9376 10.9861 22.6485 10.3486 22.3438 10.2424C22.0392 10.1361 21.836 10.5611 21.6329 10.5611C21.4298 10.5611 19.2665 10.1361 19.0634 10.0299C18.8603 9.92363 19.5712 9.50926 19.3681 9.50926H18.5454Z" fill="#984000"/>
<path fill-rule="evenodd" clip-rule="evenodd" d="M33.867 8.45745C33.867 9.0431 33.4068 9.51825 32.8415 9.51825C32.2762 9.51825 31.8181 9.0431 31.8181 8.45745C31.8181 7.8718 32.2762 7.39941 32.8415 7.39941C33.4068 7.39941 33.867 7.87456 33.867 8.45745Z" fill="#808080" stroke="#772600" stroke-width="0.0732817"/>
<path fill-rule="evenodd" clip-rule="evenodd" d="M28.668 8.65947C28.8517 8.43507 29.0793 8.09507 29.6744 8.09507C29.8115 8.03727 29.8115 7.69727 30.1296 7.69727C30.4504 7.69727 30.3572 8.03727 30.5875 8.15287C30.8151 8.26507 32.688 8.03727 32.688 8.03727C32.688 8.03727 32.869 8.20727 32.869 8.43507C32.869 8.66287 32.7319 8.82947 32.688 8.82947C32.6441 8.82947 30.8151 8.65947 30.678 8.71727C30.5409 8.77507 30.4504 8.82947 30.1296 8.82947C29.8115 8.82947 29.7182 8.43507 29.4906 8.43507C29.263 8.43507 29.0354 8.37727 28.668 8.66287V8.65947Z" fill="#984000" stroke="#772600" stroke-width="0.129012"/>
<path d="M34.2401 8.54122H34.9695C35.2328 8.54462 35.3233 8.64322 35.5646 8.65342H36.2035C36.4366 8.64322 36.56 8.57522 36.7958 8.54122C37.1935 8.53442 37.0591 8.49702 36.9796 8.20122C36.9083 7.98022 36.8973 7.87482 36.7958 7.74902C36.7574 7.47702 36.6697 7.38182 36.6587 7.06902C36.6176 6.83102 36.5408 6.67122 36.6149 6.38902C36.7191 6.58282 36.7602 6.66102 37.0262 6.67462C37.3004 6.67462 37.4073 6.66442 37.5746 6.78682C37.7008 6.95342 37.8708 6.89902 38.1231 6.89902C38.3315 6.94662 38.3671 7.07922 38.5316 7.18122C38.7263 7.31722 38.8525 7.35122 39.124 7.35122C39.3433 7.40222 39.5353 7.43962 39.6724 7.52122C39.7903 7.69462 39.974 7.73882 40.2208 7.74902C40.3579 7.74902 40.4676 7.73202 40.5855 7.69122C40.7967 7.70482 41.0106 7.69122 41.2711 7.69122C41.4411 7.93602 41.4795 8.02782 41.7729 8.03122C41.9758 8.20802 42.1458 8.23522 42.3213 8.31342H43.0069C43.2537 8.33722 43.3305 8.46302 43.5553 8.54122C43.7482 8.64932 43.946 8.74354 44.1476 8.82342C44.3439 8.86748 44.5433 8.88685 44.7427 8.88122C44.91 8.99002 45.1156 8.99682 45.2445 9.10562C45.4337 9.15662 45.6915 9.21782 45.8368 9.27562C46.0781 9.31642 46.1714 9.41162 46.3853 9.44562C46.569 9.51362 46.3249 9.56802 46.2015 9.61562C45.9328 9.60542 45.9136 9.47962 45.6531 9.44562C45.516 9.34702 45.3076 9.36062 45.1047 9.27562H45.0608C45.2418 9.41162 45.4173 9.49662 45.335 9.73122C45.1019 9.73122 44.9127 9.69382 44.6961 9.67342C44.4657 9.61902 44.3615 9.56122 44.1038 9.56122C44.3615 9.48302 44.4273 9.56802 44.6056 9.67342C44.6714 9.94542 44.5288 9.84342 44.2848 9.84342C44.0763 9.75162 43.9502 9.63942 43.6924 9.61562H43.144C43.4155 9.62922 43.4731 9.75502 43.6458 9.90122C43.6595 9.98962 43.6431 9.98282 43.5087 10.0134C43.3661 9.86042 43.1824 9.80942 42.9603 9.73122C42.7436 9.72102 42.516 9.69722 42.3213 9.61562C42.187 9.60542 42.2089 9.40822 42.5051 9.73122C42.6833 9.86042 42.7464 9.96922 42.7327 10.0712C42.4968 9.99642 42.3817 9.88082 42.2309 9.78562C42.0257 9.69741 41.8087 9.65931 41.5919 9.67342C41.3561 9.59522 41.6166 9.55102 41.7729 9.84342C42.1129 10.1426 41.729 10.0134 41.5919 9.95562C41.3863 9.88422 41.1724 9.77882 40.9969 9.73122C40.8598 9.68022 40.7391 9.63262 40.5855 9.61562C40.8241 9.64282 40.9036 9.74822 40.9969 9.95562C41.2382 10.1596 40.9859 10.061 40.7693 10.0134C40.6322 9.86382 40.4539 9.78562 40.3579 9.61562C40.1303 9.47622 40.1221 9.30962 40.2674 9.67342C40.3031 9.78902 40.2949 10.0406 40.3113 10.0712C40.144 9.84342 40.1797 9.78562 39.9932 9.78562C39.8643 9.67682 39.6779 9.59182 39.5819 9.44562C39.4064 9.42522 39.3954 9.34702 39.2172 9.27562C39.3625 9.48982 39.5572 9.70062 39.6724 9.90122C39.8808 10.044 39.9384 10.1732 40.0837 10.2956C40.1413 10.4214 40.3031 10.5234 40.1303 10.3534C39.9329 10.1154 39.7876 10.0576 39.4914 9.90122C39.3214 9.73122 39.2611 9.66322 39.0801 9.50342C38.8333 9.40482 38.9293 9.35042 39.0801 9.67342C39.2528 9.87062 39.3845 10.0882 39.5353 10.2412C39.6536 10.4164 39.7922 10.5688 39.9466 10.6934C39.9877 10.7682 40.1111 10.7818 39.9466 10.8056C39.8095 10.6492 39.6066 10.5506 39.4448 10.4078C39.2172 10.3296 39.1102 10.1834 38.943 10.0134C38.8333 9.81282 38.6578 9.65982 38.5316 9.50342C38.2684 9.37422 38.5837 9.62582 38.6688 9.78562C38.7263 9.99302 38.8004 10.1596 38.8497 10.3534C38.9265 10.5404 38.6194 10.3092 38.5316 10.2412C38.3512 10.0963 38.1487 9.99907 37.9366 9.95562C37.7549 9.91052 37.5719 9.8731 37.3882 9.84342C37.1825 9.77542 37.5006 10.0066 37.6185 10.2412C37.8488 10.5098 37.3909 10.2888 37.2538 10.2412C37.0274 10.1935 36.7977 10.1742 36.5682 10.1834C36.2748 10.2038 36.486 10.2514 36.5682 10.4078C36.6587 10.4962 36.7218 10.6798 36.7053 10.7478C36.5134 10.7138 36.3489 10.6458 36.1103 10.6356C35.9183 10.7138 35.6907 10.6934 35.4714 10.6934C35.4631 10.8362 35.5125 10.7138 35.6085 10.8634C35.7675 10.9416 35.8717 11.0368 35.8388 11.1456H34.5143C34.369 11.1932 34.5445 11.1694 34.6514 11.3734C34.5911 11.557 34.5143 11.4856 34.3306 11.4856C34.2072 11.4244 33.9577 11.3972 33.8288 11.3156C33.6999 11.3156 33.7109 11.2748 33.6012 11.2578C33.9851 11.5978 33.7931 11.5128 34.0125 11.7678C34.0482 11.7848 34.1359 11.8256 34.0564 11.8256M31.0427 13.6378C31.0153 13.6378 30.955 13.4542 30.8617 13.2978C30.7959 13.0938 30.7137 13.2094 30.6314 12.9C30.6424 12.5804 30.6506 12.526 30.6314 12.22C30.4449 12.0568 30.3654 12.0092 30.2201 11.71C29.9897 11.472 30.2557 11.064 30.2996 10.7648C30.0967 10.7104 29.998 11.1558 29.6881 11.3156C29.4632 11.5026 29.6607 10.928 29.551 10.5948C29.4769 10.1222 29.2548 10.8328 29.1726 11.0334C29.0217 11.1592 28.9751 11.3224 28.7612 11.0878C28.7612 10.9144 28.8956 10.4248 28.838 10.3296C28.6241 10.4622 28.3444 10.8566 28.1223 10.9178C27.8974 10.86 28.1689 10.4146 28.1689 10.0848C28.0867 10.0508 27.7658 10.962 27.6342 10.9688C27.5026 10.9756 27.5602 10.0848 27.4971 10.1052C27.4011 10.2752 27.2064 10.6288 27.072 10.7512C26.8115 10.707 27.1104 10.1562 27.1488 9.95222C27.1927 9.70742 26.9048 10.4214 26.7512 10.4656C26.6388 10.588 26.4167 10.6696 26.3399 10.6934C26.4276 10.4826 26.8609 10.0576 26.8335 9.93522C26.5784 9.94542 26.1918 10.3602 25.9752 10.4112C25.8326 10.4112 25.6351 10.469 25.6105 10.4656C25.6214 10.1936 26.1424 9.96922 26.2247 9.80262C25.9697 9.85362 25.4788 10.1324 25.3362 10.3534C25.1662 10.3976 24.9523 10.4554 24.7878 10.3534C24.8125 10.0984 25.1964 9.60542 25.2814 9.44222C25.0483 9.56802 24.9331 9.66662 24.6863 9.72442C24.6397 9.78222 24.5081 9.90462 24.5492 9.78222C24.6233 9.54422 24.733 9.44222 24.8234 9.27222C24.6178 9.31982 24.541 9.46602 24.3216 9.61222C24.1818 9.61902 23.7814 10.1188 23.647 10.1256C23.4196 10.3479 23.1542 10.5026 22.871 10.5778C22.6626 10.6254 22.5611 10.6798 22.4597 10.8056C22.5639 10.5778 22.7229 10.3636 22.871 10.2412C22.9614 10.0348 23.1068 9.87379 23.2823 9.78562C23.3344 9.70742 23.477 9.68702 23.3262 9.67342C23.1973 9.81622 22.978 9.97942 22.871 10.0712C22.7312 10.18 22.5694 10.2888 22.5036 10.2412C22.5776 9.99642 22.7092 9.93522 22.8244 9.73122C23.0657 9.54082 22.8244 9.66322 22.6407 9.73122C22.5228 9.86042 22.3116 9.95902 22.1388 10.0712C21.9469 10.1324 21.818 10.2752 21.5904 10.3534C21.5904 10.435 21.6562 10.2072 21.6836 10.1256C21.8701 9.87402 21.9195 9.80262 22.1388 9.73122C22.1937 9.63262 22.2595 9.67342 22.095 9.67342C21.9688 9.80942 21.7988 9.88422 21.637 10.0134C21.4752 10.0576 21.2641 10.0712 21.0447 10.0712C20.7595 10.112 20.7842 10.1392 21.0447 9.95562C21.19 9.78562 21.3107 9.82982 21.3189 9.61562C21.1462 9.77202 20.935 9.88762 20.7239 10.0134C20.5484 10.0202 20.5018 10.0712 20.3125 10.0712C20.403 9.95562 20.4579 9.80942 20.5868 9.73122C20.7787 9.46942 20.4661 9.68022 20.403 9.73122H19.7175C19.5968 9.92162 19.712 9.73122 19.8107 9.61562C19.9286 9.54082 20.052 9.44222 20.0383 9.39122C19.9012 9.53742 19.7449 9.60542 19.627 9.73122C19.5009 9.77882 19.3528 9.79922 19.3528 9.84342C19.4542 9.66322 19.616 9.55102 19.7202 9.39122C19.8738 9.35042 20.0054 9.28922 20.0383 9.22122H19.3994H19.8546C20.0877 9.22122 20.2851 9.19402 20.4963 9.16342C20.8582 9.08862 20.4634 9.05122 20.2659 9.05122C20.2303 8.96282 20.3811 8.91522 20.5402 8.88122C20.6773 8.79962 20.85 8.72822 20.9981 8.65342C21.1288 8.60406 21.252 8.52823 21.3628 8.42902C21.2257 8.43582 21.2257 8.47662 21.0886 8.48342C21.2943 8.46642 21.4396 8.42902 21.6836 8.42902C21.8846 8.34686 22.0823 8.25269 22.276 8.14682C22.3582 8.02442 22.3911 8.03122 22.1855 8.03122C22.3692 7.95982 22.6297 7.92242 22.7778 7.86122C22.9668 7.81213 23.1508 7.73685 23.3262 7.63682C23.4606 7.52462 23.5374 7.39202 23.6909 7.29682C23.8692 7.44642 23.8719 7.46682 24.1927 7.46682C24.4505 7.46342 24.6096 7.38522 24.7412 7.23902C24.9386 7.17102 24.9743 7.05542 25.1991 7.01462C25.4104 7.05577 25.6242 7.07398 25.8381 7.06902C26.0574 6.99762 26.2686 6.86502 26.4304 6.72902C26.5702 6.64402 26.7375 6.52162 26.8883 6.44682C27.0528 6.55222 27.1845 6.63722 27.3901 6.67462C27.6013 6.63382 27.7137 6.50462 27.892 6.44682C28.0019 6.30174 28.1457 6.20305 28.3033 6.16462C28.5693 6.00142 28.5501 6.21562 28.668 6.38902C28.8051 6.56582 28.9806 6.48082 29.1698 6.55902C29.2768 6.76302 29.3535 6.89902 29.4907 7.01122C29.5976 7.17442 29.7237 7.21522 29.9486 7.23902C30.0309 7.37502 29.965 7.47022 30.1296 7.52122C30.1954 7.60962 30.3078 7.64362 30.4038 7.69122" stroke="#772600" stroke-width="0.0851963"/>
<path d="M33.7136 12.1929V12.2201C33.7136 12.1419 33.7136 12.1861 33.7602 12.3357C33.7766 12.4581 33.7382 12.4445 33.6916 12.5329C33.6834 12.6587 33.6697 12.7505 33.6697 12.9001C33.6532 13.0225 33.5984 13.1381 33.5545 13.2401C33.5106 13.3455 33.3214 13.4067 33.3269 13.5529C33.2172 13.5903 33.2145 13.5019 33.2117 13.3523C33.1459 13.2605 33.124 13.1347 33.0746 13.0123C33.0472 12.8967 32.9814 12.8083 32.9375 12.6723C32.8717 12.5465 32.8141 12.5091 32.7565 12.3629C32.7319 12.2949 32.7373 12.2065 32.688 12.1657C32.6139 12.0467 32.5646 12.0297 32.4357 12.0229C32.337 12.0501 32.2986 12.1045 32.2081 12.1351C32.1368 12.1657 31.9997 12.1555 31.9119 12.1929C31.89 12.2371 31.9558 12.2609 31.9805 12.3629C31.9202 12.4241 31.8982 12.5295 31.8653 12.6179C31.8105 12.7029 31.7748 12.7437 31.7502 12.8729C31.7886 12.9511 31.7556 13.0565 31.7063 13.1279C31.6898 13.2571 31.6377 13.3285 31.6131 13.4373C31.5418 13.5019 31.5143 13.5597 31.454 13.6651C31.4019 13.7569 31.3553 13.7501 31.2264 13.7501C31.1249 13.7161 31.1112 13.6481 31.0207 13.6073C31.0125 13.5733 31.0043 13.5631 30.9741 13.5529" stroke="#782600" stroke-width="0.0754596"/>
<path fill-rule="evenodd" clip-rule="evenodd" d="M31.2406 13.3344C31.2406 13.3344 31.1999 13.8656 30.8749 14.2163C30.5499 14.5669 29.8796 14.9706 29.8796 14.9706C29.8796 14.9706 30.7835 14.5244 30.8749 14.62C30.9765 14.7263 30.296 15.5019 30.296 15.5019C30.296 15.5019 31.1796 14.6837 31.2914 14.6837C31.4031 14.6837 31.657 15.4806 31.7585 15.4594C31.85 15.4381 31.5554 14.45 31.596 14.2906C31.6367 14.1419 31.596 13.3025 31.596 13.3025L31.2507 13.3344H31.2406ZM33.3226 13.2706C33.3226 13.2706 33.282 13.8337 32.957 14.2056C32.632 14.5775 31.9617 15.0131 31.9617 15.0131C31.9617 15.0131 32.8656 14.535 32.957 14.6413C33.0585 14.7475 32.3781 15.5763 32.3781 15.5763C32.3781 15.5763 33.2617 14.705 33.3734 14.705C33.4851 14.705 33.739 15.555 33.8406 15.5337C33.932 15.5125 33.6375 14.45 33.6781 14.2906C33.7187 14.1206 33.6781 13.2281 33.6781 13.2281L33.3226 13.2706V13.2706ZM30.4078 8.17063C30.4078 8.26625 30.3062 8.35125 30.1945 8.35125C30.0828 8.35125 29.971 8.26625 29.971 8.16C29.971 8.05375 30.0726 7.96875 30.1945 7.96875C30.3164 7.96875 30.4078 8.05375 30.4078 8.16V8.17063Z" fill="#812E00"/>
</g>
<defs>
<clipPath id="clip0_806_392">
<rect width="65" height="51" fill="white"/>
</clipPath>
</defs>
</svg>
