<svg width="65" height="51" viewBox="0 0 65 51" fill="none" xmlns="http://www.w3.org/2000/svg">
<g clip-path="url(#clip0_806_579)">
<path fill-rule="evenodd" clip-rule="evenodd" d="M-10.1562 0H75.1562V51H-10.1562V0Z" fill="white"/>
<path fill-rule="evenodd" clip-rule="evenodd" d="M-10.1562 34.2456H75.1562V50.9999H-10.1562V34.2456Z" fill="#DA0000"/>
<path fill-rule="evenodd" clip-rule="evenodd" d="M6.06836 34.9629H10.7339V35.2916H6.06836V34.9629ZM6.76343 36.6363H7.08716V36.965H6.76343V36.6363ZM10.7529 36.6363V36.965H9.81982V36.6264L10.7529 36.6363ZM11.248 34.9629H11.5718V36.9551H11.248V34.9629Z" fill="white"/>
<path fill-rule="evenodd" clip-rule="evenodd" d="M13.1143 36.6263V36.9649H11.3433V36.6263H13.1143ZM9.81982 35.8394H10.1245V36.9649H9.8103L9.81982 35.8394Z" fill="white"/>
<path fill-rule="evenodd" clip-rule="evenodd" d="M12.8477 34.9629H13.1714V36.9551H12.8477V34.9629ZM12.0479 34.9629H12.3621V36.9551H12.0479V34.9629ZM7.78223 35.7598V36.0984H6.06836V35.7598H7.78223ZM11.5242 35.7598V36.0984H9.8103V35.7598H11.5242Z" fill="white"/>
<path fill-rule="evenodd" clip-rule="evenodd" d="M9.81982 35.8496H10.1245V36.9553H9.8103L9.81982 35.8496Z" fill="white"/>
<path fill-rule="evenodd" clip-rule="evenodd" d="M9.81982 35.8496H10.1245V36.9553H9.8103L9.81982 35.8496Z" fill="white"/>
<path fill-rule="evenodd" clip-rule="evenodd" d="M9.81982 35.8496H10.1245V36.9553H9.8103L9.81982 35.8496ZM6.07788 35.8496H6.39209V36.9553H6.07788V35.8496ZM8.82007 35.8496H9.1438V36.9553H8.82007V35.8496ZM7.4585 35.8496H7.78223V36.9553H7.4585V35.8496Z" fill="white"/>
<path fill-rule="evenodd" clip-rule="evenodd" d="M9.03906 36.6264V36.965H7.60132V36.6264H9.03906ZM9.13428 35.7598V36.0984H8.22021V35.7598H9.13428Z" fill="white"/>
<path fill-rule="evenodd" clip-rule="evenodd" d="M-1.60596 34.9629H3.05957V35.2916H-1.60596V34.9629ZM-0.910889 36.6363H-0.587158V36.965H-0.92041L-0.910889 36.6363ZM3.07861 36.6363V36.965H2.14551V36.6264L3.07861 36.6363ZM3.57373 34.9629H3.89746V36.9551H3.57373V34.9629Z" fill="white"/>
<path fill-rule="evenodd" clip-rule="evenodd" d="M5.43994 36.6263V36.9649H3.66895V36.6263H5.43994ZM2.14551 35.8394H2.45972V36.9649H2.14551V35.8394Z" fill="white"/>
<path fill-rule="evenodd" clip-rule="evenodd" d="M5.17334 34.9629H5.49707V36.9551H5.17334V34.9629ZM4.37353 34.9629H4.68774V36.9551H4.37353V34.9629ZM0.10791 35.7598V36.0984H-1.60596V35.7598H0.10791ZM3.84985 35.7598V36.0984H2.13599V35.7598H3.84985Z" fill="white"/>
<path fill-rule="evenodd" clip-rule="evenodd" d="M2.14551 35.8496H2.45972V36.9553H2.14551V35.8496Z" fill="white"/>
<path fill-rule="evenodd" clip-rule="evenodd" d="M2.14551 35.8496H2.45972V36.9553H2.14551V35.8496Z" fill="white"/>
<path fill-rule="evenodd" clip-rule="evenodd" d="M2.14551 35.8496H2.45972V36.9553H2.14551V35.8496ZM-1.59644 35.8496H-1.28223V36.9553H-1.59644V35.8496ZM1.14575 35.8496H1.45996V36.9553H1.14575V35.8496ZM-0.21582 35.8496H0.10791V36.9553H-0.21582V35.8496Z" fill="white"/>
<path fill-rule="evenodd" clip-rule="evenodd" d="M1.36475 36.6264V36.965H-0.0634766V36.6264H1.36475ZM1.45996 35.7598V36.0984H0.545899V35.7598H1.45996Z" fill="white"/>
<path fill-rule="evenodd" clip-rule="evenodd" d="M13.676 34.9629H18.3416V35.2916H13.676V34.9629ZM14.3711 36.6363H14.6948V36.965H14.3711V36.6363ZM18.3606 36.6363V36.965H17.4275V36.6264L18.3606 36.6363ZM18.8652 34.9629H19.189V36.9551H18.8652V34.9629Z" fill="white"/>
<path fill-rule="evenodd" clip-rule="evenodd" d="M20.7219 36.6263V36.9649H18.9509V36.6263H20.7219ZM17.4275 35.8394H17.7512V36.9649H17.4275V35.8394Z" fill="white"/>
<path fill-rule="evenodd" clip-rule="evenodd" d="M20.4553 34.9629H20.7791V36.9551H20.4553V34.9629ZM19.6555 34.9629H19.9792V36.9551H19.646L19.6555 34.9629ZM15.3899 35.7598V36.0984H13.676V35.7598H15.3899ZM19.1318 35.7598V36.0984H17.418V35.7598H19.1318Z" fill="white"/>
<path fill-rule="evenodd" clip-rule="evenodd" d="M17.4275 35.8496H17.7512V36.9553H17.4275V35.8496Z" fill="white"/>
<path fill-rule="evenodd" clip-rule="evenodd" d="M17.4275 35.8496H17.7512V36.9553H17.4275V35.8496Z" fill="white"/>
<path fill-rule="evenodd" clip-rule="evenodd" d="M17.4275 35.8496H17.7512V36.9553H17.4275V35.8496ZM13.6855 35.8496H14.0093V36.9553H13.6855V35.8496ZM16.4277 35.8496H16.7515V36.9553H16.4277V35.8496ZM15.0662 35.8496H15.3899V36.9553H15.0662V35.8496Z" fill="white"/>
<path fill-rule="evenodd" clip-rule="evenodd" d="M16.6562 36.6264V36.965H15.209V36.6264H16.6562ZM16.7515 35.7598V36.0984H15.8374V35.7598H16.7515Z" fill="white"/>
<path fill-rule="evenodd" clip-rule="evenodd" d="M21.3313 34.9629H26.0063V35.2916H21.3408L21.3313 34.9629ZM22.0359 36.6363H22.3501V36.965H22.0359V36.6363ZM26.0159 36.6363V36.965H25.0828V36.6264L26.0159 36.6363ZM26.5205 34.9629H26.8442V36.9551H26.5205V34.9629Z" fill="white"/>
<path fill-rule="evenodd" clip-rule="evenodd" d="M28.3867 36.6263V36.9649H26.6157V36.6263H28.3867ZM25.0828 35.8394H25.4065V36.9649H25.0828V35.8394Z" fill="white"/>
<path fill-rule="evenodd" clip-rule="evenodd" d="M28.1199 34.9629H28.4436V36.9551H28.1199V34.9629ZM27.3105 34.9629H27.6343V36.9551H27.3105V34.9629ZM23.0449 35.7598V36.0984H21.3406V35.7598H23.0449ZM26.7869 35.7598V36.0984H25.0825V35.7598H26.7869Z" fill="white"/>
<path fill-rule="evenodd" clip-rule="evenodd" d="M25.0828 35.8496H25.4065V36.9553H25.0828V35.8496Z" fill="white"/>
<path fill-rule="evenodd" clip-rule="evenodd" d="M25.0828 35.8496H25.4065V36.9553H25.0828V35.8496Z" fill="white"/>
<path fill-rule="evenodd" clip-rule="evenodd" d="M25.0828 35.8496H25.4065V36.9553H25.0828V35.8496ZM21.3408 35.8496H21.6646V36.9553H21.3408V35.8496ZM24.083 35.8496H24.4067V36.9553H24.083V35.8496ZM22.731 35.8496H23.0452V36.9553H22.731V35.8496Z" fill="white"/>
<path fill-rule="evenodd" clip-rule="evenodd" d="M24.3115 36.6264V36.965H22.8738V36.6264H24.3115ZM24.4067 35.7598V36.0984H23.4927V35.7598H24.4067Z" fill="white"/>
<path fill-rule="evenodd" clip-rule="evenodd" d="M29.0247 34.9629H33.6902V35.2916H29.0247V34.9629ZM29.7197 36.6363H30.0435V36.965H29.7197V36.6363ZM33.7092 36.6363V36.965H32.7761V36.6264L33.7092 36.6363ZM34.2139 34.9629H34.5281V36.9551H34.2139V34.9629Z" fill="white"/>
<path fill-rule="evenodd" clip-rule="evenodd" d="M36.0706 36.6263V36.9649H34.2996V36.6263H36.0706ZM32.7761 35.8394H33.0999V36.9649H32.7761V35.8394Z" fill="white"/>
<path fill-rule="evenodd" clip-rule="evenodd" d="M35.804 34.9629H36.1277V36.9551H35.804V34.9629ZM35.0041 34.9629H35.3279V36.9551H35.0041V34.9629ZM30.7385 35.7598V36.0984H29.0247V35.7598H30.7385ZM34.4805 35.7598V36.0984H32.7666V35.7598H34.4805Z" fill="white"/>
<path fill-rule="evenodd" clip-rule="evenodd" d="M32.7761 35.8496H33.0999V36.9553H32.7761V35.8496Z" fill="white"/>
<path fill-rule="evenodd" clip-rule="evenodd" d="M32.7761 35.8496H33.0999V36.9553H32.7761V35.8496Z" fill="white"/>
<path fill-rule="evenodd" clip-rule="evenodd" d="M32.7761 35.8496H33.0999V36.9553H32.7761V35.8496ZM29.0342 35.8496H29.3484V36.9553H29.0342V35.8496ZM31.7764 35.8496H32.1001V36.9553H31.7764V35.8496ZM30.4148 35.8496H30.7385V36.9553H30.4053L30.4148 35.8496Z" fill="white"/>
<path fill-rule="evenodd" clip-rule="evenodd" d="M32.0049 36.6264V36.965H30.5576V36.6264H32.0049ZM32.1001 35.7598V36.0984H31.167V35.7598H32.1001Z" fill="white"/>
<path fill-rule="evenodd" clip-rule="evenodd" d="M-10.1562 0H75.1562V16.7543H-10.1562V0Z" fill="#239F40"/>
<path fill-rule="evenodd" clip-rule="evenodd" d="M36.7561 34.9629H41.4216V35.2916H36.7561V34.9629ZM37.4512 36.6363H37.7749V36.965H37.4512V36.6363ZM41.4407 36.6363V36.965H40.498V36.6264L41.4407 36.6363ZM41.9453 34.9629H42.2595V36.9551H41.9453V34.9629Z" fill="white"/>
<path fill-rule="evenodd" clip-rule="evenodd" d="M43.802 36.6263V36.9649H42.031V36.6263H43.802ZM40.5076 35.8394H40.8313V36.9649H40.498L40.5076 35.8394Z" fill="white"/>
<path fill-rule="evenodd" clip-rule="evenodd" d="M43.5449 34.9629H43.8591V36.9551H43.5449V34.9629ZM42.7356 34.9629H43.0593V36.9551H42.7356V34.9629ZM38.47 35.7598V36.0984H36.7561V35.7598H38.47ZM42.2119 35.7598V36.0984H40.498V35.7598H42.2119Z" fill="white"/>
<path fill-rule="evenodd" clip-rule="evenodd" d="M40.498 35.8496H40.8313V36.9553H40.498V35.8496Z" fill="white"/>
<path fill-rule="evenodd" clip-rule="evenodd" d="M40.498 35.8496H40.8313V36.9553H40.498V35.8496Z" fill="white"/>
<path fill-rule="evenodd" clip-rule="evenodd" d="M40.498 35.8496H40.8313V36.9553H40.498V35.8496ZM36.7656 35.8496H37.0894V36.9553H36.7656V35.8496ZM39.5078 35.8496H39.8315V36.9553H39.5078V35.8496ZM38.1462 35.8496H38.47V36.9553H38.1462V35.8496Z" fill="white"/>
<path fill-rule="evenodd" clip-rule="evenodd" d="M39.7363 36.6264V36.965H38.2891V36.6264H39.7363ZM39.8315 35.7598V36.0984H38.9175V35.7598H39.8315Z" fill="white"/>
<path fill-rule="evenodd" clip-rule="evenodd" d="M44.4399 34.9629H49.1055V35.2916H44.4399V34.9629ZM45.135 36.6363H45.4587V36.965H45.135V36.6363ZM49.134 36.6363V36.965H48.1914V36.6264L49.134 36.6363ZM49.6291 34.9629H49.9529V36.9551H49.6291V34.9629Z" fill="white"/>
<path fill-rule="evenodd" clip-rule="evenodd" d="M51.4858 36.6263V36.9649H49.7148V36.6263H51.4858ZM48.1914 35.8394H48.5151V36.9649H48.1914V35.8394Z" fill="white"/>
<path fill-rule="evenodd" clip-rule="evenodd" d="M51.2285 34.9629H51.5427V36.9551H51.2285V34.9629ZM50.4192 34.9629H50.7429V36.9551H50.4192V34.9629ZM46.1536 35.7598V36.0984H44.4492V35.7598H46.1536ZM49.8955 35.7598V36.0984H48.1912V35.7598H49.8955Z" fill="white"/>
<path fill-rule="evenodd" clip-rule="evenodd" d="M48.1914 35.8496H48.5151V36.9553H48.1914V35.8496Z" fill="white"/>
<path fill-rule="evenodd" clip-rule="evenodd" d="M48.1914 35.8496H48.5151V36.9553H48.1914V35.8496Z" fill="white"/>
<path fill-rule="evenodd" clip-rule="evenodd" d="M48.1914 35.8496H48.5151V36.9553H48.1914V35.8496ZM44.4495 35.8496H44.7732V36.9553H44.4495V35.8496ZM47.1916 35.8496H47.5154V36.9553H47.1916V35.8496ZM45.8301 35.8496H46.1538V36.9553H45.8396L45.8301 35.8496Z" fill="white"/>
<path fill-rule="evenodd" clip-rule="evenodd" d="M47.4202 36.6264V36.965H45.9824V36.6264H47.4202ZM47.5154 35.7598V36.0984H46.5918V35.7598H47.5154Z" fill="white"/>
<path fill-rule="evenodd" clip-rule="evenodd" d="M52.1333 34.9629H56.7988V35.2916H52.1333V34.9629ZM52.8284 36.6363H53.1521V36.965H52.8284V36.6363ZM56.8179 36.6363V36.965H55.8848V36.6264L56.8179 36.6363ZM57.313 34.9629H57.6367V36.9551H57.313V34.9629Z" fill="white"/>
<path fill-rule="evenodd" clip-rule="evenodd" d="M59.1792 36.6263V36.9649H57.4082V36.6263H59.1792ZM55.8752 35.8394H56.199V36.9649H55.8752V35.8394Z" fill="white"/>
<path fill-rule="evenodd" clip-rule="evenodd" d="M58.9126 34.9629H59.2363V36.9551H58.9126V34.9629ZM58.1128 34.9629H58.427V36.9551H58.1128V34.9629ZM53.8472 35.7598V36.0984H52.1333V35.7598H53.8472ZM57.5891 35.7598V36.0984H55.8752V35.7598H57.5891Z" fill="white"/>
<path fill-rule="evenodd" clip-rule="evenodd" d="M55.8848 35.8496H56.199V36.9553H55.8848V35.8496Z" fill="white"/>
<path fill-rule="evenodd" clip-rule="evenodd" d="M55.8848 35.8496H56.199V36.9553H55.8848V35.8496Z" fill="white"/>
<path fill-rule="evenodd" clip-rule="evenodd" d="M55.8848 35.8496H56.199V36.9553H55.8848V35.8496ZM52.1333 35.8496H52.457V36.9553H52.1333V35.8496ZM54.885 35.8496H55.1992V36.9553H54.885V35.8496ZM53.5234 35.8496H53.8472V36.9553H53.5234V35.8496Z" fill="white"/>
<path fill-rule="evenodd" clip-rule="evenodd" d="M55.104 36.6264V36.965H53.6663V36.6264H55.104ZM55.1992 35.7598V36.0984H54.2852V35.7598H55.1992Z" fill="white"/>
<path fill-rule="evenodd" clip-rule="evenodd" d="M59.8647 34.9629H64.5303V35.2916H59.8647V34.9629ZM60.5598 36.6363H60.8835V36.965H60.5598V36.6363ZM64.5493 36.6363V36.965H63.6162V36.6264L64.5493 36.6363ZM65.0444 34.9629H65.3682V36.9551H65.0444V34.9629Z" fill="white"/>
<path fill-rule="evenodd" clip-rule="evenodd" d="M66.9106 36.6263V36.9649H65.1396V36.6263H66.9106ZM63.6162 35.8394H63.9304V36.9649H63.6162V35.8394Z" fill="white"/>
<path fill-rule="evenodd" clip-rule="evenodd" d="M66.644 34.9629H66.9678V36.9551H66.644V34.9629ZM65.8442 34.9629H66.1584V36.9551H65.8442V34.9629ZM61.5786 35.7598V36.0984H59.8647V35.7598H61.5786ZM65.3206 35.7598V36.0984H63.6067V35.7598H65.3206Z" fill="white"/>
<path fill-rule="evenodd" clip-rule="evenodd" d="M63.6162 35.8496H63.9304V36.9553H63.6162V35.8496Z" fill="white"/>
<path fill-rule="evenodd" clip-rule="evenodd" d="M63.6162 35.8496H63.9304V36.9553H63.6162V35.8496Z" fill="white"/>
<path fill-rule="evenodd" clip-rule="evenodd" d="M63.6162 35.8496H63.9304V36.9553H63.6162V35.8496ZM59.8743 35.8496H60.1885V36.9553H59.8743V35.8496ZM62.6165 35.8496H62.9402V36.9553H62.6165V35.8496ZM61.2549 35.8496H61.5786V36.9553H61.2549V35.8496Z" fill="white"/>
<path fill-rule="evenodd" clip-rule="evenodd" d="M62.8354 36.6264V36.965H61.3977V36.6264H62.8354ZM62.9307 35.7598V36.0984H62.0166V35.7598H62.9307Z" fill="white"/>
<path fill-rule="evenodd" clip-rule="evenodd" d="M6.06836 14.2842H10.7339V14.6229H6.06836V14.2842ZM6.76343 15.9775H7.08716V16.2963H6.76343V15.9775ZM10.7529 15.9576V16.2963H9.81982V15.9576H10.7529ZM11.248 14.2842H11.5718V16.2963H11.248V14.2842Z" fill="white"/>
<path fill-rule="evenodd" clip-rule="evenodd" d="M13.1143 15.9578V16.2965H11.3433V15.9578H13.1143ZM9.81982 15.1709H10.1245V16.2965H9.8103L9.81982 15.1709Z" fill="white"/>
<path fill-rule="evenodd" clip-rule="evenodd" d="M12.8477 14.2842H13.1714V16.2963H12.8477V14.2842ZM12.0479 14.2842H12.3621V16.2963H12.0479V14.2842ZM7.78223 15.0811V15.4197H6.06836V15.091L7.78223 15.0811ZM11.5242 15.0811V15.4197H9.8103V15.091L11.5242 15.0811Z" fill="white"/>
<path fill-rule="evenodd" clip-rule="evenodd" d="M9.81982 15.1709H10.1245V16.2965H9.8103L9.81982 15.1709Z" fill="white"/>
<path fill-rule="evenodd" clip-rule="evenodd" d="M9.81982 15.1709H10.1245V16.2965H9.8103L9.81982 15.1709Z" fill="white"/>
<path fill-rule="evenodd" clip-rule="evenodd" d="M9.81982 15.1709H10.1245V16.2965H9.8103L9.81982 15.1709ZM6.07788 15.1709H6.39209V16.2965H6.07788V15.1709ZM8.82007 15.1709H9.1438V16.2965H8.82007V15.1709ZM7.4585 15.1709H7.78223V16.2965H7.4585V15.1709Z" fill="white"/>
<path fill-rule="evenodd" clip-rule="evenodd" d="M9.03906 15.9574V16.2961H7.60132V15.9574H9.03906ZM9.13428 15.0908V15.4195H8.22021V15.0908H9.13428Z" fill="white"/>
<path fill-rule="evenodd" clip-rule="evenodd" d="M-1.60596 14.2842H3.05957V14.6229H-1.60596V14.2842ZM-0.910889 15.9775H-0.587158V16.2963H-0.92041L-0.910889 15.9775ZM3.07861 15.9576V16.2963H2.14551V15.9576H3.07861ZM3.57373 14.2842H3.89746V16.2963H3.57373V14.2842Z" fill="white"/>
<path fill-rule="evenodd" clip-rule="evenodd" d="M5.43994 15.9578V16.2965H3.66895V15.9578H5.43994ZM2.14551 15.1709H2.45972V16.2965H2.14551V15.1709Z" fill="white"/>
<path fill-rule="evenodd" clip-rule="evenodd" d="M5.17334 14.2842H5.49707V16.2963H5.17334V14.2842ZM4.37353 14.2842H4.68774V16.2963H4.37353V14.2842ZM0.10791 15.0811V15.4197H-1.60596V15.091L0.10791 15.0811ZM3.84985 15.0811V15.4197H2.13599V15.091L3.84985 15.0811Z" fill="white"/>
<path fill-rule="evenodd" clip-rule="evenodd" d="M2.14551 15.1709H2.45972V16.2965H2.14551V15.1709Z" fill="white"/>
<path fill-rule="evenodd" clip-rule="evenodd" d="M2.14551 15.1709H2.45972V16.2965H2.14551V15.1709Z" fill="white"/>
<path fill-rule="evenodd" clip-rule="evenodd" d="M2.14551 15.1709H2.45972V16.2965H2.14551V15.1709ZM-1.59644 15.1709H-1.28223V16.2965H-1.59644V15.1709ZM1.14575 15.1709H1.45996V16.2965H1.14575V15.1709ZM-0.21582 15.1709H0.10791V16.2965H-0.21582V15.1709Z" fill="white"/>
<path fill-rule="evenodd" clip-rule="evenodd" d="M1.36475 15.9574V16.2961H-0.0634766V15.9574H1.36475ZM1.45996 15.0908V15.4195H0.545899V15.0908H1.45996Z" fill="white"/>
<path fill-rule="evenodd" clip-rule="evenodd" d="M13.676 14.2842H18.3416V14.6229H13.676V14.2842ZM14.3711 15.9775H14.6948V16.2963H14.3711V15.9775ZM18.3606 15.9576V16.2963H17.4275V15.9576H18.3606ZM18.8652 14.2842H19.189V16.2963H18.8652V14.2842Z" fill="white"/>
<path fill-rule="evenodd" clip-rule="evenodd" d="M20.7219 15.9578V16.2965H18.9509V15.9578H20.7219ZM17.4275 15.1709H17.7512V16.2965H17.4275V15.1709Z" fill="white"/>
<path fill-rule="evenodd" clip-rule="evenodd" d="M20.4553 14.2842H20.7791V16.2963H20.4553V14.2842ZM19.6555 14.2842H19.9792V16.2963H19.646L19.6555 14.2842ZM15.3899 15.0811V15.4197H13.676V15.091L15.3899 15.0811ZM19.1318 15.0811V15.4197H17.418V15.091L19.1318 15.0811Z" fill="white"/>
<path fill-rule="evenodd" clip-rule="evenodd" d="M17.4275 15.1709H17.7512V16.2965H17.4275V15.1709Z" fill="white"/>
<path fill-rule="evenodd" clip-rule="evenodd" d="M17.4275 15.1709H17.7512V16.2965H17.4275V15.1709Z" fill="white"/>
<path fill-rule="evenodd" clip-rule="evenodd" d="M17.4275 15.1709H17.7512V16.2965H17.4275V15.1709ZM13.6855 15.1709H14.0093V16.2965H13.6855V15.1709ZM16.4277 15.1709H16.7515V16.2965H16.4277V15.1709ZM15.0662 15.1709H15.3899V16.2965H15.0662V15.1709Z" fill="white"/>
<path fill-rule="evenodd" clip-rule="evenodd" d="M16.6562 15.9574V16.2961H15.209V15.9574H16.6562ZM16.7515 15.0908V15.4195H15.8374V15.0908H16.7515Z" fill="white"/>
<path fill-rule="evenodd" clip-rule="evenodd" d="M21.3313 14.2842H26.0063V14.6229H21.3408L21.3313 14.2842ZM22.0359 15.9775H22.3501V16.2963H22.0359V15.9775ZM26.0159 15.9576V16.2963H25.0828V15.9576H26.0159ZM26.5205 14.2842H26.8442V16.2963H26.5205V14.2842Z" fill="white"/>
<path fill-rule="evenodd" clip-rule="evenodd" d="M28.3867 15.9578V16.2965H26.6157V15.9578H28.3867ZM25.0828 15.1709H25.4065V16.2965H25.0828V15.1709Z" fill="white"/>
<path fill-rule="evenodd" clip-rule="evenodd" d="M28.1199 14.2842H28.4436V16.2963H28.1199V14.2842ZM27.3105 14.2842H27.6343V16.2963H27.3105V14.2842ZM23.0449 15.0811V15.4197H21.3406V15.091L23.0449 15.0811ZM26.7869 15.0811V15.4197H25.0825V15.091L26.7869 15.0811Z" fill="white"/>
<path fill-rule="evenodd" clip-rule="evenodd" d="M25.0828 15.1709H25.4065V16.2965H25.0828V15.1709Z" fill="white"/>
<path fill-rule="evenodd" clip-rule="evenodd" d="M25.0828 15.1709H25.4065V16.2965H25.0828V15.1709Z" fill="white"/>
<path fill-rule="evenodd" clip-rule="evenodd" d="M25.0828 15.1709H25.4065V16.2965H25.0828V15.1709ZM21.3408 15.1709H21.6646V16.2965H21.3408V15.1709ZM24.083 15.1709H24.4067V16.2965H24.083V15.1709ZM22.731 15.1709H23.0452V16.2965H22.731V15.1709Z" fill="white"/>
<path fill-rule="evenodd" clip-rule="evenodd" d="M24.3115 15.9574V16.2961H22.8738V15.9574H24.3115ZM24.4067 15.0908V15.4195H23.4927V15.0908H24.4067Z" fill="white"/>
<path fill-rule="evenodd" clip-rule="evenodd" d="M29.0247 14.2842H33.6902V14.6229H29.0247V14.2842ZM29.7197 15.9775H30.0435V16.2963H29.7197V15.9775ZM33.7092 15.9576V16.2963H32.7761V15.9576H33.7092ZM34.2139 14.2842H34.5281V16.2963H34.2139V14.2842Z" fill="white"/>
<path fill-rule="evenodd" clip-rule="evenodd" d="M36.0706 15.9578V16.2965H34.2996V15.9578H36.0706ZM32.7761 15.1709H33.0999V16.2965H32.7761V15.1709Z" fill="white"/>
<path fill-rule="evenodd" clip-rule="evenodd" d="M35.804 14.2842H36.1277V16.2963H35.804V14.2842ZM35.0041 14.2842H35.3279V16.2963H35.0041V14.2842ZM30.7385 15.0811V15.4197H29.0247V15.091L30.7385 15.0811ZM34.4805 15.0811V15.4197H32.7666V15.091L34.4805 15.0811Z" fill="white"/>
<path fill-rule="evenodd" clip-rule="evenodd" d="M32.7761 15.1709H33.0999V16.2965H32.7761V15.1709Z" fill="white"/>
<path fill-rule="evenodd" clip-rule="evenodd" d="M32.7761 15.1709H33.0999V16.2965H32.7761V15.1709Z" fill="white"/>
<path fill-rule="evenodd" clip-rule="evenodd" d="M32.7761 15.1709H33.0999V16.2965H32.7761V15.1709ZM29.0342 15.1709H29.3484V16.2965H29.0342V15.1709ZM31.7764 15.1709H32.1001V16.2965H31.7764V15.1709ZM30.4148 15.1709H30.7385V16.2965H30.4053L30.4148 15.1709Z" fill="white"/>
<path fill-rule="evenodd" clip-rule="evenodd" d="M32.0049 15.9574V16.2961H30.5576V15.9574H32.0049ZM32.1001 15.0908V15.4195H31.167V15.0908H32.1001Z" fill="white"/>
<path fill-rule="evenodd" clip-rule="evenodd" d="M36.7561 14.2842H41.4216V14.6229H36.7561V14.2842ZM37.4512 15.9775H37.7749V16.2963H37.4512V15.9775ZM41.4407 15.9576V16.2963H40.498V15.9576H41.4407ZM41.9453 14.2842H42.2595V16.2963H41.9453V14.2842Z" fill="white"/>
<path fill-rule="evenodd" clip-rule="evenodd" d="M43.802 15.9578V16.2965H42.031V15.9578H43.802ZM40.5076 15.1709H40.8313V16.2965H40.498L40.5076 15.1709Z" fill="white"/>
<path fill-rule="evenodd" clip-rule="evenodd" d="M43.5449 14.2842H43.8591V16.2963H43.5449V14.2842ZM42.7356 14.2842H43.0593V16.2963H42.7356V14.2842ZM38.47 15.0811V15.4197H36.7561V15.091L38.47 15.0811ZM42.2119 15.0811V15.4197H40.498V15.091L42.2119 15.0811Z" fill="white"/>
<path fill-rule="evenodd" clip-rule="evenodd" d="M40.498 15.1709H40.8313V16.2965H40.498V15.1709Z" fill="white"/>
<path fill-rule="evenodd" clip-rule="evenodd" d="M40.498 15.1709H40.8313V16.2965H40.498V15.1709Z" fill="white"/>
<path fill-rule="evenodd" clip-rule="evenodd" d="M40.498 15.1709H40.8313V16.2965H40.498V15.1709ZM36.7656 15.1709H37.0894V16.2965H36.7656V15.1709ZM39.5078 15.1709H39.8315V16.2965H39.5078V15.1709ZM38.1462 15.1709H38.47V16.2965H38.1462V15.1709Z" fill="white"/>
<path fill-rule="evenodd" clip-rule="evenodd" d="M39.7363 15.9574V16.2961H38.2891V15.9574H39.7363ZM39.8315 15.0908V15.4195H38.9175V15.0908H39.8315Z" fill="white"/>
<path fill-rule="evenodd" clip-rule="evenodd" d="M44.4399 14.2842H49.1055V14.6229H44.4399V14.2842ZM45.135 15.9775H45.4587V16.2963H45.135V15.9775ZM49.134 15.9576V16.2963H48.1914V15.9576H49.134ZM49.6291 14.2842H49.9529V16.2963H49.6291V14.2842Z" fill="white"/>
<path fill-rule="evenodd" clip-rule="evenodd" d="M51.4858 15.9578V16.2965H49.7148V15.9578H51.4858ZM48.1914 15.1709H48.5151V16.2965H48.1914V15.1709Z" fill="white"/>
<path fill-rule="evenodd" clip-rule="evenodd" d="M51.2285 14.2842H51.5427V16.2963H51.2285V14.2842ZM50.4192 14.2842H50.7429V16.2963H50.4192V14.2842ZM46.1536 15.0811V15.4197H44.4492V15.091L46.1536 15.0811ZM49.8955 15.0811V15.4197H48.1912V15.091L49.8955 15.0811Z" fill="white"/>
<path fill-rule="evenodd" clip-rule="evenodd" d="M48.1914 15.1709H48.5151V16.2965H48.1914V15.1709Z" fill="white"/>
<path fill-rule="evenodd" clip-rule="evenodd" d="M48.1914 15.1709H48.5151V16.2965H48.1914V15.1709Z" fill="white"/>
<path fill-rule="evenodd" clip-rule="evenodd" d="M48.1914 15.1709H48.5151V16.2965H48.1914V15.1709ZM44.4495 15.1709H44.7732V16.2965H44.4495V15.1709ZM47.1916 15.1709H47.5154V16.2965H47.1916V15.1709ZM45.8301 15.1709H46.1538V16.2965H45.8396L45.8301 15.1709Z" fill="white"/>
<path fill-rule="evenodd" clip-rule="evenodd" d="M47.4202 15.9574V16.2961H45.9824V15.9574H47.4202ZM47.5154 15.0908V15.4195H46.5918V15.0908H47.5154Z" fill="white"/>
<path fill-rule="evenodd" clip-rule="evenodd" d="M52.1333 14.2842H56.7988V14.6229H52.1333V14.2842ZM52.8284 15.9775H53.1521V16.2963H52.8284V15.9775ZM56.8179 15.9576V16.2963H55.8848V15.9576H56.8179ZM57.313 14.2842H57.6367V16.2963H57.313V14.2842Z" fill="white"/>
<path fill-rule="evenodd" clip-rule="evenodd" d="M59.1792 15.9578V16.2965H57.4082V15.9578H59.1792ZM55.8752 15.1709H56.199V16.2965H55.8752V15.1709Z" fill="white"/>
<path fill-rule="evenodd" clip-rule="evenodd" d="M58.9126 14.2842H59.2363V16.2963H58.9126V14.2842ZM58.1128 14.2842H58.427V16.2963H58.1128V14.2842ZM53.8472 15.0811V15.4197H52.1333V15.091L53.8472 15.0811ZM57.5891 15.0811V15.4197H55.8752V15.091L57.5891 15.0811Z" fill="white"/>
<path fill-rule="evenodd" clip-rule="evenodd" d="M55.8848 15.1709H56.199V16.2965H55.8848V15.1709Z" fill="white"/>
<path fill-rule="evenodd" clip-rule="evenodd" d="M55.8848 15.1709H56.199V16.2965H55.8848V15.1709Z" fill="white"/>
<path fill-rule="evenodd" clip-rule="evenodd" d="M55.8848 15.1709H56.199V16.2965H55.8848V15.1709ZM52.1333 15.1709H52.457V16.2965H52.1333V15.1709ZM54.885 15.1709H55.1992V16.2965H54.885V15.1709ZM53.5234 15.1709H53.8472V16.2965H53.5234V15.1709Z" fill="white"/>
<path fill-rule="evenodd" clip-rule="evenodd" d="M55.104 15.9574V16.2961H53.6663V15.9574H55.104ZM55.1992 15.0908V15.4195H54.2852V15.0908H55.1992Z" fill="white"/>
<path fill-rule="evenodd" clip-rule="evenodd" d="M59.8647 14.2842H64.5303V14.6229H59.8647V14.2842ZM60.5598 15.9775H60.8835V16.2963H60.5598V15.9775ZM64.5493 15.9576V16.2963H63.6162V15.9576H64.5493ZM65.0444 14.2842H65.3682V16.2963H65.0444V14.2842Z" fill="white"/>
<path fill-rule="evenodd" clip-rule="evenodd" d="M66.9106 15.9578V16.2965H65.1396V15.9578H66.9106ZM63.6162 15.1709H63.9304V16.2965H63.6162V15.1709Z" fill="white"/>
<path fill-rule="evenodd" clip-rule="evenodd" d="M66.644 14.2842H66.9678V16.2963H66.644V14.2842ZM65.8442 14.2842H66.1584V16.2963H65.8442V14.2842ZM61.5786 15.0811V15.4197H59.8647V15.091L61.5786 15.0811ZM65.3206 15.0811V15.4197H63.6067V15.091L65.3206 15.0811Z" fill="white"/>
<path fill-rule="evenodd" clip-rule="evenodd" d="M63.6162 15.1709H63.9304V16.2965H63.6162V15.1709Z" fill="white"/>
<path fill-rule="evenodd" clip-rule="evenodd" d="M63.6162 15.1709H63.9304V16.2965H63.6162V15.1709Z" fill="white"/>
<path fill-rule="evenodd" clip-rule="evenodd" d="M63.6162 15.1709H63.9304V16.2965H63.6162V15.1709ZM59.8743 15.1709H60.1885V16.2965H59.8743V15.1709ZM62.6165 15.1709H62.9402V16.2965H62.6165V15.1709ZM61.2549 15.1709H61.5786V16.2965H61.2549V15.1709Z" fill="white"/>
<path fill-rule="evenodd" clip-rule="evenodd" d="M62.8354 15.9574V16.2961H61.3977V15.9574H62.8354ZM62.9307 15.0908V15.4195H62.0166V15.0908H62.9307Z" fill="white"/>
<path fill-rule="evenodd" clip-rule="evenodd" d="M1.57422 33.8174H2.14551V34.8633H1.57422V33.8174ZM16.8562 33.8174H17.4275V34.8633H16.8562V33.8174ZM-10.1562 33.8174H-9.58496V34.8633H-10.1562V33.8174ZM-2.39624 33.8174H-1.82495V34.8633H-2.39624V33.8174ZM5.30664 33.8174H5.87793V34.8633H5.30664V33.8174ZM9.11523 33.8174H9.68652V34.8633H9.11523V33.8174ZM13.0095 33.8174H13.5808V34.8633H13.0095V33.8174ZM20.6648 33.8174H21.2361V34.8633H20.6648V33.8174ZM39.9934 33.8174H40.5742V34.8633H40.0029L39.9934 33.8174ZM24.5591 33.8174H25.1304V34.8633H24.5591V33.8174ZM28.3677 33.8174H28.939V34.8633H28.3677V33.8174ZM32.2239 33.8174H32.7952V34.8633H32.2239V33.8174ZM36.0706 33.8174H36.6418V34.8633H36.0706V33.8174ZM66.844 33.8174H67.4153V34.8633H66.844V33.8174ZM43.7354 33.8174H44.3066V34.8633H43.7354V33.8174ZM47.6201 33.8174H48.1914V34.8633H47.6201V33.8174ZM51.5525 33.8174H52.1238V34.8633H51.5525V33.8174ZM55.2468 33.8174H55.8181V34.8633H55.2468V33.8174ZM59.1792 33.8174H59.7505V34.8633H59.1792V33.8174ZM63.0259 33.8174H63.5972V34.8633H63.0259V33.8174ZM74.4231 33.8174H74.9944V34.8633H74.4231V33.8174ZM70.7288 33.8174H71.3V34.8633H70.7288V33.8174ZM-6.29053 33.8174H-5.71924V34.8633H-6.29053V33.8174Z" fill="#D90000"/>
<path fill-rule="evenodd" clip-rule="evenodd" d="M1.57422 16.1968H2.14551V17.2427H1.57422V16.1968ZM16.8562 16.1968H17.4275V17.2427H16.8562V16.1968ZM-10.1562 16.1968H-9.58496V17.2427H-10.1562V16.1968ZM-2.39624 16.1968H-1.82495V17.2427H-2.39624V16.1968ZM5.30664 16.1968H5.87793V17.2427H5.30664V16.1968ZM9.11523 16.1968H9.68652V17.2427H9.11523V16.1968ZM13.0095 16.1968H13.5808V17.2427H13.0095V16.1968ZM20.6648 16.1968H21.2361V17.2427H20.6648V16.1968ZM39.9934 16.1968H40.5742V17.2427H40.0029L39.9934 16.1968ZM24.5591 16.1968H25.1304V17.2427H24.5591V16.1968ZM28.3677 16.1968H28.939V17.2427H28.3677V16.1968ZM32.2239 16.1968H32.7952V17.2427H32.2239V16.1968ZM36.0706 16.1968H36.6418V17.2427H36.0706V16.1968ZM66.844 16.1968H67.4153V17.2427H66.844V16.1968ZM43.7354 16.1968H44.3066V17.2427H43.7354V16.1968ZM47.6201 16.1968H48.1914V17.2427H47.6201V16.1968ZM51.5525 16.1968H52.1238V17.2427H51.5525V16.1968ZM55.2468 16.1968H55.8181V17.2427H55.2468V16.1968ZM59.1792 16.1968H59.7505V17.2427H59.1792V16.1968ZM63.0259 16.1968H63.5972V17.2427H63.0259V16.1968ZM74.4231 16.1968H74.9944V17.2427H74.4231V16.1968ZM70.7288 16.1968H71.3V17.2427H70.7288V16.1968ZM-6.29053 16.1968H-5.71924V17.2427H-6.29053V16.1968Z" fill="#239E3F"/>
<path fill-rule="evenodd" clip-rule="evenodd" d="M34.766 19.6729C35.5658 20.7088 38.0509 26.4064 33.2711 30.1518C31.0145 31.9248 32.4142 32.0045 32.4809 32.3033C36.099 30.3012 37.2702 27.5719 37.2416 25.1314C37.2226 22.701 35.9848 20.5494 34.766 19.6729Z" fill="#DA0000"/>
<path fill-rule="evenodd" clip-rule="evenodd" d="M35.2421 19.4043C36.1255 19.9667 36.8784 20.7274 37.4464 21.6314C38.0144 22.5354 38.3833 23.5602 38.5263 24.6317C38.6694 25.7031 38.5831 26.7944 38.2736 27.8266C37.9642 28.8589 37.4393 29.8063 36.737 30.6004C39.3268 30.0027 42.6403 21.9941 35.2421 19.4043V19.4043ZM29.7577 19.4043C28.875 19.9675 28.1229 20.7288 27.5559 21.6333C26.9888 22.5377 26.6209 23.5627 26.4788 24.6341C26.3366 25.7055 26.4238 26.7965 26.734 27.8283C27.0442 28.8601 27.5696 29.807 28.2724 30.6004C25.673 30.0027 22.3691 21.9941 29.7577 19.4043V19.4043Z" fill="#DA0000"/>
<path fill-rule="evenodd" clip-rule="evenodd" d="M30.2337 19.6729C29.4339 20.7088 26.9487 26.4064 31.7285 30.1518C33.9756 31.9248 32.5855 32.0045 32.5188 32.3033C28.9007 30.3012 27.7295 27.5719 27.7581 25.1314C27.7771 22.701 29.0149 20.5494 30.2337 19.6729Z" fill="#DA0000"/>
<path fill-rule="evenodd" clip-rule="evenodd" d="M37.0894 31.7855C35.6707 31.8055 33.8901 31.5863 32.5667 30.8592C32.7856 31.3074 32.9666 31.5863 33.1855 32.0246C34.4424 32.1541 36.1848 32.3035 37.0894 31.7855ZM28.0439 31.7855C29.4626 31.8055 31.2432 31.5863 32.5667 30.8592C32.3477 31.3074 32.1667 31.5863 31.9478 32.0246C30.6909 32.1541 28.9485 32.3035 28.0439 31.7855ZM30.6433 17.9697C30.929 18.7666 31.6812 18.8861 32.481 18.418C33.0713 18.7766 33.9758 18.8064 34.29 18.0096C34.5281 19.9818 32.5476 19.5037 32.481 19.1252C31.7383 19.8723 30.3672 19.4439 30.6433 17.9697Z" fill="#DA0000"/>
<path fill-rule="evenodd" clip-rule="evenodd" d="M32.5381 33.0309L33.2808 32.1344L33.3855 20.1713L32.5 19.3545L31.6145 20.1314L31.7954 32.1842L32.5381 33.0309Z" fill="#DA0000"/>
</g>
<defs>
<clipPath id="clip0_806_579">
<rect width="65" height="51" fill="white"/>
</clipPath>
</defs>
</svg>
