<svg width="65" height="51" viewBox="0 0 65 51" fill="none" xmlns="http://www.w3.org/2000/svg">
<g clip-path="url(#clip0_806_1697)">
<path d="M-0.000244141 34H64.9998V51H-0.000244141V34Z" fill="#1EB53A"/>
<path d="M0 0H65V17H0V0Z" fill="#0099B5"/>
<path d="M-0.000244141 16.3198H64.9998V34.6798H-0.000244141V16.3198Z" fill="#CE1126"/>
<path d="M-0.000244141 17.3398H64.9998V33.6598H-0.000244141V17.3398Z" fill="white"/>
<path d="M13.6498 14.28C16.8807 14.28 19.4998 11.54 19.4998 8.16004C19.4998 4.78006 16.8807 2.04004 13.6498 2.04004C10.4189 2.04004 7.7998 4.78006 7.7998 8.16004C7.7998 11.54 10.4189 14.28 13.6498 14.28Z" fill="white"/>
<path d="M15.6 14.28C18.8309 14.28 21.45 11.54 21.45 8.16004C21.45 4.78006 18.8309 2.04004 15.6 2.04004C12.3691 2.04004 9.75 4.78006 9.75 8.16004C9.75 11.54 12.3691 14.28 15.6 14.28Z" fill="#0099B5"/>
<path d="M26.518 11.834L26.1475 12.9968L26.713 13.2008" fill="white"/>
<path d="M26.5179 11.834L26.8884 12.9968L26.3229 13.2008" fill="white"/>
<path d="M27.6333 12.6739L26.4607 12.6779L26.4436 13.296" fill="white"/>
<path d="M27.6347 12.6767L26.6838 13.4064L26.3283 12.9169" fill="white"/>
<path d="M25.4014 12.6767L26.3523 13.4064L26.7078 12.9169" fill="white"/>
<path d="M25.4035 12.6739L26.5762 12.6779L26.5932 13.296" fill="white"/>
<path d="M27.2031 14.0468L26.8559 12.879L26.2802 13.0661" fill="white"/>
<path d="M27.2048 14.0455L26.2526 13.3384L26.6003 12.8224" fill="white"/>
<path d="M25.8294 14.0501L26.7832 13.3325L26.4442 12.8224" fill="white"/>
<path d="M25.8278 14.049L26.1865 12.8798L26.7557 13.0589" fill="white"/>
<path d="M26.518 6.93799L26.1475 8.10079L26.713 8.30479" fill="white"/>
<path d="M26.5179 6.93799L26.8884 8.10079L26.3229 8.30479" fill="white"/>
<path d="M27.6329 7.77789L26.4602 7.78187L26.4431 8.40005" fill="white"/>
<path d="M27.6342 7.78071L26.6833 8.51039L26.3278 8.02093" fill="white"/>
<path d="M25.4014 7.78071L26.3523 8.51039L26.7078 8.02093" fill="white"/>
<path d="M25.4035 7.77789L26.5762 7.78187L26.5932 8.40005" fill="white"/>
<path d="M27.2029 9.15077L26.8556 7.98298L26.2799 8.17012" fill="white"/>
<path d="M27.2048 9.14952L26.2526 8.44245L26.6003 7.92638" fill="white"/>
<path d="M25.8294 9.15461L26.7832 8.43696L26.4442 7.92687" fill="white"/>
<path d="M25.828 9.15349L26.1867 7.98432L26.756 8.16339" fill="white"/>
<path d="M26.518 2.04199L26.1475 3.20479L26.713 3.40879" fill="white"/>
<path d="M26.5179 2.04199L26.8884 3.20479L26.3229 3.40879" fill="white"/>
<path d="M27.6329 2.88189L26.4602 2.88588L26.4431 3.50405" fill="white"/>
<path d="M27.6342 2.88471L26.6833 3.61439L26.3278 3.12493" fill="white"/>
<path d="M25.4014 2.88471L26.3523 3.61439L26.7078 3.12493" fill="white"/>
<path d="M25.4035 2.88189L26.5762 2.88588L26.5932 3.50405" fill="white"/>
<path d="M27.2034 4.25477L26.8561 3.08698L26.2804 3.27412" fill="white"/>
<path d="M27.2048 4.25353L26.2526 3.54645L26.6003 3.03039" fill="white"/>
<path d="M25.8294 4.25813L26.7832 3.54048L26.4442 3.03039" fill="white"/>
<path d="M25.8278 4.25701L26.1865 3.08784L26.7557 3.26691" fill="white"/>
<path d="M31.1974 11.834L30.8269 12.9968L31.3924 13.2008" fill="white"/>
<path d="M31.1976 11.834L31.5681 12.9968L31.0026 13.2008" fill="white"/>
<path d="M32.3116 12.6739L31.1389 12.6779L31.1218 13.296" fill="white"/>
<path d="M32.3137 12.6767L31.3628 13.4064L31.0073 12.9169" fill="white"/>
<path d="M30.0811 12.6767L31.032 13.4064L31.3875 12.9169" fill="white"/>
<path d="M30.0825 12.6739L31.2551 12.6779L31.2722 13.296" fill="white"/>
<path d="M31.8826 14.0468L31.5353 12.879L30.9596 13.0661" fill="white"/>
<path d="M31.8843 14.0455L30.932 13.3384L31.2797 12.8224" fill="white"/>
<path d="M30.5091 14.0501L31.4628 13.3325L31.1239 12.8224" fill="white"/>
<path d="M30.5077 14.049L30.8664 12.8798L31.4356 13.0589" fill="white"/>
<path d="M31.1974 6.93799L30.8269 8.10079L31.3924 8.30479" fill="white"/>
<path d="M31.1976 6.93799L31.5681 8.10079L31.0026 8.30479" fill="white"/>
<path d="M32.3116 7.77789L31.1389 7.78187L31.1218 8.40005" fill="white"/>
<path d="M32.3137 7.78071L31.3628 8.51039L31.0073 8.02093" fill="white"/>
<path d="M30.0808 7.78071L31.0318 8.51039L31.3873 8.02093" fill="white"/>
<path d="M30.0825 7.77789L31.2551 7.78187L31.2722 8.40005" fill="white"/>
<path d="M31.8826 9.15077L31.5353 7.98298L30.9596 8.17012" fill="white"/>
<path d="M31.8843 9.14952L30.932 8.44245L31.2797 7.92638" fill="white"/>
<path d="M30.5091 9.15413L31.4628 8.43647L31.1239 7.92638" fill="white"/>
<path d="M30.5077 9.153L30.8664 7.98384L31.4356 8.1629" fill="white"/>
<path d="M31.1974 2.04199L30.8269 3.20479L31.3924 3.40879" fill="white"/>
<path d="M31.1976 2.04199L31.5681 3.20479L31.0026 3.40879" fill="white"/>
<path d="M32.3116 2.88189L31.1389 2.88588L31.1218 3.50405" fill="white"/>
<path d="M32.3134 2.88471L31.3625 3.61439L31.007 3.12493" fill="white"/>
<path d="M30.0813 2.88471L31.0322 3.61439L31.3878 3.12493" fill="white"/>
<path d="M30.0827 2.88238L31.2554 2.88637L31.2724 3.50454" fill="white"/>
<path d="M31.8826 4.25477L31.5353 3.08698L30.9596 3.27412" fill="white"/>
<path d="M31.8843 4.25353L30.932 3.54645L31.2797 3.03039" fill="white"/>
<path d="M30.5091 4.25813L31.4628 3.54048L31.1239 3.03039" fill="white"/>
<path d="M30.5077 4.25701L30.8664 3.08784L31.4356 3.26691" fill="white"/>
<path d="M35.8781 11.834L35.5076 12.9968L36.0731 13.2008" fill="white"/>
<path d="M35.8778 11.834L36.2483 12.9968L35.6828 13.2008" fill="white"/>
<path d="M36.9932 12.6739L35.8205 12.6779L35.8035 13.296" fill="white"/>
<path d="M36.9946 12.6767L36.0437 13.4064L35.6882 12.9169" fill="white"/>
<path d="M34.7615 12.6767L35.7124 13.4064L36.0679 12.9169" fill="white"/>
<path d="M34.7636 12.6739L35.9363 12.6779L35.9533 13.296" fill="white"/>
<path d="M36.563 14.0468L36.2157 12.879L35.64 13.0661" fill="white"/>
<path d="M36.564 14.0455L35.6117 13.3384L35.9594 12.8224" fill="white"/>
<path d="M35.1891 14.0501L36.1428 13.3325L35.8038 12.8224" fill="white"/>
<path d="M35.1881 14.049L35.5468 12.8798L36.1161 13.0589" fill="white"/>
<path d="M35.8781 6.93799L35.5076 8.10079L36.0731 8.30479" fill="white"/>
<path d="M35.8778 6.93799L36.2483 8.10079L35.6828 8.30479" fill="white"/>
<path d="M36.9932 7.77789L35.8205 7.78187L35.8035 8.40005" fill="white"/>
<path d="M36.9946 7.78071L36.0437 8.51039L35.6882 8.02093" fill="white"/>
<path d="M34.7615 7.78071L35.7124 8.51039L36.0679 8.02093" fill="white"/>
<path d="M34.7636 7.77789L35.9363 7.78187L35.9533 8.40005" fill="white"/>
<path d="M36.563 9.15077L36.2157 7.98298L35.64 8.17012" fill="white"/>
<path d="M36.564 9.14952L35.6117 8.44245L35.9594 7.92638" fill="white"/>
<path d="M35.1891 9.15461L36.1428 8.43696L35.8038 7.92687" fill="white"/>
<path d="M35.1881 9.15349L35.5468 7.98432L36.1161 8.16339" fill="white"/>
<path d="M35.8781 2.04199L35.5076 3.20479L36.0731 3.40879" fill="white"/>
<path d="M35.8778 2.04199L36.2483 3.20479L35.6828 3.40879" fill="white"/>
<path d="M36.9932 2.88189L35.8205 2.88588L35.8035 3.50405" fill="white"/>
<path d="M36.9946 2.88471L36.0437 3.61439L35.6882 3.12493" fill="white"/>
<path d="M34.7615 2.88471L35.7124 3.61439L36.0679 3.12493" fill="white"/>
<path d="M34.7636 2.88189L35.9363 2.88588L35.9533 3.50405" fill="white"/>
<path d="M36.563 4.25477L36.2157 3.08698L35.64 3.27412" fill="white"/>
<path d="M36.564 4.25353L35.6117 3.54645L35.9594 3.03039" fill="white"/>
<path d="M35.1891 4.25813L36.1428 3.54048L35.8038 3.03039" fill="white"/>
<path d="M35.1881 4.25701L35.5468 3.08784L36.1161 3.26691" fill="white"/>
<path d="M17.1581 11.834L16.7876 12.9968L17.3531 13.2008" fill="white"/>
<path d="M17.1588 11.834L17.5293 12.9968L16.9638 13.2008" fill="white"/>
<path d="M18.2732 12.6739L17.1006 12.6779L17.0835 13.296" fill="white"/>
<path d="M18.2754 12.6767L17.3244 13.4064L16.9689 12.9169" fill="white"/>
<path d="M16.0415 12.6767L16.9925 13.4064L17.348 12.9169" fill="white"/>
<path d="M16.0439 12.6739L17.2166 12.6779L17.2336 13.296" fill="white"/>
<path d="M17.843 14.0468L17.4957 12.879L16.9201 13.0661" fill="white"/>
<path d="M17.8442 14.0455L16.892 13.3384L17.2397 12.8224" fill="white"/>
<path d="M16.4693 14.0501L17.4231 13.3325L17.0841 12.8224" fill="white"/>
<path d="M16.4687 14.049L16.8274 12.8798L17.3966 13.0589" fill="white"/>
<path d="M21.8375 11.834L21.467 12.9968L22.0325 13.2008" fill="white"/>
<path d="M21.8373 11.834L22.2078 12.9968L21.6423 13.2008" fill="white"/>
<path d="M22.9527 12.6739L21.78 12.6779L21.763 13.296" fill="white"/>
<path d="M22.9533 12.6767L22.0024 13.4064L21.6469 12.9169" fill="white"/>
<path d="M20.721 12.6767L21.6719 13.4064L22.0274 12.9169" fill="white"/>
<path d="M20.7229 12.6739L21.8955 12.6779L21.9126 13.296" fill="white"/>
<path d="M22.5227 14.0468L22.1754 12.879L21.5998 13.0661" fill="white"/>
<path d="M22.5237 14.0455L21.5714 13.3384L21.9191 12.8224" fill="white"/>
<path d="M21.1488 14.0501L22.1025 13.3325L21.7635 12.8224" fill="white"/>
<path d="M21.1483 14.049L21.507 12.8798L22.0763 13.0589" fill="white"/>
<path d="M21.8375 6.93799L21.467 8.10079L22.0325 8.30479" fill="white"/>
<path d="M21.8373 6.93799L22.2078 8.10079L21.6423 8.30479" fill="white"/>
<path d="M22.9527 7.77789L21.78 7.78187L21.763 8.40005" fill="white"/>
<path d="M22.9541 7.78071L22.0032 8.51039L21.6476 8.02093" fill="white"/>
<path d="M20.721 7.78071L21.6719 8.51039L22.0274 8.02093" fill="white"/>
<path d="M20.7229 7.77789L21.8955 7.78187L21.9126 8.40005" fill="white"/>
<path d="M22.5227 9.15077L22.1754 7.98298L21.5998 8.17012" fill="white"/>
<path d="M22.5237 9.14952L21.5714 8.44245L21.9191 7.92638" fill="white"/>
<path d="M21.1488 9.15461L22.1025 8.43696L21.7635 7.92687" fill="white"/>
<path d="M21.1483 9.15349L21.507 7.98432L22.0763 8.16339" fill="white"/>
</g>
<defs>
<clipPath id="clip0_806_1697">
<rect width="65" height="51" fill="white"/>
</clipPath>
</defs>
</svg>
