<svg width="65" height="51" viewBox="0 0 65 51" fill="none" xmlns="http://www.w3.org/2000/svg">
<g clip-path="url(#clip0_806_1533)">
<path d="M0 17H65V34H0V17Z" fill="white"/>
<path d="M0 0H65V17H0V0Z" fill="#CE1126"/>
<path d="M0 34H65V51H0V34Z" fill="black"/>
<path d="M39.7025 22.3777C39.6099 22.3311 39.5256 22.2682 39.4535 22.1915C39.4001 22.0985 39.4357 22.0985 39.667 22.1543C40.0762 22.2846 40.3431 22.2287 40.6099 22.0054L40.8412 21.8006L41.1081 21.9309C41.2682 22.024 41.4284 22.0798 41.4639 22.0612C41.5885 22.024 41.8376 21.689 41.8198 21.5773C41.8198 21.447 41.9265 21.4842 41.9977 21.6331C42.1045 21.9309 41.9443 22.2846 41.6419 22.359C41.5173 22.3963 41.3928 22.3777 41.1793 22.3032C40.9302 22.2101 40.8768 22.2101 40.7523 22.3032C40.6032 22.4211 40.4245 22.4909 40.238 22.5041C40.0516 22.5173 39.8655 22.4734 39.7025 22.3777V22.3777ZM40.7345 21.3912C40.614 21.1635 40.5527 20.9068 40.5566 20.6466C40.5743 20.535 40.6099 20.4977 40.6989 20.535C40.8768 20.5908 40.9124 20.7211 40.8768 21.0933C40.8768 21.4284 40.8234 21.5214 40.7345 21.3912ZM28.7071 21.0375C28.6893 21.2795 29.1341 21.8937 29.3299 22.0054C29.1875 22.0612 29.0274 22.0426 28.9028 22.0985C28.1912 22.843 25.6291 25.4488 25.1665 26.0817C26.5543 26.1189 28.0844 26.063 29.3832 26.0072C29.3832 25.0207 30.2728 24.9649 30.8777 24.6112C31.1802 25.1138 31.9453 25.0765 32.052 25.8397V29.1156H20.2204C20.1756 29.364 20.0815 29.5998 19.9442 29.8077C19.8068 30.0156 19.6292 30.1911 19.4229 30.3227C19.2166 30.4543 18.9862 30.5391 18.7466 30.5716C18.507 30.6041 18.2636 30.5837 18.032 30.5116C18.3878 30.1393 18.9927 29.9904 19.2063 29.4506C19.3842 28.2594 18.8504 27.5335 18.4946 26.8448C18.9421 26.6947 19.3629 26.4683 19.74 26.1747C19.3308 27.4776 20.8431 27.3473 21.9462 27.3101C21.9818 26.8634 21.964 26.3422 21.6437 26.2678C22.053 26.1003 22.1241 26.0444 22.818 25.4488V27.2357L31.0201 27.2171C31.0201 26.6587 31.1624 25.7466 30.7354 25.7466C30.344 25.7466 30.7354 26.9006 30.4152 26.9006H24.0634V25.7838C24.3303 25.486 24.2947 25.5046 26.1273 23.5875C26.3052 23.4014 27.604 22.1729 28.7249 21.0375H28.7071ZM44.5597 20.9817C45.0045 21.2423 45.3604 21.5773 45.8941 21.7262C45.8408 21.9682 45.6273 22.0612 45.5739 22.3032V27.3287C46.1788 27.459 46.3211 27.0868 46.6058 26.9006C46.677 27.701 47.1751 28.4827 47.1396 29.1342H44.5597V21.0003V20.9817ZM41.1081 23.6806C41.1081 23.6806 42.0511 22.843 42.0511 22.8058V27.1798H42.7272L42.7094 22.2846C42.9763 21.9868 43.5278 21.5773 43.6524 21.2795V29.097H37.7098C37.6209 27.4776 37.6031 25.8025 39.4179 26.1561V25.5046C39.3645 25.393 39.2577 25.5233 39.24 25.3744C39.5246 25.0765 39.6136 25.0021 40.3964 24.2948L40.4142 27.1798H41.1081V23.6806V23.6806ZM38.8663 27.1426C38.9909 27.3287 39.4357 27.3287 39.4001 26.9937C39.3467 26.7145 38.7774 26.8076 38.8663 27.1426Z" fill="#007A3D"/>
<path d="M21.6439 30.4184C21.8404 30.4184 21.9998 30.2517 21.9998 30.0461C21.9998 29.8405 21.8404 29.6738 21.6439 29.6738C21.4474 29.6738 21.2881 29.8405 21.2881 30.0461C21.2881 30.2517 21.4474 30.4184 21.6439 30.4184Z" fill="#007A3D"/>
<path d="M32.8528 21C33.2976 21.242 33.6534 21.5956 34.205 21.7445C34.1338 21.9679 33.9381 22.0609 33.8847 22.3029V27.3284C34.4896 27.4587 34.6142 27.1051 34.8989 26.9003C34.9878 27.7007 35.4682 28.5011 35.4504 29.1339H32.8528V21Z" fill="#007A3D"/>
</g>
<defs>
<clipPath id="clip0_806_1533">
<rect width="65" height="51" fill="white"/>
</clipPath>
</defs>
</svg>
